<svg width="24" height="23" viewBox="0 0 24 23" fill="none" xmlns="http://www.w3.org/2000/svg">
<path d="M6 12C7.18669 12 8.34673 11.6481 9.33342 10.9888C10.3201 10.3295 11.0892 9.39246 11.5433 8.2961C11.9974 7.19975 12.1162 5.99335 11.8847 4.82946C11.6532 3.66558 11.0818 2.59648 10.2426 1.75736C9.40353 0.918247 8.33443 0.346802 7.17054 0.115291C6.00666 -0.11622 4.80026 0.00259972 3.7039 0.456726C2.60754 0.910851 1.67047 1.67989 1.01118 2.66658C0.351894 3.65328 5.72205e-08 4.81331 5.72205e-08 6C5.72205e-08 7.5913 0.632141 9.11742 1.75736 10.2426C2.88258 11.3679 4.4087 12 6 12ZM6 1.5C6.89002 1.5 7.76005 1.76392 8.50007 2.25839C9.24009 2.75286 9.81686 3.45566 10.1575 4.27793C10.4981 5.10019 10.5872 6.00499 10.4135 6.87791C10.2399 7.75082 9.81132 8.55265 9.18198 9.18198C8.55264 9.81132 7.75082 10.2399 6.87791 10.4135C6.00499 10.5872 5.10019 10.4981 4.27792 10.1575C3.45566 9.81687 2.75285 9.24009 2.25839 8.50007C1.76392 7.76005 1.5 6.89002 1.5 6C1.50264 4.80734 1.9776 3.66428 2.82094 2.82094C3.66428 1.9776 4.80734 1.50264 6 1.5Z" transform="translate(5.69141)" fill="#999999"/>
<path d="M23.2901 7.79C22.8424 6.09656 22.0294 4.52165 20.9083 3.17588C19.7871 1.83011 18.3849 0.746109 16.8001 -3.8147e-07C15.3641 1.19214 13.5565 1.84469 11.6901 1.84469C9.82373 1.84469 8.0161 1.19214 6.58009 -3.8147e-07C4.9958 0.74834 3.5936 1.83291 2.47106 3.17823C1.34853 4.52355 0.532608 6.09731 0.0800903 7.79C-0.0149745 8.15183 -0.0255632 8.53068 0.0491429 8.89726C0.123849 9.26384 0.281849 9.60833 0.51093 9.90411C0.74001 10.1999 1.03404 10.439 1.37028 10.603C1.70652 10.767 2.07598 10.8515 2.45009 10.85H20.9201C21.2942 10.8515 21.6637 10.767 21.9999 10.603C22.3361 10.439 22.6302 10.1999 22.8593 9.90411C23.0883 9.60833 23.2463 9.26384 23.321 8.89726C23.3957 8.53068 23.3852 8.15183 23.2901 7.79ZM21.6801 8.98C21.5881 9.09342 21.4724 9.18533 21.3411 9.24925C21.2098 9.31317 21.0661 9.34756 20.9201 9.35H2.45009C2.30578 9.34612 2.16402 9.31104 2.03455 9.24717C1.90509 9.1833 1.79099 9.09215 1.70009 8.98C1.60974 8.86804 1.54723 8.73625 1.51768 8.59545C1.48812 8.45464 1.49238 8.30884 1.53009 8.17C1.8867 6.83244 2.50404 5.5785 3.34665 4.48019C4.18925 3.38189 5.24052 2.46086 6.44009 1.77C7.99546 2.79993 9.81963 3.34914 11.6851 3.34914C13.5505 3.34914 15.3747 2.79993 16.9301 1.77C18.131 2.45912 19.1834 3.3796 20.0262 4.47817C20.869 5.57673 21.4855 6.83155 21.8401 8.17C21.8726 8.30862 21.8752 8.45259 21.8476 8.59228C21.82 8.73197 21.7629 8.86416 21.6801 8.98Z" transform="translate(0 12.1499)" fill="#999999"/>
</svg>
