<svg class="add-img-icon" xmlns="http://www.w3.org/2000/svg" viewBox="0 0 19.1 19.73"><title>Ресурс 47</title><g id="Слой_2" data-name="Слой 2"><g id="_1" data-name="1"><path d="M13.94,17h0a1.38,1.38,0,0,0,.67-.4.94.94,0,0,0,.23-.65.78.78,0,0,0-.36-.69,1.69,1.69,0,0,0-1-.25,3.1,3.1,0,0,0-.78.09,2.12,2.12,0,0,0-.66.32l.46.74a1.5,1.5,0,0,1,.81-.27.62.62,0,0,1,.33.08.26.26,0,0,1,.12.24c0,.29-.28.43-.84.43h-.25v.83h.25a2.27,2.27,0,0,1,.5.05.56.56,0,0,1,.28.13.36.36,0,0,1,.09.26.35.35,0,0,1-.17.32,1,1,0,0,1-.53.1,2.35,2.35,0,0,1-.51-.06A2.31,2.31,0,0,1,12,18v.92a3.33,3.33,0,0,0,.61.17,3.86,3.86,0,0,0,.61.05,2.09,2.09,0,0,0,1.25-.33,1,1,0,0,0,.45-.89C15,17.38,14.62,17.06,13.94,17Z"/><path d="M18.57,15.53A2.12,2.12,0,0,0,17.05,15H15.64V19.1H17a2.16,2.16,0,0,0,1.58-.55A2.12,2.12,0,0,0,19.1,17,1.9,1.9,0,0,0,18.57,15.53Zm-.85,2.38a.89.89,0,0,1-.73.29h-.25V15.91h.32a.84.84,0,0,1,.68.27A1.38,1.38,0,0,1,18,17,1.39,1.39,0,0,1,17.72,17.91Z"/><path d="M17,7.27a.75.75,0,0,0-.75.75v4.62a.75.75,0,0,0,1.5,0V8A.76.76,0,0,0,17,7.27Z"/><path d="M9.63,10.3,17.38,6a.74.74,0,0,0,.39-.65.77.77,0,0,0-.39-.66L9.25.1a.73.73,0,0,0-.73,0L.38,4.65A.78.78,0,0,0,0,5.31.75.75,0,0,0,.38,6L8.13,10.3v7.4L2,14.28l5.31-3a.5.5,0,1,0-.49-.87l-5.35,3V8a.76.76,0,0,0-.75-.75A.76.76,0,0,0,0,8v6.4a.29.29,0,0,0,0,.09.76.76,0,0,0,0,.16l.06.12.08.12.12.1s0,.05.07.06l8.14,4.56a.68.68,0,0,0,.36.1.75.75,0,0,0,.66-.39.7.7,0,0,0,.07-.49.43.43,0,0,0,0-.11ZM8.88,1.61l6.6,3.7L8.88,9,2.28,5.31Z"/><path d="M14,13.23a.51.51,0,0,0,.44-.26.5.5,0,0,0-.19-.68l-3.33-1.86a.5.5,0,1,0-.48.87l3.32,1.86A.44.44,0,0,0,14,13.23Z"/></g></g>
<style>
	.add-img-icon {
		fill: #f90;
	}
</style>
</svg>