<svg class="add-img-icon" xmlns="http://www.w3.org/2000/svg" viewBox="0 0 23.23 23.5"><title>Ресурс 44</title><g id="Слой_2" data-name="Слой 2"><g id="_1" data-name="1"><path d="M16.48,10H.75a.76.76,0,0,0-.75.75v12a.76.76,0,0,0,.75.75H16.48a.75.75,0,0,0,.75-.75v-12A.75.75,0,0,0,16.48,10Zm-.75,12H1.5V11.5H15.73Z"/><path d="M3.16,20.72a.54.54,0,0,0,.35-.14l2.33-2.34.53.52a.49.49,0,1,0,.7-.7l-.87-.88a.5.5,0,0,0-.71,0L2.8,19.87a.51.51,0,0,0,0,.71A.54.54,0,0,0,3.16,20.72Z"/><path d="M6.52,20.58a.5.5,0,0,0,.7,0l3.65-3.65,3.64,3.65a.52.52,0,0,0,.35.14.5.5,0,0,0,.35-.85l-4-4a.51.51,0,0,0-.71,0l-4,4A.5.5,0,0,0,6.52,20.58Z"/><path d="M4.31,15.75a1.62,1.62,0,1,0-1.62-1.62A1.63,1.63,0,0,0,4.31,15.75Zm0-2.24a.62.62,0,1,1-.62.62A.62.62,0,0,1,4.31,13.51Z"/><path d="M22.48,3H20.23V.75a.75.75,0,0,0-1.5,0V3H16.48a.75.75,0,0,0,0,1.5h2.25V6.75a.75.75,0,0,0,1.5,0V4.5h2.25a.75.75,0,0,0,0-1.5Z"/></g></g>
<style>
	.add-img-icon {
		fill: #f90;
	}
</style>
</svg>