<svg class="add-img-icon" xmlns="http://www.w3.org/2000/svg" viewBox="0 0 23.63 23.5"><title>Ресурс 45</title><g id="Слой_2" data-name="Слой 2"><g id="_1" data-name="1"><path d="M16.48,10H.75a.76.76,0,0,0-.75.75v12a.76.76,0,0,0,.75.75H16.48a.75.75,0,0,0,.75-.75v-12A.75.75,0,0,0,16.48,10Zm-.75,12H1.5V11.5H15.73Z"/><path d="M5.69,20.31a.57.57,0,0,0,.25.06.51.51,0,0,0,.25-.06l5.37-3.13a.49.49,0,0,0,0-.86L6.19,13.19a.5.5,0,0,0-.5,0,.52.52,0,0,0-.25.44v6.24A.52.52,0,0,0,5.69,20.31Zm.75-5.81,3.87,2.25L6.44,19Z"/><path d="M22.88,3H20.63V.75a.75.75,0,0,0-1.5,0V3H16.88a.75.75,0,0,0,0,1.5h2.25V6.75a.75.75,0,0,0,1.5,0V4.5h2.25a.75.75,0,0,0,0-1.5Z"/></g></g>
<style>
	.add-img-icon {
		fill: #f90;
	}
</style>
</svg>