<svg width="133" height="133" viewBox="0 0 133 133" fill="none" xmlns="http://www.w3.org/2000/svg">
<path d="M122.913 32.905C104.726 1.43858 64.4421 -9.34327 32.9426 8.8272C1.44052 26.9918 -9.35395 67.228 8.83708 98.6932C27.0222 130.16 67.3044 140.943 98.8043 122.774C130.307 104.604 141.106 64.3694 122.913 32.905ZM92.2195 111.376C67.0216 125.912 34.793 117.286 20.244 92.112C5.6917 66.9426 14.3304 34.7508 39.5291 20.2212C64.7286 5.68537 96.9556 14.3105 111.505 39.4841C126.056 64.6573 117.419 96.8424 92.2195 111.376ZM89.5855 63.1258L55.097 43.0341C51.9541 41.2013 49.4191 42.6666 49.4368 46.2978L49.6134 86.1778C49.6293 89.8083 52.1954 91.2861 55.3475 89.4676L89.572 69.7304C92.7208 67.9152 92.7275 64.9586 89.5855 63.1258Z" transform="translate(0.624756 0.700195)" fill="white"/>
</svg>
