<svg width="562" height="368" viewBox="0 0 562 368" fill="none" xmlns="http://www.w3.org/2000/svg">
<path d="M474.822 154.947C473.708 70.7044 405.124 0 320.573 0C266.708 0 216.128 29.1011 188.202 71.0434C175.935 62.8796 161.197 58.1053 145.345 58.1053C102.536 58.1053 67.8276 92.7941 67.8276 135.579C67.8276 137.061 67.9632 138.504 68.0504 139.976C67.9536 141.738 67.8276 143.52 67.8276 145.263C29.1852 163.779 0 207.794 0 253.291C0 316.383 51.6459 368 114.774 368H352.238C353.576 368 354.874 367.845 356.192 367.797C357.519 367.845 358.818 368 360.155 368H455.142C513.91 368 562 319.937 562 261.203C562 209.189 524.268 164.254 474.822 154.947Z" fill="#35B0F6"/>
</svg>
