<svg width="423" height="417" viewBox="0 0 423 417" fill="none" xmlns="http://www.w3.org/2000/svg">
<path d="M27.5221 44.42H22.2371C9.97597 44.42 0 34.457 0 22.21C0 9.96297 9.97514 0 22.2371 0H27.5221C30.9978 0 33.8158 2.81461 33.8158 6.28606C33.8158 9.7575 30.9978 12.5721 27.5221 12.5721H22.2371C16.9166 12.5721 12.5875 16.896 12.5875 22.21C12.5875 27.524 16.9166 31.8478 22.2371 31.8478H27.5221C30.9978 31.8478 33.8158 34.6624 33.8158 38.1339C33.8158 41.6053 30.9978 44.42 27.5221 44.42Z" transform="translate(152.757 160.404)" fill="#E2A11E"/>
<path d="M58.4885 0H0V35.415C0 48.1192 10.3114 58.418 23.0302 58.418H35.4566C48.1763 58.418 58.4877 48.1192 58.4877 35.415L58.4885 0Z" transform="translate(180.279 158.06)" fill="#F9CE55"/>
<path d="M17.0893 35.415V0H0V35.415C0 48.1192 10.3114 58.418 23.0302 58.418H35.4566C36.2439 58.418 37.0214 58.3776 37.7889 58.3008C26.1647 57.1324 17.0893 47.3328 17.0893 35.415Z" transform="translate(180.279 158.06)" fill="#E2A11E"/>
<path d="M148.526 10.4762C148.526 13.3676 147.351 15.9907 145.455 17.8853C143.559 19.7799 140.932 20.9524 138.037 20.9524H10.489C4.69924 20.9524 0 16.2589 0 10.4762C0 7.58485 1.17481 4.96167 3.07086 3.0671C4.96691 1.17336 7.59413 0 10.489 0H138.036C143.827 0 148.526 4.69349 148.526 10.4762Z" transform="translate(142.694 216.477)" fill="#E27423"/>
<path d="M109.506 10.4762C109.506 13.3676 108.331 15.9907 106.435 17.8853C104.539 19.7799 101.912 20.9524 99.017 20.9524H10.489C4.69924 20.9524 0 16.2589 0 10.4762C0 7.58485 1.17481 4.96167 3.07086 3.0671C4.96691 1.17336 7.59413 0 10.489 0H99.017C104.807 0 109.506 4.69349 109.506 10.4762Z" transform="translate(181.714 216.477)" fill="#F7882D"/>
<path d="M26.0127 0H0V173.261H26.0127V0Z" transform="translate(205.628 237.434)" fill="#E27423"/>
<path d="M12.7659 0H0V158.485H12.7659V0Z" transform="translate(218.877 252.208)" fill="#F7882D"/>
<path d="M0 6.28605C0 9.22774 2.03072 11.7082 4.77443 12.379C5.26104 12.5044 5.765 12.5721 6.29292 12.5721H80.9751C84.4491 12.5721 87.2689 9.75584 87.2689 6.28605C87.2689 2.81625 84.4491 0 80.9751 0H6.29292C2.81971 0.000825159 0 2.81625 0 6.28605Z" transform="translate(175.001 404.403)" fill="#F7882D"/>
<path d="M0 6.28605C0 9.22774 2.03072 11.7082 4.77442 12.379H62.5144C65.9884 12.379 68.8082 9.56277 68.8082 6.09298C68.8082 3.15128 66.7774 0.670854 64.0337 0H6.29374C2.8197 0.000825159 0 2.81625 0 6.28605Z" transform="translate(175.001 404.404)" fill="#E27423"/>
<path d="M71.0148 141.856C110.235 141.856 142.03 110.101 142.03 70.9282C142.03 31.7556 110.235 0 71.0148 0C31.7944 0 0 31.7556 0 70.9282C0 110.101 31.7944 141.856 71.0148 141.856Z" transform="translate(263.109 6.39404)" fill="white"/>
<path d="M77.3127 154.437C34.6825 154.437 0 119.797 0 77.2184C0 34.6394 34.6825 0 77.3127 0C119.943 0 154.625 34.6394 154.625 77.2184C154.625 119.797 119.943 154.437 77.3127 154.437ZM77.3127 12.5721C41.6231 12.5721 12.5867 41.5723 12.5867 77.2192C12.5867 112.866 41.6231 141.866 77.3127 141.866C113.002 141.866 142.038 112.866 142.038 77.2192C142.038 41.5723 113.002 12.5721 77.3127 12.5721Z" transform="translate(256.812 0.101074)" fill="#118ED3"/>
<path d="M6.29375 16.7623C2.81807 16.7623 0 13.9477 0 10.4762V6.28606C0 2.81462 2.81807 0 6.29375 0C9.76943 0 12.5875 2.81462 12.5875 6.28606V10.4762C12.5867 13.9485 9.76943 16.7623 6.29375 16.7623Z" transform="translate(327.831 22.6914)" fill="#118ED3"/>
<path d="M6.29375 16.7623C2.81807 16.7623 0 13.9477 0 10.4762V6.28607C0 2.81463 2.81807 0 6.29375 0C9.76943 0 12.5875 2.81463 12.5875 6.28607V10.4762C12.5867 13.9485 9.76943 16.7623 6.29375 16.7623Z" transform="translate(327.831 115.186)" fill="#118ED3"/>
<path d="M10.489 12.5721H6.29375C2.81807 12.5721 0 9.75751 0 6.28607C0 2.81462 2.81807 0 6.29375 0H10.489C13.9647 0 16.7828 2.81462 16.7828 6.28607C16.7828 9.75751 13.9647 12.5721 10.489 12.5721Z" transform="translate(372.035 71.0342)" fill="#118ED3"/>
<path d="M10.489 12.5721H6.29375C2.81807 12.5721 0 9.75751 0 6.28607C0 2.81462 2.81807 0 6.29375 0H10.489C13.9647 0 16.7828 2.81462 16.7828 6.28607C16.7828 9.75751 13.9647 12.5721 10.489 12.5721Z" transform="translate(279.428 71.0342)" fill="#118ED3"/>
<path d="M6.23103 12.5338C0.527177 12.5338 -2.21323 5.17253 2.14893 1.47004C6.60363 -2.31249 13.5401 1.74812 12.4083 7.47968C11.8333 10.3875 9.19119 12.5338 6.23103 12.5338Z" transform="translate(369.806 95.2407)" fill="white"/>
<path d="M6.24319 12.5295C0.537675 12.5295 -2.22172 5.17815 2.15201 1.46576C6.62075 -2.32667 13.62 1.79005 12.4006 7.5381C11.7917 10.4064 9.18682 12.5295 6.24319 12.5295Z" transform="translate(285.966 46.9028)" fill="white"/>
<path d="M6.27739 12.5565C3.76089 12.5565 1.42698 10.9879 0.470274 8.66755C-0.578958 6.12276 0.167085 3.12249 2.31347 1.388C4.30701 -0.223535 7.15314 -0.451287 9.38379 0.80708C11.7177 2.12486 12.9702 4.871 12.4439 7.495C11.864 10.3938 9.24581 12.5565 6.27739 12.5565Z" transform="translate(352.046 112.918)" fill="white"/>
<path d="M6.28006 12.556C3.66111 12.556 1.22806 10.8512 0.356457 8.38483C-0.534977 5.86314 0.283749 2.99324 2.38552 1.33467C4.52612 -0.35443 7.63497 -0.45345 9.87223 1.1127C12.0409 2.63099 13.0398 5.38868 12.34 7.94254C11.6047 10.6326 9.07333 12.556 6.28006 12.556Z" transform="translate(303.643 29.1851)" fill="white"/>
<path d="M22.1056 37.4177C18.858 37.4177 15.6119 37.4177 12.3643 37.4177C10.5922 37.4177 8.82003 37.4177 7.0479 37.4177C5.09071 37.4177 3.2649 37.0175 1.82324 35.5767C-0.423933 33.3323 -0.620583 29.6438 1.38205 27.1766C2.84023 25.3794 4.88252 24.8464 7.09169 24.8464C9.13233 24.8464 11.1738 24.8464 13.2144 24.8464C13.9291 24.8464 14.818 24.9908 15.5202 24.8464C15.897 24.7688 15.7161 24.9355 15.8111 24.6153C15.94 24.1829 15.8111 23.5113 15.8111 23.0632C15.8111 22.2314 15.8111 21.3997 15.8111 20.5679C15.8111 18.3746 15.8111 16.1814 15.8111 13.9881C15.8111 12.0498 15.8111 10.1098 15.8111 8.17155C15.8111 6.94124 15.7177 5.65977 16.0779 4.46824C16.9933 1.4333 20.1435 -0.475287 23.2606 0.103149C26.2456 0.656831 28.3465 3.29569 28.3977 6.28936C28.4415 8.87376 28.3977 11.4631 28.3977 14.0475C28.3977 18.3532 28.3977 22.658 28.3977 26.9637C28.3977 30.0927 28.8786 33.5774 26.234 35.8763C25.0955 36.8648 23.615 37.4177 22.1056 37.4177Z" transform="translate(312.019 46.1885)" fill="#7DD1FF"/>
<path d="M6.29374 74.5878C2.81805 74.5878 0 71.7732 0 68.3017C0 61.273 2.52559 57.3849 4.37042 54.5455C5.83108 52.2961 6.71343 50.9379 6.71343 47.6315C6.71343 44.3226 5.83191 42.9652 4.37042 40.7158C2.52641 37.8764 0 33.9867 0 26.9588C0 19.9309 2.52559 16.0411 4.37042 13.2017C5.83191 10.9515 6.71343 9.5933 6.71343 6.28607C6.71343 2.81462 9.53149 0 13.0072 0C16.4829 0 19.3009 2.81462 19.3009 6.28607C19.3009 13.3148 16.7753 17.2037 14.9305 20.0431C13.4698 22.2933 12.5875 23.6515 12.5875 26.9596C12.5875 30.2677 13.469 31.6259 14.9305 33.8761C16.7745 36.7155 19.3009 40.6053 19.3009 47.6331C19.3009 54.661 16.7753 58.55 14.9305 61.3894C13.4698 63.6387 12.5875 64.997 12.5875 68.3034C12.5867 71.774 9.76942 74.5878 6.29374 74.5878Z" transform="translate(199.874 66.5405)" fill="#EAEAEA"/>
<path d="M109.927 0C106.451 0 103.634 2.81463 103.634 6.28607V141.221H14.6678C6.5672 141.221 0 147.78 0 155.871C0 163.424 5.7245 169.638 13.0749 170.432C13.0749 170.462 13.0708 170.491 13.0708 170.522V212.394C12.9113 212.947 12.8204 213.531 12.8204 214.135C12.8204 214.739 12.9113 215.323 13.0708 215.876V269.225C13.0708 272.696 15.888 275.511 19.3645 275.511C22.841 275.511 25.6583 272.696 25.6583 269.225V220.422H103.636V269.226C103.636 272.698 106.453 275.512 109.93 275.512C113.406 275.512 116.224 272.698 116.224 269.226V6.28607C116.221 2.81463 113.404 0 109.927 0ZM103.634 207.849H25.6566V170.522H103.634V207.849Z" transform="translate(306.777 141.488)" fill="#118ED3"/>
<path d="M116.222 175.147C116.222 167.056 109.655 160.497 101.554 160.497H12.5867V6.28607C12.5867 2.81463 9.76943 0 6.29291 0C2.8164 0 0 2.81463 0 6.28607V288.501C0 291.973 2.81723 294.787 6.29374 294.787C9.77025 294.787 12.5875 291.973 12.5875 288.501V239.697H90.5653V288.501C90.5653 291.973 93.3825 294.787 96.859 294.787C100.336 294.787 103.153 291.973 103.153 288.501V235.318C103.344 234.717 103.45 234.077 103.45 233.411C103.45 232.745 103.345 232.107 103.153 231.504V189.797C103.153 189.767 103.149 189.738 103.149 189.707C110.498 188.914 116.222 182.7 116.222 175.147ZM12.5867 227.125V189.797H90.5644V227.125H12.5867Z" transform="translate(0 122.212)" fill="#F7882D"/>
<path d="M51.4528 132.766C50.6308 132.766 49.7947 132.605 48.9909 132.263L29.2711 123.882C26.995 122.915 25.498 120.707 25.4426 118.237C25.2989 111.783 25.954 109.632 27.7039 103.883C28.9315 99.8492 30.7879 93.7513 33.5911 82.2494C40.4219 54.2253 39.4445 33.5823 30.7648 22.5508C25.5558 15.9289 17.3222 12.5721 6.29374 12.5721C2.81723 12.5721 0 9.75749 0 6.28605C0 2.8146 2.81723 0 6.29374 0C21.1697 0 33.0541 5.11185 40.6623 14.7835C51.9725 29.1611 53.7091 52.8613 45.82 85.2232C42.9334 97.07 41.0142 103.371 39.7452 107.541C38.7629 110.77 38.3019 112.284 38.1152 113.981L53.9173 120.698C57.1162 122.057 58.6058 125.749 57.2443 128.943C56.2264 131.331 53.9 132.766 51.4528 132.766Z" transform="translate(87.4224 271.889)" fill="#50515B"/>
<path d="M51.452 132.768C50.6308 132.768 49.7947 132.606 48.9909 132.265L29.2703 123.884C26.9942 122.917 25.4972 120.708 25.4418 118.239C25.2981 111.784 25.9532 109.633 27.703 103.884C28.9315 99.8492 30.7879 93.7521 33.5911 82.2502C40.4219 54.227 39.4437 33.5823 30.7648 22.5508C25.5558 15.9297 17.3222 12.5721 6.29374 12.5721C2.81723 12.5721 0 9.75752 0 6.28607C0 2.81463 2.81723 0 6.29374 0C21.1697 0 33.0533 5.11187 40.6615 14.7827C51.9717 29.1603 53.7091 52.8605 45.82 85.2233C42.9326 97.0701 41.0142 103.371 39.7452 107.541C38.7621 110.769 38.3011 112.283 38.1144 113.98L53.9173 120.697C57.1162 122.056 58.6058 125.748 57.2443 128.942C56.2289 131.334 53.9 132.768 51.452 132.768Z" transform="translate(117.554 262.383)" fill="#50515B"/>
<path d="M105.777 138.684C105.777 138.684 71.684 155.711 37.1643 149.048C24.2488 146.566 11.2706 140.761 0 129.504C0 129.504 10.8013 57.2372 31.0416 15.003C33.7307 9.39279 36.5885 4.31228 39.6139 0L52.2022 0.972045L77.6448 2.94253C77.6448 6.47668 78.0959 13.3956 79.0254 22.4155C82.1755 53.2698 90.8272 108.829 105.777 138.684Z" transform="translate(25.8276 137.121)" fill="#00C7A9"/>
<path d="M37.1643 149.049C24.2488 146.566 11.2706 140.761 0 129.504C0 129.504 13.8623 36.7476 39.6147 0L52.203 0.972045L55.8472 4.56809C46.4265 23.8917 24.3628 98.6676 37.1643 149.049Z" transform="translate(25.8284 137.121)" fill="#04AF92"/>
<path d="M87.6968 12.1807C81.2188 14.5778 74.531 19.2036 67.8093 25.9171C67.0038 26.7217 66.1983 27.4932 65.4093 28.2301C53.0738 39.6362 42.1907 42.8634 33.8249 42.8634C28.8911 42.8634 24.8379 41.7404 21.8843 40.5167C7.51812 34.5747 0 19.2705 0 7.22728C0 3.74924 2.81971 0.941211 6.29374 0.941211C9.77604 0.941211 12.5875 3.74924 12.5875 7.22728C12.5875 14.9046 17.5387 25.1126 26.7017 28.9009C35.9655 32.7395 47.403 28.5156 58.9074 17.0252C59.251 16.682 59.5956 16.3379 59.9392 16.0111C67.6259 8.5434 75.4885 3.28879 83.3173 0.397434C86.5815 -0.818026 90.1984 0.849619 91.4063 4.10157C92.6142 7.3527 90.9527 10.9735 87.6968 12.1807Z" transform="translate(65.4524 181.618)" fill="#FCD2BE"/>
<path d="M116.412 0V63.4778C116.412 92.568 92.7901 116.161 63.6562 116.161C55.8522 116.161 48.4514 114.468 41.7884 111.434V111.426C25.669 104.085 13.8961 88.8729 11.4036 70.7029C9.06223 69.8819 6.8638 68.541 4.98427 66.6629C-1.66142 60.0336 -1.66142 49.2727 4.98427 42.6426C11.6217 35.9967 22.4048 35.9967 29.0505 42.6426L33.4812 17.2731L36.5017 0H116.412Z" transform="translate(24.3373 25.688)" fill="#FCD2BE"/>
<path d="M41.7884 94.1531C25.669 86.8117 13.8961 71.5999 11.4036 53.4299C9.06223 52.6088 6.8638 51.268 4.98427 49.3899C-1.66142 42.7606 -1.66142 31.9997 4.98427 25.3695C11.6217 18.7237 22.4048 18.7237 29.0505 25.3695L33.4812 0L47.3691 2.81627C41.5281 12.8989 16.8662 49.7002 41.7884 94.1531Z" transform="translate(24.3373 42.96)" fill="#FAB998"/>
<path d="M130.166 0C130.166 25.2853 109.641 45.7773 84.3327 45.7773H36.4604V50.0269C36.4604 60.1343 28.2541 68.3223 18.1335 68.3223C13.2327 63.4275 6.07563 62.1452 0 64.4755V45.7773C0 20.5002 20.5253 0 45.8333 0C45.8341 0 130.166 0 130.166 0Z" transform="translate(35.2451)" fill="#F9CE55"/>
<path d="M83.2405 0H45.8333C20.5253 0 0 20.5002 0 45.7773V64.4755C6.07563 62.1452 13.2327 63.4275 18.1335 68.3223C28.2533 68.3223 36.4604 60.1343 36.4604 50.0269V45.7773H37.408C37.4072 20.4994 57.9325 0 83.2405 0Z" transform="translate(35.2458)" fill="#E2A11E"/>
<path d="M5.45436 19.6099C2.44215 19.6099 0 17.1707 0 14.1622V5.4477C0 2.43917 2.44215 0 5.45436 0C8.46656 0 10.9087 2.43917 10.9087 5.4477V14.1622C10.9087 17.1716 8.46739 19.6099 5.45436 19.6099Z" transform="translate(90.2729 62.6919)" fill="#393A42"/>
<path d="M5.45436 19.6099C2.44215 19.6099 0 17.1707 0 14.1622V5.4477C0 2.43917 2.44215 0 5.45436 0C8.46656 0 10.9087 2.43917 10.9087 5.4477V14.1622C10.9087 17.1716 8.46739 19.6099 5.45436 19.6099Z" transform="translate(112.957 62.6919)" fill="#393A42"/>
<path d="M27.8934 24.8125C27.7794 24.8125 27.6662 24.8092 27.553 24.8034C15.4662 24.159 6.22553 18.8342 0.830658 9.40597C-0.894379 6.39249 0.154027 2.55221 3.17284 0.829278C6.18918 -0.892829 10.035 0.153472 11.7592 3.1686C14.9713 8.78299 20.5116 11.8385 28.2231 12.2503C31.6946 12.4351 34.3582 15.3958 34.1723 18.8623C33.9938 22.2141 31.2146 24.8125 27.8934 24.8125Z" transform="translate(70.2371 97.6899)" fill="white"/>
<path d="M65.4093 27.2888C53.0738 38.695 42.1907 41.9222 33.8249 41.9222C28.8911 41.9222 24.8379 40.7992 21.8843 39.5754C7.51812 33.6335 0 18.3293 0 6.28606C0 2.80801 2.81971 0 6.29374 0C9.77604 0 12.5875 2.80801 12.5875 6.28606C12.5875 13.9633 17.5387 24.1714 26.7017 27.9597C35.9655 31.7983 47.403 27.5743 58.9074 16.084C59.251 15.7407 59.5956 15.3966 59.9392 15.0699L65.4093 27.2888Z" transform="translate(65.4524 182.559)" fill="#04AF92"/>
<path d="M0.0188105 18.4464C0.0692066 20.9186 1.57118 23.1235 3.84562 24.0955L23.5654 32.4766C24.3709 32.8199 25.2103 32.9791 26.0241 32.9791C28.4745 32.9791 30.7985 31.5458 31.8221 29.1488C33.1812 25.9554 31.6965 22.2677 28.491 20.9104L12.6906 14.1886C12.8748 12.4954 13.3366 10.9788 14.3272 7.75239C14.7304 6.43626 15.1914 4.90311 15.7284 3.05063L3.51102 0C3.04093 1.59256 2.63859 2.93345 2.27756 4.09857C0.531041 9.84746 -0.12329 11.9937 0.0188105 18.4464Z" transform="translate(142.685 362.172)" fill="#3FACC9"/>
<path d="M0.0186084 18.7649C0.0772662 21.2371 1.57097 23.442 3.8454 24.414L23.5652 32.7951C24.3707 33.1301 25.2101 33.2976 26.0321 33.2976C28.4825 33.2976 30.8065 31.8643 31.8219 29.4673C33.1809 26.2739 31.6963 22.5863 28.4991 21.2206L12.6986 14.5071C12.8828 12.8139 13.3447 11.2973 14.3262 8.07089C14.788 6.54517 15.3415 4.73557 15.9958 2.48041L3.60169 0C3.09855 1.73448 2.66151 3.17604 2.28395 4.41707C0.531649 10.1577 -0.122666 12.3114 0.0186084 18.7649Z" transform="translate(112.938 371.358)" fill="#3FACC9"/>
</svg>
