<svg width="562" height="592" viewBox="0 0 562 592" fill="none" xmlns="http://www.w3.org/2000/svg"><path d="M151.994 583.075c0 4.926-3.98 8.924-8.911 8.924h-30.88a8.88 8.88 0 0 1-7.617-4.307 8.95 8.95 0 0 1-.285-8.757 226.403 226.403 0 0 0 8.507-18.181c38.223-91.866 1.343-172.63.939-173.487-2.091-4.462-.178-9.78 4.278-11.875a8.91 8.91 0 0 1 11.858 4.284c.476 1.035 11.846 25.592 16.361 63.477 3.493 29.33 3.22 71.675-14.246 117.602a250.614 250.614 0 0 1-5.56 13.397h16.646c4.93 0 8.91 3.986 8.91 8.923zM64.237 583.075c0 4.926-3.993 8.924-8.912 8.924h-30.88a8.899 8.899 0 0 1-7.627-4.307 8.949 8.949 0 0 1-.274-8.757c3.185-6.093 6-12.161 8.496-18.181 38.223-91.854 1.354-172.63.95-173.487-2.09-4.462-.177-9.78 4.278-11.875 4.456-2.094 9.767-.178 11.846 4.284.487 1.035 11.858 25.592 16.372 63.477 3.493 29.33 3.22 71.675-14.245 117.602a250.534 250.534 0 0 1-5.561 13.397h16.646c4.919 0 8.91 3.986 8.91 8.923zM409.706 587.692a8.899 8.899 0 0 1-7.628 4.307h-30.88c-4.92 0-8.912-3.998-8.912-8.924 0-4.937 3.993-8.924 8.912-8.924h16.646a246.566 246.566 0 0 1-5.56-13.397c-17.467-45.927-17.74-88.273-14.235-117.602 4.503-37.883 15.874-62.442 16.361-63.477 2.091-4.462 7.39-6.378 11.845-4.284 4.456 2.094 6.37 7.401 4.29 11.862-.166.358-10.8 23.582-14.888 58.682-3.303 28.413-2.78 70.044 15.814 114.818a230.017 230.017 0 0 0 8.507 18.181 8.95 8.95 0 0 1-.272 8.758zM497.464 587.692a8.899 8.899 0 0 1-7.628 4.307h-30.88c-4.92 0-8.912-3.998-8.912-8.924 0-4.937 3.993-8.924 8.912-8.924h16.646a246.486 246.486 0 0 1-5.56-13.397c-17.467-45.927-17.74-88.273-14.235-117.602 4.503-37.883 15.874-62.442 16.361-63.477 2.091-4.462 7.402-6.378 11.845-4.284 4.456 2.094 6.37 7.401 4.29 11.862-.047.12-2.756 5.985-5.94 16.23-3.208 10.244-6.892 24.854-8.948 42.452-3.303 28.413-2.78 70.044 15.814 114.818a230.017 230.017 0 0 0 8.507 18.181 8.919 8.919 0 0 1-.272 8.758z" fill="#50515B"/><path d="M407.33 255.923c-.95 4.117-4.622 6.901-8.662 6.901a9.263 9.263 0 0 1-2.043-.238c-17.99-4.2-35.491-12.065-52.113-23.309-18.843-12.755-36.559-29.84-52.552-50.864-22.468-29.543-33.625-56.183-34.088-57.301a8.886 8.886 0 0 1-.678-3.415V82.484c0-4.937 3.993-8.924 8.911-8.924 4.92 0 8.912 3.986 8.912 8.924v43.333c4.527 10.078 31.582 66.76 80.57 99.421 13.39 8.935 28.432 16.075 45.09 19.965 4.799 1.118 7.77 5.925 6.653 10.72z" fill="#FCD2BE"/><path d="M407.33 255.924c-.95 4.116-4.622 6.9-8.662 6.9a9.275 9.275 0 0 1-2.044-.238c-17.989-4.2-35.49-12.064-52.112-23.309l11.074-14.04c13.39 8.935 28.433 16.074 45.091 19.965 4.799 1.12 7.77 5.927 6.653 10.722z" fill="#D8254F"/><path d="M148.033 381.42s-45.792 22.927-92.154 13.957c-17.347-3.344-34.777-11.161-49.915-26.319 0 0 14.507-97.316 41.693-154.188 3.612-7.555 7.45-14.396 11.513-20.203l16.907 1.309 34.172 2.653c0 4.76.606 14.075 1.853 26.224 4.23 41.546 15.851 116.363 35.931 156.567z" fill="#46DEB5"/><path d="M55.88 395.376c-17.348-3.344-34.778-11.161-49.916-26.319 0 0 18.619-124.907 53.206-174.391l16.907 1.309 4.896 4.842C68.32 226.84 38.687 327.533 55.88 395.376z" fill="#22C79A"/><path d="M366.255 381.42s45.792 22.927 92.154 13.957c17.347-3.344 34.778-11.161 49.915-26.319 0 0-18.619-124.907-53.206-174.391l-16.907 1.309-34.172 2.653c0 21.035-11.835 130.831-37.784 182.791z" fill="#EF4A6E"/><path d="M458.409 395.376c17.347-3.344 34.777-11.161 49.915-26.319 0 0-18.619-124.907-53.206-174.391l-16.907 1.309-4.896 4.842c12.654 26.022 42.286 126.716 25.094 194.559z" fill="#D8254F"/><path d="M561.671 419.203a8.913 8.913 0 0 1-8.579 6.544 8.758 8.758 0 0 1-2.388-.333c-15.92-4.426-26.829-18.977-26.508-35.385.844-43.357-12.7-77.551-27.613-101.86-17.453-28.46-36.774-43.392-37.13-43.653-3.932-2.975-4.716-8.567-1.747-12.494 2.959-3.938 8.555-4.723 12.476-1.749.773.571 18.951 14.48 36.892 41.144.357.524.713 1.059 1.08 1.606 16.279 24.7 34.885 64.667 33.863 117.351-.166 8.258 5.37 15.599 13.45 17.847 4.754 1.319 7.523 6.234 6.204 10.982zM247.224 82.484v45.213a8.893 8.893 0 0 1-.677 3.415c-.405.964-6.89 16.443-19.735 36.657-6.714 10.578-15.16 22.44-25.379 34.22-36.739 42.298-80.296 64.357-126.67 64.357-4.253 0-8.53-.178-12.832-.56-4.908-.416-8.53-4.748-8.104-9.662.428-4.902 4.753-8.542 9.649-8.114 45.886 3.985 87.77-15.444 124.506-57.742 9.862-11.351 18.001-22.88 24.382-33.054 9.505-15.087 15.184-27.211 17.037-31.388V82.484c0-4.937 3.993-8.923 8.912-8.923 4.92 0 8.911 3.985 8.911 8.923z" fill="#FCD2BE"/><path d="M251.89 50.948c-4.266 0-7.724-3.462-7.724-7.734V31.316c0-4.271 3.457-7.734 7.723-7.734s7.724 3.462 7.724 7.734v11.898c0 4.272-3.457 7.734-7.724 7.734zM286.157 60.143a7.69 7.69 0 0 1-5.46-2.265 7.74 7.74 0 0 1 0-10.937l5.94-5.948a7.714 7.714 0 0 1 10.922 0 7.74 7.74 0 0 1 0 10.936l-5.94 5.95a7.703 7.703 0 0 1-5.462 2.265zM217.622 60.143a7.69 7.69 0 0 1-5.46-2.265l-5.941-5.948a7.74 7.74 0 0 1 0-10.937 7.714 7.714 0 0 1 10.921 0l5.941 5.948a7.74 7.74 0 0 1 0 10.937 7.699 7.699 0 0 1-5.461 2.266z" fill="#EAEAEA"/><path d="M164.833 36.468v90.117c0 41.299-33.446 74.792-74.7 74.792-11.049 0-21.528-2.404-30.963-6.711v-.012c-22.825-10.422-39.494-32.017-43.023-57.813a24.11 24.11 0 0 1-9.09-5.735c-9.41-9.412-9.41-24.688 0-34.1 9.4-9.435 24.667-9.435 34.078 0l6.273-36.016 4.278-24.522h113.147z" fill="#FCD2BE"/><path d="M59.17 194.655c-22.825-10.423-39.494-32.018-43.023-57.814a24.106 24.106 0 0 1-9.09-5.735c-9.41-9.412-9.41-24.688 0-34.1 9.4-9.435 24.667-9.435 34.078 0l6.273-36.016 19.663 3.998c-8.27 14.313-43.19 66.558-7.901 129.667z" fill="#FAB998"/><path d="M199.754 0c0 35.897-29.063 64.988-64.898 64.988H67.072v6.032c0 14.35-11.62 25.974-25.949 25.974-6.94-6.949-17.074-8.769-25.676-5.46V64.987C15.447 29.103 44.508 0 80.344 0h119.41z" fill="#F9CE55"/><path d="M133.31 0H80.343C44.508 0 15.446 29.103 15.446 64.988v26.545c8.602-3.308 18.737-1.487 25.676 5.461 14.329 0 25.949-11.625 25.949-25.974v-6.032h1.342C68.413 29.103 97.475 0 133.31 0z" fill="#E2A11E"/><path d="M101.086 118.03c-4.921 0-8.912-3.995-8.912-8.924V96.734c0-4.928 3.99-8.924 8.912-8.924 4.922 0 8.911 3.995 8.911 8.924v12.372c0 4.928-3.99 8.924-8.911 8.924zM133.204 118.03c-4.92 0-8.911-3.995-8.911-8.924V96.734c0-4.928 3.99-8.924 8.911-8.924 4.922 0 8.912 3.995 8.912 8.924v12.372c0 4.928-3.99 8.924-8.912 8.924z" fill="#50515B"/><path d="M104.488 173.91a8.39 8.39 0 0 1-.483-.012c-17.114-.915-30.2-8.474-37.837-21.86-2.442-4.278-.957-9.73 3.316-12.176 4.273-2.445 9.715-.958 12.158 3.321 4.613 8.084 12.238 12.3 23.314 12.894 4.914.262 8.685 4.465 8.423 9.386-.253 4.759-4.187 8.447-8.89 8.447z" fill="#fff"/><path d="M349.027 61.031l.418 65.554c0 41.299 33.446 74.792 74.7 74.792 11.05 0 21.529-2.404 30.963-6.711v-.012c22.825-10.422 39.495-32.017 43.023-57.813a24.106 24.106 0 0 0 9.089-5.735c9.411-9.412 9.411-24.688 0-34.1-9.398-9.435-24.666-9.435-34.076 0L466.87 60.99l-4.277-24.522-113.566 24.563z" fill="#FCD2BE"/><path d="M455.107 194.654c22.825-10.422 39.495-32.018 43.023-57.813a24.108 24.108 0 0 0 9.09-5.735c9.41-9.412 9.41-24.688 0-34.1-9.4-9.435-24.667-9.435-34.077 0l25.59-35.975-51.528 3.957c8.27 14.313 43.19 66.558 7.902 129.666z" fill="#FAB998"/><path d="M498.436 61.061V91.39a24.036 24.036 0 0 0-25.284 5.616V78.908c-4.955 0-9.22-.702-12.916-1.927-21.992-7.21-23.24-32.328-23.24-32.328-23.823 23.844-87.544 16.407-87.544 16.407 0-16.847 6.82-32.1 17.846-43.143 11.014-11.03 26.246-17.86 43.07-17.86h27.15c33.637.002 60.918 27.31 60.918 61.004z" fill="#50515B"/><path d="M498.435 61.062V91.39a24.036 24.036 0 0 0-25.284 5.616V78.908c-4.954 0-9.22-.702-12.916-1.927C466.723 41.833 450.908.059 421.204.059h16.314c33.637 0 60.917 27.307 60.917 61.003z" fill="#393A42"/><path d="M413.2 118.03c-4.922 0-8.912-3.995-8.912-8.924V96.734c0-4.928 3.99-8.924 8.911-8.924 4.921 0 8.912 3.995 8.912 8.924v12.372c0 4.928-3.99 8.924-8.912 8.924zM381.08 118.03c-4.922 0-8.912-3.995-8.912-8.924V96.734c0-4.928 3.99-8.924 8.911-8.924 4.921 0 8.912 3.995 8.912 8.924v12.372c0 4.928-3.99 8.924-8.912 8.924z" fill="#50515B"/><path d="M409.797 173.91c-4.704 0-8.638-3.689-8.891-8.448-.262-4.92 3.509-9.124 8.423-9.386 11.075-.592 18.7-4.809 23.313-12.893 2.442-4.28 7.885-5.765 12.159-3.321 4.272 2.445 5.758 7.896 3.316 12.175-7.638 13.386-20.721 20.946-37.838 21.86-.161.01-.323.013-.482.013z" fill="#fff"/><path d="M226.813 167.77c-6.714 10.578-15.16 22.44-25.379 34.22-36.739 42.297-80.296 64.356-126.67 64.356-4.253 0-8.53-.178-12.832-.559-4.907-.417-8.53-4.748-8.103-9.662.427-4.902 4.752-8.542 9.648-8.114 45.886 3.985 87.77-15.444 124.506-57.742 9.862-11.351 18.001-22.88 24.382-33.054l14.448 10.555z" fill="#025970"/><path d="M508.156 273.02l-11.573 15.148c-17.453-28.46-36.774-43.393-37.13-43.654-3.932-2.975-4.716-8.567-1.747-12.494 2.959-3.938 8.555-4.723 12.476-1.749.773.571 18.951 14.48 36.892 41.144.357.522.714 1.058 1.082 1.606z" fill="#D8254F"/><path d="M64.237 583.077c0 4.926-3.993 8.924-8.912 8.924h-30.88a8.9 8.9 0 0 1-7.627-4.307 8.95 8.95 0 0 1-.274-8.757c3.185-6.092 6-12.16 8.496-18.181h19.2a250.764 250.764 0 0 1-5.56 13.397h16.646c4.919.002 8.91 3.987 8.91 8.924zM151.994 583.075c0 4.926-3.98 8.924-8.911 8.924h-30.88a8.88 8.88 0 0 1-7.617-4.307 8.95 8.95 0 0 1-.285-8.757 226.177 226.177 0 0 0 8.507-18.181h19.19a250.762 250.762 0 0 1-5.561 13.397h16.646a8.908 8.908 0 0 1 8.911 8.924z" fill="#EF4A6E"/><path d="M409.979 578.937a8.947 8.947 0 0 1-.274 8.757 8.9 8.9 0 0 1-7.628 4.307h-30.88c-4.92 0-8.912-3.998-8.912-8.924 0-4.937 3.993-8.924 8.912-8.924h16.646a246.935 246.935 0 0 1-5.56-13.397h19.188a230.16 230.16 0 0 0 8.508 18.18zM497.464 587.692a8.9 8.9 0 0 1-7.628 4.307h-30.88c-4.92 0-8.912-3.998-8.912-8.924 0-4.937 3.993-8.924 8.912-8.924h16.646a246.935 246.935 0 0 1-5.56-13.397h19.188a229.977 229.977 0 0 0 8.507 18.18 8.92 8.92 0 0 1-.273 8.758z" fill="#00C7A9"/></svg>