<svg width="682" height="698" viewBox="0 0 682 698" fill="none" xmlns="http://www.w3.org/2000/svg">
<path d="M0 17.3166C2.36939 17.3398 4.7214 18.7337 5.42816 21.5041L16.9739 66.7044C17.1998 67.5893 17.3157 68.4974 17.3157 69.4054L40.5113 40.4865L28.9019 0L0 17.3166Z" transform="translate(362.622 469.405)" fill="#D79B19"/>
<path d="M266.484 28.9189H0L23.1957 0H243.335L266.484 28.9189Z" transform="translate(379.938 509.892)" fill="#B37417"/>
<path d="M110.093 109.892L121.656 69.4054V24.5811C121.656 11.0065 110.631 0 97.0349 0H24.6208C11.0243 0 0 11.0065 0 24.5811V109.892H110.093Z" transform="translate(513.179 400)" fill="#E5AC20"/>
<path d="M121.656 109.892V24.5811C121.656 11.0065 110.631 0 97.0349 0H24.6208C11.0243 0 0 11.0065 0 24.5811V69.4054L11.5863 109.892H121.656Z" transform="translate(391.546 400)" fill="#F6C020"/>
<path d="M40.465 17.3166C38.0956 17.3398 35.7436 18.7337 35.0368 21.5041L23.4911 66.7044C23.2652 67.5893 23.1493 68.4974 23.1493 69.4054L0 40.4865L11.5631 0L40.465 17.3166Z" transform="translate(623.272 469.405)" fill="#D79B19"/>
<path d="M5.79313 23.1351H0V0H28.9656L5.79313 23.1351Z" transform="translate(379.938 590.865)" fill="#774836"/>
<path d="M23.1725 23.1351H28.9656V0H0L23.1725 23.1351Z" transform="translate(617.456 590.865)" fill="#774836"/>
<path d="M34.4141 49.3993L22.8684 4.19903C21.4375 -1.39968 13.3155 -1.39968 11.8846 4.19903L0.338898 49.3993C-0.112966 51.1749 -0.112966 53.0315 0.338898 54.8013L11.8846 100.002C12.6319 102.922 15.1983 104.282 17.6893 104.154H34.7559V52.1003C34.7559 51.1923 34.64 50.2842 34.4141 49.3993Z" transform="translate(345.182 486.711)" fill="#FFC83E"/>
<path d="M34.417 49.3993L22.8713 4.19903C21.4404 -1.39968 13.3184 -1.39968 11.8875 4.19903L0.341784 49.3993C0.115852 50.2842 0 51.1923 0 52.1003V104.154H17.0666C19.5576 104.282 22.124 102.922 22.8713 100.002L34.417 54.8013C34.8746 53.0257 34.8746 51.1749 34.417 49.3993Z" transform="translate(646.422 486.711)" fill="#FFC83E"/>
<path d="M266.484 0H0V52.0541H266.484V0Z" transform="translate(379.938 538.811)" fill="#F5BE26"/>
<path d="M48.8958 48.4648C40.4298 48.4648 32.0058 46.3538 24.3328 42.1688C11.4028 35.1138 2.57581 23.0438 0.117812 9.05582C-0.620188 4.85682 2.18583 0.855813 6.38383 0.117813C10.5788 -0.620187 14.5838 2.1858 15.3218 6.3838C16.9638 15.7208 22.9418 23.8248 31.7258 28.6178C41.3748 33.8818 52.7338 34.4518 62.8928 30.1818C70.7038 26.8978 78.7558 22.8838 86.8258 18.2528C87.0528 18.1228 87.2858 18.0038 87.5258 17.8978C113.498 6.31681 132.104 23.4098 132.883 24.1428C135.988 27.0648 136.136 31.9488 133.214 35.0538C130.292 38.1598 125.408 38.3058 122.303 35.3848C121.867 34.9918 110.383 24.8218 94.1498 31.8488C85.6528 36.7078 77.1518 40.9338 68.8748 44.4128C62.4348 47.1198 55.6528 48.4648 48.8958 48.4648Z" transform="translate(284.224 402.1)" fill="#FCD2BE"/>
<path d="M42.1879 144.295C42.1879 148.556 38.7299 152.014 34.4689 152.014H7.72084C5.03484 152.014 2.54386 150.625 1.14486 148.34C-0.265145 146.055 -0.378135 143.205 0.835865 140.807C4.48886 133.593 7.60784 126.43 10.2418 119.36C26.3378 76.2593 24.8459 36.4313 20.1119 9.03525C19.3919 4.82625 22.2009 0.833247 26.3999 0.112247C30.6199 -0.607753 34.6019 2.21125 35.3229 6.41025C40.1909 34.6292 41.8579 75.1882 26.6369 119.359C24.6919 125.05 22.4478 130.793 19.9058 136.577H34.4679C38.7309 136.577 42.1879 140.035 42.1879 144.295Z" transform="translate(266.397 545.986)" fill="#FCD2BE"/>
<path d="M42.1979 144.318C42.1979 148.579 38.7399 152.037 34.4789 152.037H7.72087C5.03487 152.037 2.54386 150.648 1.14486 148.363C-0.265145 146.078 -0.378135 143.228 0.835865 140.83C4.48886 133.616 7.60787 126.453 10.2419 119.383C26.3479 76.2724 24.8349 36.4234 20.1008 9.03835C19.3698 4.83935 22.1899 0.846349 26.3889 0.115349C30.5879 -0.615651 34.5909 2.20434 35.3119 6.40334C40.1899 34.6333 41.8569 75.1914 26.6359 119.383C24.6909 125.074 22.4469 130.817 19.9049 136.601H34.4779C38.7389 136.6 42.1979 140.058 42.1979 144.318Z" transform="translate(216.094 545.963)" fill="#FCD2BE"/>
<path d="M42.1841 144.295C42.1841 148.556 38.7261 152.014 34.4651 152.014H7.7171C5.0311 152.014 2.54009 150.625 1.14109 148.34C-0.257908 146.055 -0.381898 143.205 0.832102 140.807C4.4851 133.593 7.60409 126.43 10.2381 119.36C26.3341 76.2593 24.8421 36.4313 20.1081 9.03525C19.3771 4.82625 22.1971 0.833247 26.3961 0.112247C30.6161 -0.607753 34.5981 2.21125 35.3191 6.41025C40.1871 34.6292 41.8541 75.1882 26.6331 119.359C24.6881 125.05 22.4441 130.793 19.9021 136.577H34.4641C38.7251 136.577 42.1841 140.035 42.1841 144.295Z" transform="translate(137.356 545.986)" fill="#FCD2BE"/>
<path d="M42.1941 144.318C42.1941 148.579 38.7361 152.037 34.4751 152.037H7.7171C5.0311 152.037 2.5401 150.648 1.1411 148.363C-0.2579 146.078 -0.381905 143.228 0.832095 140.83C4.4851 133.616 7.5941 126.453 10.2381 119.383C26.3341 76.2724 24.8311 36.4344 20.0971 9.03835C19.3661 4.83935 22.1861 0.836349 26.3851 0.115349C30.5841 -0.615651 34.5871 2.20434 35.3081 6.40334C40.1861 34.6333 41.8531 75.1914 26.6321 119.383C24.6871 125.074 22.4431 130.817 19.9011 136.601H34.4741C38.7371 136.6 42.1941 140.058 42.1941 144.318Z" transform="translate(87.0515 545.963)" fill="#FCD2BE"/>
<path d="M152.508 54.823L53.6986 85.44L9.7436 99.066C-14.4924 38.336 6.18361 0 75.1466 0C144.1 0 152.508 31.152 152.508 54.823Z" transform="translate(188.373 186)" fill="#F9CE55"/>
<path d="M53.6986 85.44L9.7436 99.066C-14.4924 38.336 6.18361 0 75.1466 0C50.6326 6.988 35.1026 58.167 53.6986 85.44Z" transform="translate(188.373 186)" fill="#E2A11E"/>
<path d="M147.168 202.774C102.297 213.045 63.951 211.954 37.656 208.609C13.914 205.583 0 200.715 0 200.715C0 63.838 53.022 0 53.022 0L64.785 1.297L98.963 5.084C105.807 82.816 147.168 202.774 147.168 202.774Z" transform="translate(193.538 352.968)" fill="#EF4A6E"/>
<path d="M37.656 208.609C13.914 205.583 0 200.715 0 200.715C0 63.838 53.022 0 53.022 0L64.785 1.297L67.317 5.33099C67.316 5.33199 19.605 107.578 37.656 208.609Z" transform="translate(193.538 352.968)" fill="#D8254F"/>
<path d="M142.774 16.1516V70.7686C142.774 106.491 113.803 135.461 78.0712 135.461C72.7912 135.461 67.6563 134.833 62.7473 133.629C37.2143 127.434 17.6093 106.089 13.9863 79.6396C11.1153 78.6306 8.41825 76.9846 6.11325 74.6796C-2.03775 66.5386 -2.03775 53.3246 6.11325 45.1846C8.25425 43.0436 10.7343 41.4586 13.3793 40.4506C20.8303 37.5896 29.6092 39.1646 35.6192 45.1746C35.6192 41.1816 37.8523 33.2056 43.0603 25.0446C55.5853 5.41764 85.3483 -15.2274 142.774 16.1516Z" transform="translate(198.106 224.671)" fill="#FCD2BE"/>
<path d="M62.7473 108.584C37.2143 102.389 17.6093 81.044 13.9863 54.595C11.1153 53.586 8.41825 51.94 6.11325 49.635C-2.03775 41.494 -2.03775 28.28 6.11325 20.14C8.25425 17.999 10.7343 16.414 13.3793 15.406C20.8303 12.545 29.6092 14.12 35.6192 20.13C35.6192 16.137 37.8523 8.161 43.0603 0C37.1943 37.068 38.1103 92.601 62.7473 108.584Z" transform="translate(198.106 249.716)" fill="#FAB998"/>
<path d="M7.71899 26.139C3.45499 26.139 0 22.683 0 18.42V7.719C0 3.456 3.45499 0 7.71899 0C11.983 0 15.438 3.456 15.438 7.719V18.42C15.438 22.683 11.983 26.139 7.71899 26.139Z" transform="translate(277.944 261.901)" fill="#393A42"/>
<path d="M7.71899 26.139C3.45499 26.139 0 22.683 0 18.42V7.719C0 3.456 3.45499 0 7.71899 0C11.983 0 15.438 3.456 15.438 7.719V18.42C15.438 22.683 11.983 26.139 7.71899 26.139Z" transform="translate(305.765 261.901)" fill="#393A42"/>
<path d="M34.2108 30.4683C34.0708 30.4683 33.9318 30.4643 33.7928 30.4573C18.9678 29.6663 7.63474 23.1273 1.01874 11.5493C-1.09726 7.84829 0.189749 3.1333 3.89075 1.0183C7.59075 -1.0967 12.3067 0.189294 14.4207 3.89029C18.4157 10.8823 25.0217 14.5293 34.6137 15.0423C38.8717 15.2693 42.1377 18.9043 41.9107 23.1613C41.6907 27.2783 38.2838 30.4683 34.2108 30.4683Z" transform="translate(254.401 305.907)" fill="white"/>
<path d="M172.296 54.822C177.58 35.268 175.52 0 120.977 0C66.4339 0 12.9158 4.393 1.59485 84.667C-9.72615 164.941 42.9348 240.068 42.9348 240.068" transform="translate(39.5398 186.001)" fill="#EF4A6E"/>
<path d="M42.9356 238.659L58.6716 216.121C54.6576 170.921 42.7916 4.353 85.4806 0C44.8806 4.22 10.4146 20.686 1.59458 83.258C-9.72542 163.532 42.9356 238.659 42.9356 238.659Z" transform="translate(39.54 187.41)" fill="#D8254F"/>
<path d="M147.169 202.774C102.298 213.045 63.952 211.954 37.657 208.609C13.915 205.583 0 200.715 0 200.715C0 63.838 53.022 0 53.022 0L64.785 1.297L98.963 5.084C105.808 82.816 147.169 202.774 147.169 202.774Z" transform="translate(64.4917 352.968)" fill="#46DEB5"/>
<path d="M37.657 208.609C13.915 205.583 0 200.715 0 200.715C0 63.838 53.022 0 53.022 0L64.785 1.297L67.317 5.33099C67.317 5.33199 19.605 107.578 37.657 208.609Z" transform="translate(64.4927 352.968)" fill="#22C79A"/>
<path d="M7.72562 134.563C7.07362 134.563 6.41062 134.479 5.74962 134.305C1.62762 133.216 -0.830384 128.994 0.257616 124.872C9.16162 91.1555 27.6306 45.2945 65.0466 18.2805C88.0736 1.65551 107.462 0.0785118 108.276 0.0205118C112.531 -0.287488 116.225 2.90951 116.532 7.16051C116.84 11.3995 113.663 15.0855 109.43 15.4145C109.047 15.4495 92.6956 17.0585 73.2026 31.4405C46.9556 50.8045 26.8926 84.4755 15.1826 128.814C14.2696 132.273 11.1446 134.563 7.72562 134.563Z" transform="translate(0 399.826)" fill="#FCD2BE"/>
<path d="M42.1941 24.935C42.1941 29.196 38.7361 32.654 34.4751 32.654H7.7171C5.0311 32.654 2.5401 31.265 1.1411 28.98C-0.2579 26.695 -0.381905 23.845 0.832095 21.447C4.4851 14.233 7.5941 7.07 10.2381 0H26.6321C24.6871 5.691 22.4431 11.434 19.9011 17.218H34.4741C38.7371 17.217 42.1941 20.675 42.1941 24.935Z" transform="translate(87.0515 665.346)" fill="#3D8299"/>
<path d="M42.1841 24.935C42.1841 29.196 38.7261 32.654 34.4651 32.654H7.7171C5.0311 32.654 2.54009 31.265 1.14109 28.98C-0.257908 26.695 -0.381898 23.845 0.832102 21.447C4.4851 14.233 7.60409 7.07 10.2381 0H26.6321C24.6871 5.691 22.4431 11.434 19.9011 17.218H34.4631C38.7251 17.217 42.1841 20.675 42.1841 24.935Z" transform="translate(137.356 665.346)" fill="#3D8299"/>
<path d="M42.1979 24.935C42.1979 29.196 38.7399 32.654 34.4789 32.654H7.72087C5.03487 32.654 2.54386 31.265 1.14486 28.98C-0.265145 26.695 -0.378135 23.845 0.835865 21.447C4.48886 14.233 7.60787 7.07 10.2419 0H26.6359C24.6909 5.691 22.4469 11.434 19.9049 17.218H34.4779C38.7389 17.217 42.1979 20.675 42.1979 24.935Z" transform="translate(216.094 665.346)" fill="#EF4A6E"/>
<path d="M42.1879 24.935C42.1879 29.196 38.7299 32.654 34.4689 32.654H7.72084C5.03484 32.654 2.54386 31.265 1.14486 28.98C-0.265145 26.695 -0.378135 23.845 0.835865 21.447C4.48886 14.233 7.60784 7.07 10.2418 0H26.6359C24.6909 5.691 22.4469 11.434 19.9049 17.218H34.4668C38.7308 17.217 42.1879 20.675 42.1879 24.935Z" transform="translate(266.397 665.346)" fill="#EF4A6E"/>
<path d="M6.11313 68.818C8.41813 71.123 11.1151 72.77 13.9861 73.778C17.6091 100.227 37.2141 121.572 62.7471 127.767C67.6561 128.971 72.7911 129.599 78.0711 129.599C113.803 129.599 142.774 100.628 142.774 64.907V10.291C142.774 10.291 114.092 11.32 102.771 0C86.3361 21.334 64.9811 24.308 50.8201 23.382C50.8201 23.372 50.8201 23.372 50.8201 23.372C41.7531 22.775 35.6301 20.583 35.6301 20.583V39.324L35.6201 39.314C29.6101 33.304 20.8311 31.729 13.3801 34.59C10.7351 35.599 8.25513 37.183 6.11412 39.324C-2.03788 47.464 -2.03787 60.678 6.11313 68.818Z" transform="translate(69.0664 230.532)" fill="#FCD2BE"/>
<path d="M6.11325 48.236C8.41825 50.541 11.1153 52.188 13.9863 53.196C17.6093 79.645 37.2143 100.99 62.7473 107.185C29.1453 88.753 50.5312 3.941 50.8192 2.799C50.8192 2.789 50.8192 2.789 50.8192 2.789C41.7522 2.192 35.6292 0 35.6292 0V18.741L35.6192 18.731C29.6092 12.721 20.8302 11.146 13.3792 14.007C10.7342 15.016 8.25425 16.6 6.11325 18.741C-2.03775 26.882 -2.03775 40.096 6.11325 48.236Z" transform="translate(69.0664 251.114)" fill="#FAB998"/>
<path d="M7.71901 26.139C3.45501 26.139 0 22.683 0 18.42V7.719C0 3.456 3.45501 0 7.71901 0C11.983 0 15.438 3.456 15.438 7.719V18.42C15.438 22.683 11.983 26.139 7.71901 26.139Z" transform="translate(148.899 261.901)" fill="#393A42"/>
<path d="M7.71899 26.139C3.45499 26.139 0 22.683 0 18.42V7.719C0 3.456 3.45499 0 7.71899 0C11.983 0 15.438 3.456 15.438 7.719V18.42C15.438 22.683 11.982 26.139 7.71899 26.139Z" transform="translate(176.721 261.901)" fill="#393A42"/>
<path d="M34.2097 30.4683C34.0697 30.4683 33.9307 30.4643 33.7917 30.4573C18.9677 29.6663 7.63474 23.1273 1.01874 11.5493C-1.09726 7.84829 0.189738 3.1333 3.89074 1.0183C7.59074 -1.0967 12.3057 0.189294 14.4207 3.89029C18.4157 10.8823 25.0207 14.5293 34.6127 15.0423C38.8707 15.2693 42.1368 18.9043 41.9098 23.1613C41.6898 27.2783 38.2827 30.4683 34.2097 30.4683Z" transform="translate(125.357 305.907)" fill="white"/>
<path d="M371.383 0H22.799C10.208 0 0 10.208 0 22.799V123.076C0 135.667 10.208 145.875 22.799 145.875H284.775V187.101L321.544 145.875H371.383C383.974 145.875 394.182 135.667 394.182 123.076V22.799C394.182 10.208 383.975 0 371.383 0Z" transform="translate(99)" fill="white"/>
<path d="M18.1406 16.3164C18.0078 18.1523 17.3281 19.5977 16.1016 20.6523C14.8828 21.707 13.2734 22.2344 11.2734 22.2344C9.08594 22.2344 7.36328 21.5 6.10547 20.0312C4.85547 18.5547 4.23047 16.5312 4.23047 13.9609V12.918C4.23047 11.2773 4.51953 9.83203 5.09766 8.58203C5.67578 7.33203 6.5 6.375 7.57031 5.71094C8.64844 5.03906 9.89844 4.70312 11.3203 4.70312C13.2891 4.70312 14.875 5.23047 16.0781 6.28516C17.2812 7.33984 17.9766 8.82031 18.1641 10.7266H14.6484C14.5625 9.625 14.2539 8.82812 13.7227 8.33594C13.1992 7.83594 12.3984 7.58594 11.3203 7.58594C10.1484 7.58594 9.26953 8.00781 8.68359 8.85156C8.10547 9.6875 7.80859 10.9883 7.79297 12.7539V14.043C7.79297 15.8867 8.07031 17.2344 8.625 18.0859C9.1875 18.9375 10.0703 19.3633 11.2734 19.3633C12.3594 19.3633 13.168 19.1172 13.6992 18.625C14.2383 18.125 14.5469 17.3555 14.625 16.3164H18.1406ZM27.9492 18.0039L31.2656 9.32031H35.5078V22H32.1211V14.2188L29.0859 22H26.8125L23.8359 14.3477V22H20.4492V9.32031H24.6562L27.9492 18.0039ZM37.9336 15.543C37.9336 14.2852 38.1758 13.1641 38.6602 12.1797C39.1445 11.1953 39.8398 10.4336 40.7461 9.89453C41.6602 9.35547 42.7188 9.08594 43.9219 9.08594C45.6328 9.08594 47.0273 9.60938 48.1055 10.6562C49.1914 11.7031 49.7969 13.125 49.9219 14.9219L49.9453 15.7891C49.9453 17.7344 49.4023 19.2969 48.3164 20.4766C47.2305 21.6484 45.7734 22.2344 43.9453 22.2344C42.1172 22.2344 40.6562 21.6484 39.5625 20.4766C38.4766 19.3047 37.9336 17.7109 37.9336 15.6953V15.543ZM41.3203 15.7891C41.3203 16.9922 41.5469 17.9141 42 18.5547C42.4531 19.1875 43.1016 19.5039 43.9453 19.5039C44.7656 19.5039 45.4062 19.1914 45.8672 18.5664C46.3281 17.9336 46.5586 16.9258 46.5586 15.543C46.5586 14.3633 46.3281 13.4492 45.8672 12.8008C45.4062 12.1523 44.7578 11.8281 43.9219 11.8281C43.0938 11.8281 42.4531 12.1523 42 12.8008C41.5469 13.4414 41.3203 14.4375 41.3203 15.7891ZM62.2031 12.0391H58.1367V22H54.7383V12.0391H50.7422V9.32031H62.2031V12.0391ZM75.3281 15.7773C75.3281 17.7305 74.8828 19.2969 73.9922 20.4766C73.1094 21.6484 71.9141 22.2344 70.4062 22.2344C69.125 22.2344 68.0898 21.7891 67.3008 20.8984V26.875H63.9141V9.32031H67.0547L67.1719 10.5625C67.9922 9.57812 69.0625 9.08594 70.3828 9.08594C71.9453 9.08594 73.1602 9.66406 74.0273 10.8203C74.8945 11.9766 75.3281 13.5703 75.3281 15.6016V15.7773ZM71.9414 15.5312C71.9414 14.3516 71.7305 13.4414 71.3086 12.8008C70.8945 12.1602 70.2891 11.8398 69.4922 11.8398C68.4297 11.8398 67.6992 12.2461 67.3008 13.0586V18.25C67.7148 19.0859 68.4531 19.5039 69.5156 19.5039C71.1328 19.5039 71.9414 18.1797 71.9414 15.5312ZM85.0781 9.32031H88.4648V22H85.0781V14.1719L80.8359 22H77.4375V9.32031H80.8359V17.1367L85.0781 9.32031ZM102 17.3242H100.641V22H97.2539V9.32031H100.641V14.0898H101.848L104.613 9.32031H108.891L104.742 15.3555L109.277 22H104.766L102 17.3242ZM117.902 22C117.746 21.6953 117.633 21.3164 117.562 20.8633C116.742 21.7773 115.676 22.2344 114.363 22.2344C113.121 22.2344 112.09 21.875 111.27 21.1562C110.457 20.4375 110.051 19.5312 110.051 18.4375C110.051 17.0938 110.547 16.0625 111.539 15.3438C112.539 14.625 113.98 14.2617 115.863 14.2539H117.422V13.5273C117.422 12.9414 117.27 12.4727 116.965 12.1211C116.668 11.7695 116.195 11.5938 115.547 11.5938C114.977 11.5938 114.527 11.7305 114.199 12.0039C113.879 12.2773 113.719 12.6523 113.719 13.1289H110.332C110.332 12.3945 110.559 11.7148 111.012 11.0898C111.465 10.4648 112.105 9.97656 112.934 9.625C113.762 9.26562 114.691 9.08594 115.723 9.08594C117.285 9.08594 118.523 9.48047 119.438 10.2695C120.359 11.0508 120.82 12.1523 120.82 13.5742V19.0703C120.828 20.2734 120.996 21.1836 121.324 21.8008V22H117.902ZM115.102 19.6445C115.602 19.6445 116.062 19.5352 116.484 19.3164C116.906 19.0898 117.219 18.7891 117.422 18.4141V16.2344H116.156C114.461 16.2344 113.559 16.8203 113.449 17.9922L113.438 18.1914C113.438 18.6133 113.586 18.9609 113.883 19.2344C114.18 19.5078 114.586 19.6445 115.102 19.6445ZM128.391 17.3242H127.031V22H123.645V9.32031H127.031V14.0898H128.238L131.004 9.32031H135.281L131.133 15.3555L135.668 22H131.156L128.391 17.3242ZM135.738 15.543C135.738 14.2852 135.98 13.1641 136.465 12.1797C136.949 11.1953 137.645 10.4336 138.551 9.89453C139.465 9.35547 140.523 9.08594 141.727 9.08594C143.438 9.08594 144.832 9.60938 145.91 10.6562C146.996 11.7031 147.602 13.125 147.727 14.9219L147.75 15.7891C147.75 17.7344 147.207 19.2969 146.121 20.4766C145.035 21.6484 143.578 22.2344 141.75 22.2344C139.922 22.2344 138.461 21.6484 137.367 20.4766C136.281 19.3047 135.738 17.7109 135.738 15.6953V15.543ZM139.125 15.7891C139.125 16.9922 139.352 17.9141 139.805 18.5547C140.258 19.1875 140.906 19.5039 141.75 19.5039C142.57 19.5039 143.211 19.1914 143.672 18.5664C144.133 17.9336 144.363 16.9258 144.363 15.543C144.363 14.3633 144.133 13.4492 143.672 12.8008C143.211 12.1523 142.562 11.8281 141.727 11.8281C140.898 11.8281 140.258 12.1523 139.805 12.8008C139.352 13.4414 139.125 14.4375 139.125 15.7891ZM157.477 9.32031H160.863V22H157.477V14.1719L153.234 22H149.836V9.32031H153.234V17.1367L157.477 9.32031ZM159.469 4.17578C159.469 5.21484 159.094 6.05469 158.344 6.69531C157.602 7.33594 156.625 7.65625 155.414 7.65625C154.203 7.65625 153.223 7.33984 152.473 6.70703C151.73 6.07422 151.359 5.23047 151.359 4.17578H153.762C153.762 4.66797 153.906 5.05078 154.195 5.32422C154.492 5.58984 154.898 5.72266 155.414 5.72266C155.922 5.72266 156.32 5.58984 156.609 5.32422C156.898 5.05078 157.043 4.66797 157.043 4.17578H159.469ZM174.398 17.3242H173.039V22H169.652V9.32031H173.039V14.0898H174.246L177.012 9.32031H181.289L177.141 15.3555L181.676 22H177.164L174.398 17.3242ZM194.367 15.7773C194.367 17.7305 193.922 19.2969 193.031 20.4766C192.148 21.6484 190.953 22.2344 189.445 22.2344C188.164 22.2344 187.129 21.7891 186.34 20.8984V26.875H182.953V9.32031H186.094L186.211 10.5625C187.031 9.57812 188.102 9.08594 189.422 9.08594C190.984 9.08594 192.199 9.66406 193.066 10.8203C193.934 11.9766 194.367 13.5703 194.367 15.6016V15.7773ZM190.98 15.5312C190.98 14.3516 190.77 13.4414 190.348 12.8008C189.934 12.1602 189.328 11.8398 188.531 11.8398C187.469 11.8398 186.738 12.2461 186.34 13.0586V18.25C186.754 19.0859 187.492 19.5039 188.555 19.5039C190.172 19.5039 190.98 18.1797 190.98 15.5312ZM201.07 17.207L203.414 9.32031H207.047L201.949 23.9688L201.668 24.6367C200.91 26.293 199.66 27.1211 197.918 27.1211C197.426 27.1211 196.926 27.0469 196.418 26.8984V24.332L196.934 24.3438C197.574 24.3438 198.051 24.2461 198.363 24.0508C198.684 23.8555 198.934 23.5312 199.113 23.0781L199.512 22.0352L195.07 9.32031H198.715L201.07 17.207ZM218.906 12.0391H214.84V22H211.441V12.0391H207.445V9.32031H218.906V12.0391ZM219.738 15.543C219.738 14.2852 219.98 13.1641 220.465 12.1797C220.949 11.1953 221.645 10.4336 222.551 9.89453C223.465 9.35547 224.523 9.08594 225.727 9.08594C227.438 9.08594 228.832 9.60938 229.91 10.6562C230.996 11.7031 231.602 13.125 231.727 14.9219L231.75 15.7891C231.75 17.7344 231.207 19.2969 230.121 20.4766C229.035 21.6484 227.578 22.2344 225.75 22.2344C223.922 22.2344 222.461 21.6484 221.367 20.4766C220.281 19.3047 219.738 17.7109 219.738 15.6953V15.543ZM223.125 15.7891C223.125 16.9922 223.352 17.9141 223.805 18.5547C224.258 19.1875 224.906 19.5039 225.75 19.5039C226.57 19.5039 227.211 19.1914 227.672 18.5664C228.133 17.9336 228.363 16.9258 228.363 15.543C228.363 14.3633 228.133 13.4492 227.672 12.8008C227.211 12.1523 226.562 11.8281 225.727 11.8281C224.898 11.8281 224.258 12.1523 223.805 12.8008C223.352 13.4414 223.125 14.4375 223.125 15.7891ZM241.477 9.32031H244.863V22H241.477V14.1719L237.234 22H233.836V9.32031H237.234V17.1367L241.477 9.32031ZM243.469 4.17578C243.469 5.21484 243.094 6.05469 242.344 6.69531C241.602 7.33594 240.625 7.65625 239.414 7.65625C238.203 7.65625 237.223 7.33984 236.473 6.70703C235.73 6.07422 235.359 5.23047 235.359 4.17578H237.762C237.762 4.66797 237.906 5.05078 238.195 5.32422C238.492 5.58984 238.898 5.72266 239.414 5.72266C239.922 5.72266 240.32 5.58984 240.609 5.32422C240.898 5.05078 241.043 4.66797 241.043 4.17578H243.469ZM253.605 19.2695C254.371 18.457 254.891 17.6523 255.164 16.8555C255.438 16.0586 255.59 14.9297 255.621 13.4688L255.715 9.32031H265.043V19.2695H266.871V25.8086H263.484V22H255.973V25.8086H252.516V19.2695H253.605ZM257.602 19.2695H261.668V12.1211H259.031L259.008 13.6445C258.938 15.9727 258.469 17.8477 257.602 19.2695ZM276.023 9.32031H279.41V22H276.023V14.1719L271.781 22H268.383V9.32031H271.781V17.1367L276.023 9.32031ZM282.223 22V9.32031H287.52C289.246 9.32031 290.57 9.625 291.492 10.2344C292.414 10.8438 292.875 11.7188 292.875 12.8594C292.875 13.4453 292.68 13.9727 292.289 14.4414C291.906 14.9023 291.344 15.2578 290.602 15.5078C291.508 15.6797 292.219 16.0195 292.734 16.5273C293.258 17.0273 293.52 17.6445 293.52 18.3789C293.52 19.5586 293.074 20.457 292.184 21.0742C291.301 21.6914 290.016 22 288.328 22H282.223ZM285.609 16.7383V19.293H288.34C289.535 19.293 290.133 18.875 290.133 18.0391C290.133 17.1875 289.562 16.7539 288.422 16.7383H285.609ZM285.609 14.4648H287.707C288.895 14.4492 289.488 14.0664 289.488 13.3164C289.488 12.8555 289.324 12.5273 288.996 12.332C288.676 12.1367 288.184 12.0391 287.52 12.0391H285.609V14.4648ZM302.941 22C302.785 21.6953 302.672 21.3164 302.602 20.8633C301.781 21.7773 300.715 22.2344 299.402 22.2344C298.16 22.2344 297.129 21.875 296.309 21.1562C295.496 20.4375 295.09 19.5312 295.09 18.4375C295.09 17.0938 295.586 16.0625 296.578 15.3438C297.578 14.625 299.02 14.2617 300.902 14.2539H302.461V13.5273C302.461 12.9414 302.309 12.4727 302.004 12.1211C301.707 11.7695 301.234 11.5938 300.586 11.5938C300.016 11.5938 299.566 11.7305 299.238 12.0039C298.918 12.2773 298.758 12.6523 298.758 13.1289H295.371C295.371 12.3945 295.598 11.7148 296.051 11.0898C296.504 10.4648 297.145 9.97656 297.973 9.625C298.801 9.26562 299.73 9.08594 300.762 9.08594C302.324 9.08594 303.562 9.48047 304.477 10.2695C305.398 11.0508 305.859 12.1523 305.859 13.5742V19.0703C305.867 20.2734 306.035 21.1836 306.363 21.8008V22H302.941ZM300.141 19.6445C300.641 19.6445 301.102 19.5352 301.523 19.3164C301.945 19.0898 302.258 18.7891 302.461 18.4141V16.2344H301.195C299.5 16.2344 298.598 16.8203 298.488 17.9922L298.477 18.1914C298.477 18.6133 298.625 18.9609 298.922 19.2344C299.219 19.5078 299.625 19.6445 300.141 19.6445ZM319.453 22H316.055V17.125H311.848V22H308.461V9.32031H311.848V14.4062H316.055V9.32031H319.453V22ZM50.4492 51.3203V64H47.0742V59.6172H44.9297L42.4922 64H39.0586L41.8242 59.043C41.0664 58.6914 40.4805 58.2148 40.0664 57.6133C39.6602 57.0117 39.457 56.3281 39.457 55.5625C39.457 54.3359 39.9297 53.332 40.875 52.5508C41.8281 51.7617 43.1016 51.3516 44.6953 51.3203H50.4492ZM44.7539 57.25H47.0742V54.0391H44.8711C44.2695 54.0391 43.7812 54.1992 43.4062 54.5195C43.0312 54.832 42.8438 55.2148 42.8438 55.668C42.8438 56.1211 43.0234 56.4961 43.3828 56.793C43.7422 57.0898 44.1992 57.2422 44.7539 57.25ZM64.2539 59.3242H62.8945V64H59.5078V51.3203H62.8945V56.0898H64.1016L66.8672 51.3203H71.1445L66.9961 57.3555L71.5312 64H67.0195L64.2539 59.3242ZM77.543 59.207L79.8867 51.3203H83.5195L78.4219 65.9688L78.1406 66.6367C77.3828 68.293 76.1328 69.1211 74.3906 69.1211C73.8984 69.1211 73.3984 69.0469 72.8906 68.8984V66.332L73.4062 66.3438C74.0469 66.3438 74.5234 66.2461 74.8359 66.0508C75.1562 65.8555 75.4062 65.5312 75.5859 65.0781L75.9844 64.0352L71.543 51.3203H75.1875L77.543 59.207ZM95.8828 64H92.4844V54.0625H88.2422V64H84.8555V51.3203H95.8828V64ZM106.113 51.3203H109.5V64H106.113V56.1719L101.871 64H98.4727V51.3203H101.871V59.1367L106.113 51.3203ZM123.117 51.3203V64H119.73V54.0625H116.742L116.531 57.9766C116.398 60.0625 115.988 61.582 115.301 62.5352C114.613 63.4883 113.59 63.9766 112.23 64H111.082L111.047 61.2461L111.469 61.2109C112.078 61.1641 112.523 60.8047 112.805 60.1328C113.086 59.4609 113.262 58.3164 113.332 56.6992L113.566 51.3203H123.117ZM133.078 64C132.922 63.6953 132.809 63.3164 132.738 62.8633C131.918 63.7773 130.852 64.2344 129.539 64.2344C128.297 64.2344 127.266 63.875 126.445 63.1562C125.633 62.4375 125.227 61.5312 125.227 60.4375C125.227 59.0938 125.723 58.0625 126.715 57.3438C127.715 56.625 129.156 56.2617 131.039 56.2539H132.598V55.5273C132.598 54.9414 132.445 54.4727 132.141 54.1211C131.844 53.7695 131.371 53.5938 130.723 53.5938C130.152 53.5938 129.703 53.7305 129.375 54.0039C129.055 54.2773 128.895 54.6523 128.895 55.1289H125.508C125.508 54.3945 125.734 53.7148 126.188 53.0898C126.641 52.4648 127.281 51.9766 128.109 51.625C128.938 51.2656 129.867 51.0859 130.898 51.0859C132.461 51.0859 133.699 51.4805 134.613 52.2695C135.535 53.0508 135.996 54.1523 135.996 55.5742V61.0703C136.004 62.2734 136.172 63.1836 136.5 63.8008V64H133.078ZM130.277 61.6445C130.777 61.6445 131.238 61.5352 131.66 61.3164C132.082 61.0898 132.395 60.7891 132.598 60.4141V58.2344H131.332C129.637 58.2344 128.734 58.8203 128.625 59.9922L128.613 60.1914C128.613 60.6133 128.762 60.9609 129.059 61.2344C129.355 61.5078 129.762 61.6445 130.277 61.6445ZM155.566 64H152.168V59.125H147.961V64H144.574V51.3203H147.961V56.4062H152.168V51.3203H155.566V64ZM165.539 64C165.383 63.6953 165.27 63.3164 165.199 62.8633C164.379 63.7773 163.312 64.2344 162 64.2344C160.758 64.2344 159.727 63.875 158.906 63.1562C158.094 62.4375 157.688 61.5312 157.688 60.4375C157.688 59.0938 158.184 58.0625 159.176 57.3438C160.176 56.625 161.617 56.2617 163.5 56.2539H165.059V55.5273C165.059 54.9414 164.906 54.4727 164.602 54.1211C164.305 53.7695 163.832 53.5938 163.184 53.5938C162.613 53.5938 162.164 53.7305 161.836 54.0039C161.516 54.2773 161.355 54.6523 161.355 55.1289H157.969C157.969 54.3945 158.195 53.7148 158.648 53.0898C159.102 52.4648 159.742 51.9766 160.57 51.625C161.398 51.2656 162.328 51.0859 163.359 51.0859C164.922 51.0859 166.16 51.4805 167.074 52.2695C167.996 53.0508 168.457 54.1523 168.457 55.5742V61.0703C168.465 62.2734 168.633 63.1836 168.961 63.8008V64H165.539ZM162.738 61.6445C163.238 61.6445 163.699 61.5352 164.121 61.3164C164.543 61.0898 164.855 60.7891 165.059 60.4141V58.2344H163.793C162.098 58.2344 161.195 58.8203 161.086 59.9922L161.074 60.1914C161.074 60.6133 161.223 60.9609 161.52 61.2344C161.816 61.5078 162.223 61.6445 162.738 61.6445ZM181.852 46.9375L186.234 59.3125L190.594 46.9375H195.211V64H191.684V59.3359L192.035 51.2852L187.43 64H185.016L180.422 51.2969L180.773 59.3359V64H177.258V46.9375H181.852ZM203.895 64.2344C202.035 64.2344 200.52 63.6641 199.348 62.5234C198.184 61.3828 197.602 59.8633 197.602 57.9648V57.6367C197.602 56.3633 197.848 55.2266 198.34 54.2266C198.832 53.2188 199.527 52.4453 200.426 51.9062C201.332 51.3594 202.363 51.0859 203.52 51.0859C205.254 51.0859 206.617 51.6328 207.609 52.7266C208.609 53.8203 209.109 55.3711 209.109 57.3789V58.7617H201.035C201.145 59.5898 201.473 60.2539 202.02 60.7539C202.574 61.2539 203.273 61.5039 204.117 61.5039C205.422 61.5039 206.441 61.0312 207.176 60.0859L208.84 61.9492C208.332 62.668 207.645 63.2305 206.777 63.6367C205.91 64.0352 204.949 64.2344 203.895 64.2344ZM203.508 53.8281C202.836 53.8281 202.289 54.0547 201.867 54.5078C201.453 54.9609 201.188 55.6094 201.07 56.4531H205.781V56.1836C205.766 55.4336 205.562 54.8555 205.172 54.4492C204.781 54.0352 204.227 53.8281 203.508 53.8281ZM222.469 57.7773C222.469 59.8086 222.035 61.3945 221.168 62.5352C220.301 63.668 219.09 64.2344 217.535 64.2344C216.16 64.2344 215.062 63.707 214.242 62.6523L214.09 64H211.043V46H214.43V52.457C215.211 51.543 216.238 51.0859 217.512 51.0859C219.059 51.0859 220.27 51.6562 221.145 52.7969C222.027 53.9297 222.469 55.5273 222.469 57.5898V57.7773ZM219.082 57.5312C219.082 56.25 218.879 55.3164 218.473 54.7305C218.066 54.1367 217.461 53.8398 216.656 53.8398C215.578 53.8398 214.836 54.2812 214.43 55.1641V60.168C214.844 61.0586 215.594 61.5039 216.68 61.5039C217.773 61.5039 218.492 60.9648 218.836 59.8867C219 59.3711 219.082 58.5859 219.082 57.5312ZM230.402 64.2344C228.543 64.2344 227.027 63.6641 225.855 62.5234C224.691 61.3828 224.109 59.8633 224.109 57.9648V57.6367C224.109 56.3633 224.355 55.2266 224.848 54.2266C225.34 53.2188 226.035 52.4453 226.934 51.9062C227.84 51.3594 228.871 51.0859 230.027 51.0859C231.762 51.0859 233.125 51.6328 234.117 52.7266C235.117 53.8203 235.617 55.3711 235.617 57.3789V58.7617H227.543C227.652 59.5898 227.98 60.2539 228.527 60.7539C229.082 61.2539 229.781 61.5039 230.625 61.5039C231.93 61.5039 232.949 61.0312 233.684 60.0859L235.348 61.9492C234.84 62.668 234.152 63.2305 233.285 63.6367C232.418 64.0352 231.457 64.2344 230.402 64.2344ZM230.016 53.8281C229.344 53.8281 228.797 54.0547 228.375 54.5078C227.961 54.9609 227.695 55.6094 227.578 56.4531H232.289V56.1836C232.273 55.4336 232.07 54.8555 231.68 54.4492C231.289 54.0352 230.734 53.8281 230.016 53.8281ZM241.125 64H237.727V46H241.125V64ZM244.102 62.3359C244.102 61.7969 244.281 61.3594 244.641 61.0234C245.008 60.6875 245.465 60.5195 246.012 60.5195C246.566 60.5195 247.023 60.6875 247.383 61.0234C247.75 61.3594 247.934 61.7969 247.934 62.3359C247.934 62.8672 247.754 63.3008 247.395 63.6367C247.035 63.9648 246.574 64.1289 246.012 64.1289C245.457 64.1289 245 63.9648 244.641 63.6367C244.281 63.3008 244.102 62.8672 244.102 62.3359ZM250.383 57.543C250.383 56.2852 250.625 55.1641 251.109 54.1797C251.594 53.1953 252.289 52.4336 253.195 51.8945C254.109 51.3555 255.168 51.0859 256.371 51.0859C258.082 51.0859 259.477 51.6094 260.555 52.6562C261.641 53.7031 262.246 55.125 262.371 56.9219L262.395 57.7891C262.395 59.7344 261.852 61.2969 260.766 62.4766C259.68 63.6484 258.223 64.2344 256.395 64.2344C254.566 64.2344 253.105 63.6484 252.012 62.4766C250.926 61.3047 250.383 59.7109 250.383 57.6953V57.543ZM253.77 57.7891C253.77 58.9922 253.996 59.9141 254.449 60.5547C254.902 61.1875 255.551 61.5039 256.395 61.5039C257.215 61.5039 257.855 61.1914 258.316 60.5664C258.777 59.9336 259.008 58.9258 259.008 57.543C259.008 56.3633 258.777 55.4492 258.316 54.8008C257.855 54.1523 257.207 53.8281 256.371 53.8281C255.543 53.8281 254.902 54.1523 254.449 54.8008C253.996 55.4414 253.77 56.4375 253.77 57.7891ZM271.605 54.4961C271.145 54.4336 270.738 54.4023 270.387 54.4023C269.105 54.4023 268.266 54.8359 267.867 55.7031V64H264.48V51.3203H267.68L267.773 52.832C268.453 51.668 269.395 51.0859 270.598 51.0859C270.973 51.0859 271.324 51.1367 271.652 51.2383L271.605 54.4961ZM272.52 57.5664C272.52 55.6211 272.98 54.0547 273.902 52.8672C274.832 51.6797 276.082 51.0859 277.652 51.0859C279.043 51.0859 280.125 51.5625 280.898 52.5156L281.039 51.3203H284.109V63.5781C284.109 64.6875 283.855 65.6523 283.348 66.4727C282.848 67.293 282.141 67.918 281.227 68.3477C280.312 68.7773 279.242 68.9922 278.016 68.9922C277.086 68.9922 276.18 68.8047 275.297 68.4297C274.414 68.0625 273.746 67.5859 273.293 67L274.793 64.9375C275.637 65.8828 276.66 66.3555 277.863 66.3555C278.762 66.3555 279.461 66.1133 279.961 65.6289C280.461 65.1523 280.711 64.4727 280.711 63.5898V62.9102C279.93 63.793 278.902 64.2344 277.629 64.2344C276.105 64.2344 274.871 63.6406 273.926 62.4531C272.988 61.2578 272.52 59.6758 272.52 57.707V57.5664ZM275.906 57.8125C275.906 58.9609 276.137 59.8633 276.598 60.5195C277.059 61.168 277.691 61.4922 278.496 61.4922C279.527 61.4922 280.266 61.1055 280.711 60.332V55C280.258 54.2266 279.527 53.8398 278.52 53.8398C277.707 53.8398 277.066 54.1719 276.598 54.8359C276.137 55.5 275.906 56.4922 275.906 57.8125Z" transform="translate(134 38)" fill="#828282"/>
</svg>
