<svg width="717" height="597" viewBox="0 0 717 597" fill="none" xmlns="http://www.w3.org/2000/svg"><path d="M354.999 413.934c2.996 4.085 8.744 4.967 12.829 1.97 3.889-2.85 9.416-5.981 13.684-4.647 4.745 1.468 9.514 8.477 13.427 19.706 16.118 46.334 37.287 70.223 62.93 70.981.391.012.794.025 1.186.025 10.321 0 20.569-3.975 30.169-11.424 13.463-10.435 25.669-27.68 35.085-50.31 1.944-4.673-.27-10.043-4.953-11.988-4.67-1.945-10.04.257-11.984 4.942-7.888 18.96-18.11 33.724-28.689 42.249-6.58 5.284-13.28 8.183-19.652 8.183-.207 0-.416 0-.623-.011-16.766-.502-33.153-21.345-46.14-58.677-5.087-14.617-11.666-24.108-19.982-28.867l-3.302-17.43a9.165 9.165 0 0 0-10.713-7.303c-4.976.942-8.254 5.736-7.312 10.715l2.127 11.242c-5.197 1.174-10.578 3.767-16.105 7.828-4.085 2.982-4.977 8.731-1.982 12.816z" fill="#FCD2BE"/><path d="M478.683 475.437l10.542 15.107c13.463-10.434 25.669-27.68 35.085-50.31 1.944-4.673-.27-10.043-4.953-11.988-4.67-1.945-10.04.257-11.984 4.942-7.889 18.96-18.112 33.724-28.69 42.25z" fill="#D8254F"/><path d="M470.28 577.98s54.367 27.19 109.41 16.551c20.596-3.964 41.29-13.235 59.261-31.211 0 0-17.224-115.406-49.5-182.852-4.29-8.96-8.845-17.073-13.67-23.959l-20.073 1.553-40.571 3.146c0 5.644-.719 16.692-2.201 31.099-5.019 49.27-18.815 137.995-42.656 185.673z" fill="#EF4A6E"/><path d="M579.692 594.53c20.596-3.964 41.29-13.235 59.261-31.211 0 0-22.105-148.127-63.169-206.811l-20.073 1.553-5.812 5.743c15.023 30.859 50.204 150.272 29.792 230.726z" fill="#D8254F"/><path d="M596.704 430.069c.27.06 27.076 6.006 53.392 16.305 1.406.551 2.764 1.089 4.084 1.64 40.038 16.39 44.477 29.479 44.477 34.457 0 11.474-14.712 20.513-30.28 30.078-11.31 6.948-23.002 14.128-30.51 23.449-9.674 12.012-10.81 25.467-3.351 39.975 1.614 3.167 4.83 4.978 8.156 4.978 1.419 0 2.85-.318 4.183-1.015a9.163 9.163 0 0 0 3.974-12.342c-8.071-15.718 1.553-23.694 27.148-39.411C696.271 516.94 717 504.207 717 482.471c0-19.522-18.93-36.646-57.856-52.243-.843-.342-1.7-.685-2.556-1.015-27.637-10.8-54.809-16.818-55.947-17.063-4.952-1.089-9.845 2.043-10.92 6.997-1.087 4.94 2.043 9.833 6.983 10.922z" fill="#FCD2BE"/><path d="M266.64 273.226H81.641c-45.089 0-81.64-36.561-81.64-81.661V81.661C.001 36.561 36.552 0 81.641 0h185c45.088 0 81.64 36.56 81.64 81.661v109.904c-.001 45.1-36.553 81.661-81.64 81.661zM387.405 274.322c-12.832 0-23.234-10.405-23.234-23.24 0-12.836 10.402-23.241 23.234-23.241 12.832 0 23.235 10.405 23.235 23.24 0 12.836-10.402 23.24-23.235 23.24zM419.813 301.853c3.948 0 7.522-2.632 8.728-6.38 1.236-3.846-.258-8.186-3.629-10.427-6.752-4.49-15.888 1.748-14.03 9.697.958 4.096 4.715 7.11 8.93 7.11z" fill="#36AEF2"/><path d="M450.333 168.902v106.869c0 48.975 39.71 88.696 88.688 88.696 13.119 0 25.56-2.85 36.761-7.959v-.015c27.098-12.361 46.89-37.97 51.08-68.559a28.649 28.649 0 0 0 10.793-6.802c11.172-11.162 11.172-29.279 0-40.438-11.158-11.19-29.285-11.19-40.457 0l-7.448-42.711-5.08-29.08H450.335v-.001h-.001z" fill="#FCD2BE"/><path d="M575.782 356.494c27.098-12.36 46.89-37.97 51.08-68.56a28.65 28.65 0 0 0 10.793-6.8c11.172-11.163 11.172-29.28 0-40.44-11.158-11.19-29.285-11.19-40.457 0l-7.448-42.71-23.346 4.741c9.816 16.972 51.275 78.93 9.378 153.769z" fill="#FAB998"/><path d="M408.875 125.655c0 42.57 34.505 77.069 77.05 77.069h80.477v7.153c0 17.016 13.796 30.802 30.809 30.802 8.238-8.241 20.27-10.399 30.484-6.477v-31.478c0-42.557-34.505-77.069-77.05-77.069h-141.77z" fill="#F9CE55"/><path d="M487.76 125.655h62.886c42.545 0 77.049 34.514 77.049 77.069v31.478c-10.214-3.923-22.246-1.764-30.484 6.477-17.013 0-30.809-13.786-30.809-30.802v-7.153h-1.592c0-42.555-34.504-77.069-77.05-77.069z" fill="#E2A11E"/><path d="M526.02 264.218c5.064 0 9.172-4.108 9.172-9.175v-14.672c0-5.065-4.106-9.174-9.172-9.174-5.065 0-9.172 4.107-9.172 9.174v14.672c0 5.067 4.106 9.175 9.172 9.175zM487.887 264.218c5.064 0 9.172-4.108 9.172-9.175v-14.672c0-5.065-4.106-9.174-9.172-9.174-5.065 0-9.172 4.107-9.172 9.174v14.672c0 5.067 4.106 9.175 9.172 9.175z" fill="#50515B"/><path d="M521.98 330.488c.166 0 .331-.003.498-.013 19.818-1.058 34.955-9.778 43.774-25.215 2.513-4.4.985-10.003-3.413-12.516-4.398-2.515-10-.986-12.513 3.413-5.654 9.896-15.352 15.278-28.827 15.998a9.173 9.173 0 1 0 .482 18.334z" fill="#fff"/><path d="M596.705 430.069c.27.06 27.075 6.006 53.392 16.305 1.406.551 2.764 1.089 4.084 1.64l4.965-17.786c-.844-.342-1.7-.685-2.556-1.014-27.638-10.801-54.81-16.819-55.948-17.064-4.952-1.089-9.844 2.043-10.92 6.997-1.088 4.94 2.042 9.833 6.983 10.922z" fill="#D8254F"/><path d="M259.299 144.805H88.654c-3.48 0-6.356 2.614-6.84 5.979a.72.72 0 0 1-.054-.59l8.892-72.425C92.705 70.516 99.306 65 106.821 65H241.13c7.514 0 14.116 5.516 16.168 12.769l8.895 72.424a.718.718 0 0 1-.054.591c-.483-3.365-3.36-5.979-6.84-5.979z" fill="#F5EEE4"/><path d="M237.606 199.073h22.27v9.577h-22.27v-9.577zM88.077 199.073h22.27v9.577h-22.27v-9.577z" fill="#6C4127"/><path d="M88.653 176.727H259.3c3.815 0 6.939-3.135 6.939-6.962V151.77c0-3.83-3.124-6.962-6.939-6.962H88.656c-3.818 0-6.939 3.135-6.939 6.962v17.995c-.003 3.827 3.121 6.962 6.936 6.962z" fill="#BCB3AA"/><path d="M88.653 199.072H259.3c3.815 0 6.939-3.135 6.939-6.962v-8.418c0-3.83-3.124-6.962-6.939-6.962H88.656c-3.818 0-6.939 3.135-6.939 6.962v8.418c-.003 3.827 3.121 6.962 6.936 6.962z" fill="#9E6C53"/><path d="M88.077 144.805h171.799c0-10.579-8.545-19.153-19.089-19.153H107.165c-10.543 0-19.088 8.574-19.088 19.153z" fill="#7383BF"/><path d="M195.728 125.652c-3.588-3.821-3.54-9.826.185-13.564l15.452-15.504a9.691 9.691 0 0 1 13.741 0l15.452 15.504c3.726 3.738 3.77 9.743.185 13.564h-45.015zM110.395 125.652c-3.588-3.821-3.54-9.826.185-13.564l15.452-15.504a9.691 9.691 0 0 1 13.741 0l15.452 15.504c3.726 3.738 3.77 9.743.185 13.564h-45.015z" fill="#A8C9E3"/></svg>