<svg width="545" height="560" viewBox="0 0 545 560" fill="none" xmlns="http://www.w3.org/2000/svg"><path d="M520.568 260.356V520.72L99.917 502.038V260.357c0-17.312 14.037-31.357 31.362-31.357h357.918c17.325 0 31.372 14.045 31.372 31.357z" fill="#50515B"/><path d="M520.568 489.603v31.117L99.917 502.038v-12.435h420.651z" fill="#393A42"/><path d="M545 502.039H75.48v7.819c0 27.428 22.238 49.663 49.671 49.663h370.176c27.433 0 49.672-22.235 49.672-49.663v-7.819H545z" fill="#50515B"/><path d="M163.002 560h-38.329C97.24 560 75 537.764 75 510.336v-7.818h38.328v7.818c0 27.428 22.24 49.664 49.674 49.664zM342.611 528.865h-64.745c-13.874 0-25.12-11.244-25.12-25.116v-1.709h114.985v1.709c.001 13.87-11.246 25.115-25.12 25.115z" fill="#393A42"/><path d="M491.819 260.359V473.3H128.66V260.359a2.625 2.625 0 0 1 2.616-2.616h357.928a2.625 2.625 0 0 1 2.615 2.616z" fill="#fff"/><path d="M266.099 325.78v42.101c0 26.39-21.407 47.794-47.81 47.794a47.652 47.652 0 0 1-19.819-4.287v-.008c-14.608-6.66-25.278-20.46-27.537-36.944a15.443 15.443 0 0 1-5.817-3.665c-6.024-6.014-6.024-15.777 0-21.79 6.015-6.03 15.787-6.03 21.81 0l4.016-23.017 2.737-15.67 72.42 15.487z" fill="#FCD2BE"/><path d="M198.47 411.38c-14.61-6.66-25.279-20.46-27.538-36.944a15.443 15.443 0 0 1-5.817-3.665c-6.024-6.015-6.024-15.777 0-21.792 6.015-6.03 15.787-6.03 21.81 0l.429-11.701 16.174-8.759c-5.295 9.147-27.644 42.532-5.059 82.86z" fill="#FAB998"/><path d="M170.739 326.01v19.38a15.404 15.404 0 0 1 16.183 3.59v-11.565c3.17 0 5.901-.449 8.266-1.232 14.076-4.607 14.875-20.657 14.875-20.657 15.248 15.237 56.032 10.484 56.032 10.484 0-10.766-4.366-20.514-11.423-27.57-7.05-7.047-16.8-11.412-27.568-11.412h-17.377c-21.528 0-38.988 17.45-38.988 38.982z" fill="#50515B"/><path d="M170.739 326.01v19.38a15.404 15.404 0 0 1 16.183 3.59v-11.565c3.17 0 5.901-.449 8.266-1.232-4.152-22.46 5.97-49.155 24.982-49.155h-10.442c-21.53 0-38.989 17.45-38.989 38.982z" fill="#393A42"/><path d="M220.502 363.897a7.186 7.186 0 0 1-7.187-7.186v-7.906a7.186 7.186 0 0 1 7.187-7.185 7.186 7.186 0 0 1 7.186 7.185v7.906a7.186 7.186 0 0 1-7.186 7.186zM245.852 363.897a7.186 7.186 0 0 1-7.187-7.186v-7.906a7.186 7.186 0 0 1 7.187-7.185 7.186 7.186 0 0 1 7.187 7.185v7.906a7.187 7.187 0 0 1-7.187 7.186z" fill="#50515B"/><path d="M227.472 399.608c-.13 0-.259-.003-.389-.01-11.482-.613-20.274-5.702-25.426-14.714a7.187 7.187 0 0 1 12.48-7.13c2.683 4.693 7.168 7.144 13.713 7.494a7.187 7.187 0 0 1 6.792 7.558 7.187 7.187 0 0 1-7.17 6.802z" fill="#fff"/><path d="M460.678 296.543H331.32a7.186 7.186 0 1 1 0-14.371h129.357a7.186 7.186 0 1 1 .001 14.37zM431.932 322.41H331.32a7.186 7.186 0 1 1 0-14.371H431.93a7.186 7.186 0 1 1 .001 14.37zM460.678 361.689H331.32a7.186 7.186 0 1 1 0-14.371h129.357a7.186 7.186 0 1 1 .001 14.37zM431.932 387.555H331.32a7.186 7.186 0 1 1 0-14.371H431.93a7.186 7.186 0 1 1 .001 14.37zM460.678 426.834H331.32a7.186 7.186 0 1 1 0-14.371h129.357a7.186 7.186 0 1 1 .001 14.37zM431.932 452.7H331.32a7.186 7.186 0 1 1 0-14.37H431.93a7.186 7.186 0 1 1 .001 14.37zM286.285 452.7H155.969a7.186 7.186 0 1 1 0-14.37h130.316a7.185 7.185 0 1 1 0 14.37z" fill="#36AEF2"/><path d="M34.361 0H333.64C352.616 0 368 15.386 368 34.363V185.5c0 18.977-15.384 34.363-34.36 34.363H164.884V282l-55.414-62.136H34.36C15.384 219.864 0 204.478 0 185.501V34.364C.002 15.386 15.386 0 34.361 0z" fill="#118ED3"/><path d="M305.869 72.492H171.148c-6.6 0-11.948-5.35-11.948-11.95 0-6.598 5.349-11.948 11.948-11.948h134.721c6.601 0 11.948 5.35 11.948 11.949 0 6.598-5.347 11.95-11.948 11.95zM131.318 72.492H62.132c-6.601 0-11.948-5.35-11.948-11.95 0-6.598 5.349-11.948 11.948-11.948h69.188c6.6 0 11.948 5.35 11.948 11.949 0 6.598-5.35 11.95-11.95 11.95zM305.87 121.486h-41.526c-6.601 0-11.948-5.351-11.948-11.95 0-6.598 5.349-11.949 11.948-11.949h41.526c6.6 0 11.948 5.35 11.948 11.95 0 6.598-5.347 11.948-11.948 11.948zM224.514 121.486H62.132c-6.601 0-11.948-5.351-11.948-11.95 0-6.598 5.349-11.949 11.948-11.949h162.382c6.601 0 11.948 5.35 11.948 11.95 0 6.598-5.35 11.948-11.948 11.948zM231.683 170.475H62.132c-6.601 0-11.948-5.35-11.948-11.949 0-6.6 5.349-11.949 11.948-11.949h169.551c6.601 0 11.948 5.35 11.948 11.95 0 6.598-5.35 11.948-11.948 11.948z" fill="#fff"/></svg>