<svg width="682" height="698" viewBox="0 0 682 698" fill="none" xmlns="http://www.w3.org/2000/svg"><path d="M362.622 486.722c2.37.023 4.721 1.417 5.428 4.187l11.546 45.2c.226.885.342 1.793.342 2.701l23.195-28.918-11.61-40.487-28.901 17.317z" fill="#D79B19"/><path d="M646.422 538.81H379.938l23.196-28.918h220.139l23.149 28.919z" fill="#B37417"/><path d="M623.272 509.892l11.563-40.487v-44.824c0-13.575-11.025-24.581-24.621-24.581H537.8c-13.597 0-24.621 11.007-24.621 24.581v85.311h110.093z" fill="#E5AC20"/><path d="M513.202 509.892v-85.31c0-13.575-11.025-24.582-24.621-24.582h-72.414c-13.597 0-24.621 11.007-24.621 24.581v44.824l11.586 40.487h110.07z" fill="#F6C020"/><path d="M663.737 486.722c-2.37.023-4.721 1.417-5.428 4.187l-11.546 45.2a10.926 10.926 0 0 0-.342 2.701l-23.149-28.918 11.563-40.487 28.902 17.317z" fill="#D79B19"/><path d="M385.731 614h-5.793v-23.135h28.966L385.73 614zM640.629 614h5.793v-23.135h-28.966L640.628 614z" fill="#774836"/><path d="M379.596 536.11l-11.546-45.2c-1.43-5.599-9.552-5.599-10.983 0l-11.546 45.2a10.933 10.933 0 0 0 0 5.402l11.546 45.201c.747 2.92 3.313 4.28 5.804 4.152h17.067v-52.054c0-.908-.116-1.816-.342-2.7zM680.839 536.11l-11.546-45.2c-1.43-5.599-9.553-5.599-10.983 0l-11.546 45.2a10.925 10.925 0 0 0-.342 2.701v52.054h17.067c2.49.128 5.057-1.232 5.804-4.152l11.546-45.2a10.8 10.8 0 0 0 0-5.403z" fill="#FFC83E"/><path d="M646.422 538.811H379.938v52.054h266.484v-52.054z" fill="#F5BE26"/><path d="M333.12 450.565c-8.466 0-16.89-2.111-24.563-6.296-12.93-7.055-21.757-19.125-24.215-33.113a7.719 7.719 0 0 1 15.204-2.672c1.642 9.337 7.62 17.44 16.404 22.234 9.649 5.264 21.008 5.834 31.167 1.564 7.81-3.284 15.863-7.298 23.933-11.93.227-.13.46-.248.7-.354 25.972-11.581 44.578 5.512 45.357 6.245a7.718 7.718 0 0 1 .331 10.91 7.718 7.718 0 0 1-10.911.332c-.436-.393-11.92-10.563-28.153-3.536-8.497 4.859-16.998 9.085-25.275 12.564a51.51 51.51 0 0 1-19.98 4.052zM308.585 690.281a7.722 7.722 0 0 1-7.72 7.719h-26.747a7.704 7.704 0 0 1-6.576-3.674 7.706 7.706 0 0 1-.31-7.533 208.939 208.939 0 0 0 9.407-21.447c16.096-43.1 14.604-82.929 9.87-110.325-.72-4.209 2.089-8.202 6.288-8.923 4.22-.72 8.202 2.1 8.923 6.298 4.868 28.22 6.535 68.778-8.686 112.949a218.24 218.24 0 0 1-6.731 17.218h14.562a7.721 7.721 0 0 1 7.72 7.718zM258.292 690.281a7.722 7.722 0 0 1-7.72 7.719h-26.757a7.704 7.704 0 0 1-6.576-3.674 7.706 7.706 0 0 1-.31-7.533 208.955 208.955 0 0 0 9.407-21.447c16.106-43.11 14.593-82.96 9.859-110.345-.731-4.199 2.089-8.192 6.288-8.923 4.199-.73 8.202 2.09 8.923 6.288 4.878 28.23 6.545 68.788-8.676 112.98a218.238 218.238 0 0 1-6.731 17.218h14.573a7.72 7.72 0 0 1 7.72 7.717zM179.54 690.281a7.722 7.722 0 0 1-7.719 7.719h-26.748a7.704 7.704 0 0 1-6.576-3.674 7.735 7.735 0 0 1-.309-7.533 208.95 208.95 0 0 0 9.406-21.447c16.096-43.1 14.604-82.929 9.87-110.325a7.71 7.71 0 0 1 6.288-8.923c4.22-.72 8.202 2.1 8.923 6.298 4.868 28.22 6.535 68.778-8.686 112.949a218.238 218.238 0 0 1-6.73 17.218h14.561a7.722 7.722 0 0 1 7.72 7.718zM129.246 690.281a7.722 7.722 0 0 1-7.72 7.719H94.77a7.704 7.704 0 0 1-6.576-3.674 7.735 7.735 0 0 1-.31-7.533 211.153 211.153 0 0 0 9.407-21.447c16.096-43.11 14.593-82.949 9.859-110.345-.731-4.199 2.089-8.202 6.288-8.923 4.199-.73 8.202 2.09 8.923 6.288 4.878 28.23 6.545 68.788-8.676 112.98a218.238 218.238 0 0 1-6.731 17.218h14.573a7.72 7.72 0 0 1 7.72 7.717z" fill="#FCD2BE"/><path d="M340.881 240.823l-98.81 30.617-43.954 13.626C173.88 224.336 194.557 186 263.52 186c68.953 0 77.361 31.152 77.361 54.823z" fill="#F9CE55"/><path d="M242.072 271.44l-43.955 13.626C173.88 224.336 194.557 186 263.52 186c-24.514 6.988-40.044 58.167-21.448 85.44z" fill="#E2A11E"/><path d="M340.706 555.742c-44.871 10.271-83.217 9.18-109.512 5.835-23.742-3.026-37.656-7.894-37.656-7.894 0-136.877 53.022-200.715 53.022-200.715l11.763 1.297 34.178 3.787c6.844 77.732 48.205 197.69 48.205 197.69z" fill="#EF4A6E"/><path d="M231.194 561.577c-23.742-3.026-37.656-7.894-37.656-7.894 0-136.877 53.022-200.715 53.022-200.715l11.763 1.297 2.532 4.034c-.001.001-47.712 102.247-29.661 203.278z" fill="#D8254F"/><path d="M340.88 240.823v54.617c0 35.722-28.971 64.692-64.703 64.692-5.28 0-10.415-.628-15.324-1.832-25.533-6.195-45.138-27.54-48.76-53.99a20.898 20.898 0 0 1-7.874-4.96c-8.15-8.14-8.15-21.354 0-29.494a20.698 20.698 0 0 1 7.266-4.734c7.451-2.861 16.23-1.286 22.24 4.724 0-3.993 2.233-11.97 7.441-20.13 12.525-19.627 42.288-40.272 99.714-8.893z" fill="#FCD2BE"/><path d="M260.853 358.3c-25.533-6.195-45.138-27.54-48.76-53.989a20.898 20.898 0 0 1-7.874-4.96c-8.15-8.141-8.15-21.355 0-29.495a20.698 20.698 0 0 1 7.266-4.734c7.451-2.861 16.23-1.286 22.24 4.724 0-3.993 2.233-11.969 7.441-20.13-5.866 37.068-4.95 92.601 19.687 108.584z" fill="#FAB998"/><path d="M285.663 288.04a7.718 7.718 0 0 1-7.719-7.719V269.62a7.718 7.718 0 0 1 7.719-7.719 7.718 7.718 0 0 1 7.719 7.719v10.701a7.718 7.718 0 0 1-7.719 7.719zM313.484 288.04a7.718 7.718 0 0 1-7.719-7.719V269.62a7.718 7.718 0 0 1 7.719-7.719 7.718 7.718 0 0 1 7.719 7.719v10.701a7.718 7.718 0 0 1-7.719 7.719z" fill="#393A42"/><path d="M288.612 336.375c-.14 0-.28-.004-.418-.01-14.825-.792-26.158-7.33-32.774-18.909a7.718 7.718 0 0 1 2.872-10.53 7.717 7.717 0 0 1 10.53 2.871c3.995 6.992 10.6 10.64 20.193 11.152a7.718 7.718 0 0 1-.403 15.426z" fill="#fff"/><path d="M211.836 240.823c5.284-19.554 3.224-54.822-51.32-54.822-54.542 0-108.06 4.393-119.381 84.667-11.321 80.274 41.34 155.401 41.34 155.401" fill="#EF4A6E"/><path d="M82.476 426.069l15.736-22.538c-4.014-45.2-15.88-211.768 26.809-216.121-40.6 4.22-75.066 20.686-83.886 83.258-11.32 80.274 41.34 155.401 41.34 155.401z" fill="#D8254F"/><path d="M211.66 555.742c-44.87 10.271-83.216 9.18-109.511 5.835-23.742-3.026-37.657-7.894-37.657-7.894 0-136.877 53.022-200.715 53.022-200.715l11.763 1.297 34.178 3.787c6.845 77.732 48.206 197.69 48.206 197.69z" fill="#46DEB5"/><path d="M102.15 561.577c-23.742-3.026-37.657-7.894-37.657-7.894 0-136.877 53.022-200.715 53.022-200.715l11.763 1.297 2.532 4.034c0 .001-47.712 102.247-29.66 203.278z" fill="#22C79A"/><path d="M7.726 534.389a7.718 7.718 0 0 1-7.468-9.691c8.904-33.716 27.373-79.577 64.789-106.591 23.027-16.625 42.415-18.202 43.229-18.26a7.716 7.716 0 0 1 8.256 7.14 7.719 7.719 0 0 1-7.102 8.254c-.383.035-16.734 1.644-36.227 16.026-26.247 19.364-46.31 53.035-58.02 97.373a7.722 7.722 0 0 1-7.457 5.749z" fill="#FCD2BE"/><path d="M129.246 690.281a7.722 7.722 0 0 1-7.72 7.719H94.77a7.704 7.704 0 0 1-6.576-3.674 7.735 7.735 0 0 1-.31-7.533 211.153 211.153 0 0 0 9.407-21.447h16.394a218.238 218.238 0 0 1-6.731 17.218h14.573a7.72 7.72 0 0 1 7.72 7.717zM179.54 690.281a7.722 7.722 0 0 1-7.719 7.719h-26.748a7.704 7.704 0 0 1-6.576-3.674 7.735 7.735 0 0 1-.309-7.533 208.95 208.95 0 0 0 9.406-21.447h16.394a218.238 218.238 0 0 1-6.73 17.218h14.561a7.721 7.721 0 0 1 7.721 7.717z" fill="#3D8299"/><path d="M258.292 690.281a7.722 7.722 0 0 1-7.72 7.719h-26.757a7.704 7.704 0 0 1-6.576-3.674 7.706 7.706 0 0 1-.31-7.533 208.955 208.955 0 0 0 9.407-21.447h16.394a218.238 218.238 0 0 1-6.731 17.218h14.573a7.72 7.72 0 0 1 7.72 7.717zM308.585 690.281a7.722 7.722 0 0 1-7.72 7.719h-26.747a7.704 7.704 0 0 1-6.576-3.674 7.706 7.706 0 0 1-.31-7.533 208.939 208.939 0 0 0 9.407-21.447h16.394a218.238 218.238 0 0 1-6.731 17.218h14.562a7.72 7.72 0 0 1 7.72 7.717z" fill="#EF4A6E"/><path d="M75.18 299.35a20.886 20.886 0 0 0 7.872 4.96c3.623 26.449 23.228 47.794 48.761 53.989a64.276 64.276 0 0 0 15.325 1.832c35.731 0 64.702-28.971 64.702-64.692v-54.616s-28.682 1.029-40.003-10.291c-16.434 21.334-37.79 24.308-51.95 23.382v-.01c-9.067-.597-15.19-2.789-15.19-2.789v18.741l-.01-.01c-6.01-6.01-14.79-7.585-22.24-4.724a20.711 20.711 0 0 0-7.266 4.734c-8.152 8.14-8.152 21.354-.001 29.494z" fill="#FCD2BE"/><path d="M75.18 299.35a20.886 20.886 0 0 0 7.873 4.96c3.623 26.449 23.228 47.794 48.76 53.989-33.601-18.432-12.215-103.244-11.927-104.386v-.01c-9.067-.597-15.19-2.789-15.19-2.789v18.741l-.01-.01c-6.01-6.01-14.79-7.585-22.24-4.724a20.711 20.711 0 0 0-7.266 4.734c-8.151 8.141-8.151 21.355 0 29.495z" fill="#FAB998"/><path d="M156.618 288.04a7.718 7.718 0 0 1-7.719-7.719V269.62a7.718 7.718 0 0 1 7.719-7.719 7.718 7.718 0 0 1 7.719 7.719v10.701a7.718 7.718 0 0 1-7.719 7.719zM184.44 288.04a7.718 7.718 0 0 1-7.719-7.719V269.62a7.718 7.718 0 0 1 7.719-7.719 7.718 7.718 0 0 1 7.719 7.719v10.701a7.72 7.72 0 0 1-7.719 7.719z" fill="#393A42"/><path d="M159.567 336.375c-.14 0-.28-.004-.418-.01-14.824-.792-26.157-7.33-32.773-18.909a7.718 7.718 0 1 1 13.402-7.659c3.995 6.992 10.6 10.64 20.192 11.152a7.718 7.718 0 0 1-.403 15.426zM470.383 0H121.799C109.208 0 99 10.208 99 22.799v100.277c0 12.591 10.208 22.799 22.799 22.799h261.976v41.226l36.769-41.226h49.839c12.591 0 22.799-10.208 22.799-22.799V22.799C493.182 10.208 482.975 0 470.383 0z" fill="#fff"/><path d="M152.14 54.316c-.132 1.836-.812 3.282-2.038 4.336-1.22 1.055-2.829 1.582-4.829 1.582-2.187 0-3.91-.734-5.168-2.203-1.25-1.476-1.875-3.5-1.875-6.07v-1.043c0-1.64.29-3.086.868-4.336.578-1.25 1.402-2.207 2.472-2.871 1.078-.672 2.328-1.008 3.75-1.008 1.97 0 3.555.527 4.758 1.582 1.203 1.055 1.899 2.535 2.086 4.442h-3.516c-.086-1.102-.394-1.899-.925-2.391-.524-.5-1.325-.75-2.403-.75-1.172 0-2.05.422-2.636 1.266-.579.835-.875 2.136-.891 3.902v1.289c0 1.844.277 3.191.832 4.043.562.851 1.445 1.277 2.648 1.277 1.086 0 1.895-.246 2.426-.738.54-.5.848-1.27.926-2.309h3.516zm9.81 1.688l3.316-8.684h4.242V60h-3.387v-7.781L163.086 60h-2.274l-2.976-7.652V60h-3.387V47.32h4.207l3.293 8.684zm9.984-2.461c0-1.258.242-2.379.726-3.363.485-.985 1.18-1.746 2.086-2.285.914-.54 1.973-.81 3.176-.81 1.71 0 3.105.524 4.184 1.571 1.085 1.047 1.69 2.469 1.816 4.266l.023.867c0 1.945-.543 3.508-1.629 4.688-1.086 1.171-2.543 1.757-4.37 1.757-1.829 0-3.29-.586-4.384-1.757-1.085-1.172-1.628-2.766-1.628-4.782v-.152zm3.386.246c0 1.203.227 2.125.68 2.766.453.632 1.102.949 1.945.949.82 0 1.461-.313 1.922-.938.461-.632.692-1.64.692-3.023 0-1.18-.23-2.094-.692-2.742-.46-.649-1.11-.973-1.945-.973-.828 0-1.469.324-1.922.973-.453.64-.68 1.636-.68 2.988zm20.883-3.75h-4.066V60h-3.399v-9.96h-3.996v-2.72h11.461v2.72zm13.125 3.738c0 1.953-.445 3.52-1.336 4.7-.883 1.171-2.078 1.757-3.586 1.757-1.281 0-2.316-.445-3.105-1.336v5.977h-3.387V47.32h3.14l.118 1.242c.82-.984 1.89-1.476 3.21-1.476 1.563 0 2.778.578 3.645 1.734.868 1.157 1.301 2.75 1.301 4.782v.175zm-3.387-.246c0-1.18-.21-2.09-.632-2.73-.414-.64-1.02-.961-1.817-.961-1.062 0-1.793.406-2.191 1.219v5.191c.414.836 1.152 1.254 2.215 1.254 1.617 0 2.425-1.324 2.425-3.973zm13.137-6.21h3.387V60h-3.387v-7.828L214.836 60h-3.398V47.32h3.398v7.817l4.242-7.817zM236 55.323h-1.359V60h-3.387V47.32h3.387v4.77h1.207l2.765-4.77h4.278l-4.149 6.035L243.277 60h-4.511L236 55.324zM251.902 60c-.156-.305-.269-.684-.34-1.137-.82.914-1.886 1.371-3.199 1.371-1.242 0-2.273-.359-3.093-1.078-.813-.719-1.219-1.625-1.219-2.719 0-1.343.496-2.375 1.488-3.093 1-.719 2.441-1.082 4.324-1.09h1.559v-.727c0-.586-.152-1.054-.457-1.406-.297-.352-.77-.527-1.418-.527-.57 0-1.02.136-1.348.41-.32.273-.48.648-.48 1.125h-3.387c0-.734.227-1.414.68-2.04.453-.624 1.093-1.112 1.922-1.464.828-.36 1.757-.54 2.789-.54 1.562 0 2.8.395 3.715 1.184.921.782 1.382 1.883 1.382 3.305v5.496c.008 1.203.176 2.114.504 2.73v.2h-3.422zm-2.8-2.355c.5 0 .96-.11 1.382-.329.422-.226.735-.527.938-.902v-2.18h-1.266c-1.695 0-2.597.586-2.707 1.758l-.011.2c0 .421.148.769.445 1.042.297.274.703.41 1.219.41zm13.289-2.32h-1.36V60h-3.386V47.32h3.386v4.77h1.207l2.766-4.77h4.277l-4.148 6.035L269.668 60h-4.512l-2.765-4.676zm7.347-1.782c0-1.258.242-2.379.727-3.363.484-.985 1.18-1.746 2.086-2.285.914-.54 1.972-.81 3.176-.81 1.711 0 3.105.524 4.183 1.571 1.086 1.047 1.692 2.469 1.817 4.266l.023.867c0 1.945-.543 3.508-1.629 4.688-1.086 1.171-2.543 1.757-4.371 1.757-1.828 0-3.289-.586-4.383-1.757-1.086-1.172-1.629-2.766-1.629-4.782v-.152zm3.387.246c0 1.203.227 2.125.68 2.766.453.633 1.101.949 1.945.949.82 0 1.461-.313 1.922-.938.461-.632.691-1.64.691-3.023 0-1.18-.23-2.094-.691-2.742-.461-.649-1.11-.973-1.945-.973-.829 0-1.469.324-1.922.973-.453.64-.68 1.636-.68 2.988zm18.352-6.469h3.386V60h-3.386v-7.828L287.234 60h-3.398V47.32h3.398v7.817l4.243-7.817zm1.992-5.144c0 1.039-.375 1.879-1.125 2.52-.742.64-1.719.96-2.93.96s-2.191-.316-2.941-.949c-.743-.633-1.114-1.477-1.114-2.531h2.403c0 .492.144.875.433 1.148.297.266.703.399 1.219.399.508 0 .906-.133 1.195-.399.289-.273.434-.656.434-1.148h2.426zm14.929 13.148h-1.359V60h-3.387V47.32h3.387v4.77h1.207l2.766-4.77h4.277l-4.148 6.035L315.676 60h-4.512l-2.766-4.676zm19.969-1.547c0 1.954-.445 3.52-1.336 4.7-.883 1.171-2.078 1.757-3.586 1.757-1.281 0-2.316-.445-3.105-1.336v5.977h-3.387V47.32h3.141l.117 1.243c.82-.985 1.891-1.477 3.211-1.477 1.562 0 2.777.578 3.644 1.734.868 1.157 1.301 2.75 1.301 4.782v.175zm-3.387-.246c0-1.18-.21-2.09-.632-2.73-.414-.64-1.02-.961-1.817-.961-1.062 0-1.793.406-2.191 1.219v5.191c.414.836 1.152 1.254 2.215 1.254 1.617 0 2.425-1.324 2.425-3.973zm10.09 1.676l2.344-7.887h3.633l-5.098 14.649-.281.668c-.758 1.656-2.008 2.484-3.75 2.484-.492 0-.992-.074-1.5-.223v-2.566l.516.012c.64 0 1.117-.098 1.429-.293.321-.196.571-.52.75-.973l.399-1.043-4.442-12.715h3.645l2.355 7.887zm17.836-5.168h-4.066V60h-3.399v-9.96h-3.996v-2.72h11.461v2.72zm.832 3.504c0-1.258.242-2.379.727-3.363.484-.985 1.18-1.746 2.086-2.285.914-.54 1.972-.81 3.176-.81 1.711 0 3.105.524 4.183 1.571 1.086 1.047 1.692 2.469 1.817 4.266l.023.867c0 1.945-.543 3.508-1.629 4.688-1.086 1.171-2.543 1.757-4.371 1.757-1.828 0-3.289-.586-4.383-1.757-1.086-1.172-1.629-2.766-1.629-4.782v-.152zm3.387.246c0 1.203.227 2.125.68 2.766.453.633 1.101.949 1.945.949.82 0 1.461-.313 1.922-.938.461-.632.691-1.64.691-3.023 0-1.18-.23-2.094-.691-2.742-.461-.649-1.11-.973-1.945-.973-.829 0-1.469.324-1.922.973-.453.64-.68 1.636-.68 2.988zm18.352-6.469h3.386V60h-3.386v-7.828L371.234 60h-3.398V47.32h3.398v7.817l4.243-7.817zm1.992-5.144c0 1.039-.375 1.879-1.125 2.52-.742.64-1.719.96-2.93.96s-2.191-.316-2.941-.949c-.743-.633-1.114-1.477-1.114-2.531h2.403c0 .492.144.875.433 1.148.297.266.703.399 1.219.399.508 0 .906-.133 1.195-.399.289-.273.434-.656.434-1.148h2.426zm10.136 15.094c.766-.813 1.286-1.618 1.559-2.414.274-.797.426-1.926.457-3.387l.094-4.149h9.328v9.95h1.828v6.539h-3.387V60h-7.511v3.809h-3.457v-6.54h1.089zm3.997 0h4.066V50.12h-2.637l-.023 1.524c-.07 2.328-.539 4.203-1.406 5.625zm18.421-9.95h3.387V60h-3.387v-7.828L405.781 60h-3.398V47.32h3.398v7.817l4.242-7.817zm6.2 12.68V47.32h5.297c1.726 0 3.05.305 3.972.914.922.61 1.383 1.485 1.383 2.625 0 .586-.195 1.114-.586 1.582-.383.461-.945.817-1.687 1.067.906.172 1.617.512 2.132 1.02.524.5.786 1.117.786 1.85 0 1.18-.446 2.079-1.336 2.696-.883.617-2.168.926-3.856.926h-6.105zm3.386-5.262v2.555h2.731c1.195 0 1.793-.418 1.793-1.254 0-.851-.571-1.285-1.711-1.3h-2.813zm0-2.273h2.098c1.188-.016 1.781-.399 1.781-1.149 0-.46-.164-.789-.492-.984-.32-.195-.812-.293-1.476-.293h-1.911v2.426zM436.941 60c-.156-.305-.269-.684-.339-1.137-.821.914-1.887 1.371-3.2 1.371-1.242 0-2.273-.359-3.093-1.078-.813-.718-1.219-1.625-1.219-2.718 0-1.344.496-2.375 1.488-3.094 1-.719 2.442-1.082 4.324-1.09h1.559v-.727c0-.586-.152-1.054-.457-1.406-.297-.351-.77-.527-1.418-.527-.57 0-1.02.137-1.348.41-.32.273-.48.648-.48 1.125h-3.387c0-.734.227-1.414.68-2.04.453-.624 1.094-1.112 1.922-1.464.828-.36 1.757-.54 2.789-.54 1.562 0 2.8.395 3.715 1.185.921.78 1.382 1.882 1.382 3.304v5.496c.008 1.203.176 2.114.504 2.73v.2h-3.422zm-2.8-2.355c.5 0 .961-.11 1.382-.329.422-.226.735-.527.938-.902v-2.18h-1.266c-1.695 0-2.597.586-2.707 1.758l-.011.2c0 .421.148.769.445 1.042.297.274.703.41 1.219.41zM453.453 60h-3.398v-4.875h-4.207V60h-3.387V47.32h3.387v5.086h4.207V47.32h3.398V60zM184.449 89.32V102h-3.375v-4.383h-2.144L176.492 102h-3.433l2.765-4.957c-.758-.352-1.343-.828-1.758-1.43a3.58 3.58 0 0 1-.609-2.05c0-1.227.473-2.231 1.418-3.012.953-.79 2.227-1.2 3.82-1.23h5.754zm-5.695 5.93h2.32v-3.21h-2.203c-.602 0-1.09.16-1.465.48-.375.312-.562.695-.562 1.148 0 .453.18.828.539 1.125.36.297.816.45 1.37.457zm19.5 2.074h-1.36V102h-3.386V89.32h3.386v4.77h1.208l2.765-4.77h4.277l-4.148 6.036 4.535 6.644h-4.512l-2.765-4.676zm13.289-.117l2.344-7.887h3.633l-5.098 14.649-.281.668c-.758 1.656-2.008 2.484-3.75 2.484-.493 0-.993-.074-1.5-.223v-2.566l.515.012c.64 0 1.117-.098 1.43-.293.32-.195.57-.52.75-.973l.398-1.043-4.441-12.715h3.644l2.356 7.887zm18.34 4.793h-3.399v-9.937h-4.242V102h-3.386V89.32h11.027V102zm10.23-12.68h3.387V102h-3.387v-7.828L235.871 102h-3.398V89.32h3.398v7.817l4.242-7.817zm17.004 0V102h-3.387v-9.937h-2.988l-.211 3.914c-.133 2.086-.543 3.605-1.23 4.558-.688.953-1.711 1.442-3.071 1.465h-1.148l-.035-2.754.422-.035c.609-.047 1.054-.406 1.336-1.078.281-.672.457-1.817.527-3.434l.234-5.379h9.551zm9.961 12.68c-.156-.305-.269-.684-.34-1.137-.82.914-1.886 1.371-3.199 1.371-1.242 0-2.273-.359-3.094-1.078-.812-.718-1.218-1.625-1.218-2.718 0-1.344.496-2.375 1.488-3.094 1-.719 2.441-1.082 4.324-1.09h1.559v-.727c0-.586-.153-1.054-.457-1.406-.297-.351-.77-.527-1.418-.527-.571 0-1.02.137-1.348.41-.32.273-.48.648-.48 1.125h-3.387c0-.734.226-1.414.68-2.04.453-.624 1.093-1.112 1.921-1.464.829-.36 1.758-.54 2.789-.54 1.563 0 2.801.396 3.715 1.185.922.78 1.383 1.882 1.383 3.304v5.496c.008 1.203.176 2.114.504 2.73v.2h-3.422zm-2.801-2.355c.5 0 .961-.11 1.383-.329.422-.226.735-.527.938-.902v-2.18h-1.266c-1.695 0-2.598.586-2.707 1.758l-.012.2c0 .421.149.769.446 1.042.296.274.703.41 1.218.41zM289.566 102h-3.398v-4.875h-4.207V102h-3.387V89.32h3.387v5.086h4.207V89.32h3.398V102zm9.973 0c-.156-.305-.269-.684-.34-1.137-.82.914-1.887 1.371-3.199 1.371-1.242 0-2.273-.359-3.094-1.078-.812-.718-1.218-1.625-1.218-2.718 0-1.344.496-2.375 1.488-3.094 1-.719 2.441-1.082 4.324-1.09h1.559v-.727c0-.586-.153-1.054-.457-1.406-.297-.351-.77-.527-1.418-.527-.571 0-1.02.137-1.348.41-.32.273-.481.648-.481 1.125h-3.386c0-.734.226-1.414.679-2.04.454-.624 1.094-1.112 1.922-1.464.828-.36 1.758-.54 2.789-.54 1.563 0 2.801.396 3.715 1.185.922.78 1.383 1.882 1.383 3.304v5.496c.008 1.203.176 2.114.504 2.73v.2h-3.422zm-2.801-2.355c.5 0 .961-.11 1.383-.329.422-.226.734-.527.938-.902v-2.18h-1.266c-1.695 0-2.598.586-2.707 1.758l-.012.2c0 .421.149.769.446 1.042.296.274.703.41 1.218.41zm19.114-14.707l4.382 12.375 4.36-12.375h4.617V102h-3.527v-4.664l.351-8.05L321.43 102h-2.414l-4.594-12.703.351 8.039V102h-3.515V84.938h4.594zm22.043 17.296c-1.86 0-3.375-.57-4.547-1.71-1.164-1.141-1.746-2.66-1.746-4.56v-.327c0-1.274.246-2.41.738-3.41.492-1.008 1.187-1.782 2.086-2.32.906-.548 1.937-.821 3.094-.821 1.734 0 3.097.547 4.089 1.64 1 1.094 1.5 2.645 1.5 4.653v1.383h-8.074c.11.828.438 1.492.985 1.992.554.5 1.253.75 2.097.75 1.305 0 2.324-.473 3.059-1.418l1.664 1.863c-.508.719-1.195 1.282-2.063 1.688-.867.398-1.828.597-2.882.597zm-.387-10.406c-.672 0-1.219.227-1.641.68-.414.453-.679 1.101-.797 1.945h4.711v-.27c-.015-.75-.219-1.327-.609-1.734-.391-.414-.945-.62-1.664-.62zm18.961 3.95c0 2.03-.434 3.617-1.301 4.757-.867 1.133-2.078 1.7-3.633 1.7-1.375 0-2.473-.528-3.293-1.583L348.09 102h-3.047V84h3.387v6.457c.781-.914 1.808-1.371 3.082-1.371 1.547 0 2.758.57 3.633 1.71.882 1.134 1.324 2.731 1.324 4.794v.187zm-3.387-.247c0-1.281-.203-2.215-.609-2.8-.407-.594-1.012-.891-1.817-.891-1.078 0-1.82.441-2.226 1.324v5.004c.414.89 1.164 1.336 2.25 1.336 1.093 0 1.812-.54 2.156-1.617.164-.516.246-1.301.246-2.356zm11.32 6.703c-1.859 0-3.375-.57-4.547-1.71-1.164-1.141-1.746-2.66-1.746-4.56v-.327c0-1.274.246-2.41.739-3.41.492-1.008 1.187-1.782 2.086-2.32.906-.548 1.937-.821 3.093-.821 1.735 0 3.098.547 4.09 1.64 1 1.094 1.5 2.645 1.5 4.653v1.383h-8.074c.109.828.437 1.492.984 1.992.555.5 1.254.75 2.098.75 1.305 0 2.324-.473 3.059-1.418l1.664 1.863c-.508.719-1.196 1.282-2.063 1.688-.867.398-1.828.597-2.883.597zm-.386-10.406c-.672 0-1.219.227-1.641.68-.414.453-.68 1.101-.797 1.945h4.711v-.27c-.016-.75-.219-1.327-.609-1.734-.391-.414-.946-.62-1.664-.62zM375.125 102h-3.398V84h3.398v18zm2.977-1.664c0-.54.179-.977.539-1.313.367-.335.824-.503 1.371-.503.554 0 1.011.168 1.371.503.367.336.551.774.551 1.313 0 .531-.18.965-.539 1.3-.36.329-.821.493-1.383.493-.555 0-1.012-.164-1.371-.492-.36-.336-.539-.77-.539-1.301zm6.281-4.793c0-1.258.242-2.379.726-3.363.485-.985 1.18-1.746 2.086-2.285.914-.54 1.973-.81 3.176-.81 1.711 0 3.106.524 4.184 1.571 1.086 1.047 1.691 2.469 1.816 4.266l.024.867c0 1.945-.543 3.508-1.629 4.688-1.086 1.171-2.543 1.757-4.371 1.757-1.829 0-3.29-.586-4.383-1.757-1.086-1.172-1.629-2.766-1.629-4.782v-.152zm3.387.246c0 1.203.226 2.125.679 2.766.453.633 1.102.949 1.946.949.82 0 1.46-.313 1.921-.938.461-.632.692-1.64.692-3.023 0-1.18-.231-2.094-.692-2.742-.461-.649-1.109-.973-1.945-.973-.828 0-1.469.324-1.922.973-.453.64-.679 1.637-.679 2.988zm17.835-3.293a9.187 9.187 0 0 0-1.218-.094c-1.282 0-2.121.434-2.52 1.301V102h-3.387V89.32h3.2l.093 1.512c.68-1.164 1.622-1.746 2.825-1.746.375 0 .726.05 1.054.152l-.047 3.258zm.915 3.07c0-1.945.46-3.511 1.382-4.699.93-1.187 2.18-1.781 3.75-1.781 1.391 0 2.473.477 3.246 1.43l.141-1.196h3.07v12.258c0 1.11-.254 2.074-.761 2.895-.5.82-1.207 1.445-2.121 1.875-.915.43-1.985.644-3.211.644-.93 0-1.836-.187-2.719-.562-.883-.367-1.551-.844-2.004-1.43l1.5-2.062c.844.945 1.867 1.418 3.07 1.418.899 0 1.598-.243 2.098-.727.5-.477.75-1.156.75-2.04v-.679c-.781.883-1.809 1.324-3.082 1.324-1.524 0-2.758-.593-3.703-1.78-.938-1.196-1.406-2.778-1.406-4.747v-.14zm3.386.247c0 1.148.231 2.05.692 2.707.461.648 1.093.972 1.898.972 1.031 0 1.77-.386 2.215-1.16V93c-.453-.773-1.184-1.16-2.191-1.16-.813 0-1.454.332-1.922.996-.461.664-.692 1.656-.692 2.977z" fill="#828282"/></svg>