<svg width="717" height="597" viewBox="0 0 717 597" fill="none" xmlns="http://www.w3.org/2000/svg">
<path d="M170.015 42.7633C167.019 46.8484 161.271 47.7297 157.186 44.7332C153.297 41.8832 147.77 38.752 143.502 40.0856C138.757 41.554 133.988 48.5629 130.075 59.7916C113.957 106.126 92.7883 130.015 67.145 130.773C66.7537 130.785 66.3507 130.798 65.9594 130.798C55.6379 130.798 45.3902 126.823 35.7903 119.374C22.3267 108.939 10.1213 91.6931 0.705364 69.0633C-1.23944 64.3911 0.974813 59.0205 5.65757 57.0764C10.3286 55.1311 15.6979 57.333 17.6416 62.0181C25.5297 80.9776 35.7528 95.7419 46.3309 104.267C52.9105 109.551 59.6118 112.45 65.9828 112.45C66.1902 112.45 66.3987 112.45 66.6061 112.439C83.3724 111.937 99.7591 91.0943 112.746 53.7624C117.833 39.1446 124.412 29.6537 132.728 24.8948L136.03 7.46456C136.972 2.4865 141.765 -0.779466 146.743 0.161537C151.719 1.10371 154.997 5.8978 154.055 10.877L151.928 22.1187C157.125 23.2929 162.506 25.8862 168.033 29.9467C172.118 32.9291 173.01 38.6782 170.015 42.7633Z" transform="translate(525.014 371.171) scale(-1 1)" fill="#FCD2BE"/>
<path d="M46.3321 47.8983L35.7903 63.0047C22.3267 52.5705 10.1213 35.3242 0.705361 12.6944C-1.23944 8.02223 0.974828 2.6516 5.65759 0.70748C10.3286 -1.23781 15.6979 0.96413 17.6416 5.64922C25.5309 24.6087 35.754 39.373 46.3321 47.8983Z" transform="translate(525.015 427.539) scale(-1 1)" fill="#D8254F"/>
<path d="M168.671 221.471C168.671 221.471 114.304 248.661 59.2615 238.022C38.6653 234.058 17.9719 224.787 0 206.811C0 206.811 17.2244 91.405 49.4999 23.9587C53.7891 14.9986 58.3453 6.88584 63.1698 0L83.2435 1.55269L123.814 4.69913C123.814 10.3428 124.533 21.3911 126.015 35.798C131.034 85.0688 144.83 173.793 168.671 221.471Z" transform="translate(638.951 356.509) scale(-1 1)" fill="#EF4A6E"/>
<path d="M59.2615 238.022C38.6653 234.058 17.9719 224.787 0 206.811C0 206.811 22.1052 58.6844 63.1686 0L83.2423 1.55273L89.0544 7.29601C74.0314 38.1546 38.8504 157.568 59.2615 238.022Z" transform="translate(638.953 356.508) scale(-1 1)" fill="#D8254F"/>
<path d="M120.296 18.135C120.026 18.1959 93.2205 24.1408 66.9036 34.4403C65.4977 34.991 64.1399 35.5289 62.8195 36.0797C22.7823 52.4705 18.3433 65.559 18.3433 70.537C18.3433 82.0107 33.0546 91.0504 48.6224 100.615C59.9339 107.563 71.625 114.743 79.1336 124.064C88.8072 136.076 89.9437 149.531 82.4843 164.039C80.8699 167.206 77.6539 169.017 74.3278 169.017C72.9091 169.017 71.4786 168.699 70.1453 168.002C65.6324 165.69 63.8599 160.161 66.1714 155.66C74.2423 139.942 64.6179 131.966 39.0226 116.249C20.7286 105.006 0 92.2727 0 70.537C0 51.015 18.9302 33.8906 57.8556 18.2944C58.6991 17.9522 59.5555 17.6088 60.4119 17.2795C88.0492 6.47851 115.221 0.461009 116.359 0.21609C121.311 -0.872567 126.204 2.25865 127.279 7.21327C128.366 12.1538 125.236 17.0464 120.296 18.135Z" transform="translate(717 411.934) scale(-1 1)" fill="#FCD2BE"/>
<path d="M81.6408 273.226H266.64C311.729 273.226 348.28 236.665 348.28 191.565V81.661C348.28 36.5608 311.729 0 266.64 0H81.6408C36.5518 0 0 36.5608 0 81.661V191.565C0.00117157 236.665 36.5529 273.226 81.6408 273.226Z" transform="translate(348.281) scale(-1 1)" fill="#36AEF2"/>
<path d="M23.2345 46.4806C36.0666 46.4806 46.4691 36.0756 46.4691 23.2403C46.4691 10.405 36.0666 0 23.2345 0C10.4025 0 0 10.405 0 23.2403C0 36.0756 10.4025 46.4806 23.2345 46.4806Z" transform="translate(410.64 227.841) scale(-1 1)" fill="#36AEF2"/>
<path d="M9.15838 18.3118C5.2102 18.3118 1.63574 15.6799 0.4302 11.9311C-0.805805 8.08621 0.687945 3.74566 4.05855 1.50506C10.8115 -2.98433 19.9474 3.25347 18.0881 11.2022C17.1309 15.2978 13.3737 18.3118 9.15838 18.3118Z" transform="translate(428.971 283.541) scale(-1 1)" fill="#36AEF2"/>
<path d="M195.701 0V106.869C195.701 155.844 155.991 195.565 107.013 195.565C93.8942 195.565 81.4521 192.715 70.2519 187.606V187.591C43.1536 175.23 23.3611 149.621 19.1715 119.032C15.2362 117.648 11.54 115.392 8.37906 112.23C-2.79302 101.068 -2.79302 82.9512 8.37906 71.7916C19.5371 60.6015 37.6636 60.6015 48.8357 71.7916L56.2845 29.0809L61.3632 0.00116228H195.7V0H195.701Z" transform="translate(646.034 168.902) scale(-1 1)" fill="#FCD2BE"/>
<path d="M70.252 158.51C43.1536 146.15 23.3611 120.54 19.1715 89.9507C15.2362 88.5668 11.54 86.3109 8.37906 83.1493C-2.79302 71.9873 -2.79302 53.8704 8.37906 42.7107C19.5371 31.5207 37.6636 31.5207 48.8357 42.7107L56.2845 0L79.6304 4.74133C69.8138 21.7134 28.3555 83.6708 70.252 158.51Z" transform="translate(646.034 197.984) scale(-1 1)" fill="#FAB998"/>
<path d="M218.82 0C218.82 42.5701 184.315 77.0685 141.77 77.0685H61.293V84.2215C61.293 101.238 47.4966 115.024 30.4842 115.024C22.2458 106.783 10.2137 104.625 0 108.547V77.0685C0 34.5124 34.505 0 77.0494 0H218.82Z" transform="translate(627.695 125.655) scale(-1 1)" fill="#F9CE55"/>
<path d="M139.935 0H77.0494C34.5039 0 0 34.5136 0 77.0685V108.547C10.2137 104.624 22.2458 106.783 30.4842 115.024C47.4966 115.024 61.293 101.238 61.293 84.2215V77.0685H62.8851C62.8851 34.5136 97.389 0 139.935 0Z" transform="translate(627.695 125.655) scale(-1 1)" fill="#E2A11E"/>
<path d="M9.1722 33.0206C4.10751 33.0206 0 28.9133 0 23.8462V9.17448C0 4.10853 4.10634 0 9.1722 0C14.2369 0 18.3444 4.10736 18.3444 9.17448V23.8462C18.3444 28.9133 14.2381 33.0206 9.1722 33.0206Z" transform="translate(535.192 231.197) scale(-1 1)" fill="#50515B"/>
<path d="M9.17222 33.0206C4.10753 33.0206 0 28.9133 0 23.8462V9.17448C0 4.10853 4.10636 0 9.17222 0C14.2369 0 18.3444 4.10736 18.3444 9.17448V23.8462C18.3444 28.9133 14.2381 33.0206 9.17222 33.0206Z" transform="translate(497.059 231.197) scale(-1 1)" fill="#50515B"/>
<path d="M45.4812 38.9552C45.316 38.9552 45.1508 38.9517 44.9845 38.9423C25.1662 37.8841 10.0295 29.1643 1.20998 13.7274C-1.30304 9.3271 0.224698 3.72444 4.62277 1.2108C9.02083 -1.30401 14.6221 0.225261 17.1363 4.62442C22.7903 14.5196 32.4885 19.9019 45.9627 20.6215C51.0204 20.8922 54.9018 25.2116 54.6323 30.2717C54.3711 35.1631 50.3221 38.9552 45.4812 38.9552Z" transform="translate(567.462 291.533) scale(-1 1)" fill="white"/>
<path d="M62.4411 18.135C62.1716 18.1959 35.3661 24.1408 9.0492 34.4403C7.64331 34.991 6.28546 35.5289 4.96511 36.0797L0 18.2944C0.843529 17.9522 1.69995 17.6088 2.55636 17.2795C30.1937 6.47851 57.3659 0.461009 58.5035 0.21609C63.4557 -0.872567 68.3481 2.25865 69.4236 7.21327C70.512 12.1538 67.3816 17.0464 62.4411 18.135Z" transform="translate(659.146 411.934) scale(-1 1)" fill="#D8254F"/>
<path d="M6.93502 79.805H177.58C181.06 79.805 183.936 82.4194 184.42 85.784C184.512 85.6084 184.55 85.4009 184.474 85.1934L175.582 12.7688C173.529 5.51612 166.928 0 159.413 0H25.1044C17.5898 0 10.9882 5.51612 8.93617 12.7688L0.0407777 85.1934C-0.0355776 85.4009 0.00260005 85.6084 0.0948627 85.784C0.578446 82.4194 3.45449 79.805 6.93502 79.805Z" transform="translate(266.234 65) scale(-1 1)" fill="#F5EEE4"/>
<path d="M22.2703 0H0V9.5766H22.2703V0Z" transform="translate(259.876 199.073) scale(-1 1)" fill="#6C4127"/>
<path d="M22.2703 0H0V9.5766H22.2703V0Z" transform="translate(110.347 199.073) scale(-1 1)" fill="#6C4127"/>
<path d="M177.586 31.9188H6.93879C3.1242 31.9188 0 28.7841 0 24.9566V6.96219C0 3.13155 3.1242 0 6.93879 0H177.583C181.401 0 184.522 3.13474 184.522 6.96219V24.9566C184.525 28.7841 181.401 31.9188 177.586 31.9188Z" transform="translate(266.239 144.808) scale(-1 1)" fill="#BCB3AA"/>
<path d="M177.586 22.3422H6.93879C3.1242 22.3422 0 19.2075 0 15.38V6.96219C0 3.13155 3.1242 0 6.93879 0H177.583C181.401 0 184.522 3.13474 184.522 6.96219V15.38C184.525 19.2075 181.401 22.3422 177.586 22.3422Z" transform="translate(266.239 176.73) scale(-1 1)" fill="#9E6C53"/>
<path d="M171.799 19.1532H0C0 8.57425 8.54543 0 19.0888 0H152.711C163.254 0 171.799 8.57425 171.799 19.1532Z" transform="translate(259.876 125.652) scale(-1 1)" fill="#7383BF"/>
<path d="M47.6647 31.9244C51.2534 28.1033 51.2056 22.0988 47.4801 18.3607L32.0277 2.85622C28.2322 -0.952073 22.0793 -0.952073 18.287 2.85622L2.83457 18.3607C-0.890935 22.0988 -0.935474 28.1033 2.65004 31.9244H47.6647Z" transform="translate(243.393 93.7274) scale(-1 1)" fill="#A8C9E3"/>
<path d="M47.6647 31.9244C51.2534 28.1033 51.2056 22.0988 47.4801 18.3607L32.0277 2.85622C28.2322 -0.952073 22.0793 -0.952073 18.287 2.85622L2.83457 18.3607C-0.89093 22.0988 -0.935478 28.1033 2.65004 31.9244H47.6647Z" transform="translate(158.06 93.7274) scale(-1 1)" fill="#A8C9E3"/>
</svg>
