<svg width="545" height="560" viewBox="0 0 545 560" fill="none" xmlns="http://www.w3.org/2000/svg">
<path d="M420.652 31.3565V291.719L0 273.038V31.3565C0 14.0451 14.0376 0 31.3624 0H389.28C406.605 0.000917797 420.652 14.0451 420.652 31.3565Z" transform="translate(99.9165 229)" fill="#50515B"/>
<path d="M420.652 0V31.117L0 12.4352V0H420.652Z" transform="translate(99.9165 489.603)" fill="#393A42"/>
<path d="M469.521 0H0V7.81873C0 35.2471 22.2387 57.4816 49.6722 57.4816H419.848C447.281 57.4816 469.52 35.2471 469.52 7.81873V0H469.521Z" transform="translate(75.4792 502.039)" fill="#50515B"/>
<path d="M88.002 57.4816H49.6731C22.2396 57.4816 0 35.2462 0 7.8178V0H38.3279V7.8178C38.3279 35.2462 60.5685 57.4816 88.002 57.4816Z" transform="translate(75 502.518)" fill="#393A42"/>
<path d="M89.8655 26.8245H25.1202C11.246 26.8245 0 15.5805 0 1.70894V0H114.985V1.70894C114.986 15.5796 103.739 26.8245 89.8655 26.8245Z" transform="translate(252.746 502.04)" fill="#393A42"/>
<path d="M363.159 2.61573V215.557H0V2.61573C0 1.17846 1.17867 0 2.61621 0H360.544C361.981 0 363.159 1.17846 363.159 2.61573Z" transform="translate(128.66 257.743)" fill="white"/>
<path d="M105.501 15.4869V57.5872C105.501 83.9775 84.0937 105.381 57.6902 105.381C50.6173 105.381 43.9106 103.846 37.8722 101.094V101.086C23.2636 94.4257 12.5941 80.6257 10.3349 64.1421C8.21352 63.3968 6.22061 62.1798 4.51778 60.4773C-1.50593 54.463 -1.50593 44.7004 4.51778 38.6861C10.5332 32.6561 20.305 32.6561 26.3287 38.6861L30.3439 15.6705L33.0813 0L105.501 15.4869Z" transform="translate(160.598 310.294)" fill="#FCD2BE"/>
<path d="M37.8722 82.8605C23.2636 76.2001 12.5941 62.4001 10.335 45.9165C8.21352 45.1712 6.22062 43.9542 4.51778 42.2517C-1.50593 36.2374 -1.50593 26.4748 4.51778 20.4605C10.5332 14.4305 20.305 14.4305 26.3287 20.4605L26.7565 8.75854L42.9311 0C37.6363 9.14677 15.2865 42.5325 37.8722 82.8605Z" transform="translate(160.597 328.519)" fill="#FAB998"/>
<path d="M0 38.9816V58.3627C5.45182 56.3711 11.8023 57.5725 16.1829 61.9513V50.3871C19.3535 50.3871 22.0845 49.9383 24.4492 49.1554C38.5253 44.548 39.3239 28.4976 39.3239 28.4976C54.5723 43.7349 95.3558 38.9825 95.3558 38.9825C95.3558 28.2158 90.99 18.4679 83.9326 11.4128C76.8836 4.36504 67.1338 0 56.3651 0H38.988C17.4598 0 0 17.4492 0 38.9816Z" transform="translate(170.739 287.028)" fill="#50515B"/>
<path d="M0 38.9816V58.3627C5.45182 56.3711 11.8023 57.5725 16.1829 61.9513V50.3871C19.3535 50.3871 22.0845 49.9383 24.4492 49.1554C20.2972 26.695 30.4187 0 49.4308 0H38.9889C17.4598 0 0 17.4492 0 38.9816Z" transform="translate(170.739 287.028)" fill="#393A42"/>
<path d="M7.18677 22.2768C3.21748 22.2768 0 19.0599 0 15.0913V7.18543C0 3.21687 3.21748 0 7.18677 0C11.1561 0 14.3735 3.21687 14.3735 7.18543V15.0913C14.3735 19.0599 11.1552 22.2768 7.18677 22.2768Z" transform="translate(213.315 341.62)" fill="#50515B"/>
<path d="M7.18679 22.2768C3.21749 22.2768 0 19.0599 0 15.0913V7.18543C0 3.21687 3.21749 0 7.18679 0C11.1561 0 14.3736 3.21687 14.3736 7.18543V15.0913C14.3726 19.0599 11.1561 22.2768 7.18679 22.2768Z" transform="translate(238.665 341.62)" fill="#50515B"/>
<path d="M26.7632 25.4768C26.6338 25.4768 26.5043 25.4741 26.374 25.4668C14.892 24.8537 6.0997 19.7654 0.948062 10.7526C-1.02098 7.30629 0.176059 2.9183 3.62211 0.948704C7.06817 -1.02181 11.457 0.176831 13.4278 3.62224C16.1111 8.31586 20.5963 10.7673 27.1405 11.117C31.1033 11.329 34.1446 14.7129 33.9334 18.675C33.7287 22.5059 30.5562 25.4768 26.7632 25.4768Z" transform="translate(200.709 374.131)" fill="white"/>
<path d="M136.545 14.3709H7.18679C3.21749 14.3709 0 11.154 0 7.18543C0 3.21687 3.21749 0 7.18679 0H136.544C140.513 0 143.731 3.21687 143.731 7.18543C143.731 11.154 140.513 14.3709 136.545 14.3709Z" transform="translate(324.133 282.172)" fill="#36AEF2"/>
<path d="M107.799 14.3709H7.18679C3.21749 14.3709 0 11.154 0 7.18544C0 3.21689 3.21749 0 7.18679 0H107.798C111.767 0 114.985 3.21689 114.985 7.18544C114.985 11.1531 111.767 14.3709 107.799 14.3709Z" transform="translate(324.133 308.039)" fill="#36AEF2"/>
<path d="M136.545 14.3709H7.18679C3.21749 14.3709 0 11.154 0 7.18542C0 3.21686 3.21749 0 7.18679 0H136.544C140.513 0 143.731 3.21686 143.731 7.18542C143.731 11.154 140.513 14.3709 136.545 14.3709Z" transform="translate(324.133 347.318)" fill="#36AEF2"/>
<path d="M107.799 14.3709H7.18679C3.21749 14.3709 0 11.154 0 7.18544C0 3.21689 3.21749 0 7.18679 0H107.798C111.767 0 114.985 3.21689 114.985 7.18544C114.985 11.154 111.767 14.3709 107.799 14.3709Z" transform="translate(324.133 373.184)" fill="#36AEF2"/>
<path d="M136.545 14.3709H7.18679C3.21749 14.3709 0 11.154 0 7.18544C0 3.21689 3.21749 0 7.18679 0H136.544C140.513 0 143.731 3.21689 143.731 7.18544C143.731 11.154 140.513 14.3709 136.545 14.3709Z" transform="translate(324.133 412.463)" fill="#36AEF2"/>
<path d="M107.799 14.3709H7.18679C3.21749 14.3709 0 11.154 0 7.18542C0 3.21686 3.21749 0 7.18679 0H107.798C111.767 0 114.985 3.21686 114.985 7.18542C114.985 11.154 111.767 14.3709 107.799 14.3709Z" transform="translate(324.133 438.33)" fill="#36AEF2"/>
<path d="M137.503 14.3709H7.18678C3.21748 14.3709 0 11.154 0 7.18542C0 3.21686 3.21748 0 7.18678 0H137.503C141.472 0 144.689 3.21686 144.689 7.18542C144.689 11.154 141.472 14.3709 137.503 14.3709Z" transform="translate(148.782 438.33)" fill="#36AEF2"/>
<path d="M34.3611 0H333.64C352.616 0 368 15.3856 368 34.3628V185.501C368 204.478 352.616 219.864 333.64 219.864H164.884V282L109.47 219.864H34.3596C15.3842 219.864 0 204.478 0 185.501V34.3643C0.00150707 15.3856 15.3856 0 34.3611 0Z" fill="#118ED3"/>
<path d="M146.669 23.8983H11.948C5.34708 23.8983 0 18.5477 0 11.9491C0 5.35058 5.34859 0 11.948 0H146.669C153.27 0 158.617 5.35058 158.617 11.9491C158.617 18.5477 153.27 23.8983 146.669 23.8983Z" transform="translate(159.2 48.5938)" fill="white"/>
<path d="M81.1344 23.8983H11.948C5.34704 23.8983 0 18.5477 0 11.9491C0 5.35058 5.34855 0 11.948 0H81.1359C87.7368 0 93.0839 5.35058 93.0839 11.9491C93.0839 18.5477 87.7339 23.8983 81.1344 23.8983Z" transform="translate(50.184 48.5938)" fill="white"/>
<path d="M53.4737 23.8983H11.948C5.34704 23.8983 0 18.5477 0 11.9491C0 5.35059 5.34855 0 11.948 0H53.4737C60.0747 0 65.4218 5.35059 65.4218 11.9491C65.4218 18.5477 60.0747 23.8983 53.4737 23.8983Z" transform="translate(252.396 97.5872)" fill="white"/>
<path d="M174.33 23.8983H11.948C5.34704 23.8983 0 18.5477 0 11.9491C0 5.35059 5.34855 0 11.948 0H174.33C180.931 0 186.278 5.35059 186.278 11.9491C186.278 18.5477 180.928 23.8983 174.33 23.8983Z" transform="translate(50.184 97.5872)" fill="white"/>
<path d="M181.499 23.8983H11.948C5.34704 23.8983 0 18.5477 0 11.9491C0 5.34907 5.34855 0 11.948 0H181.499C188.1 0 193.447 5.35058 193.447 11.9491C193.447 18.5477 188.097 23.8983 181.499 23.8983Z" transform="translate(50.184 146.577)" fill="white"/>
</svg>
