<svg width="525" height="501" viewBox="0 0 525 501" fill="none" xmlns="http://www.w3.org/2000/svg">
<path d="M179.05 44.8928L75.3543 113.733L29.2272 144.363C-19.4172 82.5829 -8.57886 31.3718 71.0641 7.9581C150.694 -15.4515 170.999 17.605 179.05 44.8928Z" transform="translate(37.3865 219.223)" fill="#F9CE55"/>
<path d="M75.3543 105.774L29.2272 136.405C-19.4172 74.6248 -8.57886 23.4137 71.0641 0C45.131 16.3778 44.6019 80.6494 75.3543 105.774Z" transform="translate(37.3853 227.181)" fill="#E2A11E"/>
<path d="M151.02 4.42711L169.595 67.3876C181.744 108.567 158.142 151.8 116.876 163.93C110.779 165.722 104.635 166.742 98.5564 167.02C66.9622 168.546 37.0619 150.597 23.8825 121.337C20.2229 121.149 16.55 120.166 13.1026 118.292C0.921033 111.674 -3.57324 96.442 3.07127 84.2905C4.81546 81.096 7.14104 78.4276 9.85217 76.3661C17.4831 70.5381 28.1584 69.3733 37.1418 74.2607C35.7832 69.6568 35.6499 59.7048 38.8891 48.5287C46.679 21.6534 74.0292 -12.2495 151.02 4.42711Z" transform="translate(65.4155 259.688)" fill="#FCD2BE"/>
<path d="M98.5564 118.491C66.9622 120.017 37.0619 102.068 23.8825 72.808C20.2229 72.6207 16.55 71.6371 13.1026 69.763C0.921033 63.1457 -3.57324 47.9133 3.07127 35.7617C4.81546 32.5672 7.14104 29.8988 9.85217 27.8374C17.4831 22.0093 28.1584 20.8445 37.1418 25.732C35.7832 21.1281 35.6499 11.1761 38.8891 0C44.7225 44.7249 64.6674 108.431 98.5564 118.491Z" transform="translate(65.4155 308.219)" fill="#FAB998"/>
<path d="M11.6903 28.4176C8.21013 28.4176 5.00169 26.1484 3.96912 22.6479L0.330024 10.3121C-0.926076 6.05211 1.51332 1.5843 5.78098 0.329431C10.0476 -0.924415 14.5245 1.51061 15.7816 5.77062L19.4207 18.1064C20.6768 22.3664 18.2374 26.8342 13.9697 28.0891C13.2099 28.3112 12.4429 28.4176 11.6903 28.4176Z" transform="translate(154.407 308.018)" fill="#50515B"/>
<path d="M11.6903 28.4176C8.21013 28.4176 5.00169 26.1484 3.96912 22.6479L0.330024 10.3121C-0.926076 6.05208 1.51332 1.5843 5.78098 0.329431C10.0456 -0.924415 14.5245 1.51061 15.7816 5.77062L19.4207 18.1064C20.6768 22.3664 18.2374 26.8342 13.9697 28.088C13.2099 28.3122 12.444 28.4176 11.6903 28.4176Z" transform="translate(186.536 298.573)" fill="#50515B"/>
<path d="M32.5316 25.7952C20.9693 25.7952 10.738 21.7573 2.47437 13.835C-0.733046 10.7603 -0.835583 5.67019 2.24468 2.46955C5.32495 -0.73108 10.4232 -0.834457 13.6306 2.24028C20.8493 9.16151 30.3567 11.2833 41.8872 8.55149C46.2143 7.52487 50.5558 10.1963 51.5833 14.5167C52.6107 18.8361 49.9355 23.1698 45.6073 24.1954C41.0956 25.264 36.7264 25.7952 32.5316 25.7952Z" transform="translate(142.188 366.743)" fill="white"/>
<path d="M42.643 0C3.4896 3.79224 -21.25 38.1395 25.3447 117.27C25.3447 117.27 49.1245 63.0557 50.4237 16.6644" transform="translate(0 322.923)" fill="#E2A11E"/>
<path d="M221.713 226.568C221.713 226.568 221.563 226.554 221.273 226.518C216.585 225.863 175.433 218.931 162.092 173.365L9.01248 90.8882C-2.57133 71.9557 -11.4338 35.3454 38.4801 16.2726C41.587 15.0761 44.9277 13.9563 48.5053 12.9123C109.53 -4.89128 170.846 -17.4635 209.765 68.5012C235.801 126.02 230.841 190.728 221.713 226.568Z" transform="translate(295.835 0.000976562)" fill="#50515B"/>
<path d="M183.233 226.569C183.233 226.569 183.083 226.555 182.793 226.519C182.797 226.495 182.791 226.475 182.786 226.454C152.188 45.542 52.9562 0.824212 0 16.2726C3.10693 15.0761 6.44765 13.9563 10.0252 12.9123C71.0502 -4.89128 132.366 -17.4635 171.285 68.5012C197.321 126.022 192.361 190.729 183.233 226.569Z" transform="translate(334.315)" fill="#393A42"/>
<path d="M172.046 45.3104C170.221 48.6369 167.742 51.3565 164.859 53.42C169.455 84.1428 154.499 114.381 127.956 129.635C122.857 132.583 117.317 134.96 111.409 136.684C71.4296 148.348 29.5425 125.447 17.8602 85.5522L0 24.5518C0 24.5518 32.4279 16.3379 41.3928 0C66.7589 18.4628 91.6246 14.8138 107.166 9.15666C107.163 9.14438 107.163 9.14438 107.163 9.14438C117.113 5.51795 123.248 1.07166 123.248 1.07166L129.375 22.0032L129.383 21.9879C134.142 13.3133 143.45 8.6889 152.722 9.45246C156.012 9.71552 159.304 10.6766 162.4 12.3675C174.182 18.7995 178.503 33.557 172.046 45.3104Z" transform="translate(304.842 66.3381)" fill="#FCD2BE"/>
<path d="M64.8825 44.2398C63.0573 47.5663 60.5789 50.2859 57.6955 52.3494C62.2913 83.0722 47.336 113.311 20.7928 128.565C52.3604 97.0108 0.699336 9.2672 0.00309794 8.085C2.17795e-05 8.07272 0 8.07272 0 8.07272C9.94934 4.44629 16.0842 0 16.0842 0L22.212 20.9316L22.2202 20.9162C26.979 12.2416 36.2864 7.61724 45.559 8.38081C48.8485 8.64386 52.141 9.60497 55.2366 11.2959C67.0184 17.7289 71.3393 32.4864 64.8825 44.2398Z" transform="translate(412.005 67.4092)" fill="#FAB998"/>
<path d="M11.5515 28.0341C8.06516 28.0341 4.85261 25.7567 3.82517 22.248L0.32553 10.2971C-0.922367 6.03504 1.52728 1.57134 5.79597 0.325681C10.0647 -0.922024 14.5374 1.52528 15.7853 5.78631L19.2849 17.7373C20.5328 21.9993 18.0832 26.463 13.8145 27.7087C13.0598 27.9287 12.3 28.0341 11.5515 28.0341Z" transform="translate(367.99 96.9863)" fill="#50515B"/>
<path d="M11.5515 28.0331C8.06516 28.0331 4.85367 25.7568 3.8252 22.247L0.325528 10.2961C-0.922369 6.034 1.52731 1.57031 5.796 0.324657C10.0637 -0.919977 14.5374 1.52323 15.7853 5.78528L19.285 17.7362C20.5329 21.9983 18.0832 26.462 13.8145 27.7076C13.0598 27.9287 12.299 28.0331 11.5515 28.0331Z" transform="translate(336.862 106.068)" fill="#50515B"/>
<path d="M8.05611 41.5137C4.7318 41.5137 1.62076 39.4441 0.456946 36.136C-1.01654 31.9466 1.19115 27.359 5.38806 25.8872C16.128 22.1226 22.7069 15.489 24.9402 6.17057C25.9748 1.85223 30.3204 -0.81105 34.6465 0.222734C38.9716 1.25447 41.6396 5.59227 40.605 9.91164C37.0664 24.6753 26.7335 35.4461 10.7252 41.0572C9.84233 41.3673 8.94102 41.5137 8.05611 41.5137Z" transform="translate(384.004 138.45)" fill="white"/>
<path d="M37.0958 49.9002C44.4725 59.9688 54.6915 70.1583 67.07 79.1921C79.4525 88.229 92.274 94.8565 104.131 98.8186L116.374 82.1031C119.834 77.3773 126.479 76.3476 131.213 79.8031L153.579 96.1267C158.313 99.5822 159.345 106.214 155.883 110.939L153.035 114.827C135.012 139.433 87.7049 135.521 47.3723 106.085C7.03964 76.6496 -11.0431 32.8377 6.98017 8.23158L9.82767 4.34414C13.2884 -0.381581 19.9329 -1.41128 24.6671 2.04422L47.0359 18.3698C51.7701 21.8253 52.8017 28.4569 49.34 33.1826L37.0958 49.9002Z" transform="translate(62.4285 370.001)" fill="#118ED3"/>
<path d="M49.75 51.586C51.6665 63.9136 51.6583 78.3303 49.304 93.4563C46.9507 108.586 42.5774 122.322 37.0014 133.493L16.5028 130.315C10.7073 129.417 5.28098 133.378 4.37966 139.163L0.127375 166.492C-0.772915 172.277 3.19535 177.693 8.99084 178.593L13.7568 179.332C43.9319 184.01 74.6126 147.852 82.2794 98.5699C89.9473 49.2881 71.6984 5.54479 41.5233 0.866149L36.7573 0.127147C30.9618 -0.771528 25.5355 3.1896 24.6341 8.97469L20.3819 36.3075C19.4816 42.0926 23.4498 47.5092 29.2453 48.4089L49.75 51.586Z" transform="translate(417.25 103.622)" fill="#118ED3"/>
<path d="M190.059 88.6607V25.0636C190.059 11.2222 178.817 0 164.95 0H25.1087C11.2424 0 0 11.2212 0 25.0636V102.487C0 116.328 11.2413 127.55 25.1087 127.55H190.06H233.011L190.059 88.6607Z" transform="translate(43.9463 20.7241)" fill="#7CEDB6"/>
<path d="M42.9515 88.6607V25.0636C42.9515 11.2222 54.1928 0 68.0601 0H207.902C221.768 0 233.011 11.2212 233.011 25.0636V102.487C233.011 116.328 221.77 127.551 207.902 127.551H42.9515H0L42.9515 88.6607Z" transform="translate(291.989 306.909)" fill="#4CC2C3"/>
<path d="M104.613 16.0779H8.05339C3.60629 16.0779 0 12.4791 0 8.03895C0 3.59982 3.60526 0 8.05339 0H104.613C109.06 0 112.667 3.5988 112.667 8.03895C112.667 12.4781 109.061 16.0779 104.613 16.0779Z" transform="translate(74.2393 59.981)" fill="white"/>
<path d="M61.7284 16.0779H8.0534C3.60629 16.0779 0 12.4791 0 8.03894C0 3.59879 3.60527 0 8.0534 0H61.7284C66.1755 0 69.7818 3.59879 69.7818 8.03894C69.7818 12.4791 66.1775 16.0779 61.7284 16.0779Z" transform="translate(134.841 92.9385)" fill="white"/>
<path d="M42.8858 16.0779H8.05339C3.60629 16.0779 0 12.4791 0 8.03894C0 3.59879 3.60526 0 8.05339 0H42.8848C47.3319 0 50.9382 3.59879 50.9382 8.03894C50.9382 12.4791 47.3329 16.0779 42.8858 16.0779Z" transform="translate(74.239 92.9385)" fill="white"/>
<path d="M104.613 16.0779H8.0534C3.60629 16.0779 0 12.4791 0 8.03895C0 3.5988 3.60527 0 8.0534 0H104.613C109.06 0 112.667 3.5988 112.667 8.03895C112.667 12.4791 109.062 16.0779 104.613 16.0779Z" transform="translate(365.233 346.165)" fill="white"/>
<path d="M32.2156 16.0779H8.0534C3.60629 16.0779 0 12.4791 0 8.03895C0 3.59982 3.60527 0 8.0534 0H32.2156C36.6628 0 40.269 3.5988 40.269 8.03895C40.269 12.4791 36.6638 16.0779 32.2156 16.0779Z" transform="translate(455.348 379.123)" fill="white"/>
<path d="M72.3975 16.0779H8.0534C3.60629 16.0779 0 12.4791 0 8.03895C0 3.59982 3.60527 0 8.0534 0H72.3975C76.8446 0 80.4509 3.5988 80.4509 8.03895C80.4509 12.4791 76.8456 16.0779 72.3975 16.0779Z" transform="translate(365.234 379.123)" fill="white"/>
</svg>
