<svg width="562" height="592" viewBox="0 0 562 592" fill="none" xmlns="http://www.w3.org/2000/svg">
<path d="M48.7004 208.531C48.7004 213.457 44.7204 217.455 39.7889 217.455H8.90814C5.79523 217.455 2.89594 215.825 1.29215 213.148C-0.323189 210.483 -0.430564 207.163 1.00696 204.391C4.19145 198.298 7.01915 192.23 9.51432 186.21C47.7374 94.3436 10.8572 13.5797 10.453 12.7229C8.362 8.26092 10.2752 2.94219 14.731 0.848228C19.1867 -1.24574 24.4981 0.67015 26.5891 5.13211C27.0648 6.16695 38.4345 30.7245 42.9503 68.609C46.4431 97.9384 46.1706 140.284 28.7044 186.211C27.0175 190.637 25.1631 195.111 23.1437 199.608H39.7901C44.7192 199.608 48.7004 203.594 48.7004 208.531Z" transform="translate(103.294 374.544)" fill="#50515B"/>
<path d="M48.7045 208.531C48.7045 213.457 44.7118 217.455 39.793 217.455H8.91338C5.78893 217.455 2.90118 215.825 1.28584 213.148C-0.329499 210.483 -0.425333 207.163 1.01219 204.391C4.19668 198.298 7.01284 192.23 9.50801 186.21C47.7311 94.3563 10.8624 13.5797 10.4583 12.7229C8.36723 8.26092 10.2805 2.94219 14.7362 0.848228C19.192 -1.24574 24.5033 0.67015 26.5816 5.13211C27.0689 6.16695 38.4398 30.7245 42.9544 68.609C46.4472 97.9384 46.1747 140.284 28.7085 186.211C27.0216 190.637 25.1672 195.111 23.1477 199.608H39.7942C44.7129 199.608 48.7045 203.594 48.7045 208.531Z" transform="translate(15.532 374.544)" fill="#50515B"/>
<path d="M47.4198 213.149C45.8045 215.826 42.9167 217.456 39.7923 217.456H8.91151C3.99276 217.456 0 213.458 0 208.532C0 203.595 3.99276 199.608 8.91151 199.608H25.5579C23.5385 195.111 21.6841 190.649 19.9972 186.211C2.53097 140.284 2.25847 97.9384 5.76279 68.609C10.2659 30.7257 21.6368 6.16698 22.124 5.13214C24.2151 0.670179 29.5149 -1.24574 33.9694 0.848221C38.4252 2.94219 40.3384 8.24937 38.2589 12.7102C38.0927 13.0675 27.4584 36.2919 23.371 71.3921C20.0676 99.8046 20.5907 141.436 39.1849 186.21C41.6801 192.219 44.5078 198.287 47.6923 204.391C49.1298 207.164 49.0351 210.483 47.4198 213.149Z" transform="translate(362.286 374.543)" fill="#50515B"/>
<path d="M47.4198 213.149C45.8045 215.826 42.9167 217.456 39.7923 217.456H8.91151C3.99276 217.456 0 213.458 0 208.532C0 203.595 3.99276 199.608 8.91151 199.608H25.5579C23.5384 195.111 21.6841 190.649 19.9972 186.211C2.53097 140.284 2.25847 97.9384 5.76279 68.609C10.2659 30.7257 21.6368 6.16698 22.124 5.13214C24.2151 0.670179 29.5264 -1.24574 33.9694 0.848221C38.4252 2.94219 40.3384 8.24937 38.2589 12.7102C38.2116 12.8293 35.5028 18.6949 32.3183 28.9393C29.1107 39.1836 25.4274 53.794 23.371 71.3921C20.0676 99.8046 20.5907 141.436 39.1849 186.21C41.6801 192.219 44.5078 198.287 47.6923 204.391C49.1425 207.164 49.0351 210.483 47.4198 213.149Z" transform="translate(450.044 374.543)" fill="#50515B"/>
<path d="M150.136 182.363C149.186 186.48 145.514 189.264 141.474 189.264C140.796 189.264 140.12 189.181 139.431 189.026C121.441 184.826 103.94 176.961 87.3183 165.717C68.4746 152.962 50.759 135.876 34.7661 114.852C12.298 85.3091 1.14077 58.6692 0.677761 57.5511C0.226298 56.4688 0 55.3022 0 54.1367V8.92392C0 3.98674 3.99274 0 8.91149 0C13.8302 0 17.823 3.98558 17.823 8.92392V52.2566C22.3503 62.3345 49.4046 119.017 98.3924 151.678C111.783 160.613 126.825 167.752 143.483 171.643C148.282 172.761 151.253 177.568 150.136 182.363Z" transform="translate(257.194 73.5605)" fill="#FCD2BE"/>
<path d="M62.818 30.6868C61.8678 34.8031 58.196 37.5873 54.1559 37.5873C53.4782 37.5873 52.8016 37.5041 52.1122 37.3491C34.123 33.1496 16.6222 25.2848 0 14.0403L11.0741 0C24.4644 8.93548 39.507 16.0742 56.165 19.9649C60.9637 21.0842 63.9346 25.8918 62.818 30.6868Z" transform="translate(344.512 225.237)" fill="#D8254F"/>
<path d="M142.069 186.753C142.069 186.753 96.2771 209.68 49.915 200.71C32.5677 197.366 15.1373 189.549 0 174.391C0 174.391 14.5069 77.0755 41.6928 20.2031C45.3045 12.6482 49.1425 5.80668 53.2057 0L70.1131 1.30888L104.285 3.96246C104.285 8.72158 104.891 18.0375 106.138 30.1862C110.368 71.7325 121.989 146.549 142.069 186.753Z" transform="translate(5.96436 194.667)" fill="#46DEB5"/>
<path d="M49.915 200.71C32.5677 197.366 15.1373 189.549 0 174.391C0 174.391 18.6185 49.4839 53.2057 0L70.1131 1.30888L75.0087 6.15123C62.355 32.1726 32.7224 132.867 49.915 200.71Z" transform="translate(5.96436 194.666)" fill="#22C79A"/>
<path d="M0 186.753C0 186.753 45.7917 209.68 92.1539 200.71C109.501 197.366 126.932 189.549 142.069 174.391C142.069 174.391 123.45 49.4839 88.8632 0L71.9558 1.30888L37.7844 3.96246C37.7832 24.9969 25.9493 134.793 0 186.753Z" transform="translate(366.255 194.667)" fill="#EF4A6E"/>
<path d="M25.0937 200.71C42.441 197.366 59.8714 189.549 75.0087 174.391C75.0087 174.391 56.3902 49.4839 21.803 0L4.89569 1.30888L0 6.15123C12.6537 32.1726 42.2863 132.867 25.0937 200.71Z" transform="translate(433.315 194.666)" fill="#D8254F"/>
<path d="M105.766 190.734C104.673 194.683 101.097 197.278 97.1872 197.278C96.4033 197.278 95.595 197.171 94.7995 196.945C78.8782 192.519 67.9703 177.968 68.2913 161.56C69.1353 118.203 55.5903 84.0086 40.6781 59.7008C23.2246 31.2409 3.90406 16.308 3.54844 16.0467C-0.384259 13.0716 -1.16826 7.48 1.80147 3.55339C4.75965 -0.384795 10.3562 -1.16989 14.2774 1.80398C15.0498 2.37517 33.2284 16.2837 51.1692 42.9479C51.5259 43.4717 51.8816 44.007 52.2499 44.5539C68.528 69.2549 87.1338 109.221 86.112 161.905C85.9457 170.163 91.4822 177.504 99.5623 179.752C104.316 181.071 107.085 185.986 105.766 190.734Z" transform="translate(455.905 228.469)" fill="#FCD2BE"/>
<path d="M193.431 8.92392V54.1367C193.431 55.3022 193.205 56.4688 192.754 57.5511C192.349 58.5154 185.863 73.9941 173.019 94.2088C166.305 104.786 157.858 116.649 147.64 128.428C110.901 170.726 67.3438 192.785 20.9701 192.785C16.7164 192.785 12.4396 192.607 8.13745 192.225C3.23025 191.809 -0.393004 187.477 0.034212 182.563C0.461428 177.661 4.7867 174.021 9.68236 174.449C55.5688 178.434 97.4521 159.005 134.189 116.707C144.051 105.356 152.19 93.8272 158.571 83.6534C168.076 68.5666 173.755 56.4422 175.608 52.2659V8.92392C175.608 3.98674 179.601 0 184.52 0C189.439 0 193.431 3.98558 193.431 8.92392Z" transform="translate(53.7932 73.5605)" fill="#FCD2BE"/>
<path d="M7.72336 27.3661C3.45813 27.3661 0 23.9043 0 19.6319V7.73414C0 3.46296 3.45698 0 7.72336 0C11.9886 0 15.4467 3.46181 15.4467 7.73414V19.6319C15.4467 23.9043 11.9897 27.3661 7.72336 27.3661Z" transform="translate(244.166 23.5817)" fill="#EAEAEA"/>
<path d="M7.72309 21.4165C5.74635 21.4165 3.7696 20.6614 2.2628 19.1514C-0.754267 16.1301 -0.754267 11.2345 2.2628 8.21442L8.2034 2.26552C11.2205 -0.755752 16.1104 -0.754596 19.1251 2.26552C22.1422 5.2868 22.1422 10.1824 19.1251 13.2025L13.1845 19.1514C11.6754 20.6603 9.69867 21.4165 7.72309 21.4165Z" transform="translate(278.434 38.727)" fill="#EAEAEA"/>
<path d="M13.6637 21.4165C11.687 21.4165 9.71022 20.6614 8.20342 19.1514L2.2628 13.2025C-0.754267 10.1824 -0.754267 5.28564 2.2628 2.26552C5.27871 -0.754596 10.1675 -0.755752 13.1845 2.26552L19.1251 8.21442C22.1422 11.2345 22.1422 16.1312 19.1251 19.1514C17.6172 20.6603 15.6404 21.4165 13.6637 21.4165Z" transform="translate(203.958 38.727)" fill="#EAEAEA"/>
<path d="M164.833 0V90.1168C164.833 131.416 131.387 164.909 90.1339 164.909C79.084 164.909 68.6045 162.505 59.17 158.198V158.186C36.3451 147.764 19.6756 126.169 16.147 100.373C12.8321 99.2072 9.71916 97.3029 7.05772 94.6377C-2.35257 85.2259 -2.35257 69.9495 7.05772 60.5377C16.4565 51.1027 31.7242 51.1027 41.1345 60.5377L47.4077 24.5217L51.6856 0H164.833Z" transform="translate(0 36.468)" fill="#FCD2BE"/>
<path d="M59.17 133.665C36.3451 123.242 19.6756 101.647 16.147 75.851C12.8321 74.6855 9.71916 72.7812 7.05772 70.116C-2.35257 60.7042 -2.35257 45.4278 7.05772 36.016C16.4565 26.581 31.7242 26.581 41.1345 36.016L47.4077 0L67.0712 3.99831C58.8016 18.3115 23.8819 70.5566 59.17 133.665Z" transform="translate(0 60.9897)" fill="#FAB998"/>
<path d="M184.307 0C184.307 35.8969 155.244 64.9881 119.409 64.9881H51.625V71.0202C51.625 85.3692 40.0047 96.9942 25.6757 96.9942C18.7363 90.0451 8.60205 88.2252 3.4404e-08 91.5332V64.9881C-0.0011546 29.1028 29.0611 0 64.8964 0H184.307Z" transform="translate(15.4473)" fill="#F9CE55"/>
<path d="M117.864 0H64.8975C29.0622 0 0 29.1028 0 64.9881V91.5332C8.60205 88.2252 18.7375 90.0463 25.6757 96.9942C40.0047 96.9942 51.625 85.3692 51.625 71.0202V64.9881H52.9667C52.9667 29.1028 82.0289 0 117.864 0Z" transform="translate(15.446)" fill="#E2A11E"/>
<path d="M8.91149 30.2197C3.99043 30.2197 0 26.2249 0 21.2958V8.92392C0 3.996 3.98927 0 8.91149 0C13.8337 0 17.823 3.99484 17.823 8.92392V21.2958C17.8218 26.2237 13.8326 30.2197 8.91149 30.2197Z" transform="translate(92.1743 87.8101)" fill="#50515B"/>
<path d="M8.91149 30.2197C3.99043 30.2197 0 26.2249 0 21.2958V8.92392C0 3.996 3.98927 0 8.91149 0C13.8326 0 17.823 3.99484 17.823 8.92392V21.2958C17.823 26.2237 13.8337 30.2197 8.91149 30.2197Z" transform="translate(124.293 87.8101)" fill="#50515B"/>
<path d="M39.4959 35.2254C39.3354 35.2254 39.1749 35.222 39.0132 35.2127C21.8992 34.2981 8.81369 26.7386 1.17577 13.3527C-1.26629 9.07458 0.218566 3.62287 4.49188 1.1774C8.76519 -1.26806 14.207 0.218877 16.6502 4.49815C21.263 12.5815 28.8882 16.7983 39.9635 17.3915C44.8776 17.6539 48.6487 21.8569 48.3866 26.7779C48.1337 31.537 44.1999 35.2254 39.4959 35.2254Z" transform="translate(64.9922 138.685)" fill="white"/>
<path d="M0 24.5633L0.418013 90.1168C0.418013 131.416 33.8644 164.909 75.1173 164.909C86.1671 164.909 96.6466 162.505 106.081 158.198V158.186C128.906 147.764 145.576 126.169 149.104 100.373C152.419 99.2072 155.532 97.3029 158.193 94.6377C167.604 85.2259 167.604 69.9495 158.193 60.5377C148.795 51.1027 133.527 51.1027 124.117 60.5377L117.843 24.5217L113.566 0L0 24.5633Z" transform="translate(349.027 36.468)" fill="#FCD2BE"/>
<path d="M7.90233 133.623C30.7272 123.201 47.3967 101.605 50.9253 75.8094C54.2402 74.6439 57.3531 72.7395 60.0146 70.0744C69.4249 60.6625 69.4249 45.3862 60.0146 35.9743C50.6158 26.5394 35.3481 26.5394 25.9378 35.9743L51.528 0L0 3.95668C8.27067 18.2699 43.1904 70.5149 7.90233 133.623Z" transform="translate(447.205 61.0314)" fill="#FAB998"/>
<path d="M148.984 61.0036V91.332C140.465 88.2148 130.543 90.0948 123.7 96.9479V78.8503C118.745 78.8503 114.48 78.1485 110.784 76.9229C88.7916 69.7125 87.5435 44.5953 87.5435 44.5953C63.721 68.4395 0 61.0025 0 61.0025C0 44.1548 6.82044 28.9016 17.8461 17.8594C28.8602 6.82996 44.0921 0 60.9164 0H88.0654C121.703 0.00115625 148.984 27.3083 148.984 61.0036Z" transform="translate(349.452 0.0578003)" fill="#50515B"/>
<path d="M77.2314 61.0025V91.3309C68.7125 88.2136 58.7907 90.0937 51.9471 96.9468V78.8492C46.9926 78.8492 42.7273 78.1473 39.0313 76.9217C45.5193 41.7741 29.7042 0 0 0H16.3139C49.9508 0 77.2314 27.3071 77.2314 61.0025Z" transform="translate(421.204 0.059021)" fill="#393A42"/>
<path d="M8.91148 30.2197C3.99041 30.2197 0 26.2249 0 21.2958V8.92392C0 3.996 3.98926 0 8.91148 0C13.8325 0 17.823 3.99484 17.823 8.92392V21.2958C17.823 26.2237 13.8325 30.2197 8.91148 30.2197Z" transform="translate(404.288 87.8101)" fill="#50515B"/>
<path d="M8.91148 30.2197C3.99041 30.2197 0 26.2249 0 21.2958V8.92392C0 3.996 3.98926 0 8.91148 0C13.8325 0 17.823 3.99484 17.823 8.92392V21.2958C17.823 26.2237 13.8325 30.2197 8.91148 30.2197Z" transform="translate(372.168 87.8101)" fill="#50515B"/>
<path d="M8.9036 35.2249C4.1996 35.2249 0.265741 31.5365 0.0128758 26.7774C-0.249227 21.8564 3.52183 17.6534 8.43597 17.391C19.5113 16.799 27.1365 12.5821 31.7493 4.49764C34.1913 0.218363 39.6343 -1.26742 43.9076 1.17689C48.1797 3.62235 49.6657 9.07291 47.2237 13.3522C39.5858 26.7381 26.5026 34.2976 9.38623 35.2122C9.22459 35.2214 9.06294 35.2249 8.9036 35.2249Z" transform="translate(400.893 138.685)" fill="white"/>
<path d="M173.019 10.5554C166.305 21.1327 157.858 32.9958 147.64 44.7745C110.901 87.0724 67.3438 109.131 20.9701 109.131C16.7164 109.131 12.4396 108.953 8.13746 108.572C3.23025 108.155 -0.393004 103.824 0.0342119 98.9101C0.461428 94.0076 4.7867 90.3677 9.68236 90.7955C55.5688 94.7811 97.4521 75.3515 134.189 33.0537C144.051 21.7028 152.19 10.1738 158.571 0L173.019 10.5554Z" transform="translate(53.7944 157.215)" fill="#025970"/>
<path d="M52.2511 44.5539L40.6781 59.7008C23.2246 31.2409 3.90406 16.3079 3.54844 16.0466C-0.384259 13.0716 -1.16826 7.48 1.80147 3.55339C4.75965 -0.384795 10.3562 -1.16989 14.2774 1.80398C15.0498 2.37517 33.2284 16.2837 51.1692 42.9479C51.526 43.4705 51.8827 44.0059 52.2511 44.5539Z" transform="translate(455.905 228.467)" fill="#D8254F"/>
<path d="M48.7045 22.3214C48.7045 27.247 44.7118 31.2453 39.793 31.2453H8.91338C5.78893 31.2453 2.90118 29.615 1.28584 26.9383C-0.329499 24.2731 -0.425333 20.9535 1.01219 18.1808C4.19668 12.0886 7.01284 6.02058 9.50801 0H28.7085C27.0216 4.42612 25.1672 8.89964 23.1477 13.3974H39.7942C44.7129 13.3986 48.7045 17.3842 48.7045 22.3214Z" transform="translate(15.5321 560.756)" fill="#EF4A6E"/>
<path d="M48.7004 22.3214C48.7004 27.247 44.7204 31.2453 39.7889 31.2453H8.90814C5.79523 31.2453 2.89594 29.615 1.29215 26.9383C-0.323189 24.2731 -0.430564 20.9535 1.00696 18.1808C4.19145 12.0886 7.01915 6.02058 9.51432 0H28.7032C27.0163 4.42612 25.162 8.89964 23.1425 13.3974H39.7889C44.7192 13.3986 48.7004 17.3842 48.7004 22.3214Z" transform="translate(103.294 560.754)" fill="#EF4A6E"/>
<path d="M47.6935 18.1808C49.131 20.9535 49.0363 24.2731 47.4198 26.9383C45.8045 29.615 42.9167 31.2453 39.7923 31.2453H8.91151C3.99276 31.2453 0 27.247 0 22.3214C0 17.3842 3.99276 13.3974 8.91151 13.3974H25.5579C23.5385 8.89964 21.6841 4.43768 19.9972 0H39.1861C41.6813 6.00902 44.509 12.0759 47.6935 18.1808Z" transform="translate(362.285 560.756)" fill="#00C7A9"/>
<path d="M47.4198 26.9383C45.8045 29.615 42.9167 31.2453 39.7923 31.2453H8.91151C3.99276 31.2453 0 27.247 0 22.3214C0 17.3842 3.99276 13.3974 8.91151 13.3974H25.5579C23.5385 8.89964 21.6841 4.43768 19.9972 0H39.1861C41.6813 6.00902 44.509 12.077 47.6935 18.1808C49.1425 20.9535 49.0351 24.272 47.4198 26.9383Z" transform="translate(450.044 560.754)" fill="#00C7A9"/>
</svg>
