<svg width="54" height="54" viewBox="0 0 54 54" fill="none" xmlns="http://www.w3.org/2000/svg"><path d="M52.426 44.825l-9.31-9.309c5.548-8.978 4.43-20.907-3.358-28.695-9.095-9.095-23.841-9.095-32.937 0-9.095 9.096-9.095 23.842 0 32.937 7.787 7.787 19.716 8.906 28.695 3.359l9.31 9.309a5.375 5.375 0 0 0 7.6-7.6zM34.69 34.691c-6.297 6.296-16.506 6.296-22.802 0-6.297-6.297-6.297-16.506 0-22.802 6.296-6.297 16.505-6.297 22.802 0 6.296 6.296 6.297 16.505 0 22.802z" fill="#fff"/><path d="M19.066 17.915h-5.375v14.332h5.375V17.915zm7.165-5.375h-5.375v19.707h5.375V12.541zm7.167 5.375h-5.375v14.332h5.375V17.915z" fill="#fff"/></svg>