<svg width="13" height="14" viewBox="0 0 11 12" fill="none" xmlns="http://www.w3.org/2000/svg">
<path d="M0.561171 2.48465L3.17141e-07 2.79585V8.39004L5.05314 5.59419V0L0.561171 2.48465Z" transform="translate(5.05316 3.60999) scale(-1 1)" fill="#CCCCCC"/>
<path d="M7.13675 1.07801L5.19343 0L-1.98213e-08 2.87303L1.94591 3.95104L7.13675 1.07801Z" transform="translate(10.7142) scale(-1 1)" fill="#CCCCCC"/>
<path d="M7.43033 1.22241L5.19084 7.59774e-08L0 2.87303L0.296174 3.01992L2.23949 4.09544L4.17241 3.02739L7.43033 1.22241Z" transform="translate(7.76025 1.65063) scale(-1 1)" fill="#CCCCCC"/>
<path d="M2.84743 2.94025L1.91734 2.48216V1.05809L-1.98213e-08 -7.59774e-08V5.55436L5.01677 8.33029V2.77593L2.84743 1.57842V2.94025Z" transform="translate(11 3.63983) scale(-1 1)" fill="#CCCCCC"/>
</svg>
