<svg width="35" height="34" viewBox="0 0 35 34" fill="none" xmlns="http://www.w3.org/2000/svg"><path d="M24.28 13.274H11.916v2.833H24.28l.17.128-1.973 7.239a.907.907 0 0 1-.88.61h-9.936a.923.923 0 0 1-.895-.837l-1.703-8.783a4.135 4.135 0 0 0-1.404-2.52 4.15 4.15 0 0 0-2.713-.993H.305v2.833h4.641a1.336 1.336 0 0 1 1.32 1.162l1.661 8.825a3.752 3.752 0 0 0 1.286 2.26c.684.577 1.552.89 2.448.885h9.936a3.781 3.781 0 0 0 2.271-.769 3.768 3.768 0 0 0 1.349-1.979L27.275 17a2.984 2.984 0 0 0-1.623-3.36 3 3 0 0 0-1.3-.295l-.072-.07zM11.972 29.268a2.374 2.374 0 0 0-2.19 1.46 2.361 2.361 0 0 0 .514 2.579 2.372 2.372 0 0 0 4.047-1.673 2.373 2.373 0 0 0-2.37-2.366zM19.992 34c1.309 0 2.37-1.06 2.37-2.366a2.368 2.368 0 0 0-2.37-2.366c-1.31 0-2.37 1.06-2.37 2.366A2.368 2.368 0 0 0 19.991 34zM32.956 4.25h-2.839V1.417A1.415 1.415 0 0 0 28.697 0a1.421 1.421 0 0 0-1.419 1.417V4.25h-2.839a1.421 1.421 0 0 0-1.42 1.417 1.415 1.415 0 0 0 1.42 1.416h2.839v2.834a1.415 1.415 0 0 0 1.42 1.416 1.42 1.42 0 0 0 1.419-1.416V7.083h2.839a1.421 1.421 0 0 0 1.42-1.416 1.415 1.415 0 0 0-1.42-1.417z" fill="#00AEE9"/></svg>