<svg width="35" height="34" viewBox="0 0 35 34" fill="none" xmlns="http://www.w3.org/2000/svg">
<path d="M23.9754 2.32337H11.6115V5.1567H23.9754L24.1458 5.2842L22.1726 12.5233C22.1095 12.7048 21.9903 12.8616 21.8321 12.9711C21.6739 13.0806 21.485 13.1371 21.2926 13.1325H11.356C11.1303 13.1265 10.9146 13.0382 10.7498 12.8841C10.585 12.7301 10.4825 12.5211 10.4617 12.2967L8.75834 3.51337C8.60852 2.53235 8.11032 1.63777 7.35463 0.992814C6.59893 0.347859 5.63611 -0.0044891 4.64178 4.32131e-05H0V2.83337H4.64178C4.9656 2.83416 5.27808 2.95245 5.52097 3.16618C5.76386 3.37992 5.92058 3.67451 5.96192 3.99503L7.62273 12.8208C7.76804 13.7028 8.22384 14.504 8.90818 15.0805C9.59252 15.657 10.4605 15.9709 11.356 15.9658H21.2926C22.1132 15.9625 22.9104 15.6925 23.5636 15.1966C24.2167 14.7007 24.6902 14.006 24.9123 13.2175L26.9706 6.0492C27.0709 5.61101 27.0709 5.15588 26.9706 4.71768C26.8703 4.27949 26.6723 3.86951 26.3913 3.51826C26.1102 3.167 25.7535 2.88352 25.3475 2.68891C24.9415 2.4943 24.4968 2.39356 24.0464 2.3942L23.9754 2.32337Z" transform="translate(0.304688 10.9507)" fill="#00AEE9"/>
<path d="M2.37057 -2.16166e-07C1.90172 -2.16166e-07 1.44339 0.138754 1.05355 0.398715C0.663715 0.658676 0.359873 1.02817 0.18045 1.46047C0.00102709 1.89277 -0.0459182 2.36846 0.0455508 2.82738C0.13702 3.28631 0.362795 3.70786 0.694325 4.03873C1.02586 4.3696 1.44825 4.59492 1.9081 4.6862C2.36794 4.77749 2.84458 4.73064 3.27775 4.55158C3.71092 4.37251 4.08115 4.06928 4.34163 3.68022C4.60211 3.29116 4.74114 2.83375 4.74114 2.36583C4.74114 1.73837 4.49139 1.13662 4.04682 0.692936C3.60225 0.249257 2.99929 -2.16166e-07 2.37057 -2.16166e-07Z" transform="translate(9.60156 29.2681)" fill="#00AEE9"/>
<path d="M2.37057 4.73166C3.6798 4.73166 4.74114 3.67244 4.74114 2.36583C4.74114 1.05922 3.6798 0 2.37057 0C1.06134 0 0 1.05922 0 2.36583C0 3.67244 1.06134 4.73166 2.37057 4.73166Z" transform="translate(17.6211 29.2681)" fill="#00AEE9"/>
<path d="M9.93653 4.24999H7.09752V1.41666C7.09752 1.04094 6.94797 0.680607 6.68176 0.414931C6.41555 0.149255 6.05449 0 5.67802 0C5.30154 0 4.94048 0.149255 4.67427 0.414931C4.40806 0.680607 4.25851 1.04094 4.25851 1.41666V4.24999H1.4195C1.04303 4.24999 0.681971 4.39925 0.415762 4.66492C0.149553 4.9306 0 5.29093 0 5.66666C0 6.04238 0.149553 6.40271 0.415762 6.66839C0.681971 6.93406 1.04303 7.08332 1.4195 7.08332H4.25851V9.91665C4.25851 10.2924 4.40806 10.6527 4.67427 10.9184C4.94048 11.1841 5.30154 11.3333 5.67802 11.3333C6.05449 11.3333 6.41555 11.1841 6.68176 10.9184C6.94797 10.6527 7.09752 10.2924 7.09752 9.91665V7.08332H9.93653C10.313 7.08332 10.6741 6.93406 10.9403 6.66839C11.2065 6.40271 11.356 6.04238 11.356 5.66666C11.356 5.29093 11.2065 4.9306 10.9403 4.66492C10.6741 4.39925 10.313 4.24999 9.93653 4.24999Z" transform="translate(23.0195)" fill="#00AEE9"/>
</svg>
