<svg width="30" height="30" viewBox="0 0 30 30" fill="none" xmlns="http://www.w3.org/2000/svg"><path d="M27.804 2.727H5.454v.196l-.28-.959A2.74 2.74 0 0 0 2.558 0H.682a.681.681 0 1 0 0 1.364h1.875c.602 0 1.14.403 1.309.982l4.244 14.55-2.175 2.718a2.198 2.198 0 0 0 1.715 3.567h18.94a.681.681 0 1 0 0-1.363H7.65A.833.833 0 0 1 7 20.466l2.192-2.739h13.373a2.74 2.74 0 0 0 2.468-1.566l4.759-10.11c.136-.292.208-.614.208-.935v-.193a2.198 2.198 0 0 0-2.196-2.196zm.832 2.39a.833.833 0 0 1-.079.354L23.8 15.58a1.37 1.37 0 0 1-1.235.783H9.375L5.795 4.09h22.01c.458 0 .831.373.831.832v.193zM8.182 24.545a2.73 2.73 0 0 0-2.727 2.728A2.73 2.73 0 0 0 8.182 30a2.73 2.73 0 0 0 2.727-2.727 2.73 2.73 0 0 0-2.727-2.728zm0 4.091a1.365 1.365 0 0 1-1.364-1.363c0-.752.612-1.364 1.364-1.364a1.365 1.365 0 0 1 0 2.727zm16.364-4.091a2.73 2.73 0 0 0-2.728 2.728A2.73 2.73 0 0 0 24.545 30a2.73 2.73 0 0 0 2.728-2.727 2.73 2.73 0 0 0-2.727-2.728zm0 4.091a1.365 1.365 0 0 1-1.364-1.363c0-.752.612-1.364 1.364-1.364.751 0 1.363.612 1.363 1.364 0 .751-.612 1.363-1.363 1.363z" fill="#fff"/></svg>