<svg width="24" height="24" viewBox="0 0 24 24" fill="none" xmlns="http://www.w3.org/2000/svg">
<path d="M21.1002 2.18183H4.13938V2.33836L3.92716 1.57137C3.67147 0.646107 2.85444 0 1.94034 0H0.517441C0.231434 0 0 0.243971 0 0.545471C0 0.84697 0.231434 1.09094 0.517441 1.09094H1.94034C2.39763 1.09094 2.80593 1.41377 2.93375 1.87665L6.15452 13.5171L4.50421 15.6914C4.26875 16.002 4.13938 16.3914 4.13938 16.7887C4.13938 17.7576 4.8867 18.5454 5.80584 18.5454H20.1796C20.4656 18.5454 20.697 18.3015 20.697 18C20.697 17.6985 20.4656 17.4545 20.1796 17.4545H5.80584C5.4577 17.4545 5.17421 17.1557 5.17421 16.7887C5.17421 16.6379 5.22321 16.4898 5.31266 16.3727L6.97548 14.1818H17.1245C17.9224 14.1818 18.6576 13.6901 18.9977 12.9289L22.6085 4.84036C22.7121 4.60758 22.7667 4.34924 22.7667 4.093V3.93852C22.7667 2.96964 22.0193 2.18183 21.1002 2.18183ZM21.7318 4.09305C21.7318 4.19052 21.7111 4.28855 21.6717 4.37645L18.0613 12.4645C17.8911 12.8448 17.5237 13.0909 17.1245 13.0909H7.11461L4.39793 3.27272H21.1002C21.4484 3.27272 21.7318 3.57156 21.7318 3.93857V4.09305Z" transform="translate(0.537598)" fill="#00B8F6"/>
<path d="M2.06971 0C0.928259 0 8.88218e-09 0.978493 8.88218e-09 2.18183C8.88218e-09 3.38517 0.928211 4.36367 2.06971 4.36367C3.21122 4.36367 4.13943 3.38517 4.13943 2.18183C4.13943 0.978493 3.21117 0 2.06971 0ZM2.06971 3.27272C1.49925 3.27272 1.03488 2.78319 1.03488 2.18183C1.03488 1.58047 1.49925 1.09094 2.06971 1.09094C2.64017 1.09094 3.10455 1.58047 3.10455 2.18183C3.10455 2.78319 2.64017 3.27272 2.06971 3.27272Z" transform="translate(4.67703 19.6364)" fill="#00B8F6"/>
<path d="M2.06971 0C0.928259 0 3.78973e-07 0.978493 3.78973e-07 2.18183C3.78973e-07 3.38517 0.928211 4.36367 2.06971 4.36367C3.21122 4.36367 4.13943 3.38517 4.13943 2.18183C4.13943 0.978493 3.21117 0 2.06971 0ZM2.06971 3.27272C1.49925 3.27272 1.03488 2.78319 1.03488 2.18183C1.03488 1.58047 1.49925 1.09094 2.06971 1.09094C2.64017 1.09094 3.10455 1.58047 3.10455 2.18183C3.10455 2.78319 2.64017 3.27272 2.06971 3.27272Z" transform="translate(17.0953 19.6364)" fill="#00B8F6"/>
</svg>
