<svg width="24" height="24" viewBox="0 0 24 24" fill="none" xmlns="http://www.w3.org/2000/svg"><path d="M21.638 2.182H4.677v.156l-.212-.767C4.209.646 3.392 0 2.478 0H1.055a.532.532 0 0 0-.517.545c0 .302.231.546.517.546h1.423c.457 0 .866.323.993.786l3.221 11.64-1.65 2.174c-.236.311-.365.7-.365 1.098 0 .969.747 1.756 1.666 1.756h14.374a.532.532 0 0 0 .518-.545.532.532 0 0 0-.518-.546H6.343c-.348 0-.631-.298-.631-.665 0-.151.049-.3.138-.416l1.663-2.191h10.15c.797 0 1.532-.492 1.872-1.253l3.611-8.089c.104-.232.158-.49.158-.747v-.154c0-.97-.747-1.757-1.666-1.757zm.631 1.911c0 .098-.02.196-.06.283l-3.61 8.088c-.17.38-.538.627-.937.627H7.652L4.936 3.273h16.702c.348 0 .631.299.631.666v.154zM6.747 19.636c-1.142 0-2.07.979-2.07 2.182 0 1.204.928 2.182 2.07 2.182 1.141 0 2.07-.978 2.07-2.182 0-1.203-.929-2.182-2.07-2.182zm0 3.273c-.57 0-1.035-.49-1.035-1.09 0-.602.464-1.092 1.035-1.092.57 0 1.035.49 1.035 1.091 0 .602-.465 1.091-1.035 1.091zm12.418-3.273c-1.141 0-2.07.979-2.07 2.182 0 1.204.929 2.182 2.07 2.182 1.142 0 2.07-.978 2.07-2.182 0-1.203-.929-2.182-2.07-2.182zm0 3.273c-.57 0-1.035-.49-1.035-1.09 0-.602.465-1.092 1.035-1.092.57 0 1.035.49 1.035 1.091 0 .602-.465 1.091-1.035 1.091z" fill="#00B8F6"/></svg>