<svg width="230" height="247" viewBox="0 0 230 247" fill="none" xmlns="http://www.w3.org/2000/svg">
<path d="M17.0374 6.62504e-07H119.26C128.63 6.62504e-07 136.297 7.66567 136.297 17.0343V76.6548C136.297 86.0238 128.63 93.689 119.26 93.689H63.8891V109.841C63.8891 111.739 61.5948 112.688 60.254 111.347L42.5927 93.6895H17.0369C7.66636 93.6895 -2.35593e-07 86.0238 -2.35593e-07 76.6552V17.0348C0.000482259 7.66567 7.66685 6.62504e-07 17.0374 6.62504e-07Z" transform="translate(93.7034 17.0343)" fill="#C7CFE2"/>
<path d="M114.855 34.069H51.1112V25.5519H85.0407C87.3089 25.5519 89.2886 23.8403 89.4357 21.5777C89.5964 19.0976 87.6341 17.0348 85.1854 17.0348H51.1112V6.62504e-07H42.5927C42.5927 6.62504e-07 42.5927 56.0525 42.5927 59.6205C42.5927 68.9896 34.9259 76.6547 25.5558 76.6547H3.18051e-06C3.18051e-06 79.7673 0.907092 82.6541 2.38111 85.1719H25.5558C39.6471 85.1719 51.1117 73.7091 51.1117 59.62H68.0168C70.1514 59.62 72.0587 58.1062 72.3626 55.9931C72.7404 53.3606 70.7111 51.1028 68.1485 51.1028H51.1117V42.5857H115.001C117.449 42.5857 119.412 40.5234 119.251 38.0427C119.103 35.7807 117.123 34.069 114.855 34.069Z" transform="translate(93.7039 17.0343)" fill="#AFB9D2"/>
<path d="M17.0374 8.51762H4.25946C1.90537 8.51762 -1.88475e-06 6.61061 -1.88475e-06 4.25881C-1.88475e-06 1.90701 1.90489 1.32501e-06 4.25946 1.32501e-06H17.0374C19.3915 1.32501e-06 21.2968 1.90701 21.2968 4.25881C21.2968 6.61061 19.392 8.51762 17.0374 8.51762Z" transform="translate(191.666 34.0686)" fill="#959CB3"/>
<path d="M34.0743 8.51763H4.25947C1.90537 8.51763 -7.0678e-07 6.61061 -7.0678e-07 4.25881C-7.0678e-07 1.90701 1.90489 -1.29556e-06 4.25947 -1.29556e-06H34.0743C36.4284 -1.29556e-06 38.3337 1.90701 38.3337 4.25881C38.3337 6.61061 36.4288 8.51763 34.0743 8.51763Z" transform="translate(174.629 68.1376)" fill="#959CB3"/>
<path d="M63.8891 8.51762H4.25947C1.90537 8.51762 -3.5339e-07 6.61061 -3.5339e-07 4.25881C-3.5339e-07 1.90701 1.90489 -2.47335e-06 4.25947 -2.47335e-06H63.8891C66.2432 -2.47335e-06 68.1485 1.90701 68.1485 4.25881C68.1485 6.61061 66.2437 8.51762 63.8891 8.51762Z" transform="translate(144.815 85.1719)" fill="#AFB9D2"/>
<path d="M119.259 0H17.0369C7.66636 0 6.62606e-08 7.66567 6.62606e-08 17.0343V76.6548C6.62606e-08 86.0238 7.66684 93.689 17.0369 93.689H72.4075V109.841C72.4075 111.739 74.7018 112.688 76.0426 111.347L93.7039 93.6895H119.26C128.63 93.6895 136.297 86.0238 136.297 76.6552V17.0343C136.296 7.66567 128.63 0 119.259 0Z" fill="#E4EAF6"/>
<path d="M17.0369 8.51762H4.25946C1.90537 8.51762 -1.91419e-07 6.61061 -1.91419e-07 4.25881C-1.91419e-07 1.90701 1.90489 6.62504e-07 4.25946 6.62504e-07H17.0374C19.3915 6.62504e-07 21.2968 1.90701 21.2968 4.25881C21.2968 6.61061 19.3915 8.51762 17.0369 8.51762Z" transform="translate(17.0369 17.0343)" fill="#AFB9D2"/>
<path d="M68.1485 8.51762H4.25946C1.90537 8.51762 1.29576e-06 6.61061 1.29576e-06 4.25881C1.29576e-06 1.90701 1.90489 6.62504e-07 4.25946 6.62504e-07H68.1485C70.5026 6.62504e-07 72.408 1.90701 72.408 4.25881C72.408 6.61061 70.5026 8.51762 68.1485 8.51762Z" transform="translate(46.8518 17.0343)" fill="#C7CFE2"/>
<path d="M97.9633 8.51762H4.25946C1.90537 8.51762 -1.91419e-07 6.61061 -1.91419e-07 4.25881C-1.91419e-07 1.90701 1.90489 1.32501e-06 4.25946 1.32501e-06H97.9633C100.317 1.32501e-06 102.223 1.90701 102.223 4.25881C102.222 6.61061 100.317 8.51762 97.9633 8.51762Z" transform="translate(17.037 34.0685)" fill="#C7CFE2"/>
<path d="M17.0374 8.51762H4.25947C1.90537 8.51762 1.17797e-06 6.61062 1.17797e-06 4.25881C1.17797e-06 1.90701 1.90489 1.47223e-07 4.25947 1.47223e-07H17.0374C19.3915 1.47223e-07 21.2968 1.90701 21.2968 4.25881C21.2964 6.6111 19.3915 8.51762 17.0374 8.51762Z" transform="translate(97.9628 51.1028)" fill="#AFB9D2"/>
<path d="M68.1481 8.51762H4.25946C1.90537 8.51762 -1.91419e-07 6.61062 -1.91419e-07 4.25881C-1.91419e-07 1.90701 1.90489 1.47223e-07 4.25946 1.47223e-07H68.1485C70.5026 1.47223e-07 72.408 1.90701 72.408 4.25881C72.4075 6.6111 70.5026 8.51762 68.1481 8.51762Z" transform="translate(17.0369 51.1028)" fill="#C7CFE2"/>
<path d="M97.9633 8.51763H4.25946C1.90537 8.51763 -1.91419e-07 6.61061 -1.91419e-07 4.25881C-1.91419e-07 1.90701 1.90489 -1.29556e-06 4.25946 -1.29556e-06H97.9633C100.317 -1.29556e-06 102.223 1.90701 102.223 4.25881C102.222 6.61061 100.317 8.51763 97.9633 8.51763Z" transform="translate(17.037 68.1376)" fill="#C7CFE2"/>
<path d="M35.3847 13.7586V-6.24226e-06H1.06017e-06V13.7586L17.6921 29.4822L35.3847 13.7586Z" transform="translate(37.678 199.827)" fill="#E6AF78"/>
<path d="M96.1598 6.69021L71.8348 0.967738C71.4676 0.881385 71.1294 0.734734 70.8138 0.55672L51.1116 12.047L32.1771 -4.12225e-06C31.6869 0.461673 31.0789 0.80419 30.3875 0.966766L6.06255 6.68924C2.51042 7.52576 -9.57097e-08 10.6948 -9.57097e-08 14.3429V29.7369C-9.57097e-08 31.9078 1.76014 33.6682 3.93185 33.6682H98.291C100.462 33.6682 102.223 31.9083 102.223 29.7369V14.3429C102.222 10.6953 99.7124 7.52577 96.1598 6.69021Z" transform="translate(4.259 213.331)" fill="#EFF2FA"/>
<path d="M1.06017e-06 -6.24226e-06V14.5165C22.2879 22.545 35.3847 2.45119 35.3847 2.45119V-6.24226e-06H1.06017e-06Z" transform="translate(37.678 199.827)" fill="#D29B6E"/>
<path d="M-1.20742e-06 0.000483716L1.71334 37.6819C1.87353 41.2021 3.59989 44.4662 6.41911 46.5806L14.5472 52.6755C16.5891 54.2067 19.0721 55.0341 21.624 55.0341H29.4872C32.0391 55.0341 34.5225 54.2063 36.5639 52.6755L44.6921 46.5806C47.5118 44.4662 49.2376 41.2021 49.3978 37.6819L51.1107 -2.12001e-06H-1.20742e-06V0.000483716Z" transform="translate(29.8148 154.62)" fill="#F0C087"/>
<path d="M19.6578 7.86202C27.521 7.86202 39.3161 5.89664 42.1136 4.71114e-06H-1.20742e-06L1.71286 37.6819C1.87305 41.2021 3.59941 44.4662 6.41863 46.5806L14.5467 52.676C16.5887 54.2072 19.0716 55.0346 21.6235 55.0346H25.5553C21.6235 55.0346 13.7603 47.1726 13.7603 37.3447C13.7603 32.5383 13.7603 19.6548 13.7603 13.7582C13.7608 11.7923 15.726 7.86202 19.6578 7.86202Z" transform="translate(29.8148 154.621)" fill="#E6AF78"/>
<path d="M3.2607 11.4411L15.999 5.06448e-06C17.0663 1.35175 17.6926 3.05179 17.6926 4.87244V20.2665C17.6926 22.4374 15.9325 24.1977 13.7608 24.1977H9.42373e-07V18.7527C9.42373e-07 15.9628 1.18549 13.3047 3.2607 11.4411Z" transform="translate(88.7892 222.802)" fill="#E4EAF6"/>
<path d="M14.4319 11.4411L1.69356 5.06448e-06C0.626279 1.35175 1.69333e-07 3.05179 1.69333e-07 4.87244V20.2665C1.69333e-07 22.4374 1.76014 24.1977 3.93185 24.1977H17.6926V18.7527C17.6931 15.9628 16.5076 13.3047 14.4319 11.4411Z" transform="translate(4.25851 222.802)" fill="#E4EAF6"/>
<path d="M9.82939 17.6899H-1.53136e-06L1.22892 -3.06224e-06H8.60095L9.82939 17.6899Z" transform="translate(50.4555 229.31)" fill="#5B5D6E"/>
<path d="M9.82939 3.2978e-06H-1.53136e-06V1.13562C-1.53136e-06 3.7653 2.13166 5.89663 4.76174 5.89663H5.06668C7.69676 5.89663 9.82842 3.7653 9.82842 1.13562V3.2978e-06H9.82939Z" transform="translate(50.4555 225.378)" fill="#515262"/>
<path d="M5.62155 0.504833L23.5897 16.6737C23.5897 16.6737 18.5572 19.2136 12.3475 24.3326C11.0665 25.3886 9.1288 24.9607 8.44173 23.4493L1.26631e-06 4.87991L2.67061 0.874864C3.33549 -0.121818 4.73038 -0.296951 5.62155 0.504833Z" transform="translate(31.7805 208.705)" fill="#E4EAF6"/>
<path d="M17.9681 0.504833L-3.23941e-06 16.6737C-3.23941e-06 16.6737 5.03242 19.2136 11.2421 24.3326C12.5232 25.3886 14.4609 24.9607 15.1479 23.4493L23.5897 4.87991L20.919 0.874864C20.2542 -0.121818 18.8593 -0.296951 17.9681 0.504833Z" transform="translate(55.3705 208.705)" fill="#E4EAF6"/>
<path d="M2.65042e-06 1.22104L1.84313 14.243C10.2559 15.9252 11.4679 29.1252 11.6426 32.8958C11.6744 33.5799 11.893 34.2408 12.2641 34.8164L15.4741 39.7945C15.4741 39.7945 14.375 31.5634 19.4059 26.0358C19.4055 26.0353 21.1323 -6.64097 2.65042e-06 1.22104Z" transform="translate(67.2882 140.378)" fill="#785550"/>
<path d="M8.02597 5.05576L5.80602 13.9342C5.54306 14.9859 4.59737 15.724 3.51272 15.724C2.32048 15.724 1.31544 14.8369 1.16731 13.6544L0.0320028 4.57334C-0.271486 2.14484 1.62231 3.41558e-06 4.07 3.41558e-06H4.07821C6.72517 0.000485836 8.66817 2.48784 8.02597 5.05576Z" transform="translate(76.7083 174.275)" fill="#F0C087"/>
<path d="M7.96307 5.08397L10.8711 7.06963C-2.27499 16.7745 0.181876 33.4199 0.181876 33.4199C4.11373 37.3512 4.11373 47.1786 4.11373 47.1786L8.04558 43.2473C8.04558 43.2473 6.52813 31.8916 13.9431 27.5233C20.8235 23.4695 26.8441 25.5579 32.9867 25.5579C49.4504 25.5579 54.0577 19.354 53.2592 11.7993C52.8462 7.88974 46.8681 -0.252568 31.6352 0.00600939C25.4873 0.110212 13.9426 1.97139 7.96307 5.08397Z" transform="translate(23.7354 132.994)" fill="#694B4B"/>
<path d="M6.81666 16.7685C6.81666 16.7685 4.72794 8.53741 10.8711 3.76891e-06C-2.27499 9.70487 0.181876 26.3503 0.181876 26.3503C4.11373 30.2816 4.11373 40.109 4.11373 40.109L8.04558 36.1777C8.04558 36.1777 6.52813 24.822 13.9431 20.4537C20.8235 16.3999 26.8441 18.4883 32.9867 18.4883C35.6641 18.4883 37.9979 18.3088 40.0755 18.0015C27.396 18.4275 19.9217 8.82493 6.81666 16.7685Z" transform="translate(23.7354 140.063)" fill="#5A4146"/>
<path d="M0.123522 5.05576L2.34348 13.9342C2.60644 14.9859 3.55213 15.724 4.63678 15.724C5.82903 15.724 6.83406 14.8369 6.98219 13.6544L8.1175 4.57334C8.42099 2.14484 6.52719 3.41558e-06 4.0795 3.41558e-06H4.07129C1.42433 0.000485836 -0.518678 2.48784 0.123522 5.05576Z" transform="translate(25.883 174.275)" fill="#E6AF78"/>
<path d="M13.7612 6.36004e-06H3.93185C1.76063 6.36004e-06 1.76695e-06 1.75987 1.76695e-06 3.93125H17.6926C17.6926 1.75987 15.9325 6.36004e-06 13.7612 6.36004e-06Z" transform="translate(65.1991 243.068)" fill="#E4EAF6"/>
<path d="M35.3077 1.41334e-06C-4.34902 1.41334e-06 0.0479595 48.218 0.228895 83.1607C0.23565 84.4801 0.927069 85.6702 2.05755 86.3514C6.45212 89.0004 18.5208 95.1927 35.3077 95.1927C52.0947 95.1927 64.1633 89.0004 68.5579 86.3514C69.6884 85.6702 70.3798 84.4801 70.3866 83.1607C70.5675 48.2189 74.9645 1.41334e-06 35.3077 1.41334e-06Z" transform="translate(130.804 134.271)" fill="#694B4B"/>
<path d="M32.7499 1.76668e-06C-4.13252 2.06766 0.0492709 48.8962 0.226347 83.0608C0.233101 84.3802 0.924521 85.5704 2.05501 86.2515C6.44957 88.9005 18.5182 95.0929 35.3052 95.0929L45.3271 24.9508" transform="translate(130.806 134.371)" fill="#5A4146"/>
<path d="M24.1151 1.41334e-06C1.56618 1.41334e-06 -2.00254e-06 27.2423 -2.00254e-06 27.2423C12.997 25.0502 20.9832 30.53 34.137 25.0502L24.1151 95.1927C40.9025 95.1927 52.9707 89.0004 57.3653 86.3514C58.4958 85.6702 59.1872 84.4801 59.1939 83.1607C59.3749 48.2189 63.7718 1.41334e-06 24.1151 1.41334e-06Z" transform="translate(141.996 134.271)" fill="#694B4B"/>
<path d="M21.3523 80.4389C21.5076 50.4135 24.7495 10.6142 0.50413 5.88893e-07C0.0814648 2.19646 -0.684728 8.32804 1.30605 12.3085C6.31724 22.3289 11.3279 22.3289 16.3387 29.844C21.3498 57.3999 6.76451 86.6471 1.91978 90.6286C10.5029 88.5874 16.6552 85.3581 19.5231 83.6296C20.6541 82.9484 21.3455 81.7588 21.3523 80.4389Z" transform="translate(179.837 136.993)" fill="#785550"/>
<path d="M80.5602 19.992L58.2038 10.6784C56.3366 9.90072 55.1202 8.07621 55.1202 6.05342V4.9467e-06H30.0657V6.05342C30.0657 8.07621 28.8493 9.90072 26.9821 10.6784L4.62568 19.992C1.8248 21.159 -5.88983e-07 23.8948 -5.88983e-07 26.9292V36.9496C-5.88983e-07 39.7167 2.24359 41.96 5.01118 41.96H80.1743C82.9418 41.96 85.1854 39.7167 85.1854 36.9496V26.9292C85.1854 23.8948 83.3611 21.159 80.5602 19.992Z" transform="translate(123.518 205.04)" fill="#E6AF78"/>
<path d="M80.5598 9.00535L58.944 -1.41334e-06L42.5927 7.05589L26.2414 -1.41334e-06L4.62568 9.00535C1.8248 10.1723 2.82712e-06 12.9081 2.82712e-06 15.9426V25.9629C2.82712e-06 28.7301 2.2436 30.9733 5.01119 30.9733H80.1742C82.9418 30.9733 85.1854 28.7301 85.1854 25.9629V15.9426C85.185 12.9081 83.3606 10.1723 80.5598 9.00535Z" transform="translate(123.519 216.027)" fill="#B4E1FA"/>
<path d="M31.6295 1.53112e-06H6.57495V6.05342C6.57495 8.07621 5.35859 9.90073 3.49133 10.6784L1.64915e-06 12.1334C26.7201 18.9456 31.6295 1.53112e-06 31.6295 1.53112e-06Z" transform="translate(147.009 205.039)" fill="#D29B6E"/>
<path d="M12.2119 7.99806L2.1553 -3.88669e-06C0.807689 1.37779 2.82712e-06 3.2409 2.82712e-06 5.24439V15.2648C2.82712e-06 18.0319 2.2436 20.2752 5.01119 20.2752H15.0331V13.8672C15.0326 11.5834 13.9948 9.42409 12.2119 7.99806Z" transform="translate(123.519 226.725)" fill="#A0D2F0"/>
<path d="M15.0321 15.2334V5.21303C15.0321 3.22498 14.2379 1.37441 12.9096 -6.12448e-06L2.82067 7.9667C1.03785 9.39273 9.42373e-07 11.552 9.42373e-07 13.8349V20.2438H10.0219C12.789 20.2438 15.0321 18.0006 15.0321 15.2334Z" transform="translate(193.672 226.756)" fill="#A0D2F0"/>
<path d="M2.88146 18.9008H2.12974C0.953417 18.9008 6.59661e-06 17.9475 6.59661e-06 16.7714V-1.17779e-06H5.01119V16.7714C5.01071 17.9475 4.0573 18.9008 2.88146 18.9008Z" transform="translate(163.606 223.088)" fill="#A0D2F0"/>
<path d="M20.0438 11.1543L5.70406 0.401144C4.78346 -0.2892 3.47203 -0.0648722 2.83369 0.892251L7.0678e-06 5.14189L8.79154 17.4485C9.45979 18.3839 10.777 18.5667 11.6744 17.8489L20.0438 11.1543Z" transform="translate(146.068 211.928)" fill="#A0D2F0"/>
<path d="M3.29831e-06 11.1543L14.3398 0.401144C15.2604 -0.2892 16.5718 -0.0648722 17.2101 0.892251L20.0438 5.14189L11.2523 17.4485C10.584 18.3839 9.2668 18.5667 8.36936 17.8489L3.29831e-06 11.1543Z" transform="translate(166.111 211.928)" fill="#A0D2F0"/>
<path d="M37.1121 -5.65337e-06C24.585 12.5251 -1.53136e-06 2.50521 -1.53136e-06 22.5455L1.55556 37.3075C1.85567 40.6097 3.77021 43.5496 6.66904 45.1599L20.9345 53.0837C23.2046 54.3447 25.9645 54.3447 28.2346 53.0837L42.5001 45.1599C45.3989 43.5496 47.3135 40.6097 47.6136 37.3075L49.4094 19.7754C49.5373 18.5293 49.5643 17.2755 49.5223 16.0251C48.5853 9.64842 39.6172 5.00994 37.1121 -5.65337e-06Z" transform="translate(141.526 156.817)" fill="#F0C087"/>
<path d="M-1.53136e-06 22.5459L1.55556 37.308C1.85567 40.6102 3.77021 43.5501 6.66904 45.1604L20.9345 53.0842C22.5098 53.9593 24.3163 54.1855 26.0359 53.8464C26.0359 53.8464 18.8438 51.6668 14.5631 40.0815C13.2517 36.5323 11.4317 17.7444 12.9974 15.4481C16.0926 10.9095 33.3539 10.4377 38.4544 2.01796C38.2025 1.70536 37.9699 1.39227 37.7576 1.0787C37.7407 1.05361 37.72 1.02805 37.7026 1.00248C37.4812 0.669125 37.2804 0.335288 37.1121 5.65337e-06C24.585 12.5261 -1.53136e-06 2.50521 -1.53136e-06 22.5459Z" transform="translate(141.526 156.817)" fill="#E6AF78"/>
<path d="M10.7736 6.5956e-06H4.25947C1.90731 6.5956e-06 1.29576e-06 1.907 1.29576e-06 4.2588V5.01042H15.0326V4.2588C15.0331 1.907 13.1258 6.5956e-06 10.7736 6.5956e-06Z" transform="translate(173.627 241.989)" fill="#A0D2F0"/>
</svg>
