<svg width="230" height="247" viewBox="0 0 230 247" fill="none" xmlns="http://www.w3.org/2000/svg"><path d="M110.74 17.034h102.223c9.37 0 17.037 7.666 17.037 17.035v59.62c0 9.37-7.667 17.034-17.037 17.034h-55.37v16.152c0 1.898-2.295 2.847-3.636 1.506l-17.66-17.657H110.74c-9.37 0-17.037-7.666-17.037-17.034V34.07c0-9.37 7.667-17.036 17.038-17.036z" fill="#C7CFE2"/><path d="M208.559 51.103h-63.744v-8.517h33.93c2.268 0 4.247-1.711 4.395-3.974a4.259 4.259 0 0 0-4.25-4.543h-34.075V17.034h-8.518v59.62c0 9.37-7.667 17.035-17.037 17.035H93.704c0 3.113.907 6 2.381 8.517h23.175c14.091 0 25.556-11.463 25.556-25.552h16.905c2.134 0 4.042-1.513 4.345-3.627a4.26 4.26 0 0 0-4.214-4.89h-17.036V59.62h63.889a4.258 4.258 0 0 0 4.25-4.543c-.148-2.262-2.128-3.974-4.396-3.974z" fill="#AFB9D2"/><path d="M208.703 42.586h-12.778a4.258 4.258 0 1 1 0-8.517h12.778a4.258 4.258 0 1 1 0 8.517zM208.703 76.655h-29.815a4.258 4.258 0 1 1 0-8.517h29.815a4.258 4.258 0 1 1 0 8.517z" fill="#959CB3"/><path d="M208.704 93.69h-59.63a4.258 4.258 0 1 1 0-8.518h59.63a4.258 4.258 0 1 1 0 8.518z" fill="#AFB9D2"/><path d="M119.259 0H17.037C7.667 0 0 7.666 0 17.034v59.62c0 9.37 7.667 17.035 17.037 17.035h55.37v16.152c0 1.898 2.295 2.847 3.636 1.506l17.66-17.657h25.557c9.37 0 17.037-7.666 17.037-17.035v-59.62C136.296 7.664 128.63 0 119.259 0z" fill="#E4EAF6"/><path d="M34.074 25.552H21.296a4.258 4.258 0 1 1 0-8.518h12.778a4.258 4.258 0 1 1 0 8.518z" fill="#AFB9D2"/><path d="M115 25.552H51.111a4.258 4.258 0 1 1 0-8.518h63.89a4.258 4.258 0 1 1 0 8.518zM115 42.586H21.296a4.258 4.258 0 1 1 0-8.517H115a4.259 4.259 0 1 1 0 8.517z" fill="#C7CFE2"/><path d="M115 59.62h-12.778a4.258 4.258 0 1 1 0-8.517H115a4.258 4.258 0 1 1 0 8.517z" fill="#AFB9D2"/><path d="M85.185 59.62H21.296a4.258 4.258 0 1 1 0-8.517h63.89a4.258 4.258 0 1 1-.001 8.517zM115 76.655H21.296a4.258 4.258 0 1 1 0-8.517H115a4.259 4.259 0 1 1 0 8.517z" fill="#C7CFE2"/><path d="M73.063 213.586v-13.759H37.678v13.759l17.692 15.723 17.693-15.723z" fill="#E6AF78"/><path d="M100.419 220.021L76.094 214.3a3.89 3.89 0 0 1-1.021-.411l-19.702 11.49-18.935-12.047a3.91 3.91 0 0 1-1.79.967l-24.324 5.722a7.864 7.864 0 0 0-6.063 7.654v15.394c0 2.17 1.76 3.931 3.932 3.931h94.359a3.932 3.932 0 0 0 3.932-3.931v-15.394a7.864 7.864 0 0 0-6.063-7.653z" fill="#EFF2FA"/><path d="M37.678 199.827v14.516c22.288 8.029 35.385-12.065 35.385-12.065v-2.451H37.678z" fill="#D29B6E"/><path d="M29.815 154.62l1.713 37.682a11.794 11.794 0 0 0 4.706 8.899l8.128 6.094a11.795 11.795 0 0 0 7.077 2.36h7.863c2.552 0 5.035-.829 7.077-2.36l8.128-6.094a11.792 11.792 0 0 0 4.706-8.9l1.713-37.681H29.815z" fill="#F0C087"/><path d="M49.473 162.483c7.863 0 19.658-1.965 22.455-7.862H29.815l1.713 37.682a11.794 11.794 0 0 0 4.705 8.899l8.129 6.095a11.796 11.796 0 0 0 7.076 2.359h3.932c-3.932 0-11.795-7.862-11.795-17.69v-23.587c0-1.966 1.966-5.896 5.898-5.896z" fill="#E6AF78"/><path d="M92.05 234.243l12.738-11.441a7.85 7.85 0 0 1 1.694 4.872v15.394c0 2.171-1.76 3.932-3.932 3.932H88.79v-5.445a9.827 9.827 0 0 1 3.26-7.312zM18.69 234.243L5.952 222.802a7.85 7.85 0 0 0-1.693 4.872v15.394c0 2.171 1.76 3.932 3.931 3.932h13.761v-5.445a9.823 9.823 0 0 0-3.26-7.312z" fill="#E4EAF6"/><path d="M60.285 247h-9.83l1.23-17.69h7.371L60.285 247z" fill="#5B5D6E"/><path d="M60.285 225.378h-9.83v1.136a4.761 4.761 0 0 0 4.762 4.76h.305a4.761 4.761 0 0 0 4.762-4.76v-1.136z" fill="#515262"/><path d="M37.402 209.21l17.968 16.169s-5.032 2.54-11.242 7.659c-1.281 1.056-3.219.628-3.906-.884l-8.441-18.57 2.67-4.004a1.966 1.966 0 0 1 2.951-.37zM73.339 209.21L55.37 225.379s5.033 2.54 11.243 7.659c1.28 1.056 3.218.628 3.905-.884l8.442-18.57-2.67-4.004a1.966 1.966 0 0 0-2.951-.37z" fill="#E4EAF6"/><path d="M67.288 141.599l1.843 13.022c8.413 1.682 9.625 14.882 9.8 18.653a3.88 3.88 0 0 0 .621 1.92l3.21 4.979s-1.099-8.232 3.932-13.76c0 0 1.727-32.676-19.406-24.814z" fill="#785550"/><path d="M84.734 179.33l-2.22 8.88a2.364 2.364 0 0 1-4.638-.28l-1.136-9.082a4.069 4.069 0 0 1 4.038-4.573h.009c2.646 0 4.59 2.488 3.947 5.056z" fill="#F0C087"/><path d="M31.698 138.078l2.909 1.986c-13.147 9.704-10.69 26.35-10.69 26.35 3.932 3.931 3.932 13.759 3.932 13.759l3.932-3.932s-1.517-11.355 5.897-15.724c6.88-4.054 12.901-1.965 19.044-1.965 16.464 0 21.071-6.204 20.273-13.759-.413-3.91-6.392-12.052-21.624-11.793-6.148.104-17.693 1.965-23.673 5.078z" fill="#694B4B"/><path d="M30.552 156.831s-2.089-8.23 4.054-16.768c-13.146 9.705-10.689 26.35-10.689 26.35 3.932 3.932 3.932 13.759 3.932 13.759l3.932-3.931s-1.517-11.356 5.897-15.724c6.88-4.054 12.901-1.966 19.044-1.966 2.677 0 5.011-.18 7.089-.487-12.68.426-20.154-9.176-33.259-1.233z" fill="#5A4146"/><path d="M26.007 179.33l2.22 8.88a2.364 2.364 0 0 0 4.638-.28L34 178.847a4.069 4.069 0 0 0-4.038-4.573h-.008c-2.647 0-4.59 2.488-3.947 5.056z" fill="#E6AF78"/><path d="M78.96 243.068h-9.829a3.932 3.932 0 0 0-3.932 3.931h17.693a3.931 3.931 0 0 0-3.932-3.931z" fill="#E4EAF6"/><path d="M166.112 134.271c-39.657 0-35.26 48.218-35.08 83.16a3.73 3.73 0 0 0 1.83 3.191c4.394 2.65 16.463 8.842 33.25 8.842s28.855-6.193 33.25-8.842a3.73 3.73 0 0 0 1.829-3.19c.18-34.942 4.577-83.161-35.08-83.161z" fill="#694B4B"/><path d="M163.556 134.371c-36.883 2.068-32.7 48.896-32.524 83.06a3.73 3.73 0 0 0 1.829 3.191c4.395 2.65 16.463 8.842 33.25 8.842l10.022-70.142" fill="#5A4146"/><path d="M166.111 134.271c-22.549 0-24.115 27.242-24.115 27.242 12.997-2.192 20.983 3.288 34.137-2.192l-10.022 70.143c16.788 0 28.856-6.193 33.25-8.842a3.73 3.73 0 0 0 1.829-3.19c.18-34.942 4.578-83.161-35.079-83.161z" fill="#694B4B"/><path d="M201.19 217.432c.155-30.026 3.397-69.825-20.849-80.439-.423 2.196-1.189 8.328.802 12.308 5.011 10.02 10.022 10.02 15.033 17.536 5.01 27.556-9.574 56.803-14.42 60.785 8.584-2.042 14.736-5.27 17.604-7a3.73 3.73 0 0 0 1.83-3.19z" fill="#785550"/><path d="M204.078 225.032l-22.356-9.314a5.01 5.01 0 0 1-3.084-4.625v-6.053h-25.054v6.053a5.01 5.01 0 0 1-3.084 4.625l-22.356 9.314a7.515 7.515 0 0 0-4.626 6.937v10.02a5.01 5.01 0 0 0 5.011 5.011h75.163a5.01 5.01 0 0 0 5.011-5.01v-10.02a7.515 7.515 0 0 0-4.625-6.938z" fill="#E6AF78"/><path d="M204.079 225.032l-21.616-9.005-16.351 7.056-16.352-7.056-21.615 9.005a7.515 7.515 0 0 0-4.626 6.938v10.02a5.01 5.01 0 0 0 5.011 5.01h75.163a5.01 5.01 0 0 0 5.011-5.01v-10.02a7.516 7.516 0 0 0-4.625-6.938z" fill="#B4E1FA"/><path d="M178.638 205.039h-25.054v6.053a5.01 5.01 0 0 1-3.084 4.625l-3.491 1.455c26.72 6.813 31.63-12.133 31.63-12.133z" fill="#D29B6E"/><path d="M135.73 234.723l-10.056-7.998a7.498 7.498 0 0 0-2.155 5.244v10.02A5.01 5.01 0 0 0 128.53 247h10.022v-6.408a7.517 7.517 0 0 0-2.821-5.869zM208.704 241.99v-10.021a7.498 7.498 0 0 0-2.122-5.213l-10.09 7.967a7.515 7.515 0 0 0-2.82 5.868V247h10.022a5.01 5.01 0 0 0 5.01-5.01zM166.487 241.989h-.751a2.13 2.13 0 0 1-2.13-2.13v-16.771h5.011v16.771a2.13 2.13 0 0 1-2.13 2.13z" fill="#A0D2F0"/><path d="M166.112 223.082l-14.34-10.753a2.005 2.005 0 0 0-2.87.491l-2.834 4.25 8.792 12.307a2.005 2.005 0 0 0 2.882.4l8.37-6.695z" fill="#A0D2F0"/><path d="M166.111 223.082l14.34-10.753a2.004 2.004 0 0 1 2.87.491l2.834 4.25-8.792 12.307a2.005 2.005 0 0 1-2.883.4l-8.369-6.695z" fill="#A0D2F0"/><path d="M178.638 156.817c-12.527 12.525-37.112 2.505-37.112 22.545l1.556 14.763a10.02 10.02 0 0 0 5.113 7.852l14.266 7.924a7.516 7.516 0 0 0 7.3 0l14.265-7.924a10.02 10.02 0 0 0 5.114-7.853l1.795-17.532c.128-1.246.155-2.5.113-3.75-.937-6.377-9.905-11.015-12.41-16.025z" fill="#F0C087"/><path d="M141.526 179.363l1.556 14.762a10.02 10.02 0 0 0 5.113 7.852l14.266 7.924c1.575.875 3.381 1.101 5.1.762 0 0-7.191-2.18-11.472-13.765-1.311-3.549-3.131-22.337-1.566-24.633 3.096-4.538 20.357-5.01 25.457-13.43a14.082 14.082 0 0 1-.696-.94c-.017-.024-.038-.05-.055-.076a9.662 9.662 0 0 1-.59-1.002c-12.528 12.526-37.113 2.505-37.113 22.546z" fill="#E6AF78"/><path d="M184.4 241.989h-6.514a4.26 4.26 0 0 0-4.259 4.259v.751h15.033v-.751a4.259 4.259 0 0 0-4.26-4.259z" fill="#A0D2F0"/></svg>