<svg width="81" height="62" viewBox="0 0 81 62" fill="none" xmlns="http://www.w3.org/2000/svg">
<path d="M0.934615 34.1C0.311538 33.48 0 32.55 0 31.93C0 31.31 0.311538 30.38 0.934615 29.76L5.29615 25.42C6.54231 24.18 8.41154 24.18 9.65769 25.42L9.96923 25.73L27.1038 44.02C27.7269 44.64 28.6615 44.64 29.2846 44.02L71.0308 0.93H71.3423C72.5885 -0.31 74.4577 -0.31 75.7038 0.93L80.0654 5.27C81.3115 6.51 81.3115 8.37 80.0654 9.61L30.2192 61.07C29.5962 61.69 28.9731 62 28.0385 62C27.1038 62 26.4808 61.69 25.8577 61.07L1.55769 35.03L0.934615 34.1Z" fill="#5A9C5D"/>
</svg>
