<svg width="11" height="11" viewBox="0 0 11 11" fill="none" xmlns="http://www.w3.org/2000/svg">
<rect width="11" height="11" fill="white"/>
<path d="M5.49991 0C2.46243 0 0 2.4625 0 5.49991C0 8.53732 2.46243 11 5.49991 11C8.53739 11 11 8.53732 11 5.49991C11 2.4625 8.53739 0 5.49991 0ZM7.87767 6.54599H5.54593C5.53804 6.54599 5.53071 6.54408 5.5229 6.54379C5.51509 6.54416 5.50779 6.54599 5.49987 6.54599C5.28981 6.54599 5.11949 6.37567 5.11949 6.1656V2.2825C5.11949 2.07243 5.28981 1.90212 5.49987 1.90212C5.70994 1.90212 5.88026 2.07243 5.88026 2.2825V5.78522H7.87752C8.08759 5.78522 8.25791 5.95554 8.25791 6.1656C8.25791 6.37567 8.08774 6.54599 7.87767 6.54599Z" fill="#CCCCCC"/>
</svg>
