<svg width="224" height="244" viewBox="0 0 224 244" fill="none" xmlns="http://www.w3.org/2000/svg"><path d="M118.34 148.787v-39.995h-8.453v39.995l-41.2 28.292 4.789 6.959 40.637-27.908 40.638 27.908 4.788-6.96-41.2-28.29z" fill="#E4EAF6"/><path d="M131.669 79.89V66.252H96.557V79.89l17.556 15.588L131.67 79.89z" fill="#E6AF78"/><path d="M158.814 86.27l-24.137-5.673a3.87 3.87 0 0 1-1.014-.407l-19.55 11.391L95.323 79.64a3.883 3.883 0 0 1-1.776.958L69.411 86.27a7.795 7.795 0 0 0-6.016 7.587v15.26a3.9 3.9 0 0 0 3.902 3.897h93.63a3.9 3.9 0 0 0 3.902-3.897v-15.26a7.795 7.795 0 0 0-6.015-7.587z" fill="#707487"/><path d="M96.557 66.252v14.39c22.116 7.958 35.112-11.96 35.112-11.96v-2.43H96.557z" fill="#D29B6E"/><path d="M88.755 21.438l1.7 37.354a11.688 11.688 0 0 0 4.67 8.821l8.065 6.043a11.712 11.712 0 0 0 7.022 2.338h7.803c2.532 0 4.996-.82 7.022-2.338l8.065-6.043a11.687 11.687 0 0 0 4.67-8.821l1.7-37.354H88.755z" fill="#F0C087"/><path d="M108.261 29.232c7.803 0 19.507-1.949 22.283-7.794H88.755l1.7 37.354a11.688 11.688 0 0 0 4.669 8.821l8.065 6.043a11.712 11.712 0 0 0 7.023 2.338h3.9c-3.9 0-11.703-7.794-11.703-17.536V35.077c0-1.949 1.95-5.845 5.852-5.845z" fill="#E6AF78"/><path d="M150.51 100.368l12.64-11.342a7.774 7.774 0 0 1 1.68 4.83v15.26a3.9 3.9 0 0 1-3.902 3.897h-13.654v-5.398a9.739 9.739 0 0 1 3.235-7.247zM77.717 100.368l-12.64-11.342a7.774 7.774 0 0 0-1.68 4.83v15.26a3.9 3.9 0 0 0 3.9 3.897h13.655v-5.398a9.735 9.735 0 0 0-3.235-7.247zM118.99 113.013h-9.754l1.22-17.535h7.315l1.219 17.535z" fill="#5B5D6E"/><path d="M118.99 91.58h-9.754v1.126a4.722 4.722 0 0 0 4.725 4.72h.303a4.722 4.722 0 0 0 4.725-4.72v-1.125z" fill="#515262"/><path d="M96.284 75.552l17.83 16.028s-4.994 2.518-11.157 7.593c-1.27 1.047-3.194.623-3.875-.876L90.705 79.89l2.65-3.97a1.953 1.953 0 0 1 2.929-.368z" fill="#5B5D6E"/><path d="M131.942 75.552L114.113 91.58s4.993 2.518 11.156 7.593c1.27 1.047 3.194.623 3.875-.876l8.377-18.407-2.65-3.97a1.953 1.953 0 0 0-2.929-.368z" fill="#5B5D6E"/><path d="M125.939 8.53l1.829 12.908c8.347 1.668 9.55 14.753 9.724 18.491.031.678.248 1.333.616 1.904l3.185 4.935s-1.09-8.16 3.902-13.64c0 0 1.713-32.392-19.256-24.598z" fill="#785550"/><path d="M143.25 45.934l-2.202 8.801a2.345 2.345 0 0 1-4.603-.277l-1.126-9.002a4.035 4.035 0 0 1 4.006-4.533h.009c2.626 0 4.553 2.465 3.917 5.01z" fill="#F0C087"/><path d="M90.624 5.039l2.885 1.969c-13.044 9.62-10.606 26.12-10.606 26.12 3.901 3.897 3.901 13.64 3.901 13.64l3.902-3.898S89.2 31.614 96.558 27.283c6.827-4.018 12.801-1.948 18.897-1.948 16.336 0 20.908-6.15 20.115-13.639-.41-3.875-6.341-11.946-21.457-11.69-6.1.103-17.556 1.948-23.49 5.033z" fill="#694B4B"/><path d="M89.487 23.63s-2.073-8.16 4.023-16.622c-13.045 9.62-10.607 26.12-10.607 26.12 3.901 3.897 3.901 13.64 3.901 13.64l3.902-3.898S89.2 31.613 96.558 27.283c6.827-4.018 12.801-1.948 18.897-1.948 2.657 0 4.972-.178 7.034-.482-12.582.42-19.998-9.098-33.002-1.223z" fill="#5A4146"/><path d="M84.976 45.934l2.203 8.801a2.345 2.345 0 0 0 4.602-.277l1.127-9.002a4.035 4.035 0 0 0-4.007-4.533h-.008c-2.627 0-4.554 2.465-3.917 5.01z" fill="#E6AF78"/><path d="M137.52 109.117h-9.753a3.9 3.9 0 0 0-3.901 3.897h17.556a3.9 3.9 0 0 0-3.901-3.897z" fill="#5B5D6E"/><path d="M68.273 210.76v-13.64H33.161v13.64l17.556 15.586 17.556-15.587z" fill="#E6AF78"/><path d="M95.418 217.139l-24.137-5.673a3.86 3.86 0 0 1-1.013-.407l-19.55 11.391-18.789-11.942a3.883 3.883 0 0 1-1.776.958L6.016 217.14A7.795 7.795 0 0 0 0 224.726v15.26a3.9 3.9 0 0 0 3.901 3.897h93.631a3.9 3.9 0 0 0 3.902-3.897v-15.26a7.795 7.795 0 0 0-6.016-7.587z" fill="#EFF2FA"/><path d="M33.161 197.12v14.39c22.116 7.959 35.112-11.96 35.112-11.96v-2.43H33.161z" fill="#D29B6E"/><path d="M25.359 152.307l1.7 37.354a11.688 11.688 0 0 0 4.67 8.821l8.065 6.043a11.711 11.711 0 0 0 7.022 2.338h7.802c2.532 0 4.997-.82 7.023-2.338l8.065-6.043a11.687 11.687 0 0 0 4.67-8.821l1.7-37.354H25.358z" fill="#F0C087"/><path d="M44.865 160.1c7.803 0 19.507-1.948 22.283-7.794h-41.79l1.7 37.354a11.687 11.687 0 0 0 4.67 8.822l8.065 6.042a11.711 11.711 0 0 0 7.022 2.338h3.902c-3.902 0-11.704-7.794-11.704-17.536v-23.381c0-1.949 1.951-5.845 5.852-5.845z" fill="#E6AF78"/><path d="M87.113 231.237l12.64-11.342a7.774 7.774 0 0 1 1.68 4.83v15.26a3.9 3.9 0 0 1-3.9 3.897H83.877v-5.398a9.74 9.74 0 0 1 3.235-7.247zM14.32 231.237L1.68 219.895a7.774 7.774 0 0 0-1.68 4.83v15.26a3.9 3.9 0 0 0 3.902 3.897h13.654v-5.398a9.736 9.736 0 0 0-3.235-7.247z" fill="#E4EAF6"/><path d="M55.594 243.882h-9.753l1.219-17.536h7.315l1.219 17.536z" fill="#5B5D6E"/><path d="M55.594 222.449h-9.753v1.126a4.722 4.722 0 0 0 4.725 4.72h.302a4.722 4.722 0 0 0 4.726-4.72v-1.126z" fill="#515262"/><path d="M32.888 206.42l17.83 16.028s-4.994 2.518-11.157 7.593c-1.27 1.047-3.194.623-3.875-.875l-8.377-18.408 2.65-3.97a1.953 1.953 0 0 1 2.929-.368z" fill="#E4EAF6"/><path d="M68.547 206.42l-17.83 16.028s4.994 2.518 11.156 7.593c1.271 1.047 3.195.623 3.876-.875l8.377-18.408-2.65-3.97a1.953 1.953 0 0 0-2.929-.368z" fill="#E4EAF6"/><path d="M62.543 139.398l1.829 12.91c8.347 1.667 9.55 14.752 9.724 18.49.031.678.248 1.333.616 1.904l3.185 4.934s-1.09-8.159 3.902-13.638c0-.001 1.714-32.393-19.256-24.6z" fill="#785550"/><path d="M79.855 176.802l-2.203 8.801a2.345 2.345 0 0 1-4.603-.277l-1.126-9.002a4.035 4.035 0 0 1 4.006-4.534h.009c2.626 0 4.554 2.466 3.917 5.012z" fill="#F0C087"/><path d="M27.228 135.907l2.886 1.969c-13.045 9.62-10.607 26.12-10.607 26.12 3.901 3.897 3.901 13.64 3.901 13.64l3.902-3.898s-1.506-11.257 5.852-15.587c6.827-4.018 12.801-1.948 18.897-1.948 16.336 0 20.908-6.15 20.116-13.639-.41-3.875-6.342-11.946-21.457-11.69-6.1.103-17.557 1.948-23.49 5.033z" fill="#694B4B"/><path d="M26.09 154.498s-2.072-8.16 4.024-16.623c-13.045 9.62-10.607 26.12-10.607 26.12 3.901 3.898 3.901 13.64 3.901 13.64l3.902-3.897s-1.506-11.257 5.852-15.587c6.827-4.019 12.801-1.948 18.897-1.948 2.657 0 4.972-.178 7.034-.483-12.582.422-19.998-9.097-33.002-1.222z" fill="#5A4146"/><path d="M21.58 176.802l2.203 8.802a2.345 2.345 0 0 0 4.603-.278l1.126-9.001a4.035 4.035 0 0 0-4.007-4.534h-.008c-2.626 0-4.554 2.466-3.917 5.011z" fill="#E6AF78"/><path d="M74.125 239.984h-9.753a3.9 3.9 0 0 0-3.901 3.897h17.556a3.9 3.9 0 0 0-3.902-3.897z" fill="#E4EAF6"/><path d="M181.736 132.252c-39.35 0-34.988 47.799-34.808 82.437a3.697 3.697 0 0 0 1.815 3.163c4.361 2.626 16.336 8.765 32.994 8.765 16.657 0 28.632-6.14 32.993-8.765a3.7 3.7 0 0 0 1.815-3.163c.179-34.638 4.542-82.437-34.809-82.437z" fill="#694B4B"/><path d="M179.2 132.351c-36.598 2.05-32.448 48.471-32.272 82.338a3.697 3.697 0 0 0 1.814 3.163c4.361 2.626 16.337 8.765 32.994 8.765l9.945-69.532" fill="#5A4146"/><path d="M181.736 132.252c-22.375 0-23.929 27.005-23.929 27.005 12.897-2.173 20.821 3.26 33.874-2.173l-9.945 69.532c16.658 0 28.633-6.139 32.993-8.764a3.7 3.7 0 0 0 1.815-3.163c.18-34.638 4.543-82.437-34.808-82.437z" fill="#694B4B"/><path d="M216.544 214.689c.154-29.764 3.371-69.218-20.687-79.739-.42 2.177-1.18 8.256.796 12.201 4.973 9.934 9.945 9.934 14.916 17.383 4.973 27.316-9.5 56.309-14.307 60.256 8.517-2.023 14.622-5.225 17.468-6.938a3.699 3.699 0 0 0 1.814-3.163z" fill="#785550"/><path d="M219.41 222.223l-22.184-9.233a4.966 4.966 0 0 1-3.06-4.584v-6.001h-24.86v6a4.966 4.966 0 0 1-3.06 4.585l-22.184 9.233a7.45 7.45 0 0 0-4.59 6.877v9.933a4.97 4.97 0 0 0 4.972 4.967h74.583a4.97 4.97 0 0 0 4.973-4.967V229.1a7.45 7.45 0 0 0-4.59-6.877z" fill="#E6AF78"/><path d="M219.41 222.223l-21.449-8.927-16.225 6.995-16.225-6.995-21.45 8.927a7.45 7.45 0 0 0-4.589 6.877v9.933a4.97 4.97 0 0 0 4.972 4.967h74.583a4.97 4.97 0 0 0 4.973-4.967V229.1c0-3.008-1.81-5.72-4.59-6.877z" fill="#EFF2FA"/><path d="M194.166 202.404h-24.861v6a4.966 4.966 0 0 1-3.06 4.585l-3.465 1.443c26.515 6.752 31.386-12.028 31.386-12.028z" fill="#D29B6E"/><path d="M151.59 231.829l-9.98-7.929a7.428 7.428 0 0 0-2.138 5.199v9.933a4.97 4.97 0 0 0 4.972 4.967h9.945v-6.353a7.45 7.45 0 0 0-2.8-5.817zM224 239.032V229.1a7.429 7.429 0 0 0-2.107-5.168l-10.011 7.898a7.446 7.446 0 0 0-2.799 5.817v6.353h9.945a4.969 4.969 0 0 0 4.971-4.967zM182.109 239.032h-.746a2.112 2.112 0 0 1-2.113-2.11v-16.626h4.972v16.625c0 1.166-.946 2.111-2.113 2.111z" fill="#E4EAF6"/><path d="M181.736 220.29l-14.23-10.658a1.99 1.99 0 0 0-2.847.487l-2.812 4.212 8.724 12.2a1.991 1.991 0 0 0 2.86.396l8.305-6.636zM181.736 220.29l14.23-10.658a1.99 1.99 0 0 1 2.847.487l2.812 4.212-8.724 12.2a1.991 1.991 0 0 1-2.86.396l-8.305-6.636z" fill="#E4EAF6"/><path d="M194.166 154.601c-12.431 12.416-36.826 2.483-36.826 22.35l1.544 14.633a9.934 9.934 0 0 0 5.074 7.784l14.155 7.854a7.465 7.465 0 0 0 7.244 0l14.155-7.854a9.931 9.931 0 0 0 5.074-7.784l1.782-17.38c.127-1.235.153-2.478.112-3.718-.93-6.32-9.828-10.918-12.314-15.885z" fill="#F0C087"/><path d="M157.34 176.95l1.544 14.634a9.934 9.934 0 0 0 5.074 7.784l14.155 7.855c1.563.867 3.356 1.092 5.062.756 0 0-7.137-2.16-11.384-13.645-1.301-3.518-3.108-22.143-1.554-24.42 3.07-4.498 20.2-4.966 25.26-13.312-.25-.31-.48-.62-.691-.931-.017-.025-.038-.05-.054-.075a9.488 9.488 0 0 1-.586-.994c-12.43 12.416-36.826 2.483-36.826 22.349z" fill="#E6AF78"/><path d="M199.884 239.032h-6.464a4.224 4.224 0 0 0-4.226 4.221v.745h14.916v-.745a4.224 4.224 0 0 0-4.226-4.221z" fill="#E4EAF6"/></svg>