<svg width="224" height="244" viewBox="0 0 224 244" fill="none" xmlns="http://www.w3.org/2000/svg">
<path d="M49.6517 39.9955V1.74522e-06H41.1993V39.9955L5.82408e-07 68.2866L4.78778 75.2458L45.4255 47.3379L86.0632 75.2458L90.851 68.2866L49.6517 39.9955Z" transform="translate(68.6879 108.792)" fill="#E4EAF6"/>
<path d="M35.1118 13.6387V2.03609e-06H-2.09667e-06V13.6387L17.5562 29.2261L35.1118 13.6387Z" transform="translate(96.5572 66.2515)" fill="#E6AF78"/>
<path d="M95.4188 6.63088L71.2814 0.958367C70.9169 0.873062 70.5815 0.727236 70.2676 0.550908L50.7171 11.9422L31.929 -2.32696e-07C31.4424 0.457499 30.8393 0.797289 30.1532 0.958367L6.01586 6.63088C2.49098 7.45915 -5.24167e-07 10.6006 -5.24167e-07 14.2178V29.4777C-5.24167e-07 31.6299 1.74669 33.3746 3.90132 33.3746H97.5324C99.687 33.3746 101.434 31.6299 101.434 29.4777V14.2178C101.435 10.6011 98.9437 7.45963 95.4188 6.63088Z" transform="translate(63.3953 79.639)" fill="#707487"/>
<path d="M-2.09667e-06 2.03609e-06V14.3903C22.1159 22.3489 35.1118 2.42999 35.1118 2.42999V2.03609e-06H-2.09667e-06Z" transform="translate(96.5572 66.2515)" fill="#D29B6E"/>
<path d="M-5.82408e-07 2.9087e-07L1.69994 37.3539C1.85882 40.8437 3.57164 44.0791 6.3694 46.1755L14.4349 52.2179C16.4607 53.7357 18.925 54.5559 21.457 54.5559H29.2596C31.7916 54.5559 34.2564 53.7352 36.2817 52.2179L44.3472 46.1755C47.145 44.0796 48.8578 40.8437 49.0167 37.3539L50.7166 2.9087e-07H-5.82408e-07Z" transform="translate(88.755 21.4379)" fill="#F0C087"/>
<path d="M19.5061 7.79369C27.3087 7.79369 39.0127 5.84551 41.789 2.9087e-07H-5.82408e-07L1.69946 37.3539C1.85833 40.8437 3.57116 44.0791 6.36892 46.1755L14.4344 52.2179C16.4602 53.7357 18.9245 54.5559 21.4565 54.5559H25.3578C21.4565 54.5559 13.6539 46.7622 13.6539 37.0198C13.6539 32.2551 13.6539 19.4838 13.6539 13.6387C13.6544 11.6905 15.6048 7.79369 19.5061 7.79369Z" transform="translate(88.755 21.4379)" fill="#E6AF78"/>
<path d="M3.23527 11.3417L15.8753 -1.16348e-06C16.9345 1.33961 17.5557 3.02522 17.5557 4.82996V20.0899C17.5557 22.2421 15.809 23.9868 13.6544 23.9868H-4.54278e-06V18.5888C-4.54278e-06 15.8238 1.17655 13.1898 3.23527 11.3417Z" transform="translate(147.274 89.0264)" fill="#5B5D6E"/>
<path d="M14.3204 11.3417L1.68038 -1.16348e-06C0.621196 1.33961 -1.04833e-06 3.02522 -1.04833e-06 4.82996V20.0899C-1.04833e-06 22.2421 1.74669 23.9868 3.90132 23.9868H17.5557V18.5888C17.5562 15.8238 16.3796 13.1898 14.3204 11.3417Z" transform="translate(63.3962 89.0264)" fill="#5B5D6E"/>
<path d="M9.75353 17.5356H-3.55269e-06L1.21949 5.81741e-08H8.53452L9.75353 17.5356Z" transform="translate(109.236 95.4775)" fill="#5B5D6E"/>
<path d="M9.75353 -8.72611e-07H-3.55269e-06V1.12564C-3.55269e-06 3.73243 2.1155 5.84551 4.72528 5.84551H5.02777C7.63755 5.84551 9.75305 3.73243 9.75305 1.12564V-8.72611e-07H9.75353Z" transform="translate(109.236 91.5807)" fill="#515262"/>
<path d="M5.57835 0.500011L23.4079 16.5282C23.4079 16.5282 18.4145 19.0459 12.2521 24.1208C10.9811 25.1678 9.0579 24.7437 8.37659 23.2454L-1.80546e-06 4.83768L2.64986 0.867445C3.3097 -0.120468 4.69379 -0.294418 5.57835 0.500011Z" transform="translate(90.7054 75.052)" fill="#5B5D6E"/>
<path d="M17.8295 0.500011L-3.49445e-06 16.5282C-3.49445e-06 16.5282 4.99342 19.0459 11.1558 24.1208C12.4268 25.1678 14.35 24.7437 15.0313 23.2454L23.4079 4.83768L20.758 0.867445C20.0982 -0.120468 18.7141 -0.294418 17.8295 0.500011Z" transform="translate(114.113 75.052)" fill="#5B5D6E"/>
<path d="M1.63074e-06 1.21043L1.82876 14.1191C10.1763 15.7866 11.3795 28.872 11.5527 32.6097C11.5842 33.2878 11.8008 33.9431 12.1691 34.5135L15.3543 39.4483C15.3543 39.4483 14.2641 31.2891 19.2556 25.8096C19.2556 25.8091 20.9694 -6.58326 1.63074e-06 1.21043Z" transform="translate(125.939 7.31934)" fill="#785550"/>
<path d="M7.96367 5.01105L5.76086 13.8127C5.49988 14.8554 4.5614 15.5869 3.48552 15.5869C2.30277 15.5869 1.30514 14.7072 1.15819 13.5353L0.0317448 4.53354C-0.269311 2.12642 1.60953 1.1162e-06 4.03849 1.1162e-06H4.0466C6.67261 -0.000475446 8.60013 2.46526 7.96367 5.01105Z" transform="translate(135.287 40.9226)" fill="#F0C087"/>
<path d="M7.90154 5.03894L10.7871 7.00762C-2.25753 16.628 0.180499 33.1285 0.180499 33.1285C4.08181 37.0253 4.08181 46.7672 4.08181 46.7672L7.98312 42.8703C7.98312 42.8703 6.47737 31.6135 13.8353 27.2834C20.6628 23.265 26.6366 25.3352 32.7322 25.3352C49.0688 25.3352 53.6405 19.1857 52.848 11.6965C52.4382 7.82111 46.5063 -0.250424 31.391 0.00596658C25.2907 0.109381 13.8349 1.95415 7.90154 5.03894Z" transform="translate(82.7224)" fill="#694B4B"/>
<path d="M6.76412 16.6225C6.76412 16.6225 4.69155 8.46326 10.7871 -3.63588e-08C-2.25753 9.62036 0.180499 26.1208 0.180499 26.1208C4.08181 30.0177 4.08181 39.7596 4.08181 39.7596L7.98312 35.8627C7.98312 35.8627 6.47737 24.6058 13.8353 20.2758C20.6628 16.2574 26.6366 18.3276 32.7322 18.3276C35.3892 18.3276 37.7046 18.1499 39.7666 17.8453C27.1848 18.2661 19.7682 8.74729 6.76412 16.6225Z" transform="translate(82.7224 7.00757)" fill="#5A4146"/>
<path d="M0.122485 5.01105L2.3253 13.8127C2.58627 14.8554 3.52475 15.5869 4.60063 15.5869C5.78338 15.5869 6.78101 14.7072 6.92796 13.5353L8.05441 4.53354C8.35547 2.12642 6.47662 1.1162e-06 4.04766 1.1162e-06H4.03955C1.41307 -0.000475446 -0.514455 2.46526 0.122485 5.01105Z" transform="translate(84.8534 40.9226)" fill="#E6AF78"/>
<path d="M13.6548 -2.26879e-06H3.90132C1.7467 -2.26879e-06 4.4263e-06 1.74469 4.4263e-06 3.89685H17.5562C17.5557 1.74469 15.809 -2.26879e-06 13.6548 -2.26879e-06Z" transform="translate(123.866 109.117)" fill="#5B5D6E"/>
<path d="M35.1118 13.6392V-1.04713e-06H1.54338e-06V13.6392L17.5557 29.2261L35.1118 13.6392Z" transform="translate(33.1614 197.12)" fill="#E6AF78"/>
<path d="M95.4183 6.63088L71.2809 0.958367C70.9164 0.873062 70.581 0.727229 70.2676 0.550901L50.7171 11.9422L31.929 -7.21358e-06C31.4424 0.457492 30.8393 0.797289 30.1532 0.958367L6.01586 6.63088C2.49098 7.45914 1.23762e-07 10.6006 1.23762e-07 14.2178V29.4777C1.23762e-07 31.6299 1.74669 33.3746 3.90131 33.3746H97.5324C99.687 33.3746 101.434 31.6299 101.434 29.4777V14.2178C101.434 10.6006 98.9432 7.45914 95.4183 6.63088Z" transform="translate(0 210.508)" fill="#EFF2FA"/>
<path d="M1.54338e-06 -1.04713e-06V14.3903C22.1159 22.3489 35.1118 2.42999 35.1118 2.42999V-1.04713e-06H1.54338e-06Z" transform="translate(33.1614 197.12)" fill="#D29B6E"/>
<path d="M-3.20324e-07 5.81741e-07L1.69994 37.3539C1.85882 40.8437 3.57163 44.0791 6.3694 46.1755L14.4349 52.2178C16.4607 53.7357 18.925 54.5559 21.457 54.5559H29.2596C31.7916 54.5559 34.2564 53.7352 36.2817 52.2178L44.3472 46.1755C47.145 44.0796 48.8578 40.8437 49.0167 37.3539L50.7166 5.81741e-07H-3.20324e-07Z" transform="translate(25.3588 152.307)" fill="#F0C087"/>
<path d="M19.5066 7.79369C27.3092 7.79369 39.0132 5.84551 41.789 -2.79236e-06H-3.20324e-07L1.69946 37.3539C1.85834 40.8438 3.57116 44.0791 6.36892 46.1755L14.4344 52.2178C16.4602 53.7357 18.9245 54.5559 21.4565 54.5559H25.3578C21.4565 54.5559 13.6539 46.7622 13.6539 37.0198C13.6539 32.2551 13.6539 19.4838 13.6539 13.6387C13.6544 11.6901 15.6053 7.79369 19.5066 7.79369Z" transform="translate(25.3588 152.306)" fill="#E6AF78"/>
<path d="M3.23527 11.3417L15.8753 3.02505e-06C16.9345 1.33962 17.5557 3.02521 17.5557 4.82995V20.09C17.5557 22.2421 15.809 23.9868 13.6544 23.9868H-6.40648e-07V18.5888C-6.40648e-07 15.8242 1.17655 13.1898 3.23527 11.3417Z" transform="translate(83.878 219.895)" fill="#E4EAF6"/>
<path d="M14.3204 11.3417L1.68038 3.02505e-06C0.621195 1.33962 -1.38322e-07 3.02521 -1.38322e-07 4.82995V20.09C-1.38322e-07 22.2421 1.74669 23.9868 3.90132 23.9868H17.5557V18.5888C17.5562 15.8242 16.3796 13.1898 14.3204 11.3417Z" transform="translate(0.000457764 219.895)" fill="#E4EAF6"/>
<path d="M9.75353 17.5356H8.73612e-08L1.21949 -3.02505e-06H8.53404L9.75353 17.5356Z" transform="translate(45.8405 226.346)" fill="#5B5D6E"/>
<path d="M9.75353 -5.81741e-07H8.73611e-08V1.12564C8.73611e-08 3.73243 2.1155 5.8455 4.72528 5.8455H5.02777C7.63755 5.8455 9.75305 3.73243 9.75305 1.12564V-5.81741e-07H9.75353Z" transform="translate(45.8405 222.449)" fill="#515262"/>
<path d="M5.57835 0.500156L23.4079 16.5284C23.4079 16.5284 18.4145 19.046 12.2521 24.121C10.9811 25.168 9.0579 24.7438 8.37659 23.2455L-1.54338e-06 4.83783L2.64986 0.867583C3.31018 -0.120806 4.69427 -0.294273 5.57835 0.500156Z" transform="translate(27.3092 205.92)" fill="#E4EAF6"/>
<path d="M17.8295 0.500156L1.45602e-07 16.5284C1.45602e-07 16.5284 4.99341 19.046 11.1557 24.121C12.4268 25.168 14.35 24.7438 15.0313 23.2455L23.4079 4.83783L20.758 0.867583C20.0977 -0.120806 18.7136 -0.294273 17.8295 0.500156Z" transform="translate(50.7176 205.92)" fill="#E4EAF6"/>
<path d="M1.63074e-06 1.21044L1.82875 14.1191C10.1762 15.7866 11.3795 28.872 11.5527 32.6097C11.5842 33.2878 11.8008 33.9431 12.1691 34.5136L15.3543 39.4483C15.3543 39.4483 14.2641 31.2891 19.2556 25.8096C19.2556 25.8087 20.9694 -6.58325 1.63074e-06 1.21044Z" transform="translate(62.5432 138.188)" fill="#785550"/>
<path d="M7.96367 5.01152L5.76086 13.8131C5.49988 14.8559 4.56141 15.5874 3.48553 15.5874C2.30278 15.5874 1.30514 14.7077 1.15819 13.5358L0.0317414 4.53354C-0.269314 2.12642 1.60954 1.86157e-06 4.0385 1.86157e-06H4.04661C6.67309 1.86157e-06 8.60108 2.46621 7.96367 5.01152Z" transform="translate(71.8909 171.79)" fill="#F0C087"/>
<path d="M7.90154 5.03894L10.7871 7.00761C-2.25753 16.628 0.180495 33.1285 0.180495 33.1285C4.08181 37.0253 4.08181 46.7672 4.08181 46.7672L7.98312 42.8703C7.98312 42.8703 6.47737 31.6135 13.8353 27.2834C20.6628 23.265 26.6366 25.3352 32.7322 25.3352C49.0688 25.3352 53.6405 19.1857 52.848 11.6965C52.4382 7.82111 46.5063 -0.250419 31.391 0.005971C25.2907 0.109385 13.8349 1.95416 7.90154 5.03894Z" transform="translate(19.3266 130.868)" fill="#694B4B"/>
<path d="M6.76412 16.6225C6.76412 16.6225 4.69156 8.46326 10.7871 -5.58471e-06C-2.25753 9.62035 0.180495 26.1208 0.180495 26.1208C4.08181 30.0177 4.08181 39.7596 4.08181 39.7596L7.98312 35.8627C7.98312 35.8627 6.47737 24.6059 13.8353 20.2758C20.6628 16.2574 26.6366 18.3276 32.7322 18.3276C35.3892 18.3276 37.7046 18.1499 39.7667 17.8453C27.1844 18.2666 19.7682 8.74777 6.76412 16.6225Z" transform="translate(19.3266 137.875)" fill="#5A4146"/>
<path d="M0.12263 5.01105L2.32544 13.8127C2.58642 14.8554 3.52489 15.5869 4.60077 15.5869C5.78352 15.5869 6.78115 14.7072 6.9281 13.5353L8.05456 4.53354C8.35561 2.12643 6.47676 5.30472e-06 4.0478 5.30472e-06H4.03969C1.41321 -0.000471257 -0.514787 2.46573 0.12263 5.01105Z" transform="translate(21.4575 171.791)" fill="#E6AF78"/>
<path d="M13.6548 5.81741e-06H3.90131C1.74669 5.81741e-06 -2.8538e-06 1.7447 -2.8538e-06 3.89685H17.5562C17.5557 1.74518 15.809 5.81741e-06 13.6548 5.81741e-06Z" transform="translate(60.4706 239.984)" fill="#E4EAF6"/>
<path d="M35.0352 2.32696e-07C-4.31573 2.32696e-07 0.0474274 47.7987 0.227297 82.4371C0.233977 83.7453 0.920052 84.9248 2.04221 85.6001C6.40298 88.2259 18.3784 94.3645 35.0357 94.3645C51.693 94.3645 63.6684 88.2259 68.0292 85.6001C69.1508 84.9248 69.8369 83.7453 69.8441 82.4371C70.023 47.7992 74.3862 2.32696e-07 35.0352 2.32696e-07Z" transform="translate(146.701 132.252)" fill="#694B4B"/>
<path d="M32.4971 5.81741e-07C-4.10089 2.04969 0.0489976 48.4711 0.224574 82.3385C0.231253 83.6466 0.917328 84.8261 2.03949 85.5014C6.40026 88.1273 18.3757 94.2659 35.033 94.2659L44.9778 24.734" transform="translate(146.703 132.351)" fill="#5A4146"/>
<path d="M23.9289 2.32696e-07C1.55394 2.32696e-07 4.65926e-06 27.0053 4.65926e-06 27.0053C12.8967 24.8322 20.8215 30.2645 33.8737 24.8322L23.9289 94.364C40.5867 94.364 52.5616 88.2254 56.9224 85.5996C58.044 84.9243 58.7301 83.7448 58.7373 82.4366C58.9167 47.7992 63.2798 2.32696e-07 23.9289 2.32696e-07Z" transform="translate(157.807 132.252)" fill="#694B4B"/>
<path d="M21.1872 79.7388C21.3413 49.9747 24.5585 10.5215 0.500291 -5.81741e-06C0.0809123 2.17741 -0.679599 8.25597 1.29611 12.2014C6.26853 22.1349 11.241 22.1349 16.2124 29.584C21.1849 56.9001 6.71176 85.8927 1.9049 89.84C10.4218 87.817 16.5268 84.6155 19.3728 82.9018C20.494 82.226 21.1806 81.047 21.1872 79.7388Z" transform="translate(195.357 134.95)" fill="#785550"/>
<path d="M79.9376 19.8178L57.754 10.5854C55.9014 9.81432 54.6943 8.00625 54.6943 6.00087V5.81741e-07H29.8331V6.00087C29.8331 8.00625 28.626 9.81432 26.7734 10.5854L4.58978 19.8178C1.81062 20.9744 -3.02852e-06 23.687 -3.02852e-06 26.6946V36.6281C-3.02852e-06 39.3712 2.22618 41.5948 4.97242 41.5948H79.5554C82.3017 41.5948 84.5279 39.3712 84.5279 36.6281V26.6946C84.5274 23.6866 82.7172 20.9744 79.9376 19.8178Z" transform="translate(139.472 202.405)" fill="#E6AF78"/>
<path d="M79.9381 8.92696L58.4892 -9.30785e-07L42.2642 6.9945L26.0391 -9.30785e-07L4.58979 8.92696C1.81063 10.0836 -6.40648e-06 12.7962 -6.40648e-06 15.8037V25.7372C-6.40648e-06 28.4803 2.22619 30.7039 4.97243 30.7039H79.5554C82.3017 30.7039 84.5279 28.4803 84.5279 25.7372V15.8037C84.5279 12.7957 82.7177 10.0836 79.9381 8.92696Z" transform="translate(139.472 213.296)" fill="#EFF2FA"/>
<path d="M31.3861 -6.16645e-06H6.52494V6.00087C6.52494 8.00624 5.31786 9.81431 3.46525 10.5854L6.63945e-06 12.0275C26.5148 18.7804 31.3861 -6.16645e-06 31.3861 -6.16645e-06Z" transform="translate(162.78 202.404)" fill="#D29B6E"/>
<path d="M12.1176 7.92856L2.13841 5.81741e-06C0.801071 1.36583 -6.40648e-06 3.21251 -6.40648e-06 5.19882V15.1323C-6.40648e-06 17.8754 2.22619 20.099 4.97243 20.099H14.9173V13.7464C14.9168 11.4828 13.8867 9.34252 12.1176 7.92856Z" transform="translate(139.472 223.9)" fill="#E4EAF6"/>
<path d="M14.9163 15.1013V5.16784C14.9163 3.19678 14.1281 1.36249 12.8099 3.60679e-06L2.79872 7.89758C1.0296 9.31107 8.15371e-07 11.4518 8.15371e-07 13.715V20.0675H9.94485C12.6901 20.068 14.9163 17.8444 14.9163 15.1013Z" transform="translate(209.083 223.931)" fill="#E4EAF6"/>
<path d="M2.85884 18.736H2.11311C0.9461 18.736 1.39778e-06 17.791 1.39778e-06 16.6253V-3.1414e-06H4.97242V16.6253C4.97242 17.791 4.02584 18.736 2.85884 18.736Z" transform="translate(179.25 220.296)" fill="#E4EAF6"/>
<path d="M19.8887 11.0569L5.65946 0.397594C4.7458 -0.286749 3.44472 -0.0641935 2.8116 0.884641L-1.51426e-06 5.09745L8.72393 17.2965C9.38711 18.2234 10.6939 18.405 11.5847 17.6935L19.8887 11.0569Z" transform="translate(161.847 209.234)" fill="#E4EAF6"/>
<path d="M6.98889e-07 11.0569L14.2293 0.397594C15.1429 -0.286749 16.444 -0.0641935 17.0771 0.884641L19.8887 5.09745L11.1648 17.2965C10.5016 18.2234 9.19483 18.405 8.30407 17.6935L6.98889e-07 11.0569Z" transform="translate(181.736 209.234)" fill="#E4EAF6"/>
<path d="M36.8256 1.74522e-06C24.395 12.4163 6.17352e-06 2.48337 6.17352e-06 22.3493L1.54393 36.9826C1.84212 40.2561 3.74149 43.1703 6.6175 44.7668L20.7728 52.6215C23.0253 53.8715 25.7643 53.8715 28.0168 52.6215L42.1721 44.7668C45.0486 43.1703 46.9484 40.2561 47.2457 36.9826L49.0277 19.6029C49.1546 18.3677 49.1813 17.1248 49.1398 15.8852C48.2104 9.56413 39.3118 4.96673 36.8256 1.74522e-06Z" transform="translate(157.34 154.601)" fill="#F0C087"/>
<path d="M6.17352e-06 22.3489L1.54393 36.9822C1.84212 40.2557 3.74149 43.1698 6.6175 44.7663L20.7728 52.621C22.3358 53.4884 24.1288 53.7128 25.8349 53.3769C25.8349 53.3769 18.6984 51.2166 14.4507 39.7319C13.1496 36.2139 11.3432 17.5894 12.8967 15.3129C15.9679 10.8137 33.0961 10.3462 38.1572 1.99965C37.9072 1.68989 37.6763 1.37964 37.4659 1.06892C37.4492 1.04414 37.4282 1.01889 37.4115 0.993633C37.1916 0.663375 36.9926 0.332645 36.8256 5.11932e-06C24.3955 12.4159 6.17352e-06 2.48289 6.17352e-06 22.3489Z" transform="translate(157.34 154.602)" fill="#E6AF78"/>
<path d="M10.6901 -1.97792e-06H4.22623C1.89221 -1.97792e-06 -1.39778e-06 1.89004 -1.39778e-06 4.22139V4.96625H14.9163V4.22139C14.9163 1.89052 13.0241 -1.97792e-06 10.6901 -1.97792e-06Z" transform="translate(189.194 239.032)" fill="#E4EAF6"/>
</svg>
