<svg width="19" height="16" viewBox="0 0 19 16" fill="none" xmlns="http://www.w3.org/2000/svg"><path d="M17.728 3.317c-.848-1.024-2-1.833-3.457-2.427C12.815.297 11.225 0 9.501 0 8.213 0 6.983.175 5.81.526c-1.174.35-2.185.824-3.033 1.421a7.157 7.157 0 0 0-2.025 2.13C.25 4.9 0 5.763 0 6.665c0 1.042.32 2.018.96 2.927.64.91 1.514 1.674 2.624 2.291-.078.278-.17.542-.276.792-.106.25-.201.455-.286.615-.085.16-.2.336-.345.53a5.452 5.452 0 0 1-.329.412l-.365.396a37.287 37.287 0 0 0-.414.453l-.074.088-.064.094c-.035.052-.051.085-.047.099a.273.273 0 0 1-.022.104c-.017.055-.016.097.006.125v.01c.028.125.09.226.185.302a.42.42 0 0 0 .324.094c.46-.056.862-.132 1.208-.23 1.852-.465 3.478-1.304 4.878-2.52.53.056 1.042.084 1.537.084 1.725 0 3.315-.297 4.771-.891 1.456-.594 2.608-1.403 3.457-2.427C18.576 8.99 19 7.873 19 6.665c0-1.208-.424-2.324-1.272-3.348z" fill="#CDCCCD"/></svg>