<svg width="221" height="184" viewBox="0 0 221 184" fill="none" xmlns="http://www.w3.org/2000/svg">
<path d="M0 6.25964e-07V1.78362V105.59L15.6839 115.578L63.4484 40.3098L0 6.25964e-07Z" fill="#05365B"/>
<path d="M63.4484 1.78362V6.25964e-07L2.71951e-06 40.3098L47.7645 115.578L63.4484 105.59V1.78362Z" transform="translate(157.552)" fill="#008C61"/>
<path d="M98.197 73.8566C111.742 65.2952 115.307 46.7456 106.039 32.4766L94.6325 14.6404C85.3647 0.371505 67.1857 -4.2659 53.6405 4.29546L13.005 29.9796C-0.540118 38.5409 -4.10464 57.0905 5.1631 71.3595L16.5696 89.1957C25.8373 103.465 44.0163 108.102 57.5615 99.5406L98.197 73.8566Z" transform="translate(81.811 57.061)" fill="#E29D81"/>
<path d="M91.5388 19.9072C96.5291 16.6967 97.9549 9.91891 94.7468 4.92479C91.5388 -0.0693438 84.7662 -1.49623 79.7759 1.71428L4.92103 49.1585C-0.0692897 52.369 -1.49509 59.1468 1.71297 64.1409C4.92103 69.135 11.6936 70.5619 16.6839 67.3514L91.5388 19.9072Z" transform="translate(83.4789 114.221)" fill="#E29D81"/>
<path d="M0 56.719L11.4065 74.5552C20.6742 88.8242 38.8532 93.4616 52.3984 84.9002L93.0339 59.2161C106.579 50.6548 110.144 32.1051 100.876 17.8362L89.4693 -1.41522e-06" transform="translate(87.3307 71.7014)" fill="#D3856A"/>
<path d="M91.5388 19.9072C96.5291 16.6967 97.9549 9.91892 94.7468 4.92479C91.5388 -0.0693358 84.7662 -1.49624 79.7759 1.71428L4.92104 49.5152C-0.0692863 52.7257 -1.49509 59.5035 1.71297 64.4976C4.92103 69.4918 11.6936 70.9186 16.6839 67.7081L91.5388 19.9072Z" transform="translate(37.1403 96.7415)" fill="#E29D81"/>
<path d="M91.5388 19.9072C96.5291 16.6967 97.9549 9.91892 94.7468 4.92479C91.5388 -0.0693358 84.7662 -1.49624 79.7759 1.71428L4.92104 49.5152C-0.0692842 52.7257 -1.49509 59.5035 1.71297 64.4976C4.92104 69.4918 11.6936 70.9186 16.6839 67.7081L91.5388 19.9072Z" transform="translate(52.8241 111.01)" fill="#E29D81"/>
<path d="M91.5388 19.9072C96.5291 16.6967 97.9549 9.91892 94.7468 4.92479C91.5388 -0.0693413 84.7662 -1.49623 79.7759 1.71428L4.92103 49.5152C-0.0692876 52.7257 -1.49509 59.5035 1.71297 64.4976C4.92104 69.4918 11.6936 70.9186 16.6839 67.7081L91.5388 19.9072Z" transform="translate(36.7838 72.1274)" fill="#E29D81"/>
<path d="M52.7333 -5.44317e-08C52.7333 -5.44317e-08 10.672 6.0643 7.10747 7.13447C3.89941 8.20464 -6.08123 32.4618 5.32522 35.3156C17.0881 38.1694 35.6236 23.187 35.6236 23.187L52.7333 -5.44317e-08Z" transform="translate(90.5603 57.7892)" fill="#E29D81"/>
<path d="M13.1925 0H-4.02576e-06V77.0394H13.1925V0Z" transform="matrix(0.843715 -0.536891 0.536309 0.844085 153.572 51.4847)" fill="white"/>
<path d="M11.05 -2.77602e-06L-5.43902e-06 7.13447L41.3484 72.0582" transform="translate(153.631 44.5905)" fill="#DFE2E5"/>
<path d="M63.4484 6.25964e-07L2.71951e-06 40.3098L47.7645 115.578" transform="translate(157.552)" fill="#006D49"/>
<path d="M150.952 88.845L144.179 84.5643C148.1 84.9211 152.378 83.1374 154.516 79.5702C157.724 74.5761 156.299 67.7983 151.308 64.5878L101.405 32.8394C104.97 25.3482 97.8405 9.29568 95.3454 8.22551C92.1373 7.15534 53.6405 1.80448 50.076 1.09104C37.9566 -2.4762 24.055 2.87465 16.5696 14.6465L5.16311 32.4827C-4.10464 46.7516 -0.54012 65.3013 13.005 73.8626L16.2131 76.003C16.5696 76.3597 17.2825 77.0732 17.9954 77.4299L92.8502 125.231C97.8405 128.441 104.613 127.014 107.821 122.02C109.603 119.167 109.96 115.956 108.891 113.102L123.149 122.377C128.139 125.588 134.911 124.161 138.12 119.167C140.615 115.599 140.258 110.962 138.12 107.751L138.832 108.108C143.823 111.319 150.595 109.892 153.803 104.898C157.724 98.8333 156.299 92.0555 150.952 88.845Z" transform="translate(27.9869 57.0549)" fill="#F9BDA0"/>
<path d="M2.1676 10.7306C0.028891 9.30371 -0.684018 6.80666 0.741789 4.66632L2.1676 2.16925C3.59341 0.0289117 6.08856 -0.684541 8.22727 0.742353C10.366 2.16925 11.0789 4.66631 9.65308 6.80666L8.22727 9.30372C7.15791 11.4441 4.30631 12.1575 2.1676 10.7306Z" transform="translate(122.234 167.274)" fill="#FFE4C7"/>
<path d="M2.1676 10.7306C0.028891 9.30372 -0.684018 6.80666 0.741789 4.66631L2.1676 2.16925C3.59341 0.0289062 6.08856 -0.684533 8.22727 0.742361C10.366 2.16926 11.0789 4.66631 9.65308 6.80665L8.22727 9.30372C7.15791 11.4441 4.30631 12.1575 2.1676 10.7306Z" transform="translate(168.573 149.795)" fill="#FFE4C7"/>
<path d="M2.1676 10.7306C0.0288857 9.30372 -0.684023 6.80666 0.741783 4.66631L2.1676 2.16925C3.5934 0.0289062 6.08857 -0.684533 8.22728 0.742361C10.366 2.16926 11.0789 4.66631 9.65307 6.80665L8.22728 9.30372C6.80147 11.4441 4.3063 12.1575 2.1676 10.7306Z" transform="translate(152.889 164.064)" fill="#FFE4C7"/>
<path d="M2.1676 10.7306C0.0288857 9.30373 -0.684023 6.80666 0.741783 4.66632L2.1676 2.16925C3.5934 0.028909 6.08857 -0.684543 8.22728 0.742351C10.366 2.16924 11.0789 4.66631 9.65307 6.80665L8.58372 9.30372C7.15792 11.4441 4.3063 11.8008 2.1676 10.7306Z" transform="translate(168.929 125.538)" fill="#FFE4C7"/>
<path d="M13.1916 0H0V77.0354H13.1916V0Z" transform="matrix(-0.843715 -0.536791 0.536209 -0.844085 26.0308 116.666)" fill="white"/>
<path d="M30.2984 -2.77602e-06L41.3484 7.13447L6.79877e-07 72.0582" transform="translate(26.021 44.5905)" fill="#DFE2E5"/>
<path d="M0 6.25964e-07L63.4484 40.3098L15.6839 115.578" fill="#00263D"/>
<path d="M13.3224 11.1922C11.1837 14.7594 6.5498 15.4729 3.34173 13.3325C-0.222783 11.1922 -0.935686 6.55479 1.20302 3.34428C3.34173 -0.222955 7.97561 -0.936397 11.1837 1.20394C14.3917 3.34429 15.4611 7.98169 13.3224 11.1922Z" transform="translate(11.6292 57.2987)" fill="#FFC114"/>
<path d="M89.1129 59.9296L39.2097 28.1812C42.7742 20.69 35.6452 4.63741 33.15 3.56723C31.7242 2.85379 21.7435 1.42689 11.4065 -5.44317e-08L-2.71951e-06 35.6724L93.7468 65.6371C93.0339 63.4968 91.6081 61.3564 89.1129 59.9296Z" transform="translate(90.1823 61.3564)" fill="#E8AB92"/>
<path d="M50.6992 5.67979C53.9072 11.0306 55.333 24.9429 51.0556 27.4399L15.054 35.2878C10.7766 37.7849 5.07337 35.2878 1.86531 30.2937C-1.34276 24.9429 -0.2734 18.8786 4.00402 16.3815L29.6685 1.39911C33.946 -1.09795 47.1347 -0.384509 50.3427 4.60962L50.6992 5.67979Z" transform="translate(81.188 61.741)" fill="#E29D81"/>
</svg>
