<svg width="221" height="184" viewBox="0 0 221 184" fill="none" xmlns="http://www.w3.org/2000/svg"><path d="M0 0v105.59l15.684 9.988L63.448 40.31 0 0z" fill="#05365B"/><path d="M221 1.784V0l-63.448 40.31 47.764 75.268L221 105.59V1.784z" fill="#008C61"/><path d="M180.008 130.918c13.545-8.562 17.11-27.111 7.842-41.38L176.444 71.7c-9.268-14.268-27.447-18.906-40.992-10.345L94.816 87.041c-13.545 8.56-17.11 27.11-7.842 41.38l11.407 17.836c9.267 14.269 27.446 18.906 40.992 10.345l40.635-25.684z" fill="#E29D81"/><path d="M175.018 134.128c4.99-3.21 6.416-9.988 3.208-14.982s-9.98-6.421-14.971-3.21L88.4 163.378c-4.99 3.211-6.416 9.989-3.208 14.983s9.98 6.42 14.97 3.21l74.856-47.444z" fill="#E29D81"/><path d="M87.33 128.42l11.407 17.837c9.268 14.269 27.447 18.906 40.992 10.345l40.636-25.685c13.545-8.56 17.11-27.11 7.842-41.38L176.8 71.702" fill="#D3856A"/><path d="M128.68 116.649c4.99-3.21 6.415-9.989 3.207-14.983s-9.98-6.42-14.97-3.21l-74.856 47.8c-4.99 3.211-6.416 9.989-3.208 14.983s9.98 6.421 14.971 3.21l74.855-47.8z" fill="#E29D81"/><path d="M144.363 130.917c4.99-3.21 6.416-9.988 3.208-14.982s-9.98-6.421-14.971-3.21l-74.855 47.8c-4.99 3.21-6.416 9.989-3.208 14.983s9.98 6.42 14.971 3.21l74.855-47.8zM128.323 92.035c4.99-3.21 6.416-9.989 3.208-14.983s-9.981-6.42-14.971-3.21l-74.855 47.8c-4.99 3.211-6.416 9.989-3.208 14.983s9.98 6.421 14.97 3.21l74.856-47.8z" fill="#E29D81"/><path d="M143.294 57.79s-42.062 6.064-45.626 7.134c-3.208 1.07-13.189 25.327-1.782 28.18 11.762 2.855 30.298-12.128 30.298-12.128l17.11-23.187z" fill="#E29D81"/><path d="M164.703 44.402l-11.131 7.083 41.317 65.028 11.13-7.083-41.316-65.028z" fill="#fff"/><path d="M164.681 44.59l-11.05 7.135 41.348 64.924" fill="#DFE2E5"/><path d="M221 0l-63.448 40.31 47.764 75.268" fill="#006D49"/><path d="M178.939 145.9l-6.773-4.28c3.92.356 8.199-1.428 10.337-4.995 3.208-4.994 1.783-11.772-3.208-14.982l-49.903-31.749c3.565-7.49-3.565-23.543-6.06-24.614-3.208-1.07-41.705-6.42-45.27-7.134-12.119-3.567-26.02 1.784-33.506 13.555L33.15 89.538c-9.268 14.269-5.703 32.818 7.842 41.38l3.208 2.14c.356.357 1.07 1.07 1.782 1.427l74.855 47.8c4.99 3.21 11.763 1.784 14.97-3.21 1.783-2.853 2.14-6.064 1.07-8.918l14.259 9.275c4.99 3.21 11.762 1.784 14.97-3.21 2.496-3.568 2.139-8.205 0-11.416l.713.357c4.99 3.21 11.763 1.784 14.97-3.21 3.922-6.065 2.497-12.843-2.85-16.053z" fill="#F9BDA0"/><path d="M124.402 178.005c-2.14-1.427-2.852-3.924-1.426-6.065l1.426-2.497c1.425-2.14 3.92-2.854 6.06-1.427 2.138 1.427 2.85 3.924 1.425 6.065l-1.426 2.497c-1.07 2.14-3.92 2.854-6.06 1.427zM170.74 160.526c-2.138-1.427-2.851-3.924-1.425-6.065l1.426-2.497c1.425-2.14 3.92-2.854 6.06-1.427 2.138 1.427 2.85 3.924 1.425 6.065l-1.426 2.497c-1.07 2.14-3.92 2.854-6.06 1.427zM155.057 174.795c-2.14-1.427-2.852-3.924-1.426-6.065l1.426-2.497c1.425-2.14 3.92-2.854 6.06-1.427 2.138 1.427 2.85 3.924 1.425 6.065l-1.426 2.497c-1.426 2.14-3.92 2.854-6.06 1.427zM171.097 136.269c-2.14-1.427-2.852-3.924-1.426-6.065l1.426-2.497c1.425-2.14 3.92-2.854 6.06-1.427 2.138 1.427 2.85 3.924 1.425 6.065l-1.07 2.497c-1.425 2.14-4.277 2.497-6.415 1.427z" fill="#FFE4C7"/><path d="M14.9 109.585l11.13 7.081 41.308-65.024-11.13-7.082L14.9 109.585z" fill="#fff"/><path d="M56.32 44.59l11.05 7.135-41.349 64.924" fill="#DFE2E5"/><path d="M0 0l63.448 40.31-47.764 75.268" fill="#00263D"/><path d="M24.952 68.49c-2.14 3.568-6.773 4.282-9.981 2.141-3.565-2.14-4.277-6.778-2.139-9.988 2.139-3.567 6.773-4.28 9.98-2.14 3.209 2.14 4.278 6.777 2.14 9.988z" fill="#FFC114"/><path d="M179.295 121.286l-49.903-31.748c3.565-7.492-3.564-23.544-6.06-24.614-1.425-.714-11.406-2.14-21.743-3.568L90.182 97.03l93.747 29.965c-.713-2.14-2.139-4.281-4.634-5.708z" fill="#E8AB92"/><path d="M131.887 67.42c3.208 5.352 4.634 19.264.357 21.76L96.242 97.03c-4.277 2.497-9.98 0-13.189-4.994-3.208-5.351-2.138-11.415 2.139-13.913l25.665-14.982c4.277-2.497 17.466-1.784 20.674 3.21l.356 1.07z" fill="#E29D81"/></svg>