<svg width="65" height="37" viewBox="0 0 65 37" fill="none" xmlns="http://www.w3.org/2000/svg">
<path d="M63.946 15.4267C60.298 10.7294 55.5727 6.84394 50.2812 4.19077C44.8796 1.48239 39.0686 0.0771351 33.0024 0.00344283C32.8353 -0.001147 32.1645 -0.001147 31.9975 0.00344283C25.9314 0.0772626 20.1203 1.48239 14.7187 4.19077C9.42718 6.84394 4.70213 10.7292 1.05402 15.4267C-0.351341 17.2362 -0.351341 19.7638 1.05402 21.5733C4.70201 26.2706 9.42718 30.1561 14.7187 32.8092C20.1203 35.5176 25.9313 36.9229 31.9975 36.9966C32.1645 37.0011 32.8353 37.0011 33.0024 36.9966C39.0685 36.9227 44.8796 35.5176 50.2812 32.8092C55.5727 30.1561 60.2979 26.2708 63.946 21.5733C65.3513 19.7635 65.3513 17.2362 63.946 15.4267ZM15.9 30.4334C10.959 27.9559 6.54638 24.3274 3.13909 19.9401C2.48059 19.0921 2.48059 17.9078 3.13909 17.0599C6.54625 12.6726 10.9589 9.04413 15.9 6.56664C17.3033 5.86312 18.7364 5.25472 20.1959 4.73963C16.4409 8.12948 14.0752 13.0421 14.0752 18.4999C14.0752 23.958 16.4411 28.871 20.1964 32.2607C18.7369 31.7457 17.3035 31.137 15.9 30.4334ZM32.5001 34.348C23.7985 34.348 16.7193 27.2386 16.7193 18.4998C16.7193 9.76103 23.7985 2.65177 32.5001 2.65177C41.2016 2.65177 48.2808 9.76116 48.2808 18.4999C48.2808 27.2387 41.2016 34.348 32.5001 34.348ZM61.861 19.94C58.4539 24.3272 54.0413 27.9557 49.1001 30.4332C47.6984 31.136 46.2663 31.7417 44.8085 32.2563C48.561 28.8666 50.9249 23.9555 50.9249 18.4998C50.9249 13.0412 48.5586 8.12795 44.8029 4.7381C46.2629 5.25331 47.6965 5.86248 49.1003 6.56638C54.0413 9.04387 58.4539 12.6724 61.8612 17.0596C62.5195 17.9077 62.5195 19.092 61.861 19.94Z" fill="white"/>
<path d="M6.75324 1.08944e-07C3.02947 1.08944e-07 -9.29829e-07 3.04242 -9.29829e-07 6.78211C-9.29829e-07 10.5218 3.02947 13.5642 6.75324 13.5642C10.477 13.5642 13.5065 10.5218 13.5065 6.78211C13.5066 3.04242 10.4771 1.08944e-07 6.75324 1.08944e-07ZM6.75324 10.9089C4.48752 10.9089 2.64404 9.05777 2.64404 6.78211C2.64404 4.50657 4.48727 2.65547 6.75324 2.65547C9.01897 2.65547 10.8623 4.50657 10.8623 6.78211C10.8624 9.05777 9.01897 10.9089 6.75324 10.9089Z" transform="translate(25.7468 11.7178)" fill="white"/>
</svg>
