<svg class="like" width="17" height="18" viewBox="0 0 17 18" fill="none" xmlns="http://www.w3.org/2000/svg">
<path d="M.51 12.237c-.358-.47-.53-.975-.508-1.494.022-.572.27-1.02.475-1.295-.237-.61-.329-1.57.465-2.315.581-.546 1.569-.79 2.936-.723.962.045 1.767.23 1.8.237h.003c.183.034.377.076.574.12.015-.24-.025-.839-.457-2.186-.512-1.604-.482-2.83.095-3.651C6.501.068 7.47 0 7.755 0c.274 0 .527.117.706.331.406.486.358 1.382.307 1.796.483 1.332 1.836 4.6 2.98 5.507.022.015.04.034.059.052.336.365.563.76.717 1.107.215-.12.46-.188.724-.188h2.23c.842 0 1.522.704 1.522 1.566v6.116c0 .866-.684 1.566-1.521 1.566h-2.231c-.326 0-.63-.105-.878-.286l-.86.105c-.13.02-2.471.324-4.874.275C6.2 17.981 5.79 18 5.41 18c-.655 0-1.225-.053-1.7-.158-1.12-.245-1.884-.734-2.272-1.453a2.364 2.364 0 0 1-.249-1.442c-.727-.677-.855-1.426-.83-1.953.015-.305.08-.565.15-.757zm14.969 4.6a.543.543 0 0 0 .534-.55v-6.12a.543.543 0 0 0-.534-.55h-2.231a.543.543 0 0 0-.534.55v6.117c0 .305.241.55.534.55h2.23v.003zm-14.033-5.04a.517.517 0 0 1 .066.613c0 .004-.15.268-.168.629-.026.493.205.93.687 1.302a.522.522 0 0 1 .169.58c0 .004-.157.5.099.971.244.452.79.776 1.616.956.662.147 1.561.173 2.666.083h.051c2.352.053 4.729-.264 4.754-.267h.004l.37-.045a1.64 1.64 0 0 1-.034-.332v-6.12c0-.162.026-.32.07-.467a3.178 3.178 0 0 0-.68-1.291c-1.642-1.34-3.248-5.86-3.317-6.056a.49.49 0 0 1-.022-.253c.062-.421.04-.937-.048-1.091-.194.004-.717.06-1.031.508-.373.53-.358 1.48.044 2.736.614 1.916.665 2.925.18 3.37a.78.78 0 0 1-.798.146 10.077 10.077 0 0 0-.637-.132l-.047-.01c-1.123-.253-3.134-.407-3.833.248-.592.557-.172 1.294-.124 1.373a.514.514 0 0 1-.088.655c-.003.004-.387.377-.406.877-.014.335.14.678.457 1.017z" fill="#333"/>

<style>
.like path{
	fill: black;
	transition:.3s ease;
}
.like:hover {
	cursor:pointer;
}
.like:hover path{
	fill: #297e14;
	transition:.3s ease;
}
.like:focus path{
	fill: #297e14;
	transition:.3s ease;
}
</style>
</svg>