<svg class="svg_soc" width="22" height="22" viewBox="0 0 22 22" fill="none" xmlns="http://www.w3.org/2000/svg">
<path d="M11 0C4.92525 0 0 4.92525 0 11C0 17.0748 4.92525 22 11 22C17.0748 22 22 17.0748 22 11C22 4.92389 17.0748 0 11 0ZM13.8435 10.9986L12.0409 11L12.0395 17.5999H9.56586V11H7.91588V8.72574L9.56586 8.72438L9.5631 7.38514C9.5631 5.5289 10.0663 4.40003 12.2512 4.40003H14.0717V6.67564H12.9332C12.0821 6.67564 12.0409 6.99326 12.0409 7.58587L12.0381 8.72438H14.0841L13.8435 10.9986Z" fill="white"/>
<style>
.svg_soc:hover{
	cursor: pointer;
	opacity: 1;
}
.svg_soc{
	cursor: pointer;
	opacity: 0.3;
}
</style>
</svg>
