<svg width="21" height="20" viewBox="0 0 21 20" fill="none" xmlns="http://www.w3.org/2000/svg">
<path d="M12.1905 1.15857C12.1003 1.01906 12.0714 0.924793 12.0714 0.924793L12.1144 0.885168C12.1144 0.885168 12.1979 0.919978 12.344 0.979968C12.4129 1.00753 12.4973 1.04137 12.594 1.07954C12.6893 1.11413 12.793 1.15446 12.9041 1.1815C12.9589 1.1985 13.0146 1.21542 13.0722 1.22192C13.1012 1.22576 13.1288 1.23375 13.1576 1.23906C13.186 1.241 13.2146 1.24193 13.243 1.24555C13.3578 1.26101 13.4633 1.24851 13.5791 1.24246C13.6327 1.22267 13.6924 1.2171 13.7508 1.19192C13.8043 1.16025 13.8742 1.14187 13.9239 1.10127C13.9502 1.08316 13.9775 1.0643 14.0068 1.04566C14.0373 1.02852 14.0696 1.01495 14.1019 0.979924L14.3064 0.807817C14.3083 0.805166 14.2944 0.825443 14.3011 0.815989L14.3025 0.814531L14.306 0.811439L14.3127 0.805652L14.3262 0.793592L14.3531 0.769428L14.4068 0.722293L14.508 0.626079C14.5716 0.560347 14.6517 0.509103 14.7159 0.445756C14.7791 0.3802 14.864 0.340088 14.9316 0.27652C15.0038 0.219446 15.0883 0.176684 15.1698 0.121332C15.341 0.0405798 15.5411 -0.019366 15.7202 0.00581389C15.7651 0.010629 15.8088 0.0176529 15.8517 0.0256044C15.8932 0.0371784 15.9322 0.0514911 15.9708 0.0659806C16.0499 0.0921324 16.118 0.129549 16.1821 0.166524C16.3103 0.240782 16.4122 0.326792 16.4937 0.409974C16.5746 0.493377 16.6355 0.574615 16.6793 0.645428C16.7252 0.714739 16.7517 0.775966 16.7704 0.8178C16.7859 0.860827 16.794 0.884019 16.794 0.884019L16.7511 0.92413C16.7511 0.92413 16.659 0.892942 16.5177 0.833703C16.4488 0.806182 16.3652 0.771637 16.2693 0.732939C16.1767 0.694728 16.0749 0.652673 15.9673 0.616184C15.9138 0.596349 15.8584 0.575808 15.8024 0.562246C15.774 0.555266 15.7461 0.54409 15.7175 0.535918C15.689 0.530131 15.6606 0.522842 15.6321 0.513432C15.5166 0.475707 15.3972 0.438511 15.2495 0.42305C15.1816 0.432017 15.1006 0.429102 15.03 0.458611C14.9621 0.493156 14.8841 0.519749 14.8295 0.581153C14.7746 0.640348 14.7119 0.692121 14.6734 0.767529L14.6173 0.879911L14.5916 0.936499L14.5791 0.964551L14.5729 0.97904L14.5698 0.985534L14.5684 0.988935L14.5674 0.9911C14.573 0.982883 14.5588 1.00418 14.5597 1.00294L14.4495 1.24661C14.4133 1.3252 14.3304 1.4139 14.2626 1.49196C14.1939 1.57704 14.1018 1.6259 14.0198 1.6926C13.934 1.75304 13.8293 1.78785 13.7334 1.83158C13.5293 1.89002 13.3161 1.90049 13.1367 1.85239C13.0451 1.83211 12.9608 1.80547 12.8865 1.76682C12.8087 1.73391 12.7416 1.69287 12.6785 1.6532C12.5529 1.56984 12.4533 1.48158 12.3746 1.39504C12.2943 1.31133 12.2347 1.22867 12.1905 1.15857ZM21 14.9817V20H0V14.9817H1.43046V9.34447L5.46151 6.50943V9.34447L9.49195 6.50943V9.34447L13.5232 6.50943V12.0818H14.9141L15.6694 2.22461H17.9748L18.636 12.0818H20.187V14.9821H21V14.9817H21ZM6.58291 12.8147H3.41368V15.7473H6.58291V12.8147ZM12.0439 12.8147H8.87462V15.7473H12.0439V12.8147ZM17.5736 12.8147H14.4044V15.7473H17.5736V12.8147Z" fill="#00B8F6"/>
</svg>
