<svg width="17" height="21" viewBox="0 0 17 21" fill="none" xmlns="http://www.w3.org/2000/svg">
<path d="M14.3236 1.77347C11.884 0.983 10.8699 1.10386e-07 10.8699 1.10386e-07L10.7882 0.0772088C10.0637 0.753657 9.26243 1.15133 8.53247 1.15133H8.46358C7.73366 1.15133 6.93238 0.753657 6.20788 0.0772088L6.12619 1.10386e-07C6.12619 1.10386e-07 5.11216 0.982957 2.6725 1.77347C-0.92887 3.10803 0.152486 8.53921 0.151445 8.58128C0.264872 9.18616 0.330983 9.39406 0.388587 9.4174C4.00515 11.0146 12.991 11.0146 16.6076 9.4174C16.6652 9.39406 16.7313 9.18616 16.8447 8.58128C16.8437 8.53921 17.9395 3.1296 14.3236 1.77347Z" transform="translate(0 10.3848)" fill="#ccc"/>
<path d="M7.70693 5.22938L7.67672 5.19687C7.47409 5.01283 7.48993 5.02338 7.48993 5.02338C7.48993 5.02338 7.84336 3.2543 7.55995 2.4177C7.11501 1.08164 4.45731 0.186185 3.92425 0.0821063C3.92433 0.0811158 3.60003 0.0167393 3.57932 0.0166102C3.57932 0.0166102 3.16003 -0.0674884 2.67407 0.142779C2.35758 0.263566 0.702965 1.00788 0.233325 2.4177C-0.0500473 3.2543 0.303387 5.02338 0.303387 5.02338C0.303387 5.02338 0.319231 5.01283 0.116556 5.19687L0.0863868 5.22938C-0.0506982 5.3838 -0.0168391 5.86695 0.133008 6.3696C0.268791 6.8732 0.445768 7.00854 0.488178 7.12649C0.918056 9.12871 2.41284 10.8382 3.9361 10.8382C5.45935 10.8382 6.87517 9.12871 7.30505 7.12649C7.34751 7.00859 7.52448 6.8732 7.66027 6.3696C7.81011 5.86691 7.84792 5.3506 7.70693 5.22938Z" transform="translate(4.57332)" fill="#ccc"/>
</svg>
