<svg width="14" height="20" viewBox="0 0 14 20" fill="none" xmlns="http://www.w3.org/2000/svg">
<path d="M13.4344 8.02001H12.4672V5.57931C12.4672 2.50288 10.0146 0 7.00012 0C3.98552 0 1.53289 2.50288 1.53289 5.57931V8.02001H0.5656C0.253183 8.02001 8.90913e-08 8.27839 8.90913e-08 8.59717V19.4228C8.90913e-08 19.7416 0.253183 20 0.5656 20H13.4345C13.7468 20 14 19.7416 14 19.4228V8.59717C14 8.27839 13.7468 8.02001 13.4344 8.02001ZM7.88185 14.6086V16.9133C7.88185 17.1146 7.72195 17.2778 7.52466 17.2778H6.4753C6.27805 17.2778 6.1181 17.1146 6.1181 16.9133V14.6086C5.7279 14.3263 5.47306 13.8621 5.47306 13.3369C5.47306 12.4764 6.15666 11.7786 6.99998 11.7786C7.8432 11.7786 8.52679 12.4764 8.52679 13.3369C8.52684 13.8621 8.27201 14.3263 7.88185 14.6086ZM9.85693 8.02001H4.14312V5.57931C4.14312 3.97166 5.42475 2.66381 7.00012 2.66381C8.57539 2.66381 9.85693 3.97166 9.85693 5.57931V8.02001Z" fill="#ccc"/>
</svg>
