<svg width="252" height="328" viewBox="0 0 252 328" fill="none" xmlns="http://www.w3.org/2000/svg">
<path d="M42.4063 98.6337C61.6096 54.6625 83.4023 25.5172 107.784 11.1977C132.166 -3.12175 160.352 -2.77911 192.343 12.2257C223.926 27.0397 242.759 48.4251 248.841 76.3816C254.865 104.473 249.078 139.414 231.48 181.205L209.588 231.332C190.621 274.762 169.006 303.501 144.742 317.55C120.478 331.599 92.2834 331.089 60.1577 316.021C28.303 301.08 9.31369 279.866 3.18961 252.379C-2.99356 225.027 2.98822 190.014 21.1349 147.34L42.4063 98.6337ZM57.5983 167.622C43.7128 199.417 38.0822 224.65 40.7062 243.323C43.2712 262.132 54.2457 276.082 73.6296 285.173C92.8779 294.202 110.069 293.544 125.202 283.2C140.335 272.856 154.596 252.73 167.984 222.821L194.219 162.749C208.164 130.82 213.866 105.049 211.325 85.4369C208.59 65.8967 197.801 51.7078 178.959 42.8702C160.389 34.1598 143.499 34.8773 128.289 45.0224C112.944 55.104 98.332 75.4731 84.4535 106.13L57.5983 167.622Z" fill="#F7F7F7"/>
</svg>
