<svg width="13" height="13" viewBox="0 0 13 13" fill="none" xmlns="http://www.w3.org/2000/svg"><path d="M10.954 13H8.071c-.11 0-.2-.088-.2-.197v-4.01H5.129v4.01c0 .109-.09.197-.2.197H2.045c-.11 0-.2-.088-.2-.197V6.261H.2a.196.196 0 1 1-.137-.34L6.361.054a.202.202 0 0 1 .275 0l6.3 5.867a.196.196 0 0 1-.137.34h-1.646v6.542c0 .109-.09.197-.2.197zm-2.683-.394h2.483V6.064c0-.109.09-.197.2-.197h1.344L6.499.468.702 5.867h1.343c.11 0 .2.088.2.197v6.542h2.484v-4.01c0-.109.09-.197.2-.197H8.07c.11 0 .2.088.2.197v4.01z" fill="#333"/></svg>