<svg width="175" height="210" viewBox="0 0 175 210" fill="none" xmlns="http://www.w3.org/2000/svg">
<path d="M93.9995 59.836C100.87 55.251 105 47.537 105 39.277V0H0V39.277C0 47.537 4.13 55.251 11.0005 59.836L43.617 83.7865C44.8 84.6545 45.5 86.0335 45.5 87.5C45.5 88.9665 44.8 90.3455 43.6205 91.2135L11.004 115.164C4.13 119.749 0 127.463 0 135.723V175H105V135.723C105 127.463 100.87 119.749 93.9995 115.164L61.383 91.2135C60.2 90.3455 59.5 88.9665 59.5 87.5C59.5 86.0335 60.2 84.6545 61.3795 83.7865L93.9995 59.836Z" transform="translate(35 17.5)" fill="#E6E6E6"/>
<path d="M140 0H0V14H140V0Z" transform="translate(17.5 192.5)" fill="#9E6C53"/>
<path d="M140 0H0V14H140V0Z" transform="translate(17.5 3.5)" fill="#9E6C53"/>
<path d="M171.5 0H157.5H3.5C1.568 0 0 1.5645 0 3.5C0 5.4355 1.568 7 3.5 7H157.5H171.5C173.432 7 175 5.4355 175 3.5C175 1.5645 173.432 0 171.5 0Z" transform="translate(0 203)" fill="#8A5336"/>
<path d="M3.5 7H157.5H171.5C173.432 7 175 5.4355 175 3.5C175 1.5645 173.432 0 171.5 0H157.5H3.5C1.568 0 0 1.5645 0 3.5C0 5.4355 1.568 7 3.5 7Z" fill="#8A5336"/>
<path d="M77.672 35.2383C81.634 32.5958 84 28.1753 84 23.4188C84 18.8478 80.8885 14.8613 76.454 13.7518L23.7685 0.581312C11.697 -2.43919 0 6.69231 0 19.1383V23.4188C0 28.1753 2.366 32.5958 6.328 35.2383L38.5 58.8493V114.419C38.5 127.124 25.326 135.545 13.797 130.207C7.588 127.334 0.0699981 131.586 0.00349808 138.429C0.00349808 138.478 0.00349808 138.523 0.00349808 138.572V159.138H84.0035V119.858C84.0035 119.809 84.0035 119.763 84.0035 119.714C83.937 112.956 77.392 108.087 70.735 109.246L63.5635 110.495C54.131 112.137 45.5 104.878 45.5 95.3088V58.8493L77.672 35.2383Z" transform="translate(45.5 33.3616)" fill="#EBBA16"/>
</svg>
