<svg class="social-svg" width="25" height="25" viewBox="0 0 22 22" fill="none" xmlns="http://www.w3.org/2000/svg">
<path d="M2.20124 4.40425C3.41485 4.40425 4.40426 3.41662 4.40426 2.20213C4.40426 1.72271 4.2474 1.28007 3.98776 0.918513C3.58765 0.363772 2.9372 3.98894e-07 2.20257 3.98894e-07C1.46749 3.98894e-07 0.817491 0.363329 0.416501 0.91807C0.155967 1.27963 0.000444578 1.72227 1.4945e-06 2.20168C-0.00132776 3.41618 0.987192 4.40425 2.20124 4.40425Z" transform="translate(8.79834 8.79785)" fill="white"/>
<path d="M2.12104 2.1206V0.274712V1.69023e-08L1.845 0.00088612L3.31285e-07 0.00664643L0.00708916 2.12769L2.12104 2.1206Z" transform="translate(13.6873 6.1853)" fill="white"/>
<path d="M11 0C4.93463 0 0 4.93463 0 11C0 17.0649 4.93463 22 11 22C17.0649 22 22 17.0649 22 11C22 4.93463 17.0658 0 11 0ZM17.2559 9.71639V14.8384C17.2559 16.1726 16.1712 17.2568 14.838 17.2568H7.16201C5.82832 17.2568 4.7441 16.1726 4.7441 14.8384V9.71639V7.16245C4.7441 5.82877 5.82832 4.74454 7.16201 4.74454H14.8375C16.1712 4.74454 17.2559 5.82877 17.2559 7.16245V9.71639Z" fill="white"/>
<path d="M8.45936 1.28361C8.45936 3.16982 6.92451 4.70555 5.03742 4.70555C3.15033 4.70555 1.61593 3.16982 1.61593 1.28361C1.61593 0.829896 1.70632 0.396117 1.8676 3.78612e-07H-9.80334e-08V5.12205C-9.80334e-08 5.78402 0.537461 6.32015 1.19898 6.32015H8.87453C9.53516 6.32015 10.0735 5.78402 10.0735 5.12205V3.78612e-07H8.20503C8.36764 0.396117 8.45936 0.829896 8.45936 1.28361Z" transform="translate(5.96252 9.71631)" fill="white"/>
<style>
  .social-svg {
    cursor: pointer;
  }
  .social-svg path {
    fill: #ccc;
    transition: .3s;
  }
  .social-svg:hover path {
    fill: #999;
  }
</style>
</svg>
