<svg width="72" height="72" viewBox="0 0 72 72" fill="none" xmlns="http://www.w3.org/2000/svg">
<path d="M4.49998 9.0023C6.98525 9.0023 8.99996 6.98707 8.99996 4.50115C8.99996 2.01523 6.98525 0 4.49998 0C2.01471 0 0 2.01523 0 4.50115C0 6.98707 2.01471 9.0023 4.49998 9.0023Z" transform="translate(46.6875 15.1904)" fill="#00AEE9"/>
<path d="M71.2232 23.3314C69.7213 19.5063 66.9673 13.9872 62.3758 9.41627C57.8006 4.86111 52.3414 2.18517 48.5673 0.742272C44.4239 -0.841711 39.7157 0.156701 36.5728 3.2857L25.5284 14.2812C22.2545 17.5404 21.3109 22.5556 23.1802 26.7606C23.7599 28.0648 24.3903 29.3405 25.0639 30.573L0.823778 54.8192C0.296296 55.3469 0 56.0624 0 56.8086V69.1868C0 70.7405 1.25915 72 2.81249 72H15.1874C16.7408 72 17.9999 70.7405 17.9999 69.1868V64.123L23.0624 64.1228C24.6157 64.1228 25.8749 62.8634 25.8749 61.3096V56.246H30.9374C32.4907 56.246 33.7499 54.9865 33.7499 53.4328C33.7499 51.879 32.4907 50.6195 30.9374 50.6195H23.0624C21.5091 50.6195 20.2499 51.879 20.2499 53.4328V58.4964L15.1874 58.4965C13.6341 58.4965 12.3749 59.756 12.3749 61.3098V66.3736H5.62498V57.9739L30.5654 33.0271C31.4817 32.1105 31.6534 30.6866 30.9814 29.5785C30.0067 27.9716 29.1114 26.2544 28.3203 24.4746C27.3924 22.387 27.8651 19.8933 29.4968 18.2688L40.541 7.27344C42.1179 5.70381 44.4801 5.20319 46.5595 5.99793C49.8251 7.24644 54.5315 9.54455 58.4079 13.404C62.3081 17.2868 64.6826 22.0641 65.9876 25.3879C66.8019 27.4624 66.3071 29.8191 64.7269 31.3923L53.5492 42.5206C51.9215 44.1408 49.4921 44.6146 47.3595 43.7274C45.6007 42.9957 43.8973 42.1264 42.297 41.1439C40.9733 40.3312 39.2414 40.7458 38.4289 42.07C37.6163 43.3942 38.0307 45.1266 39.3546 45.9393C41.2041 47.0747 43.1706 48.0784 45.1992 48.9223C49.4379 50.6861 54.273 49.7382 57.5172 46.5084L68.6949 35.3803C71.8652 32.224 72.8576 27.4946 71.2232 23.3314Z" fill="#00AEE9"/>
</svg>
