<svg width="14" height="15" viewBox="0 0 14 15" fill="none" xmlns="http://www.w3.org/2000/svg"><path d="M.42 4.802c-.295.392-.436.813-.418 1.246.018.476.222.85.391 1.079-.196.508-.271 1.308.383 1.929.478.455 1.292.659 2.418.602.792-.038 1.455-.191 1.482-.198h.003c.15-.028.31-.062.473-.1.012.2-.022.7-.377 1.823-.422 1.336-.397 2.358.078 3.042.5.719 1.298.775 1.533.775a.744.744 0 0 0 .582-.276c.334-.405.295-1.151.253-1.496.397-1.11 1.512-3.833 2.454-4.59.018-.012.033-.028.048-.043.277-.305.464-.634.59-.922.178.1.38.156.597.156h1.837C13.44 7.83 14 7.243 14 6.524V1.427c0-.721-.563-1.305-1.253-1.305H10.91c-.268 0-.518.088-.723.239L9.48.273a29.123 29.123 0 0 0-4.014-.23A12.96 12.96 0 0 0 4.455 0c-.538 0-1.008.044-1.4.132-.921.204-1.55.611-1.87 1.21A1.99 1.99 0 0 0 .98 2.544C.381 3.108.276 3.733.297 4.172c.012.254.066.47.123.63zM12.747.97a.45.45 0 0 1 .44.458v5.1a.45.45 0 0 1-.44.459H10.91a.45.45 0 0 1-.44-.458V1.43a.45.45 0 0 1 .44-.458h1.837V.97zM1.191 5.17a.435.435 0 0 0 .054-.51c0-.004-.123-.224-.138-.525-.021-.41.169-.775.566-1.085a.438.438 0 0 0 .139-.483c0-.003-.13-.417.08-.81.203-.376.651-.646 1.332-.796C3.77.837 4.51.816 5.42.89h.042c1.936-.043 3.894.22 3.915.224h.003l.304.037a1.382 1.382 0 0 0-.027.276v5.1c0 .135.021.267.057.39a2.66 2.66 0 0 1-.56 1.075C7.802 9.11 6.48 12.876 6.423 13.04a.413.413 0 0 0-.019.21c.052.351.034.78-.039.91-.16-.004-.59-.05-.849-.424-.307-.442-.295-1.233.036-2.28.506-1.597.548-2.438.148-2.808a.636.636 0 0 0-.657-.122 8.195 8.195 0 0 1-.524.11l-.039.009c-.925.21-2.581.339-3.156-.207-.488-.464-.142-1.08-.103-1.145a.432.432 0 0 0-.072-.546c-.003-.003-.32-.314-.334-.73-.012-.28.114-.565.376-.848z" fill="#333"/></svg>