<svg width="30" height="28" viewBox="0 0 30 28" fill="none" xmlns="http://www.w3.org/2000/svg"><path d="M29.95 8.35C29.512 3.51 26.1 0 21.831 0c-2.844 0-5.448 1.537-6.914 4-1.452-2.495-3.95-4-6.749-4C3.9 0 .488 3.51.05 8.349c-.035.213-.176 1.338.255 3.172.622 2.646 2.059 5.052 4.154 6.958L14.91 28l10.631-9.52c2.095-1.907 3.532-4.312 4.154-6.959.431-1.833.29-2.958.255-3.172zm-1.378 2.906c-.568 2.416-1.884 4.618-3.803 6.362l-9.852 8.824-9.683-8.821c-1.922-1.748-3.237-3.95-3.806-6.365-.408-1.736-.24-2.717-.24-2.723l.01-.059c.374-4.239 3.306-7.316 6.97-7.316 2.705 0 5.085 1.668 6.215 4.353l.531 1.264.532-1.264c1.111-2.644 3.618-4.352 6.386-4.352 3.664 0 6.596 3.077 6.979 7.371.001.01.169.99-.24 2.726z" fill="#333"/></svg>