<svg width="14" height="15" viewBox="0 0 14 15" fill="none" xmlns="http://www.w3.org/2000/svg"><path d="M.42 10.198c-.295-.392-.437-.813-.418-1.246.018-.476.222-.85.391-1.079-.196-.508-.271-1.308.382-1.929.48-.455 1.293-.659 2.419-.602.792.038 1.455.191 1.482.198h.003c.15.028.31.062.473.1.012-.2-.022-.7-.377-1.823-.422-1.336-.397-2.358.078-3.042C5.353.056 6.151 0 6.386 0c.226 0 .434.097.582.276.334.405.295 1.151.253 1.496.397 1.11 1.512 3.833 2.454 4.59.018.012.033.028.048.043.277.305.464.634.59.922.178-.1.38-.156.597-.156h1.837c.693 0 1.253.586 1.253 1.305v5.097c0 .721-.563 1.305-1.253 1.305H10.91c-.268 0-.518-.088-.723-.239l-.708.088c-.108.016-2.036.27-4.014.23a12.96 12.96 0 0 1-1.01.043c-.538 0-1.008-.044-1.4-.132-.921-.204-1.55-.611-1.87-1.21a1.99 1.99 0 0 1-.205-1.202c-.599-.564-.704-1.189-.683-1.628.012-.254.066-.47.123-.63zm12.327 3.833a.45.45 0 0 0 .44-.458v-5.1a.45.45 0 0 0-.44-.459H10.91a.45.45 0 0 0-.44.458v5.098a.45.45 0 0 0 .44.458h1.837v.003zM1.191 9.83c.127.138.15.348.054.51 0 .004-.123.224-.138.525-.021.41.168.774.566 1.085a.438.438 0 0 1 .139.483c0 .003-.13.417.08.81.203.376.651.646 1.332.796.545.123 1.286.144 2.196.07h.042c1.936.043 3.894-.22 3.915-.224h.003l.304-.037a1.382 1.382 0 0 1-.027-.276v-5.1c0-.135.021-.267.057-.39a2.66 2.66 0 0 0-.56-1.075C7.802 5.89 6.48 2.124 6.423 1.96a.413.413 0 0 1-.019-.21c.052-.351.034-.78-.039-.91-.16.004-.59.05-.849.424-.307.442-.295 1.233.036 2.28.506 1.597.548 2.438.148 2.808a.636.636 0 0 1-.657.122 8.195 8.195 0 0 0-.524-.11l-.039-.009c-.925-.21-2.581-.339-3.156.207-.488.464-.142 1.08-.103 1.145a.432.432 0 0 1-.072.546c-.003.003-.32.313-.334.73-.012.28.114.565.376.848z" fill="#333"/></svg>