<svg width="190" height="201" viewBox="0 0 190 201" fill="none" xmlns="http://www.w3.org/2000/svg">
<path d="M50.1887 0H0V129.214H50.1887V0Z" transform="translate(0 71.7858)" fill="#4B6DAA"/>
<path d="M14.3396 28.7143C22.2592 28.7143 28.6792 22.2864 28.6792 14.3571C28.6792 6.42791 22.2592 0 14.3396 0C6.42007 0 0 6.42791 0 14.3571C0 22.2864 6.42007 28.7143 14.3396 28.7143Z" transform="translate(10.7548 154.339)" fill="#D8A852"/>
<path d="M136.226 93.3214C136.226 85.3927 129.806 78.9643 121.887 78.9643H89.6227H78.8679H65.9551L69.497 62.3854C72.2 49.7367 71.4759 34.3207 69.8698 23.4919C68.2638 12.663 58.5774 0 48.4428 0H47.586C38.9464 0 35.8491 9.54391 35.8491 21.5357C35.8491 79.8616 7.16981 78.9643 7.16981 78.9643H0V193.821H53.7736H89.6227H103.962C111.881 193.821 118.302 187.393 118.302 179.464C118.302 171.536 111.881 165.107 103.962 165.107H114.717C122.636 165.107 129.057 158.679 129.057 150.75C129.057 142.821 122.636 136.393 114.717 136.393H125.472C133.391 136.393 139.811 129.964 139.811 122.036C139.811 113.088 134.029 109.681 125.472 108.411C121.302 107.79 113.728 107.679 111.132 107.679H121.887C129.806 107.679 136.226 101.25 136.226 93.3214Z" transform="translate(50.1887)" fill="#FBCE9D"/>
<path d="M48.8264 0H3.58491C1.60604 0 0 1.60441 0 3.58929C0 5.57416 1.60604 7.17857 3.58491 7.17857H51.8234C49.4681 5.73209 46.4891 4.83477 43.0189 4.3215C38.8496 3.70056 31.2747 3.58929 28.6792 3.58929H39.434C43.0475 3.58929 46.3062 2.20741 48.8264 0Z" transform="translate(132.641 104.089)" fill="#F7B563"/>
<path d="M52.4113 0H3.58491C1.60604 0 0 1.60441 0 3.58929C0 5.57416 1.60604 7.17857 3.58491 7.17857H41.6602C39.14 4.97116 35.8777 3.58929 32.2642 3.58929H43.0189C46.6325 3.58929 49.8911 2.20741 52.4113 0Z" transform="translate(132.641 132.803)" fill="#F7B563"/>
<path d="M48.8264 0H3.58491C1.60604 0 0 1.60441 0 3.58929C0 5.57416 1.60604 7.17857 3.58491 7.17857H38.0753C35.5551 4.97116 32.2928 3.58929 28.6792 3.58929H39.434C43.0476 3.58929 46.3062 2.20741 48.8264 0Z" transform="translate(125.472 161.518)" fill="#F7B563"/>
</svg>
