<svg width="224" height="224" viewBox="0 0 224 224" fill="none" xmlns="http://www.w3.org/2000/svg">
<rect width="224" height="224" fill="white"/>
<path d="M224 0H0V224H224V0Z" fill="#EDEADA"/>
<path d="M15.1741 0L19.8626 9.50069L30.3481 11.0262L22.763 18.4221L24.5512 28.8651L15.1741 23.9332L5.79697 28.8651L7.58897 18.4221L0 11.0262L10.4855 9.50069L15.1741 0Z" transform="translate(38.6207 38.6207)" fill="#EBBA16"/>
<path d="M15.1741 7.07166e-07L19.8626 9.50069L30.3481 11.0262L22.763 18.4221L24.5512 28.8651L15.1741 23.9332L5.79697 28.8651L7.58897 18.4221L0 11.0262L10.4855 9.50069L15.1741 7.07166e-07Z" transform="translate(38.6207 96.8723)" fill="#EBBA16"/>
<path d="M15.1741 3.77155e-06L19.8626 9.50455L30.3481 11.0262L22.763 18.4221L24.5512 28.8651L15.1741 23.9332L5.79697 28.8651L7.58897 18.4221L0 11.0262L10.4855 9.50455L15.1741 3.77155e-06Z" transform="translate(38.6207 156.514)" fill="#EBBA16"/>
<path d="M94.8949 7.72414H3.86207C1.73021 7.72414 3.30011e-06 5.99779 3.30011e-06 3.86207C3.30011e-06 1.72634 1.73021 0 3.86207 0H94.8949C97.0268 0 98.757 1.72634 98.757 3.86207C98.757 5.99779 97.0268 7.72414 94.8949 7.72414Z" transform="translate(82.7601 54.069)" fill="#7383BF"/>
<path d="M94.8949 7.72414H3.86207C1.73021 7.72414 3.30011e-06 5.99779 3.30011e-06 3.86207C3.30011e-06 1.72634 1.73021 0 3.86207 0H94.8949C97.0268 0 98.757 1.72634 98.757 3.86207C98.757 5.99779 97.0268 7.72414 94.8949 7.72414Z" transform="translate(82.7601 112)" fill="#7383BF"/>
<path d="M94.8949 7.72414H3.86207C1.73021 7.72414 3.30011e-06 5.99779 3.30011e-06 3.86207C3.30011e-06 1.72634 1.73021 0 3.86207 0H94.8949C97.0268 0 98.757 1.72634 98.757 3.86207C98.757 5.99779 97.0268 7.72414 94.8949 7.72414Z" transform="translate(82.7601 169.931)" fill="#7383BF"/>
</svg>
