<svg width="27" height="31" viewBox="0 0 27 31" fill="none" xmlns="http://www.w3.org/2000/svg">
<path fill-rule="evenodd" clip-rule="evenodd" d="M13.416 3.49805L7.20801 0L0.519043 3.76904L0.497559 3.78125L0 4.06152V26.2192L6.70898 29.9995L6.72705 30.0095L7.20801 30.2808L7.68896 30.0095L7.70703 29.9995L13.416 26.7827L19.624 30.2808L26.832 26.2192V11.6677V11.6143V4.66821V4.62231V4.06152L26.332 3.77979L26.3154 3.77051L19.624 0L13.416 3.49805ZM2 11.0574V6.35718L13.416 12.79L20.0952 9.02612C20.1089 9.0188 20.1226 9.01123 20.1362 9.00317L24.832 6.35718V11.0576L20.624 13.4287L19.1333 14.269L13.4165 17.4905L2 11.0574ZM19.624 6.99609L23.7949 4.646L19.624 2.29565L15.4531 4.64575L19.624 6.99609ZM13.416 5.7937L12.9253 5.51709L7.20801 2.29565L3.03711 4.64575L13.416 10.4944L17.5869 8.14404L13.416 5.7937ZM8.20801 27.4216L12.416 25.0505V19.2224L8.20801 16.8513V27.4216ZM6.20801 15.7244L2 13.3533V25.0505L6.20801 27.4216V15.7244ZM18.624 27.4216L14.416 25.0505V19.2224L18.624 16.8513V27.4216ZM24.832 13.3535L20.624 15.7249V27.4216L24.832 25.0505V13.3535Z" fill="white"/>
</svg>
