<svg width="70" height="43" viewBox="0 0 70 43" fill="none" xmlns="http://www.w3.org/2000/svg"><path d="M38.245 42.076c-.071.048-.024.036-.154.072l-.415.012c-5.941-.072-12.226 0-18.167 0-1.066 0-18.145.096-18.7-.036-.107-.563-.036-20.126-.036-20.63 0-.396-.06-19.755 0-20.319.035-.36-.048.192.023-.12 0-.012.024-.024.024-.048S.832.971.844.96L38.233.947v11.107c1.018 0 .828.42.828-2.099 0-1.487.048-9.296.012-9.644-.035-.335-.106-.275-.485-.275-3.409.036-6.948.012-10.345.012H1.814C.334.036.027-.168.004.37c-.013.24.011.54.011.792V43h39.07V32.385h-.84v9.691z" fill="#F0AE00"/><path d="M38.245 42.076H.832V.96C.82.971.808.983.808 1.007s-.012.036-.024.048c-.07.288.012-.252-.023.12-.06.564 0 19.923 0 20.319 0 .516-.071 20.079.035 20.63.557.132 17.636.036 18.7.036 5.954 0 12.239-.072 18.169 0l.414-.012c.142-.036.106-.024.166-.072z" fill="#F8D883"/><path d="M15.2 27.143l-3.61-8.36-.804 7.988h-.959l1.397-10.915 3.965 9.332 4.107-9.332 1.337 10.915h-.97l-.758-7.988-3.705 8.36zM26.208 22.897a2.315 2.315 0 0 0-.497-1.295c-.296-.36-.782-.552-1.456-.552-1.125 0-1.752.612-1.918 1.835l3.87.012zm1.018.732h-4.972c0 .696.178 1.307.521 1.835.332.54.864.804 1.61.804.876 0 1.574-.516 2.095-1.536l.793.444a4.33 4.33 0 0 1-1.042 1.32c-.402.347-1.018.527-1.822.527-.995 0-1.752-.335-2.297-1.02-.556-.67-.816-1.462-.816-2.374 0-1.056.26-1.895.793-2.53.532-.637 1.266-.936 2.249-.936.556 0 1.041.12 1.467.36.426.251.77.635 1.042 1.15.26.529.379 1.176.379 1.956zM33.404 23.689c0-.732-.178-1.356-.521-1.883-.343-.528-.911-.78-1.704-.78-.675 0-1.16.228-1.503.696-.344.468-.521 1.091-.521 1.847 0 .72.19 1.343.568 1.883.367.552.911.816 1.598.816.745 0 1.29-.252 1.61-.78a3.481 3.481 0 0 0 .473-1.8zM29.19 26.77h-.852V15.69h.852v5.9c.51-.923 1.231-1.379 2.19-1.379.84 0 1.562.288 2.13.888.557.588.84 1.451.84 2.59 0 .9-.248 1.668-.745 2.34-.52.671-1.255.995-2.19.995-1.03 0-1.763-.468-2.213-1.403l-.012 1.151zM40.091 22.897a2.314 2.314 0 0 0-.497-1.295c-.296-.36-.781-.552-1.456-.552-1.124 0-1.752.612-1.917 1.835l3.87.012zm1.03.732H36.15c0 .696.177 1.307.52 1.835.332.54.864.804 1.61.804.876 0 1.574-.516 2.095-1.536l.793.444a4.33 4.33 0 0 1-1.041 1.32c-.403.347-1.018.527-1.823.527-.994 0-1.752-.335-2.296-1.02-.557-.67-.817-1.462-.817-2.374 0-1.056.26-1.895.793-2.53.533-.637 1.266-.936 2.249-.936.556 0 1.041.12 1.467.36.427.251.77.635 1.042 1.15.249.529.379 1.176.379 1.956zM43.026 26.771h-.887V15.69h.887V26.77zM45.938 26.771h-1.361v-1.247h1.36v1.247zM52.519 26.22c.84 0 1.597-.204 2.296-.612a4.413 4.413 0 0 0 1.621-1.655c.403-.696.604-1.476.604-2.34 0-.755-.166-1.499-.497-2.206a4.447 4.447 0 0 0-1.539-1.787c-.686-.468-1.503-.696-2.462-.696-.686 0-1.384.168-2.083.504a4.454 4.454 0 0 0-1.763 1.571c-.462.708-.687 1.571-.687 2.555 0 .827.19 1.607.568 2.315a4.504 4.504 0 0 0 1.61 1.703c.71.432 1.48.648 2.332.648zm0 .827c-.97 0-1.87-.216-2.71-.647a4.921 4.921 0 0 1-2.037-1.884c-.508-.827-.757-1.823-.757-3.01 0-1.092.26-2.051.793-2.879a5.453 5.453 0 0 1 2.071-1.895 5.84 5.84 0 0 1 2.699-.672c.816 0 1.562.144 2.213.432.663.276 1.22.684 1.716 1.176a5.481 5.481 0 0 1 1.136 1.763c.273.695.403 1.403.403 2.159 0 1.08-.249 2.039-.746 2.866a5.044 5.044 0 0 1-2 1.908c-.84.455-1.764.683-2.781.683zM62.378 20.21c.225 0 .497.036.793.12l-.26.852c-.06-.024-.155-.048-.25-.072a3.064 3.064 0 0 0-.319-.012c-.556 0-1.018.252-1.373.768-.355.503-.532 1.103-.532 1.799v3.094h-.852v-6.333h.852v1.284c.343-.516.662-.888.935-1.128a1.475 1.475 0 0 1 1.006-.372zM69.124 21.638V20.45H70v6.19c0 2.218-.994 3.322-2.983 3.322-1.503 0-2.426-.66-2.781-1.991h1.089c.225.78.817 1.175 1.763 1.175.663 0 1.16-.204 1.539-.6.355-.383.533-.995.533-1.81v-1.092c-.51.935-1.243 1.391-2.214 1.391-.852 0-1.562-.3-2.106-.9-.58-.587-.853-1.45-.853-2.578 0-.924.249-1.703.77-2.363.509-.66 1.219-.984 2.178-.984 1.006.012 1.74.48 2.19 1.428zm-4.213 1.943c0 .72.177 1.343.532 1.871.343.54.912.804 1.693.804.674 0 1.171-.228 1.527-.72.33-.48.497-1.092.497-1.835 0-.72-.19-1.368-.568-1.895-.38-.54-.912-.804-1.598-.804-.746 0-1.279.252-1.598.768a3.451 3.451 0 0 0-.485 1.81z" fill="#2B2A29"/></svg>