<svg class="man" width="30" height="30" viewBox="0 0 30 30" xmlns="http://www.w3.org/2000/svg"><path class="man__first" d="M15 30C6.73 30 0 23.27 0 15S6.73 0 15 0s15 6.73 15 15-6.73 15-15 15zM15 .91C7.23.91.91 7.23.91 15S7.23 29.09 15 29.09 29.09 22.77 29.09 15 22.77.91 15 .91z"/><path class="man__second" d="M15 30c-3.123 0-6.124-.962-8.68-2.782a.454.454 0 1 1 .105-.796c3.769-1.396 4.377-2.528 4.377-4.7 0-.573-.13-.761-.362-1.103-.308-.449-.73-1.064-1.026-2.672-.044-.23-.081-.249-.288-.349-.55-.265-1.057-.647-1.19-2.389 0-.844.291-1.31.532-1.553a46.8 46.8 0 0 1-.22-1.38c-.412-2.525-.43-5.617 3.121-7.054 3.095-1.255 5.565-.57 6.34.248.55.017 1.966.16 2.951 1.307 1.516 1.764 1.034 5.785.868 6.875.242.237.536.697.536 1.523-.133 1.776-.64 2.159-1.191 2.423-.208.1-.245.117-.288.35-.296 1.606-.717 2.222-1.025 2.671-.234.341-.362.53-.362 1.104 0 2.17.608 3.303 4.377 4.699a.453.453 0 0 1 .106.796A14.892 14.892 0 0 1 15 30zm-7.44-3.044A13.965 13.965 0 0 0 15 29.09c2.646 0 5.2-.736 7.44-2.136-3.16-1.296-4.15-2.603-4.15-5.231 0-.856.252-1.226.52-1.618.276-.403.62-.905.883-2.323.126-.686.523-.877.786-1.003.283-.136.574-.276.676-1.64 0-.694-.312-.883-.325-.89a.484.484 0 0 1-.24-.488c.225-1.208.596-4.977-.62-6.392-.83-.965-2.137-.992-2.386-.982-.042-.003-.083-.004-.122-.014-.118-.03-.318-.133-.38-.239-.247-.423-2.4-1.275-5.372-.072C8.773 7.252 8.766 9.8 9.147 12.137c.126.87.263 1.622.264 1.626a.455.455 0 0 1-.257.494c.002 0-.309.19-.309.917.102 1.328.394 1.469.676 1.604.263.127.66.318.787 1.003.262 1.418.606 1.92.882 2.323.27.392.522.762.522 1.618 0 2.63-.992 3.938-4.151 5.233z"/></svg>