<svg width="14" height="14" viewBox="0 0 14 14" fill="none" xmlns="http://www.w3.org/2000/svg">
<rect width="14" height="14" fill="black" fill-opacity="0"/>
<rect width="14" height="14" fill="black" fill-opacity="0"/>
<path d="M12.6849 0H8.73975C8.0164 0 7.0062 0.418425 6.49477 0.929881L0.383571 7.04107C-0.127857 7.5525 -0.127857 8.38945 0.383571 8.90088L5.09914 13.6164C5.61057 14.1279 6.44747 14.1279 6.95892 13.6164L13.0701 7.50522C13.5816 6.99377 14 5.98353 14 5.26027V1.31507C14 0.59178 13.4082 0 12.6849 0ZM10.9375 4.37501C10.2126 4.37501 9.625 3.7874 9.625 3.06251C9.625 2.33764 10.2126 1.75001 10.9375 1.75001C11.6624 1.75001 12.25 2.33764 12.25 3.06251C12.25 3.78738 11.6624 4.37501 10.9375 4.37501Z" fill="#FF9900"/>
</svg>
