<svg class="mark_img" width="26" height="19" viewBox="0 0 26 19" fill="none" xmlns="http://www.w3.org/2000/svg">
<path d="M25.0398 0.934888C24.7381 0.638654 24.3791 0.403526 23.9835 0.243069C23.588 0.0826114 23.1637 -4.2749e-10 22.7352 -4.2749e-10C22.3067 -4.2749e-10 21.8824 0.0826114 21.4869 0.243069C21.0913 0.403526 20.7323 0.638654 20.4305 0.934888L9.75124 11.3647L5.56392 7.256C4.95269 6.66086 4.12368 6.32651 3.25927 6.32651C2.39486 6.32651 1.56585 6.66086 0.954618 7.256C0.343386 7.85115 0 8.65834 0 9.5C0 10.3417 0.343386 11.1489 0.954618 11.744L7.44659 18.0651C7.74835 18.3613 8.10736 18.5965 8.50291 18.7569C8.89847 18.9174 9.32273 19 9.75124 19C10.1798 19 10.604 18.9174 10.9996 18.7569C11.3951 18.5965 11.7541 18.3613 12.0559 18.0651L25.0398 5.42288C25.3441 5.12907 25.5856 4.7795 25.7504 4.39436C25.9152 4.00922 26 3.59612 26 3.17888C26 2.76165 25.9152 2.34855 25.7504 1.96341C25.5856 1.57826 25.3441 1.2287 25.0398 0.934888Z" fill="#FF9900"/>
<style>
	.mark path {
		fill: #FF9900;
	}
	.composition__card_none .mark path {
		fill: #999 !importnant;
	}
</style>
</svg>
