<svg width="10" height="10" viewBox="0 0 10 10" fill="none" xmlns="http://www.w3.org/2000/svg">
<path d="M4.52178 5.00153L0.0953553 9.45888C-0.0276183 9.58271 -0.0276183 9.78333 0.0953553 9.90716C0.156764 9.96916 0.237392 10 0.317864 10C0.398492 10 0.478964 9.96916 0.540373 9.90716L5.00008 5.4163L9.45978 9.90716C9.52135 9.96916 9.60182 10 9.68229 10C9.76276 10 9.84339 9.96916 9.9048 9.90716C10.0278 9.78333 10.0278 9.58271 9.9048 9.45888L5.47853 5.00153L9.90777 0.54104C10.0307 0.417208 10.0307 0.216589 9.90777 0.0927565C9.7848 -0.0309188 9.58557 -0.0309188 9.46275 0.0927565L5.00023 4.58677L0.537248 0.0929138C0.414274 -0.0307615 0.215204 -0.0307615 0.0922302 0.0929138C-0.0307434 0.216747 -0.0307434 0.417365 0.0922302 0.541198L4.52178 5.00153Z" fill="#333333"/>
</svg>
