<svg width="16" height="16" viewBox="0 0 16 16" fill="none" xmlns="http://www.w3.org/2000/svg">
<path d="M7.23485 8.00245L0.152568 15.1342C-0.0441892 15.3323 -0.0441892 15.6533 0.152568 15.8515C0.250822 15.9507 0.379827 16 0.508582 16C0.637587 16 0.766342 15.9507 0.864596 15.8515L8.00012 8.66608L15.1357 15.8515C15.2342 15.9507 15.3629 16 15.4917 16C15.6204 16 15.7494 15.9507 15.8477 15.8515C16.0444 15.6533 16.0444 15.3323 15.8477 15.1342L8.76565 8.00245L15.8524 0.865664C16.0492 0.667532 16.0492 0.346543 15.8524 0.14841C15.6557 -0.0494701 15.3369 -0.0494701 15.1404 0.14841L8.00037 7.33882L0.859596 0.148662C0.662838 -0.0492184 0.344326 -0.0492184 0.147568 0.148662C-0.0491894 0.346794 -0.0491894 0.667784 0.147568 0.865916L7.23485 8.00245Z" fill="#666666"/>
</svg>
