<svg width="12" height="20" viewBox="0 0 12 20" fill="none" xmlns="http://www.w3.org/2000/svg">
<rect width="12" height="20" fill="white"/>
<path d="M8.18542 14.5339C9.28904 14.2923 10.3433 13.8722 11.3015 13.2922C12.0234 12.8272 12.2173 11.8872 11.7343 11.1921C11.2704 10.5238 10.3459 10.3221 9.62662 10.7313C7.41938 12.0605 4.61488 12.0605 2.40764 10.7313C1.67449 10.2863 0.706761 10.4979 0.243673 11.2021C0.243673 11.2038 0.243673 11.2055 0.241942 11.2063C-0.220281 11.9122 -0.000422546 12.8447 0.732729 13.2897L0.73446 13.2914C1.69093 13.8706 2.74435 14.2914 3.84711 14.5314L0.847851 17.4191C0.235882 17.9982 0.22463 18.9441 0.823615 19.5333L0.849583 19.5583C1.14734 19.8533 1.55071 20 1.95234 20C2.35484 20 2.75733 19.8533 3.05596 19.5583L6.01713 16.7215L8.96358 19.56C9.5868 20.1392 10.5822 20.1233 11.1847 19.5225C11.7715 18.9366 11.7715 18.0074 11.1847 17.4224L8.18542 14.5339V14.5339ZM6.01713 10.3238C8.97743 10.3204 11.3751 8.012 11.3794 5.16272C11.3794 2.31676 8.9731 0 6.01713 0C3.06115 0 0.654826 2.31676 0.654826 5.16438C0.659154 8.0145 3.05769 10.3229 6.01713 10.3246V10.3238ZM6.01713 3.02596C7.2428 3.02763 8.23563 3.98433 8.23649 5.16355C8.23649 6.3436 7.2428 7.29947 6.01713 7.30114C4.79233 7.29947 3.7995 6.34443 3.7969 5.16438C3.79863 3.9835 4.79233 3.02763 6.01713 3.02513V3.02596Z" fill="#F4731C"/>
</svg>
