<svg width="16" height="21" viewBox="0 0 16 21" fill="none" xmlns="http://www.w3.org/2000/svg">
<path d="M3.59 4.41C2.81 3.63 2.81 2.36 3.59 1.58C4.37 0.799995 5.64 0.799995 6.42 1.58C7.2 2.36 7.2 3.63 6.42 4.41C5.63 5.2 4.37 5.2 3.59 4.41ZM2 15V6H0V15C0 17.76 2.24 20 5 20H11V18H5C3.34 18 2 16.66 2 15ZM16 19.07L10.93 14H7.5V10.32C8.9 11.47 11.1 12.48 13 12.48V10.32C11.34 10.34 9.39 9.44999 8.33 8.27999L6.93 6.73C6.74 6.52 6.5 6.35 6.24 6.23C5.95 6.09 5.62 6 5.28 6H5.25C4.01 6 3 7.01 3 8.25V14C3 15.66 4.34 17 6 17H11.07L14.57 20.5L16 19.07Z" fill="#FF9900"/>
</svg>
