<svg width="11" height="19" viewBox="0 0 11 19" fill="none" xmlns="http://www.w3.org/2000/svg">
<path d="M6.18698 0.825422C6.03874 0.231523 5.47003 -0.120942 4.91675 0.0382205C4.36346 0.197346 4.03513 0.807795 4.18337 1.40169L5.82014 8.00371V8.00442C5.44127 6.61849 4.24609 5.60351 2.83404 5.60351C1.72695 5.60351 0.694495 6.24298 0.139618 7.27232C-0.147258 7.80451 0.0221434 8.48554 0.517903 8.79347C1.01366 9.10141 1.64816 8.91961 1.93503 8.38742C2.12034 8.04364 2.46481 7.83008 2.834 7.83008C3.40589 7.83008 3.87116 8.32949 3.87116 8.94336C3.87116 9.55722 3.40589 10.0566 2.834 10.0566C2.46481 10.0566 2.12034 9.84307 1.93503 9.49929C1.64816 8.96711 1.01363 8.78531 0.517903 9.09324C0.0221088 9.40118 -0.147258 10.0822 0.139618 10.6144C0.694495 11.6438 1.72695 12.2832 2.83404 12.2832H3.31739L4.99775 19H10.725L6.18698 0.825422Z" fill="white"/>
</svg>
