<svg width="75" height="80" viewBox="0 0 75 80" fill="none" xmlns="http://www.w3.org/2000/svg">
<path d="M22.7311 1.36488C21.6393 0.948135 19.2749 0.138916 18.1372 3.49852e-07L14.7539 4.82295L11.5945 0.316944C9.78479 0.408655 9.07627 0.250858 7.12885 0.962971C3.84673 2.16601 1.38513 10.5091 0.229907 13.7972C-0.925316 17.0853 2.52011 19.134 5.05998 19.8151H16.928C18.4368 19.8151 19.6649 18.5878 19.6649 17.0799C19.6649 15.5721 18.4368 14.3448 16.928 14.3448H16.9186H14.9617H7.87786V13.1363H14.9617V12.3757L12.2923 8.19604H19.4247L19.4355 8.20009L16.9186 12.4215V13.135H16.928C19.1048 13.135 20.8741 14.9045 20.8741 17.0786C20.8741 19.254 19.1035 21.0222 16.928 21.0222H7.01684L6.60792 59.8485C6.60792 62.322 8.61607 64.3289 11.0939 64.3289C13.5703 64.3289 13.9428 62.322 13.9428 59.8485L15.1695 39.4777C15.1695 39.4777 14.7822 38.0346 15.5137 37.9241C16.2451 37.8135 16.0157 39.2309 16.0157 39.2309L16.8025 60.3623C16.986 62.4488 18.8633 64.4004 20.9524 64.2183C23.0415 64.0335 24.5503 61.7839 24.3681 59.6974L23.5193 14.7898C23.5408 14.4675 23.5557 14.1438 23.5759 13.8228C25.2049 17.1946 25.6354 20.8886 25.4154 25.3798C25.159 30.6505 33.34 30.6276 33.5964 25.3798C34.0445 16.2248 30.9553 8.82858 24.4491 2.41956C23.9133 1.89222 23.3276 1.5537 22.7311 1.36488Z" transform="translate(0 15)" fill="#333333"/>
<path d="M6.54401 13.0797C10.1582 13.0797 13.088 10.1517 13.088 6.53984C13.088 2.92799 10.1582 0 6.54401 0C2.92985 0 0 2.92799 0 6.53984C0 10.1517 2.92985 13.0797 6.54401 13.0797Z" transform="translate(8.75488)" fill="#333333"/>
<path d="M1.93527 0.565104H1.44943C1.41029 0.24816 1.10529 3.49852e-07 0.728763 3.49852e-07C0.326594 3.49852e-07 6.07483e-07 0.281878 6.07483e-07 0.629842V1.47278C6.07483e-07 1.82074 0.325244 2.10262 0.728763 2.10262C1.12013 2.10262 1.43728 1.83288 1.45348 1.4984H1.92987C1.94606 1.83423 2.26321 2.10262 2.65593 2.10262C3.05675 2.10262 3.38469 1.82074 3.38469 1.47278V0.629842C3.38469 0.283227 3.0581 3.49852e-07 2.65593 3.49852e-07C2.27806 3.49852e-07 1.97306 0.24816 1.93527 0.565104Z" transform="translate(12.8921 14.6711)" fill="#333333"/>
<path d="M1.76387 0.544875C1.32932 1.77084 -1.75037e-07 0.95353 -1.75037e-07 0.95353L1.27803 2.6394H2.60735L3.52775 0.544875C3.52775 0.544875 2.19843 -0.681092 1.76387 0.544875Z" transform="translate(14.252 23.7344)" fill="#333333"/>
<path d="M39.1656 13.7972C38.0118 10.5091 35.5488 2.16601 32.2667 0.962971C30.3206 0.249509 29.6108 0.407307 27.7997 0.316944L24.6417 4.82295L21.257 3.49852e-07C19.8292 0.173982 16.4688 1.40534 16.1152 1.58877V1.59012C15.7872 1.69127 15.4458 1.83962 15.0909 2.05407C12.8425 3.4149 8.75603 5.50134 6.12843 4.30235C4.1014 3.37579 1.74237 3.70487 0.533162 5.76973C-0.507349 7.54597 -0.0282552 10.4349 2.00013 11.3614C6.73304 13.5247 10.8762 12.6602 15.1111 10.4969C15.1664 14.0251 15.022 59.6974 15.022 59.6974C14.8398 61.7839 16.3486 64.0335 18.4378 64.2183C20.5282 64.4004 22.4041 62.4488 22.5877 60.3623L23.3745 39.2309C23.3745 39.2309 23.145 37.8135 23.8751 37.9241C24.608 38.0346 24.2206 39.4777 24.2206 39.4777L25.4474 59.8485C25.4474 62.322 25.8199 64.3289 28.2949 64.3289C30.7727 64.3289 32.7809 62.322 32.7809 59.8485L32.3706 21.0235H22.4595C20.2826 21.0235 18.512 19.254 18.512 17.0799C18.512 14.9058 20.2826 13.1363 22.4595 13.1363H22.4689V12.4215L19.9493 8.19469H27.0952L24.4258 12.3743V13.135H31.5069V14.3434H24.4258H22.4689H22.4595C20.9506 14.3434 19.7225 15.5707 19.7225 17.0786C19.7225 18.5864 20.9506 19.8137 22.4595 19.8137H34.3288C36.8754 19.1326 40.3209 17.0853 39.1656 13.7972Z" transform="translate(35.604 14.6711)" fill="#333333"/>
<path d="M6.54401 13.0797C10.1582 13.0797 13.088 10.1517 13.088 6.53984C13.088 2.92799 10.1582 0 6.54401 0C2.92985 0 0 2.92799 0 6.53984C0 10.1517 2.92985 13.0797 6.54401 13.0797Z" transform="translate(53.1572)" fill="#333333"/>
<path d="M1.93257 0.565104H1.44673C1.41029 0.24816 1.10394 3.49852e-07 0.727413 3.49852e-07C0.326594 3.49852e-07 -1.56504e-06 0.281878 -1.56504e-06 0.629842V1.47278C-1.56504e-06 1.82074 0.326594 2.10262 0.727413 2.10262C1.12013 2.10262 1.43593 1.83288 1.45212 1.4984H1.92987C1.94606 1.83423 2.26051 2.10262 2.65323 2.10262C3.05675 2.10262 3.38065 1.82074 3.38065 1.47278V0.629842C3.38065 0.283227 3.05675 3.49852e-07 2.65323 3.49852e-07C2.2767 3.49852e-07 1.97036 0.24816 1.93257 0.565104Z" transform="translate(58.7271 14.6711)" fill="#333333"/>
<path d="M1.76387 0.544875C1.32932 -0.681092 2.05926e-06 0.544875 2.05926e-06 0.544875L0.9204 2.6394H2.24837L3.5264 0.95353C3.52775 0.954879 2.19843 1.77219 1.76387 0.544875Z" transform="translate(57.2207 23.7344)" fill="#333333"/>
</svg>
