<svg width="73" height="73" viewBox="0 0 73 73" fill="none" xmlns="http://www.w3.org/2000/svg">
<rect width="73" height="73" fill="white"/>
<path d="M36.5 0C16.3739 0 0 16.3739 0 36.5C0 56.6261 16.3739 73 36.5 73C56.6261 73 73 56.6261 73 36.5C73 16.3739 56.6261 0 36.5 0ZM36.5 70.5667C17.7159 70.5667 2.43333 55.2841 2.43333 36.5C2.43333 17.7159 17.7159 2.43333 36.5 2.43333C55.2841 2.43333 70.5667 17.7159 70.5667 36.5C70.5667 55.2841 55.2841 70.5667 36.5 70.5667Z" fill="#333333"/>
<path d="M20.6833 0C20.0117 0 19.4667 0.54385 19.4667 1.21667V29.2H1.21667C0.545067 29.2 0 29.7438 0 30.4167C0 31.0895 0.545067 31.6333 1.21667 31.6333H20.6833C21.3549 31.6333 21.9 31.0895 21.9 30.4167V1.21667C21.9 0.54385 21.3549 0 20.6833 0Z" transform="translate(15.8164 7.30029)" fill="#333333"/>
</svg>
