<svg width="80" height="80" viewBox="0 0 80 80" fill="none" xmlns="http://www.w3.org/2000/svg">
<path d="M80 41.5127C80 62.7329 63.2958 80 42.7573 80C22.282 80 5.62068 62.8332 5.52595 41.6945H0L8.27539 28.8608L16.5508 41.6945H11.7308C11.8255 59.2949 25.7036 73.5855 42.7551 73.5855C59.8675 73.5855 73.7906 59.1994 73.7906 41.5127C73.7906 23.8261 59.8675 9.44001 42.7551 9.44001C41.0387 9.44001 39.6515 8.00187 39.6515 6.23041C39.6515 4.45895 41.0387 3.02546 42.7551 3.02546C63.2936 3.0278 80 20.2925 80 41.5127ZM42.7618 65.3901C30.0228 65.3901 19.6566 54.6798 19.6566 41.5127C19.6566 40.9207 19.1942 40.4429 18.6213 40.4429C18.0507 40.4429 17.5883 40.9207 17.5883 41.5127C17.5883 55.8569 28.8816 67.5299 42.7618 67.5299C56.6376 67.5299 67.9331 55.8569 67.9331 41.5127C67.9331 27.1732 56.6376 15.4956 42.7618 15.4956C42.1912 15.4956 41.7288 15.9781 41.7288 16.5678C41.7288 17.1598 42.1912 17.6377 42.7618 17.6377C55.4963 17.6377 65.8626 28.3503 65.8626 41.5104C65.8626 54.6798 55.4963 65.3901 42.7618 65.3901ZM30.8123 57.1225C31.419 57.7519 32.2129 58.0596 33.0068 58.0596C33.8008 58.0596 34.5947 57.7449 35.2014 57.1225L44.9542 47.0439C45.5384 46.4425 45.8631 45.6314 45.8631 44.776V26.6348C45.8631 24.861 44.4738 23.4252 42.7596 23.4252C41.0432 23.4252 39.656 24.861 39.656 26.6348V43.445L30.8145 52.582C29.6033 53.836 29.6033 55.8662 30.8123 57.1225ZM7.24464 15.5003C7.24464 6.93666 13.9615 2.22289e-09 22.2436 2.22289e-09C30.5258 2.22289e-09 37.2427 6.94365 37.2427 15.5003C37.2427 24.0569 30.5258 31.0005 22.2436 31.0005C13.9615 31.0005 7.24464 24.0592 7.24464 15.5003ZM11.8075 15.7194L18.504 22.6374C18.9078 23.0569 19.4378 23.269 19.9656 23.269C20.4956 23.269 21.0257 23.0593 21.4294 22.6374L32.6482 11.0413C33.4557 10.2069 33.4557 8.85496 32.6482 8.01818C31.8408 7.1814 30.5303 7.18373 29.7229 8.01818L19.9656 18.0968L14.7329 12.6939C13.9254 11.8618 12.6127 11.8618 11.8075 12.6939C10.9978 13.533 10.9978 14.8849 11.8075 15.7194Z" fill="#333333"/>
</svg>
