<svg width="76" height="76" viewBox="0 0 76 76" fill="none" xmlns="http://www.w3.org/2000/svg">
<path d="M54.1211 32.2268H53.2834C52.783 32.2268 52.3774 32.6297 52.3774 33.1267C52.4857 39.4502 57.6209 44.5507 63.9876 44.6582C70.5108 44.7684 75.8889 39.6056 76 33.1267C76 32.6316 75.5959 32.2302 75.0974 32.2302H74.2631L69.767 20.2392L65.0999 7.82721C65.0585 7.18674 64.7838 6.58329 64.3272 6.12926C63.824 5.6304 63.1404 5.35279 62.4295 5.35839H45.6007C44.79 3.06361 42.9731 1.25902 40.6626 0.453853C36.4611 -1.01046 31.86 1.1855 30.3856 5.35839H13.5568C12.8536 5.35975 12.1797 5.63821 11.6831 6.13265C11.2253 6.58618 10.9494 7.1898 10.907 7.83061L6.23988 20.2392L1.73349 32.2302H0.899226C0.408584 32.2319 0.00923161 32.6226 9.13001e-09 33.1097C0.108386 39.4332 5.24355 44.5337 11.6103 44.6412C18.1334 44.7514 23.5115 39.5886 23.6226 33.1097C23.6226 32.6127 23.217 32.2098 22.7166 32.2098H21.8789L17.3759 20.2392L13.7653 10.639H30.3788C30.7799 11.7739 31.4331 12.8046 32.2901 13.6546L32.4371 13.7972V64.678H19.8787C17.0451 64.6925 14.6483 66.7628 14.2406 69.5478C13.6792 69.6977 13.1675 69.9916 12.7567 70.4001C12.1325 71.017 11.7826 71.8561 11.7847 72.7308C11.7889 74.5406 13.2697 76.0042 15.092 76H60.9251C61.8001 75.9996 62.639 75.6539 63.257 75.0389C63.2614 75.0345 63.266 75.03 63.2705 75.0255C64.5499 73.7473 64.5439 71.6811 63.257 70.4103C62.8458 70.0021 62.3343 69.7084 61.7731 69.558C61.3693 66.7638 58.9634 64.6865 56.1213 64.678H43.5492V13.7972L43.6962 13.6546C44.5532 12.8046 45.2065 11.7739 45.6075 10.639H62.2347L58.6241 20.2392L54.1211 32.2268ZM12.7317 42.976C7.23005 43.4827 2.35662 39.4638 1.84649 33.9994H11.7995H11.8064H21.7697C21.3248 38.7622 17.5269 42.5344 12.7317 42.976ZM15.6766 20.8573L19.9539 32.2098H3.66187L7.92892 20.8641L11.8062 10.5541L15.6766 20.8573ZM29.9788 8.82561H13.567C13.3653 8.82595 13.1702 8.75497 13.0166 8.62525L12.7259 7.85438C12.7531 7.67677 12.8371 7.51241 12.9653 7.38574C13.1251 7.228 13.3417 7.14005 13.567 7.14124H29.9788L29.9856 7.14803C29.9788 7.23632 29.9685 7.32462 29.9548 7.43668V7.71175V7.91211V8.11926V8.28905V8.55054C29.9617 8.64223 29.9788 8.73392 29.9788 8.82561ZM60.908 71.2457C61.3048 71.2462 61.6852 71.404 61.9645 71.6838C62.548 72.2633 62.548 73.203 61.9645 73.7825C61.6845 74.0611 61.3043 74.2175 60.908 74.2171H15.092C14.3211 74.1805 13.7045 73.568 13.6676 72.8024C13.6281 71.982 14.2657 71.2849 15.092 71.2457H60.908ZM56.1213 66.4745C57.9112 66.4954 59.4592 67.7184 59.8823 69.4459H16.1177C16.5408 67.7184 18.0888 66.4954 19.8787 66.4745H56.1213ZM34.2116 64.6645V15.0843C35.1668 15.5824 36.2135 15.884 37.2888 15.9706H38.6565C39.7318 15.8842 40.7785 15.5826 41.7337 15.0843L41.6926 64.6645H34.2116ZM44.2159 7.59968V7.67779V7.81363V8.13284V8.29245V8.37055C44.1912 8.73816 44.1339 9.10288 44.045 9.46064C43.3865 11.9953 41.1986 13.848 38.5744 14.0927H37.4427C36.1653 13.9791 34.9544 13.4761 33.9757 12.6528L33.9347 12.6188C33.8138 12.5192 33.7 12.4163 33.5928 12.3098C32.5219 11.2482 31.8765 9.83606 31.7772 8.3366V8.25849V8.09888V7.77967V7.62006V7.54195V7.51818C31.803 7.15618 31.8603 6.79723 31.9482 6.44508C32.2272 5.37231 32.79 4.39327 33.5784 3.60967C36.0183 1.18448 39.9756 1.18278 42.4175 3.6061C43.4813 4.66936 44.1204 6.08002 44.2159 7.57591V7.59968ZM74.1434 33.996C73.6988 38.7588 69.9008 42.531 65.1055 42.9726C59.6038 43.4793 54.7304 39.4604 54.2203 33.996H73.7092H74.1434ZM46.0247 8.83919C46.0486 8.7475 46.0486 8.65581 46.0486 8.56412V8.30264V8.10228V7.89513V7.69477V7.4197C46.0247 7.33141 46.0247 7.24651 46.0247 7.15822H62.4364C62.6617 7.15703 62.8783 7.24498 63.0381 7.40272C63.1664 7.52939 63.2503 7.69375 63.2775 7.87136L62.9869 8.64223C62.8327 8.77059 62.6376 8.84055 62.4364 8.83919H46.0247ZM64.1904 10.5541L68.0711 20.8641L72.3381 32.2098H56.0461L60.3131 20.8641L64.1904 10.5541Z" fill="#333333"/>
</svg>
