<svg width="24" height="24" viewBox="0 0 24 24" fill="none" xmlns="http://www.w3.org/2000/svg">
<path d="M12 0C5.38338 0 0 5.38292 0 12C0 18.6171 5.38338 24 12 24C18.6166 24 24 18.6171 24 12C24 5.38292 18.6166 0 12 0ZM12 23.0769C5.89246 23.0769 0.923077 18.1075 0.923077 12C0.923077 5.89246 5.89246 0.923077 12 0.923077C18.1075 0.923077 23.0769 5.89246 23.0769 12C23.0769 18.1075 18.1075 23.0769 12 23.0769Z" fill="#9AA0A4"/>
<path d="M12 5.53846H6.69231V0.461538C6.69231 0.206308 6.48554 0 6.23077 0C5.976 0 5.76923 0.206308 5.76923 0.461538V5.53846H0.461538C0.206769 5.53846 0 5.74477 0 6C0 6.25523 0.206769 6.46154 0.461538 6.46154H5.76923V12C5.76923 12.2552 5.976 12.4615 6.23077 12.4615C6.48554 12.4615 6.69231 12.2552 6.69231 12V6.46154H12C12.2548 6.46154 12.4615 6.25523 12.4615 6C12.4615 5.74477 12.2548 5.53846 12 5.53846Z" transform="translate(5.76953 6)" fill="#9AA0A4"/>
</svg>
