<svg class="pa-pass" width="16" height="11" viewBox="0 0 16 11" fill="none" xmlns="http://www.w3.org/2000/svg">
<path d="M8 3.27273C8.57865 3.27273 9.13361 3.5026 9.54278 3.91177C9.95195 4.32094 10.1818 4.87589 10.1818 5.45455C10.1818 6.0332 9.95195 6.58815 9.54278 6.99732C9.13361 7.40649 8.57865 7.63636 8 7.63636C7.42135 7.63636 6.86639 7.40649 6.45722 6.99732C6.04805 6.58815 5.81818 6.0332 5.81818 5.45455C5.81818 4.87589 6.04805 4.32094 6.45722 3.91177C6.86639 3.5026 7.42135 3.27273 8 3.27273ZM8 0C11.6364 0 14.7418 2.26182 16 5.45455C14.7418 8.64727 11.6364 10.9091 8 10.9091C4.36364 10.9091 1.25818 8.64727 0 5.45455C1.25818 2.26182 4.36364 0 8 0ZM1.58545 5.45455C2.78545 7.89818 5.26545 9.45455 8 9.45455C10.7345 9.45455 13.2145 7.89818 14.4145 5.45455C13.2145 3.01091 10.7345 1.45455 8 1.45455C5.26545 1.45455 2.78545 3.01091 1.58545 5.45455Z" fill="#9AA0A4"/>
<style>
  .pa-pass {
    cursor: pointer;
    transition: .3s;
  }
  .pa-pass path {
    transition: .3s;  
  }
  .pa-pass:hover path{
    fill: #2D475A;
  }
</style>
</svg>
