<svg width="14" height="14" viewBox="0 0 14 14" fill="none" xmlns="http://www.w3.org/2000/svg">
<path d="M12.7273 10.1818H3.81818V1.27273H12.7273V10.1818ZM12.7273 0H3.81818C3.48063 0 3.15691 0.134091 2.91823 0.372773C2.67954 0.611456 2.54545 0.935179 2.54545 1.27273V10.1818C2.54545 10.5194 2.67954 10.8431 2.91823 11.0818C3.15691 11.3205 3.48063 11.4545 3.81818 11.4545H12.7273C13.0648 11.4545 13.3885 11.3205 13.6272 11.0818C13.8659 10.8431 14 10.5194 14 10.1818V1.27273C14 0.935179 13.8659 0.611456 13.6272 0.372773C13.3885 0.134091 13.0648 0 12.7273 0ZM1.27273 2.54545H0V12.7273C0 13.0648 0.134091 13.3885 0.372773 13.6272C0.611456 13.8659 0.935179 14 1.27273 14H11.4545V12.7273H1.27273V2.54545ZM9.52 5.91182L7.77 8.16455L6.52273 6.66273L4.77273 8.90909H11.7727L9.52 5.91182Z" fill="#9AA0A4"/>
</svg>
