<svg width="16" height="23" viewBox="0 0 16 23" fill="none" xmlns="http://www.w3.org/2000/svg">
  <path
    d="M8 17.7727C6.4087 17.7727 4.88258 17.1119 3.75736 15.9355C2.63214 14.7591 2 13.1636 2 11.5C2 10.4545 2.25 9.44045 2.7 8.57273L1.24 7.04636C0.46 8.33227 0 9.85864 0 11.5C0 13.7182 0.842855 15.8455 2.34315 17.414C3.84344 18.9825 5.87827 19.8636 8 19.8636V23L12 18.8182L8 14.6364V17.7727ZM8 3.13636V0L4 4.18182L8 8.36364V5.22727C9.5913 5.22727 11.1174 5.88815 12.2426 7.06451C13.3679 8.24088 14 9.83637 14 11.5C14 12.5455 13.75 13.5595 13.3 14.4273L14.76 15.9536C15.54 14.6677 16 13.1414 16 11.5C16 9.28183 15.1571 7.1545 13.6569 5.58602C12.1566 4.01753 10.1217 3.13636 8 3.13636Z"
    fill="#2D475A"/>
</svg>
