<svg width="83" height="94" viewBox="0 0 83 94" fill="none" xmlns="http://www.w3.org/2000/svg">
<path d="M0 18.9005C0 13.291 1.81112 8.74905 5.43335 5.27455C9.05559 1.75818 13.802 0 19.6725 0C25.6263 0 30.4143 1.73725 34.0365 5.21176C37.6588 8.6444 39.4699 13.312 39.4699 19.2144V23.7355C39.4699 29.3868 37.6588 33.9287 34.0365 37.3614C30.4143 40.794 25.6679 42.5104 19.7974 42.5104C13.8852 42.5104 9.09722 40.794 5.43335 37.3614C1.81112 33.8869 0 29.2193 0 23.3587V18.9005ZM11.9908 23.7355C11.9908 26.2472 12.6986 28.2774 14.1142 29.8263C15.5714 31.3333 17.4658 32.0868 19.7974 32.0868C22.1289 32.0868 23.9817 31.3124 25.3556 29.7635C26.7296 28.2147 27.4166 26.1425 27.4166 23.5471V18.9005C27.4166 16.3888 26.7296 14.3585 25.3556 12.8096C23.9817 11.2607 22.0873 10.4863 19.6725 10.4863C17.3826 10.4863 15.5298 11.2607 14.1142 12.8096C12.6986 14.3166 11.9908 16.4306 11.9908 19.1516V23.7355ZM43.4668 70.3273C43.4668 64.676 45.2988 60.134 48.9626 56.7014C52.6265 53.2269 57.3729 51.4896 63.2018 51.4896C69.1139 51.4896 73.8811 53.206 77.5033 56.6386C81.1672 60.0294 82.9991 64.7179 82.9991 70.7041V75.2251C82.9991 80.8346 81.2088 85.3765 77.6282 88.851C74.0476 92.2837 69.2804 94 63.3267 94C57.3312 94 52.5224 92.2627 48.9002 88.7882C45.2779 85.3137 43.4668 80.709 43.4668 74.9739V70.3273ZM55.4577 75.2251C55.4577 77.5275 56.2071 79.495 57.706 81.1276C59.2048 82.7602 61.0784 83.5765 63.3267 83.5765C68.4061 83.5765 70.9458 80.7508 70.9458 75.0995V70.3273C70.9458 67.8156 70.238 65.8063 68.8225 64.2993C67.4069 62.7504 65.5333 61.9759 63.2018 61.9759C60.8702 61.9759 58.9966 62.7504 57.581 64.2993C56.1655 65.8063 55.4577 67.8784 55.4577 70.5157V75.2251ZM23.3572 85.8998L14.5514 81.1276L58.955 9.67001L67.7608 14.4422L23.3572 85.8998Z" fill="#FFECCF"/>
</svg>
