<svg width="1020" height="207" viewBox="0 0 1020 207" fill="none" xmlns="http://www.w3.org/2000/svg">
<mask id="path-1-inside-1" fill="white">
<path fill-rule="evenodd" clip-rule="evenodd" d="M196 0H3C1.34375 0 0 1.34314 0 3V204C0 205.657 1.34375 207 3 207H196C196 198.716 202.715 192 211 192V15C202.715 15 196 8.2843 196 0Z"/>
</mask>
<path d="M196 0H197V-1H196V0ZM196 207V208H197V207H196ZM211 192V193H212V192H211ZM211 15H212V14H211V15ZM196 -1H3V1H196V-1ZM3 -1C0.791598 -1 -1 0.790722 -1 3H1C1 1.89556 1.8959 1 3 1V-1ZM-1 3V204H1V3H-1ZM-1 204C-1 206.209 0.791598 208 3 208V206C1.8959 206 1 205.104 1 204H-1ZM3 208H196V206H3V208ZM197 207C197 199.268 203.267 193 211 193V191C202.163 191 195 198.163 195 207H197ZM212 192V15H210V192H212ZM211 14C203.267 14 197 7.73205 197 0H195C195 8.83655 202.163 16 211 16V14Z" fill="#CCCCCC" mask="url(#path-1-inside-1)"/>
<mask id="path-3-inside-2" fill="white">
<path fill-rule="evenodd" clip-rule="evenodd" d="M15 0C15 8.2843 8.28516 15 0 15V192C8.28516 192 15 198.716 15 207H806C807.656 207 809 205.657 809 204V3C809 1.34314 807.656 0 806 0H15Z"/>
</mask>
<path d="M0 15V14H-1V15H0ZM15 0V-1H14V0H15ZM0 192H-1V193H0V192ZM15 207H14V208H15V207ZM0 16C8.83748 16 16 8.83655 16 0H14C14 7.73205 7.73283 14 0 14V16ZM1 192V15H-1V192H1ZM0 193C7.73283 193 14 199.268 14 207H16C16 198.163 8.83748 191 0 191V193ZM806 206H15V208H806V206ZM808 204C808 205.104 807.104 206 806 206V208C808.208 208 810 206.209 810 204H808ZM808 3V204H810V3H808ZM806 1C807.104 1 808 1.89556 808 3H810C810 0.790722 808.208 -1 806 -1V1ZM15 1H806V-1H15V1Z" transform="translate(211)" fill="#CCCCCC" mask="url(#path-3-inside-2)"/>
</svg>
