<svg width="24" height="24" viewBox="0 0 24 24" fill="none" xmlns="http://www.w3.org/2000/svg">
<path d="M23.5714 0H0.428571C0.191571 0 0 0.181831 0 0.40678V4.47458V23.5932C0 23.8182 0.191571 24 0.428571 24H23.5714C23.8084 24 24 23.8182 24 23.5932V4.47458V0.40678C24 0.181831 23.8084 0 23.5714 0ZM0.857143 0.813559H23.1429V4.0678H0.857143V0.813559ZM0.857143 23.1864V4.88136H23.1429V23.1864H0.857143Z" fill="#3B5998"/>
<path d="M2.14286 0H0.428571C0.191571 0 0 0.181831 0 0.40678V2.0339C0 2.25885 0.191571 2.44068 0.428571 2.44068H2.14286C2.37986 2.44068 2.57143 2.25885 2.57143 2.0339V0.40678C2.57143 0.181831 2.37986 0 2.14286 0ZM1.71429 1.62712H0.857143V0.813559H1.71429V1.62712Z" transform="translate(1.71484 1.22021)" fill="#3B5998"/>
<path d="M2.14286 0H0.428571C0.191571 0 0 0.181831 0 0.40678V2.0339C0 2.25885 0.191571 2.44068 0.428571 2.44068H2.14286C2.37986 2.44068 2.57143 2.25885 2.57143 2.0339V0.40678C2.57143 0.181831 2.37986 0 2.14286 0ZM1.71429 1.62712H0.857143V0.813559H1.71429V1.62712Z" transform="translate(4.71484 1.22021)" fill="#3B5998"/>
<path d="M10.7143 0H0.428571C0.191571 0 0 0.181831 0 0.40678V2.0339C0 2.25885 0.191571 2.44068 0.428571 2.44068H10.7143C10.9513 2.44068 11.1429 2.25885 11.1429 2.0339V0.40678C11.1429 0.181831 10.9513 0 10.7143 0ZM10.2857 1.62712H0.857143V0.813559H10.2857V1.62712Z" transform="translate(11.5723 1.22021)" fill="#3B5998"/>
<path d="M19.2857 0H0.428571C0.191571 0 0 0.181831 0 0.40678V8.58386V10.4791V14.6441C0 14.869 0.191571 15.0508 0.428571 15.0508H5.53629H7.407H9.39343H11.2641H13.2506H15.1213H17.1077H18.9784H19.2857C19.5227 15.0508 19.7143 14.869 19.7143 14.6441V0.40678C19.7143 0.181831 19.5227 0 19.2857 0ZM18.8571 0.813559V6.10169H18V4.47458C18 3.71837 17.4519 3.08705 16.7143 2.90522V2.0339H17.1429C17.3799 2.0339 17.5714 1.85207 17.5714 1.62712C17.5714 1.40217 17.3799 1.22034 17.1429 1.22034H15.4286C15.1916 1.22034 15 1.40217 15 1.62712C15 1.85207 15.1916 2.0339 15.4286 2.0339H15.8571V2.90522C15.1196 3.08705 14.5714 3.71837 14.5714 4.47458V6.10169H13.7143V4.47458C13.7143 3.71837 13.1661 3.08705 12.4286 2.90522V2.0339H12.8571C13.0941 2.0339 13.2857 1.85207 13.2857 1.62712C13.2857 1.40217 13.0941 1.22034 12.8571 1.22034H11.1429C10.9059 1.22034 10.7143 1.40217 10.7143 1.62712C10.7143 1.85207 10.9059 2.0339 11.1429 2.0339H11.5714V2.90522C10.8339 3.08705 10.2857 3.71837 10.2857 4.47458V6.10169H9.42857V4.47458C9.42857 3.71837 8.88043 3.08705 8.14286 2.90522V2.0339H8.57143C8.80843 2.0339 9 1.85207 9 1.62712C9 1.40217 8.80843 1.22034 8.57143 1.22034H6.85714C6.62014 1.22034 6.42857 1.40217 6.42857 1.62712C6.42857 1.85207 6.62014 2.0339 6.85714 2.0339H7.28571V2.90522C6.54814 3.08705 6 3.71837 6 4.47458V6.10169H5.14286V4.47458C5.14286 3.71837 4.59471 3.08705 3.85714 2.90522V2.0339H4.28571C4.52271 2.0339 4.71429 1.85207 4.71429 1.62712C4.71429 1.40217 4.52271 1.22034 4.28571 1.22034H2.57143C2.33443 1.22034 2.14286 1.40217 2.14286 1.62712C2.14286 1.85207 2.33443 2.0339 2.57143 2.0339H3V2.90522C2.26243 3.08705 1.71429 3.71837 1.71429 4.47458V6.10169H0.857143V0.813559H18.8571ZM16.2857 3.66102C16.7584 3.66102 17.1429 4.0259 17.1429 4.47458V6.10169H15.4286V4.47458C15.4286 4.0259 15.813 3.66102 16.2857 3.66102ZM12 3.66102C12.4727 3.66102 12.8571 4.0259 12.8571 4.47458V6.10169H11.1429V4.47458C11.1429 4.0259 11.5273 3.66102 12 3.66102ZM7.71429 3.66102C8.187 3.66102 8.57143 4.0259 8.57143 4.47458V6.10169H6.85714V4.47458C6.85714 4.0259 7.24157 3.66102 7.71429 3.66102ZM3.42857 3.66102C3.90129 3.66102 4.28571 4.0259 4.28571 4.47458V6.10169H2.57143V4.47458C2.57143 4.0259 2.95586 3.66102 3.42857 3.66102ZM4.36371 8.88041C4.41686 8.90115 4.46829 8.92515 4.52014 8.94752C4.59814 8.98129 4.67614 9.01586 4.752 9.05369C4.79571 9.07525 4.83857 9.09803 4.88143 9.12081C4.97786 9.17247 5.07257 9.22658 5.16471 9.28434C5.18314 9.29573 5.202 9.30671 5.22043 9.31851C5.54529 9.52881 5.838 9.77898 6.09771 10.0576C6.17871 10.1443 6.25543 10.2338 6.32829 10.3253C6.34371 10.3444 6.35871 10.3635 6.37371 10.3831C6.44357 10.4738 6.50957 10.5665 6.57171 10.6613C6.58714 10.6853 6.60257 10.7093 6.618 10.7333C6.67586 10.8256 6.73071 10.9192 6.78129 11.0148C6.79714 11.0449 6.81257 11.0758 6.828 11.1063C6.87386 11.1982 6.91714 11.2906 6.95657 11.3849C6.97286 11.424 6.987 11.4635 7.002 11.5029C7.03586 11.5916 7.068 11.6807 7.09586 11.771C7.11171 11.8222 7.12414 11.8743 7.13786 11.9264C7.15929 12.0073 7.18114 12.0879 7.19786 12.17C7.19829 12.1713 7.19829 12.1725 7.19871 12.1737C7.21329 12.2453 7.22271 12.3181 7.23386 12.3905C7.24157 12.4422 7.25057 12.4934 7.25657 12.5455C7.25871 12.565 7.26171 12.5841 7.26343 12.6037C7.27671 12.7403 7.28571 12.8774 7.28571 13.0169C7.28571 13.1972 7.26857 13.3794 7.24329 13.5616C7.23814 13.5978 7.23386 13.6344 7.22786 13.6706C7.19829 13.8468 7.158 14.0233 7.10486 14.1999C7.101 14.2125 7.09629 14.2247 7.09243 14.2373H6.19757C6.345 13.846 6.42857 13.4343 6.42857 13.0169C6.42857 10.9981 4.69843 9.35593 2.57143 9.35593C1.96586 9.35593 1.38557 9.48936 0.857143 9.74034V8.85234C1.40743 8.64651 1.983 8.54237 2.57143 8.54237C3.20614 8.54237 3.81086 8.66359 4.36371 8.88041ZM5.67857 8.62983C5.66786 8.62292 5.65843 8.61437 5.64729 8.60746C5.90657 8.56434 6.16757 8.54237 6.42857 8.54237C7.06329 8.54237 7.668 8.66359 8.22086 8.88041C8.274 8.90115 8.32543 8.92515 8.37729 8.94752C8.45529 8.98129 8.53329 9.01586 8.60914 9.05369C8.65286 9.07525 8.69571 9.09803 8.73857 9.12081C8.835 9.17247 8.92971 9.22658 9.02186 9.28434C9.04029 9.29573 9.05914 9.30671 9.07757 9.31851C9.40243 9.52881 9.69514 9.77898 9.95486 10.0576C10.0359 10.1443 10.1126 10.2338 10.1854 10.3253C10.2009 10.3444 10.2159 10.3635 10.2309 10.3831C10.3007 10.4738 10.3667 10.5665 10.4289 10.6613C10.4443 10.6853 10.4597 10.7093 10.4751 10.7333C10.533 10.8256 10.5879 10.9192 10.6384 11.0148C10.6543 11.0449 10.6697 11.0758 10.6851 11.1063C10.731 11.1982 10.7743 11.2906 10.8137 11.3849C10.83 11.424 10.8441 11.4635 10.8591 11.5029C10.893 11.5916 10.9251 11.6807 10.953 11.771C10.9689 11.8222 10.9813 11.8743 10.995 11.9264C11.0164 12.0073 11.0383 12.0879 11.055 12.17C11.0554 12.1713 11.0554 12.1725 11.0559 12.1737C11.0704 12.2453 11.0799 12.3181 11.091 12.3905C11.0987 12.4422 11.1077 12.4934 11.1137 12.5455C11.1159 12.565 11.1189 12.5841 11.1206 12.6037C11.1339 12.7403 11.1429 12.8774 11.1429 13.0169C11.1429 13.1972 11.1257 13.3794 11.1004 13.5616C11.0953 13.5978 11.091 13.6344 11.085 13.6706C11.0554 13.8468 11.0151 14.0233 10.962 14.1999C10.9581 14.2125 10.9534 14.2247 10.9496 14.2373H10.0547C10.2021 13.846 10.2857 13.4343 10.2857 13.0169C10.2857 11.051 8.64386 9.44705 6.594 9.36407C6.58329 9.35349 6.57171 9.34414 6.561 9.33356C6.50486 9.27864 6.44614 9.22698 6.38743 9.17451C6.30257 9.09885 6.219 9.02197 6.129 8.95119C5.98457 8.83729 5.83457 8.72949 5.67857 8.62983ZM9.53571 8.62983C9.525 8.62292 9.51557 8.61437 9.50443 8.60746C9.76371 8.56434 10.0247 8.54237 10.2857 8.54237C10.9204 8.54237 11.5251 8.66359 12.078 8.88041C12.1311 8.90115 12.1826 8.92515 12.2344 8.94752C12.3124 8.98129 12.3904 9.01586 12.4663 9.05369C12.51 9.07525 12.5529 9.09803 12.5957 9.12081C12.6921 9.17247 12.7869 9.22658 12.879 9.28434C12.8974 9.29573 12.9163 9.30671 12.9347 9.31851C13.2596 9.52881 13.5523 9.77898 13.812 10.0576C13.893 10.1443 13.9697 10.2338 14.0426 10.3253C14.058 10.3444 14.073 10.3635 14.088 10.3831C14.1579 10.4738 14.2239 10.5665 14.286 10.6613C14.3014 10.6853 14.3169 10.7093 14.3323 10.7333C14.3901 10.8256 14.445 10.9192 14.4956 11.0148C14.5114 11.0449 14.5269 11.0758 14.5423 11.1063C14.5881 11.1982 14.6314 11.2906 14.6709 11.3849C14.6871 11.424 14.7013 11.4635 14.7163 11.5029C14.7501 11.5916 14.7823 11.6807 14.8101 11.771C14.826 11.8222 14.8384 11.8743 14.8521 11.9264C14.8736 12.0073 14.8954 12.0879 14.9121 12.17C14.9126 12.1713 14.9126 12.1725 14.913 12.1737C14.9276 12.2453 14.937 12.3181 14.9481 12.3905C14.9559 12.4422 14.9649 12.4934 14.9709 12.5455C14.973 12.565 14.976 12.5841 14.9777 12.6037C14.991 12.7403 15 12.8774 15 13.0169C15 13.1972 14.9829 13.3794 14.9576 13.5616C14.9524 13.5978 14.9481 13.6344 14.9421 13.6706C14.9126 13.8468 14.8723 14.0233 14.8191 14.1999C14.8153 14.2125 14.8106 14.2247 14.8067 14.2373H13.9119C14.0593 13.846 14.1429 13.4343 14.1429 13.0169C14.1429 11.051 12.501 9.44705 10.4511 9.36407C10.4404 9.35349 10.4289 9.34414 10.4181 9.33356C10.362 9.27864 10.3033 9.22698 10.2446 9.17451C10.1597 9.09885 10.0761 9.02197 9.98614 8.95119C9.84171 8.83729 9.69171 8.72949 9.53571 8.62983ZM0.857143 14.2373V10.682C1.36157 10.346 1.95043 10.1695 2.57143 10.1695C4.22529 10.1695 5.57143 11.4472 5.57143 13.0169C5.57143 13.4392 5.47114 13.8565 5.27871 14.2373H0.857143ZM7.98343 14.2373C7.99114 14.2076 7.99371 14.1775 8.001 14.1474C8.03571 14.0034 8.064 13.8594 8.08543 13.7154C8.09314 13.6645 8.10086 13.6133 8.10686 13.5624C8.12829 13.3802 8.14286 13.1984 8.14286 13.0169C8.14286 12.8583 8.13257 12.7009 8.11757 12.5439C8.11329 12.4987 8.10857 12.4536 8.103 12.4084L8.10257 12.4056C8.09914 12.3783 8.09743 12.3506 8.09357 12.323C8.07943 12.2213 8.06057 12.1204 8.04 12.0199C8.02971 11.9695 8.01857 11.9199 8.007 11.8702C8.00186 11.8483 7.99543 11.8259 7.99028 11.8039C7.97614 11.7474 7.96286 11.6904 7.947 11.6347C7.93757 11.6018 7.92686 11.5696 7.91657 11.5371C7.89686 11.4728 7.87543 11.4089 7.85314 11.3455C7.83643 11.2987 7.81971 11.2523 7.80171 11.206C7.77557 11.1376 7.74943 11.0693 7.72029 11.0022C7.69157 10.9367 7.65857 10.874 7.62771 10.8098C7.59643 10.7455 7.56643 10.6808 7.53257 10.6178C7.48114 10.5218 7.42543 10.429 7.368 10.3367C7.362 10.3269 7.35686 10.3167 7.35086 10.307C8.55514 10.6772 9.42857 11.7523 9.42857 13.0169C9.42857 13.4392 9.32829 13.8565 9.13586 14.2373H7.98343ZM11.8406 14.2373C11.8483 14.2076 11.8509 14.1775 11.8581 14.1474C11.8929 14.0034 11.9211 13.8594 11.9426 13.7154C11.9503 13.6645 11.958 13.6133 11.964 13.5624C11.9854 13.3802 12 13.1984 12 13.0169C12 12.8583 11.9897 12.7009 11.9747 12.5439C11.9704 12.4987 11.9657 12.4536 11.9601 12.4084L11.9597 12.4056C11.9563 12.3783 11.9546 12.3506 11.9507 12.323C11.9366 12.2213 11.9177 12.1204 11.8971 12.0199C11.8869 11.9695 11.8757 11.9199 11.8641 11.8702C11.859 11.8483 11.8526 11.8259 11.8474 11.8039C11.8333 11.7474 11.82 11.6904 11.8041 11.6347C11.7947 11.6018 11.784 11.5696 11.7737 11.5371C11.754 11.4728 11.7326 11.4089 11.7103 11.3455C11.6936 11.2987 11.6769 11.2523 11.6589 11.206C11.6327 11.1376 11.6066 11.0693 11.5774 11.0022C11.5487 10.9367 11.5157 10.874 11.4849 10.8098C11.4536 10.7455 11.4236 10.6808 11.3897 10.6178C11.3383 10.5218 11.2826 10.429 11.2251 10.3367C11.2191 10.3269 11.214 10.3167 11.208 10.307C12.4123 10.6772 13.2857 11.7523 13.2857 13.0169C13.2857 13.4392 13.1854 13.8565 12.993 14.2373H11.8406ZM15.6977 14.2373C15.7054 14.2076 15.708 14.1775 15.7153 14.1474C15.75 14.0034 15.7783 13.8594 15.7997 13.7154C15.8074 13.6645 15.8151 13.6133 15.8211 13.5624C15.8426 13.3802 15.8571 13.1984 15.8571 13.0169C15.8571 12.8583 15.8469 12.7009 15.8319 12.5439C15.8276 12.4987 15.8229 12.4536 15.8173 12.4084L15.8169 12.4056C15.8134 12.3783 15.8117 12.3506 15.8079 12.323C15.7937 12.2213 15.7749 12.1204 15.7543 12.0199C15.744 11.9695 15.7329 11.9199 15.7213 11.8702C15.7161 11.8483 15.7097 11.8259 15.7046 11.8039C15.6904 11.7474 15.6771 11.6904 15.6613 11.6347C15.6519 11.6018 15.6411 11.5696 15.6309 11.5371C15.6111 11.4728 15.5897 11.4089 15.5674 11.3455C15.5507 11.2987 15.534 11.2523 15.516 11.206C15.4899 11.1376 15.4637 11.0693 15.4346 11.0022C15.4059 10.9367 15.3729 10.874 15.342 10.8098C15.3107 10.7455 15.2807 10.6808 15.2469 10.6178C15.1954 10.5218 15.1397 10.429 15.0823 10.3367C15.0763 10.3269 15.0711 10.3167 15.0651 10.307C16.2694 10.6772 17.1429 11.7523 17.1429 13.0169C17.1429 13.4392 17.0426 13.8565 16.8501 14.2373H15.6977ZM18.6677 14.2373H17.769C17.9164 13.846 18 13.4343 18 13.0169C18 11.051 16.3581 9.44705 14.3083 9.36407C14.2976 9.35349 14.286 9.34414 14.2753 9.33356C14.2191 9.27864 14.1604 9.22698 14.1017 9.17451C14.0169 9.09885 13.9333 9.02197 13.8433 8.95119C13.6989 8.83729 13.5489 8.72949 13.3929 8.62983C13.3821 8.62292 13.3727 8.61437 13.3616 8.60746C13.6209 8.56434 13.8819 8.54237 14.1429 8.54237C16.7421 8.54237 18.8571 10.5498 18.8571 13.0169C18.8571 13.4197 18.7937 13.8289 18.6677 14.2373ZM14.1429 7.72881C13.497 7.72881 12.8537 7.84597 12.2276 8.06685C11.6216 7.85207 10.9693 7.72881 10.2857 7.72881C9.63986 7.72881 8.99657 7.84597 8.37043 8.06685C7.76443 7.85207 7.11214 7.72881 6.42857 7.72881C5.78271 7.72881 5.13943 7.84597 4.51329 8.06685C3.90729 7.85207 3.255 7.72881 2.57143 7.72881C1.98557 7.72881 1.41171 7.8179 0.857143 7.99037V6.91525H2.14286H4.71429H6.42857H9H10.7143H13.2857H15H17.5714H18.8571V10.2118C17.8701 8.72339 16.1284 7.72881 14.1429 7.72881Z" transform="translate(2.14258 6.91504)" fill="#3B5998"/>
</svg>
