<svg width="24" height="24" viewBox="0 0 24 24" fill="none" xmlns="http://www.w3.org/2000/svg">
<path d="M23.6 10V6.4H22.4H21.6H20.4V10H17.6836L17.5656 9.2H19.6V7.2V6.4V0H4.4V6.4V7.2V9.2H6.3724L6.2508 10H0V14H0.4V24H2.4V15.6C2.4 14.7176 3.1176 14 4 14H5.6436L5.6268 14.1104C5.54 14.5788 5.6652 15.0572 5.97 15.4236C6.2748 15.7896 6.7224 15.9996 7.1988 15.9996H10.8V17.1996H11.6V17.9996H10.8V18.4812L5.91 19.6096C5.898 19.6124 5.8896 19.6204 5.8784 19.624C5.8524 19.6324 5.8292 19.6436 5.8056 19.6568C5.7832 19.6696 5.7624 19.6824 5.7432 19.6988C5.724 19.7152 5.708 19.7336 5.692 19.7536C5.6756 19.774 5.6612 19.794 5.6492 19.8172C5.6376 19.8392 5.63 19.8616 5.6228 19.886C5.6148 19.9124 5.6092 19.938 5.6068 19.966C5.6056 19.978 5.6 19.988 5.6 20V20.4204C4.7024 20.5212 4 21.276 4 22.2C4 23.1924 4.8076 24 5.8 24C6.7924 24 7.6 23.1924 7.6 22.2C7.6 21.4188 7.0968 20.7592 6.4 20.5104V20.318L10.8 19.3028V19.4344L9.8312 20.4032C9.8204 20.4028 9.8108 20.4 9.8 20.4C8.8076 20.4 8 21.2076 8 22.2C8 23.1924 8.8076 24 9.8 24C10.7924 24 11.6 23.1924 11.6 22.2C11.6 21.5408 11.24 20.9692 10.71 20.6556L11.3656 20H12.6344L13.29 20.6556C12.76 20.9692 12.4 21.5408 12.4 22.2C12.4 23.1924 13.2076 24 14.2 24C15.1924 24 16 23.1924 16 22.2C16 21.2076 15.1924 20.4 14.2 20.4C14.1892 20.4 14.1796 20.4028 14.1688 20.4032L13.2 19.4344V19.3028L17.6 20.318V20.5104C16.9032 20.7588 16.4 21.4188 16.4 22.2C16.4 23.1924 17.2076 24 18.2 24C19.1924 24 20 23.1924 20 22.2C20 21.276 19.2976 20.5212 18.4 20.4204V20C18.4 19.988 18.3944 19.978 18.3932 19.9664C18.3908 19.9384 18.3852 19.9128 18.3772 19.8864C18.37 19.8624 18.3624 19.8396 18.3508 19.8176C18.3388 19.7944 18.3244 19.7744 18.308 19.754C18.292 19.734 18.2764 19.716 18.2568 19.6992C18.2376 19.6828 18.2168 19.67 18.1944 19.6572C18.1712 19.644 18.1476 19.6328 18.1216 19.6244C18.1104 19.6208 18.1016 19.6128 18.09 19.61L13.2 18.4816V18H12.4V17.2H13.2V16H16.7168C17.1932 16 17.6412 15.79 17.9456 15.424C18.2504 15.0576 18.3756 14.5792 18.2912 14.1252L18.2728 14H20C20.8824 14 21.6 14.7176 21.6 15.6V24H23.6V14H24V10H23.6ZM6.8 22.2C6.8 22.7516 6.3512 23.2 5.8 23.2C5.2488 23.2 4.8 22.7516 4.8 22.2C4.8 21.6484 5.2488 21.2 5.8 21.2C6.3512 21.2 6.8 21.6484 6.8 22.2ZM9.8 23.2C9.2488 23.2 8.8 22.7516 8.8 22.2C8.8 21.6484 9.2488 21.2 9.8 21.2C10.3512 21.2 10.8 21.6484 10.8 22.2C10.8 22.7516 10.3512 23.2 9.8 23.2ZM15.2 22.2C15.2 22.7516 14.7512 23.2 14.2 23.2C13.6488 23.2 13.2 22.7516 13.2 22.2C13.2 21.6484 13.6488 21.2 14.2 21.2C14.7512 21.2 15.2 21.6484 15.2 22.2ZM19.2 22.2C19.2 22.7516 18.7512 23.2 18.2 23.2C17.6488 23.2 17.2 22.7516 17.2 22.2C17.2 21.6484 17.6488 21.2 18.2 21.2C18.7512 21.2 19.2 21.6484 19.2 22.2ZM11.6 18.8H12.4V19.2H11.6V18.8ZM22.4 7.2H22.8V10H22.4V7.2ZM21.2 7.2H21.6V10H21.2V7.2ZM18.8 8.4H17.448L17.2716 7.2H18.8V8.4ZM5.2 0.8H18.8V6.4H17.1532L16.7564 3.708C16.7408 3.6244 16.7168 3.5428 16.688 3.4632C16.6792 3.4388 16.6692 3.4156 16.6596 3.392C16.6364 3.3356 16.61 3.2808 16.5804 3.2272C16.5684 3.2056 16.5572 3.1836 16.544 3.1624C16.5008 3.092 16.454 3.024 16.4 2.9608C16.398 2.9584 16.3956 2.9568 16.3936 2.9548C16.3268 2.8776 16.2516 2.8088 16.1716 2.746C16.1444 2.7248 16.1156 2.7068 16.0872 2.6872C16.0284 2.6468 15.9676 2.61 15.9036 2.5772C15.8704 2.5604 15.8376 2.5448 15.8036 2.5304C15.7364 2.502 15.6668 2.4796 15.5956 2.4604C15.564 2.452 15.534 2.4416 15.502 2.4352C15.3992 2.4136 15.2932 2.4 15.1844 2.4H8.7784C8.6696 2.4 8.564 2.4136 8.4608 2.4344C8.428 2.4408 8.3972 2.4516 8.3652 2.4604C8.2952 2.4792 8.2272 2.5012 8.1612 2.5292C8.1248 2.5444 8.09 2.5612 8.0552 2.5792C7.996 2.6096 7.94 2.6436 7.8852 2.6812C7.8516 2.704 7.8176 2.7256 7.7856 2.7508C7.7264 2.798 7.6724 2.8512 7.6204 2.9064C7.602 2.9256 7.58 2.9404 7.5628 2.9608C7.5048 3.0288 7.4552 3.1028 7.4096 3.1792C7.404 3.1888 7.3988 3.1988 7.3932 3.2088C7.356 3.274 7.3236 3.342 7.296 3.4128C7.2892 3.4296 7.2824 3.4464 7.276 3.4636C7.2464 3.5464 7.2212 3.6316 7.2048 3.7208L6.7976 6.4H5.2V0.8ZM5.2 7.2H6.676L6.4936 8.4H5.2V7.2ZM4 13.2C2.6764 13.2 1.6 14.2764 1.6 15.6V23.2H1.2V13.2H0.8V10.8H6.1296L5.7652 13.2H4ZM12.4 16.4H11.6V16H12.4V16.4ZM17.5024 14.256C17.5456 14.49 17.4832 14.7292 17.3312 14.9124C17.1788 15.0952 16.9552 15.2004 16.7172 15.2004H13.2H10.8H7.1992C6.9612 15.2004 6.7376 15.0952 6.5852 14.9124C6.4332 14.7292 6.3704 14.49 6.416 14.2436L6.6536 12.6788L7.06 10L7.1816 9.2H7.182L7.5676 6.6584L7.9936 3.8532C8.0048 3.7916 8.026 3.7332 8.0508 3.6764C8.0572 3.662 8.064 3.648 8.0708 3.6344C8.098 3.5812 8.1296 3.53 8.1684 3.484C8.1712 3.4804 8.1744 3.4772 8.1776 3.4736C8.2104 3.4364 8.2464 3.4032 8.2844 3.3728C8.2984 3.3616 8.314 3.352 8.3288 3.342C8.3576 3.3224 8.3872 3.3044 8.418 3.2888C8.4348 3.28 8.452 3.272 8.4696 3.2648C8.5028 3.2508 8.5372 3.2396 8.572 3.2304C8.588 3.226 8.6036 3.2208 8.62 3.2172C8.672 3.2068 8.7248 3.2 8.7784 3.2H15.1844C15.2384 3.2 15.2916 3.2068 15.3432 3.2172C15.3588 3.2204 15.3736 3.2256 15.3888 3.2296C15.4252 3.2392 15.4612 3.2508 15.496 3.2656C15.5112 3.272 15.526 3.2788 15.5404 3.2864C15.5772 3.3048 15.6128 3.326 15.6468 3.35C15.6552 3.356 15.664 3.3612 15.6724 3.3676C15.7156 3.4008 15.756 3.438 15.792 3.48C15.8352 3.5304 15.8708 3.5868 15.8996 3.6444C15.9024 3.65 15.9052 3.656 15.908 3.6616C15.9356 3.72 15.9564 3.7796 15.9672 3.8384L16.3448 6.4L16.7572 9.2L16.8752 10H16.8748L17.4644 14L17.5024 14.256ZM23.2 13.2H22.8V23.2H22.4V15.6C22.4 14.2764 21.3236 13.2 20 13.2H18.1552L18.0668 12.6004L17.8016 10.8H20.4H21.6H22.4H23.2V13.2Z" fill="#3B5998"/>
<path d="M3.2 0H0.4C0.1792 0 0 0.1788 0 0.4C0 0.6212 0.1792 0.8 0.4 0.8H3.2C3.4208 0.8 3.6 0.6212 3.6 0.4C3.6 0.1788 3.4208 0 3.2 0Z" transform="translate(1.59961 11.6001)" fill="#3B5998"/>
<path d="M3.2 0H0.4C0.1788 0 0 0.1788 0 0.4C0 0.6212 0.1788 0.8 0.4 0.8H3.2C3.4212 0.8 3.6 0.6212 3.6 0.4C3.6 0.1788 3.4212 0 3.2 0Z" transform="translate(18.8008 11.6001)" fill="#3B5998"/>
</svg>
