<svg width="24" height="24" viewBox="0 0 24 24" fill="none" xmlns="http://www.w3.org/2000/svg">
<path d="M13.6 0H0V8.8H13.6V0ZM12.8 8H0.8V0.8H12.8V8Z" transform="translate(5.59961)" fill="#3B5998"/>
<path d="M11.2 6.4V0H0V6.4H11.2ZM6.96 5.6C6.3424 5.0156 5.5576 4.5064 4.748 4.0772C6.0952 3.7472 8.4968 3.2296 10.4 3.2V5.6H6.96ZM10.4 0.8V2.402C7.7772 2.4544 4.3832 3.3348 3.6356 3.5376C2.4256 3 1.3148 2.6488 0.8 2.4976V0.8H10.4ZM0.8 3.3348C1.8004 3.6448 4.0868 4.4324 5.704 5.6H0.8V3.3348Z" transform="translate(6.79883 1.2002)" fill="#3B5998"/>
<path d="M24 6.02295C24 4.69935 22.9236 3.62295 21.6 3.62295H12.8C10.7716 3.62295 10.372 3.14575 9.646 2.27855C9.5596 2.17575 9.4704 2.06895 9.3744 1.95815C7.3992 -0.319449 4.0316 -0.659849 1.868 1.19855C1.7748 1.27815 1.6872 1.36095 1.6044 1.44535C0.8276 2.23455 0.4 3.33415 0.4 4.54135V6.26935C0.1476 6.64935 0 7.10415 0 7.59335C0 8.00935 0.1124 8.41015 0.3212 8.77175C0.1196 9.06215 0 9.41375 0 9.79335C0 10.7174 0.7024 11.4722 1.6 11.573V13.5934C1.6 13.8146 1.7788 13.9934 2 13.9934H2.8C2.972 13.9934 3.1248 13.8838 3.1792 13.7202L3.8912 11.5934H20.512L21.2208 13.7198C21.2748 13.8834 21.4276 13.9934 21.6 13.9934H22.4C22.6212 13.9934 22.8 13.8146 22.8 13.5934V11.4829C23.488 11.2378 23.984 10.5914 23.9968 9.82335H24V6.02295ZM1.2 4.54135C1.2 3.55975 1.5556 2.63575 2.1748 2.00615C2.242 1.93815 2.3132 1.87095 2.3888 1.80575C4.2196 0.23175 7.082 0.53575 8.7696 2.48215C8.862 2.58895 8.9488 2.69215 9.0324 2.79175C9.7952 3.70295 10.3976 4.42255 12.7996 4.42255H21.5996C22.482 4.42255 23.1996 5.14015 23.1996 6.02255V8.29775C22.9136 8.10615 22.57 7.99335 22.2 7.99335H4.7628C4.7636 7.98935 4.7632 7.98495 4.764 7.98095C4.7856 7.85255 4.8 7.72375 4.8 7.59335C4.8 6.26975 3.7236 5.19335 2.4 5.19335C2.3024 5.19335 2.2068 5.20095 2.112 5.21215C2.0828 5.21575 2.0544 5.22095 2.0256 5.22535C1.9576 5.23615 1.8908 5.24935 1.8252 5.26575C1.7964 5.27295 1.7676 5.27975 1.7392 5.28775C1.6552 5.31175 1.5732 5.33935 1.4932 5.37215C1.4876 5.37455 1.4816 5.37615 1.476 5.37855C1.3848 5.41695 1.2972 5.46175 1.212 5.51055C1.208 5.51295 1.2036 5.51455 1.2 5.51695V4.54135ZM1.1208 6.64335C1.1928 6.54655 1.2752 6.46175 1.3628 6.38495C1.3764 6.37335 1.3904 6.36215 1.4044 6.35055C1.4784 6.29015 1.558 6.23935 1.6404 6.19375C1.6664 6.17975 1.6916 6.16415 1.7184 6.15135C1.796 6.11415 1.8776 6.08615 1.9604 6.06215C1.9908 6.05335 2.0196 6.04095 2.0508 6.03415C2.164 6.00895 2.2808 5.99335 2.4 5.99335C3.2824 5.99335 4 6.71095 4 7.59335C4 7.72775 3.9804 7.86135 3.9448 7.99335H1.8C1.4856 7.99335 1.194 8.08135 0.9368 8.22375C0.848 8.02455 0.8 7.81175 0.8 7.59335C0.8 7.27335 0.8964 6.97655 1.0588 6.72655L1.1208 6.64335ZM2.512 13.1933H2.4V11.623H3.0376L2.512 13.1933ZM22 13.1933H21.8884L21.3552 11.5934H22V13.1933ZM22.2 10.7934H20.8H1.8C1.2484 10.7934 0.8 10.3449 0.8 9.79335C0.8 9.59375 0.86 9.40855 0.9612 9.25255L1.0152 9.19735L1.116 9.09975C1.1192 9.09735 1.122 9.09495 1.1248 9.09255L1.1668 9.05895L1.166 9.05815C1.1932 9.03575 1.2196 9.01175 1.2484 8.99215C1.2608 8.98375 1.274 8.97775 1.2876 8.97095L1.3276 8.94975L1.3268 8.94855C1.3576 8.93175 1.3876 8.91335 1.4196 8.89975C1.44 8.89175 1.462 8.88615 1.4836 8.88015L1.5236 8.86895L1.5232 8.86735C1.55 8.85935 1.576 8.84895 1.6032 8.84335C1.6688 8.83015 1.7348 8.82295 1.8004 8.82295H4.4728H22.2C22.7464 8.82295 23.1904 9.26335 23.1984 9.80815C23.1904 10.3529 22.7464 10.7934 22.2 10.7934Z" transform="translate(0 10.0068)" fill="#3B5998"/>
</svg>
