<svg width="24" height="24" viewBox="0 0 24 24" fill="none" xmlns="http://www.w3.org/2000/svg">
<path d="M0.4 0.8C0.620914 0.8 0.8 0.620914 0.8 0.4C0.8 0.179086 0.620914 0 0.4 0C0.179086 0 0 0.179086 0 0.4C0 0.620914 0.179086 0.8 0.4 0.8Z" transform="translate(7.59961 16.3999)" fill="#3B5998"/>
<path d="M0.4 0.8C0.620914 0.8 0.8 0.620914 0.8 0.4C0.8 0.179086 0.620914 0 0.4 0C0.179086 0 0 0.179086 0 0.4C0 0.620914 0.179086 0.8 0.4 0.8Z" transform="translate(10 16.3999)" fill="#3B5998"/>
<path d="M0.4 0.8C0.620914 0.8 0.8 0.620914 0.8 0.4C0.8 0.179086 0.620914 0 0.4 0C0.179086 0 0 0.179086 0 0.4C0 0.620914 0.179086 0.8 0.4 0.8Z" transform="translate(12.4004 16.3999)" fill="#3B5998"/>
<path d="M0.4 0.8C0.620914 0.8 0.8 0.620914 0.8 0.4C0.8 0.179086 0.620914 0 0.4 0C0.179086 0 0 0.179086 0 0.4C0 0.620914 0.179086 0.8 0.4 0.8Z" transform="translate(14.8008 16.3999)" fill="#3B5998"/>
<path d="M0.4 0.8C0.620914 0.8 0.8 0.620914 0.8 0.4C0.8 0.179086 0.620914 0 0.4 0C0.179086 0 0 0.179086 0 0.4C0 0.620914 0.179086 0.8 0.4 0.8Z" transform="translate(17.1992 16.3999)" fill="#3B5998"/>
<path d="M24 6V2H22.8V1.6576C22.8 0.7432 22.0568 0 21.1424 0H2.8576C1.9436 0 1.2 0.7432 1.2 1.6576V2H0V6H1.2V8H0.8C0.5792 8 0.4 8.1788 0.4 8.4C0.4 8.6212 0.5792 8.8 0.8 8.8H0V14.8H4.4V13.6H19.6V14.8H24V8.8H23.2C23.4212 8.8 23.6 8.6212 23.6 8.4C23.6 8.1788 23.4212 8 23.2 8H22.8V6H24ZM23.2 2.8V5.2H22.8H21.6V2.8H22.8H23.2ZM0.8 2.8H1.2H2.4V5.2H1.2H0.8V2.8ZM3.6 14H0.8V9.6H1.2H2.4V13.6H3.6V14ZM4.4 12.8H3.2V9.6H3.6H20.4H20.8V12.8H19.6H4.4ZM5.672 6.4C5.5484 6.1768 5.5832 5.8956 5.774 5.708L7.3708 4.1336C7.6076 3.9 7.9928 3.9 8.2292 4.1336L9.8264 5.708C10.0172 5.8964 10.0516 6.1772 9.928 6.4H6.4H5.672ZM5.2012 7.6068C5.2052 7.8244 5.3816 8 5.6 8C5.8208 8 6 7.8208 6 7.6C6 7.4704 5.9344 7.3608 5.8388 7.2876C6.0176 7.2348 6.2044 7.2 6.4 7.2H8H10.126H10.2968H10.4H12.8H13.3032H15.2H17.6C18.566 7.2 19.374 7.8884 19.5596 8.8H19.2C19.2 8.5792 19.0208 8.4 18.8 8.4C18.5792 8.4 18.4 8.5792 18.4 8.8H16.8C16.8 8.5792 16.6208 8.4 16.4 8.4C16.1792 8.4 16 8.5792 16 8.8H14.4C14.4 8.5792 14.2208 8.4 14 8.4C13.7792 8.4 13.6 8.5792 13.6 8.8H12C12 8.5792 11.8208 8.4 11.6 8.4C11.3792 8.4 11.2 8.5792 11.2 8.8H9.6C9.6 8.5792 9.4208 8.4 9.2 8.4C8.9792 8.4 8.8 8.5792 8.8 8.8H7.2C7.2 8.5792 7.0208 8.4 6.8 8.4C6.5792 8.4 6.4 8.5792 6.4 8.8H4.8C4.8 8.6348 4.6996 8.4932 4.5568 8.432C4.6948 8.102 4.9196 7.8196 5.2012 7.6068ZM13.774 5.708L15.3708 4.1336C15.6076 3.9 15.9928 3.9 16.2292 4.1336L17.8264 5.708C18.0172 5.8964 18.0516 6.1772 17.928 6.4H17.6H13.672C13.5484 6.1768 13.5832 5.8956 13.774 5.708ZM23.2 14H20.4V13.6H21.6V9.6H22.8H23.2V14ZM22 8H21.6C21.3788 8 21.2 8.1788 21.2 8.4C21.2 8.6212 21.3788 8.8 21.6 8.8H20.8H20.368C20.2272 7.8228 19.5824 7.0064 18.704 6.6276C18.9044 6.1276 18.7984 5.5424 18.388 5.138L16.7912 3.5636C16.2448 3.0244 15.3556 3.024 14.8092 3.5636L13.2124 5.138C12.8628 5.4824 12.7364 5.9572 12.8292 6.3996H10.7708C10.8636 5.9572 10.7376 5.482 10.388 5.138L8.7912 3.5636C8.2448 3.0244 7.3556 3.024 6.8092 3.5636L5.2124 5.138C4.7556 5.588 4.6796 6.26 4.9792 6.7912C4.2648 7.2148 3.7552 7.9448 3.632 8.8H3.2H2.4C2.6208 8.8 2.8 8.6212 2.8 8.4C2.8 8.1788 2.6208 8 2.4 8H2V6H3.2V2H2V1.6576C2 1.1848 2.3844 0.8 2.8576 0.8H21.1428C21.6152 0.8 22 1.1848 22 1.6576V2H20.8V6H22V8Z" transform="translate(0 9.2002)" fill="#3B5998"/>
<path d="M14.4 0H0V5.2H14.4V0ZM13.6 4.4H0.8V0.8H13.6V4.4Z" transform="translate(4.80078 1.6001)" fill="#3B5998"/>
<path d="M17.6 0H0V8.4H17.6V0ZM16.8 7.6H0.8V0.8H16.8V7.6Z" transform="translate(3.19922)" fill="#3B5998"/>
<path d="M0.4001 2.0001C0.5025 2.0001 0.6049 1.9609 0.6829 1.8829L1.6001 0.9657L2.5173 1.8829C2.5953 1.9609 2.6977 2.0001 2.8001 2.0001C2.9025 2.0001 3.0049 1.9609 3.0829 1.8829L4.0001 0.9657L4.9173 1.8829C4.9953 1.9609 5.0977 2.0001 5.2001 2.0001C5.3025 2.0001 5.4049 1.9609 5.4829 1.8829L6.4001 0.9657L7.3173 1.8829C7.3953 1.9609 7.4977 2.0001 7.6001 2.0001C7.7025 2.0001 7.8049 1.9609 7.8829 1.8829L8.8001 0.9657L9.7173 1.8829C9.7953 1.9609 9.8977 2.0001 10.0001 2.0001C10.1025 2.0001 10.2049 1.9609 10.2829 1.8829C10.4393 1.7265 10.4393 1.4737 10.2829 1.3173L9.0829 0.1173C8.9265 -0.0390999 8.6737 -0.0390999 8.5173 0.1173L7.6001 1.0345L6.6829 0.1173C6.5265 -0.0390999 6.2737 -0.0390999 6.1173 0.1173L5.2001 1.0345L4.2829 0.1173C4.1265 -0.0390999 3.8737 -0.0390999 3.7173 0.1173L2.8001 1.0345L1.8829 0.1173C1.7265 -0.0390999 1.4737 -0.0390999 1.3173 0.1173L0.1173 1.3173C-0.0391003 1.4737 -0.0391003 1.7265 0.1173 1.8829C0.1953 1.9609 0.2977 2.0001 0.4001 2.0001Z" transform="translate(6.80078 3.19971)" fill="#3B5998"/>
</svg>
