<svg class="set_img" width="20" height="20" viewBox="0 0 20 20" fill="none" xmlns="http://www.w3.org/2000/svg">
<path d="M16.7266 1.24949L15.608 0.099895C15.4936 -0.0178132 15.3113 -0.0333899 15.179 0.0632424L10.3052 3.68862L8.57944 2.86891L10.094 2.69897C10.2607 2.67865 10.3856 2.53524 10.3844 2.36576V0.926269C10.3844 0.742251 10.2367 0.593054 10.0544 0.593054H8.40455L5.62613 0.306489C5.56979 0.30095 5.51295 0.310112 5.46114 0.333146L3.56707 1.15285H0V1.81928H3.63636C3.68169 1.81966 3.72665 1.81058 3.76835 1.79263L5.64593 0.962922L8.35506 1.24282H9.73767V2.0692L8.51675 2.22248L6.74476 2.03254C6.58513 2.01701 6.43755 2.11964 6.39498 2.27579C6.352 2.43136 6.42571 2.59568 6.56987 2.66565L10.2293 4.36505C10.3373 4.41461 10.4632 4.40191 10.5593 4.33173L15.3572 0.772989L16.0172 1.46608L10.5032 6.33102H9.00841L3.74526 4.35505C3.70846 4.34035 3.66932 4.33243 3.62976 4.33173H0V4.99816H3.57367L8.83353 6.97745C8.87052 6.99103 8.90963 6.99778 8.94902 6.99745H10.6253C10.7055 6.99732 10.783 6.96771 10.8431 6.91414L16.7101 1.73598C16.7157 1.73107 16.7211 1.72598 16.7263 1.72074C16.8553 1.5907 16.8554 1.37969 16.7266 1.24949Z" transform="translate(0 13.0029)" fill="#00AEE9"/>
<path d="M7.56039 4.23052L5.8181 2.40117C5.76263 2.34177 5.68747 2.30499 5.60692 2.29787L2.04315 1.96466H0.683638L0.749634 0.965011L2.03985 0.701772L3.84153 1.10829C3.87866 1.11475 3.9166 1.11475 3.95372 1.10829L5.70591 0.898368L5.62672 0.231939L3.93063 0.415207L2.11574 0.00868445C2.07136 -0.00289477 2.02484 -0.00289477 1.98045 0.00868445L0.373458 0.341899C0.225504 0.370514 0.115539 0.496636 0.106176 0.648457L0.000582819 2.27121C0.000170346 2.27809 -3.62032e-05 2.28492 5.04409e-06 2.29179C0.000335023 2.47581 0.148331 2.62475 0.330561 2.62442H2.01345L5.42543 2.93764L7.18092 4.79365C7.24291 4.85929 7.3287 4.89661 7.4185 4.89695H9.75475V4.23052H7.56039Z" transform="translate(10.043 4.10645)" fill="#00AEE9"/>
<path d="M9.63537 1.39993C9.59891 1.37011 9.55593 1.34953 9.50998 1.33995L3.90035 0.00709355C3.80531 -0.0130243 3.70636 0.0101341 3.62976 0.0704044L-5.03507e-08 2.73612L0.389375 3.27593L3.89705 0.700181L9.2889 1.97973L12.2026 4.26891L12.6052 3.73244L9.63537 1.39993Z" transform="translate(7.39453)" fill="#00AEE9"/>
<path d="M2.25045 0.029302C2.16441 -0.00976742 2.06591 -0.00976742 1.97987 0.029302L-2.51754e-07 1.02895L0.296981 1.62207L2.14486 0.6924L3.65616 1.31551L3.90035 0.695732L2.25045 0.029302Z" transform="translate(9.42188 2.01367)" fill="#00AEE9"/>
<path d="M1.65979 1.39617L1.07903 1.30953C0.815047 1.26955 0.659957 1.16625 0.659957 0.999645C0.659957 0.833037 0.890942 0.66643 1.20112 0.683091H1.43871C1.74889 0.683091 1.97987 0.849698 1.97987 0.999645V1.08961H2.63983V0.999645C2.63983 0.433179 2.11186 6.35557e-08 1.43871 6.35557e-08H1.20112C0.527965 6.35557e-08 0 0.433179 0 0.999645C0.0541577 1.51934 0.473272 1.92286 0.989936 1.95264L1.5608 2.03928C1.82478 2.07926 1.97987 2.19922 1.97987 2.34917C1.97987 2.49911 1.74889 2.66572 1.43871 2.66572H1.20112C0.890942 2.66572 0.659957 2.49911 0.659957 2.34917V2.2592H0V2.34917C0 2.89897 0.541165 3.33215 1.20112 3.33215H1.43871C2.11186 3.33215 2.63983 2.89897 2.64973 2.36583C2.6032 1.8396 2.18211 1.42712 1.65979 1.39617Z" transform="translate(6.59961 4.33887)" fill="#00AEE9"/>
<path d="M5.91647 3.68203C5.79649 4.58837 5.22484 5.36934 4.40204 5.75108C3.07726 6.36574 1.50986 5.77949 0.901171 4.44171C0.292485 3.10394 0.873041 1.52117 2.19782 0.906511C3.5226 0.291855 5.09 0.878105 5.69869 2.21588L6.29595 1.93598C5.75664 0.755815 4.58699 6.44279e-08 3.29983 6.44279e-08C1.4774 -4.15874e-05 -2.17941e-08 1.4918 -2.17941e-08 3.33211C-4.12691e-05 5.17241 1.47731 6.66426 3.29974 6.6643C4.95599 6.66722 6.35782 5.42986 6.57643 3.77199L5.91647 3.68203Z" transform="translate(4.62109 2.67285)" fill="#00AEE9"/>
<path d="M0.659957 0H0V0.66643H0.659957V0Z" transform="translate(7.58984 4.00586)" fill="#00AEE9"/>
<style>
	.set_img path {
		fill: #00AEE9;
	}
	.set_img:hover path {
		fill: #0077cc;
		transition: 0.3s ease;
		cursor: pointer;
	}
</style>
</svg>
