<svg class="set_img" width="20" height="19" viewBox="0 0 20 19" fill="none" xmlns="http://www.w3.org/2000/svg">
<path d="M9.50297 1.72969L8.35341 0.587992C7.60372 -0.156563 6.3405 -0.199869 5.53738 0.491509L3.51704 2.23081C3.49118 2.25307 3.46898 2.27927 3.45135 2.3084L1.48466 5.56197L0.221882 5.98001C0.115169 6.01533 0.0344985 6.10302 0.00867948 6.21171C-0.0171395 6.32041 0.0155168 6.43463 0.0950289 6.51363L3.5365 9.93152C3.59808 9.99264 3.68092 10.0259 3.76596 10.0259C3.79081 10.0259 3.8158 10.0231 3.8405 10.0173C3.94994 9.99164 4.03824 9.91152 4.07381 9.80554L4.49483 8.55099L7.81898 6.5575C7.84824 6.53991 7.87454 6.5179 7.89689 6.49215L9.60669 4.52429C10.2989 3.72764 10.2524 2.47398 9.50297 1.72969ZM9.11542 4.10322L7.43935 6.03222L4.05711 8.06056C3.99108 8.10015 3.94142 8.16183 3.91703 8.23456L3.6242 9.10707L2.84869 8.33687C2.84854 8.33673 2.84843 8.33654 2.84828 8.33639L1.70108 7.19711C1.70096 7.197 1.70081 7.19692 1.7007 7.19681L0.925123 6.42654L1.80364 6.13572C1.8771 6.11137 1.93939 6.06179 1.97922 5.99589L3.98114 2.68417L5.96244 0.97849C6.51368 0.503866 7.38039 0.533108 7.89449 1.04377L9.04409 2.18546C9.55846 2.69623 9.59044 3.55656 9.11542 4.10322Z" transform="translate(8.9043)" fill="#00AEE9"/>
<path d="M17.4861 12.3535C16.5334 11.4074 15.1313 11.0786 13.861 11.4876L6.96524 4.63904C7.37704 3.37737 7.04591 1.98482 6.09334 1.03869C5.08972 0.0420138 3.58725 -0.269776 2.26551 0.244703C2.16362 0.284373 2.08867 0.372395 2.06629 0.478824C2.0439 0.585216 2.07705 0.695689 2.15447 0.772579L4.21853 2.82248L2.8419 4.18965L0.777876 2.13971C0.700419 2.06286 0.589334 2.03002 0.482097 2.05213C0.374936 2.07436 0.286269 2.14877 0.246364 2.25C-0.271585 3.56262 0.0422405 5.05485 1.04582 6.05163C1.99847 6.99773 3.40058 7.32666 4.67094 6.91757L7.2494 9.47839L4.03839 12.6675L1.99611 13.8016C1.93932 13.8331 1.89336 13.8809 1.86425 13.9387L0.94654 15.7616C0.884067 15.8856 0.908541 16.0355 1.0073 16.1336L2.15443 17.2729C2.21672 17.3348 2.29978 17.3673 2.38396 17.3673C2.43324 17.3673 2.4829 17.3562 2.52901 17.3333L4.36444 16.4218C4.42265 16.3929 4.47078 16.3473 4.50254 16.2909L5.6444 14.2625L8.85548 11.0735L11.5667 13.7662C11.1549 15.0279 11.486 16.4204 12.4386 17.3665C13.121 18.0442 14.034 18.4052 14.964 18.4052C15.4017 18.4052 15.8434 18.3252 16.2664 18.1606C16.3683 18.1209 16.4433 18.0329 16.4657 17.9264C16.488 17.8201 16.4549 17.7096 16.3775 17.6327L14.3134 15.5827L15.69 14.2156L17.754 16.2655C17.8315 16.3424 17.9426 16.3754 18.0498 16.3531C18.157 16.3309 18.2456 16.2565 18.2855 16.1552C18.8035 14.8425 18.4897 13.3503 17.4861 12.3535ZM5.15365 13.8384C5.13254 13.8593 5.1145 13.8831 5.09992 13.909L3.98485 15.8897L2.44797 16.6529L1.63155 15.8421L2.39995 14.3157L4.39429 13.2083C4.42037 13.1938 4.44429 13.1759 4.4654 13.1549L7.70824 9.9342L8.39653 10.6178L5.15365 13.8384ZM17.827 15.4264L15.9195 13.532C15.7927 13.4062 15.5873 13.4062 15.4606 13.532L13.6252 15.3548C13.5643 15.4153 13.5301 15.4972 13.5301 15.5827C13.5301 15.6682 13.5643 15.7501 13.6252 15.8106L15.5327 17.7051C14.5869 17.8918 13.595 17.6035 12.8975 16.9108C12.0764 16.0953 11.8196 14.8742 12.2434 13.8001C12.2904 13.6808 12.2619 13.5452 12.1707 13.4546L4.98465 6.31774C4.92263 6.25618 4.83964 6.22337 4.75512 6.22337C4.71537 6.22337 4.67524 6.23065 4.63683 6.2456C3.55534 6.66657 2.32586 6.41144 1.50466 5.59597C0.80717 4.90322 0.516847 3.91805 0.704903 2.97875L2.61244 4.87327C2.73919 4.99911 2.94458 4.99904 3.07132 4.87327L4.90675 3.0504C5.03345 2.92453 5.03345 2.72054 4.90675 2.59467L2.99921 0.700142C3.94506 0.513113 4.9369 0.801672 5.63442 1.49446C6.45559 2.31001 6.7124 3.53108 6.28857 4.6052C6.24153 4.72447 6.27004 4.86006 6.36121 4.95065L13.5472 12.0875C13.6385 12.178 13.7751 12.2063 13.895 12.1596C14.9766 11.7388 16.206 11.9937 17.0272 12.8092C17.7248 13.502 18.015 14.4872 17.827 15.4264Z" transform="translate(0 0.594727)" fill="#00AEE9"/>
<style>
	.set_img path {
		fill: #00AEE9;
	}
	.set_img:hover path {
		fill: #0077cc;
		transition: 0.3s ease;
		cursor: pointer;
	}
</style>
</svg>
