<svg class="top_img" width="14" height="15" viewBox="0 0 14 15" fill="none" xmlns="http://www.w3.org/2000/svg">
<path d="M9.655 10.66c-.134.134-.248.28-.348.435L4.91 8.428a2.522 2.522 0 0 0 0-1.878l4.4-2.646A2.543 2.543 0 1 0 11.455 0a2.547 2.547 0 0 0-2.546 2.543c0 .319.062.624.17.905l-4.405 2.65A2.545 2.545 0 0 0 0 7.49 2.544 2.544 0 1 0 4.673 8.88l4.405 2.671A2.537 2.537 0 0 0 11.454 15 2.539 2.539 0 0 0 14 12.459c0-.68-.265-1.318-.746-1.798a2.55 2.55 0 0 0-3.6 0zM11.455.51c1.122 0 2.036.912 2.036 2.034a2.038 2.038 0 0 1-4.073 0c0-1.122.914-2.034 2.037-2.034zm-8.91 9.015A2.038 2.038 0 0 1 .51 7.489a2.038 2.038 0 0 1 4.073 0 2.038 2.038 0 0 1-2.036 2.035zm10.35 4.373a2.04 2.04 0 0 1-2.88 0 2.02 2.02 0 0 1-.597-1.438 2.03 2.03 0 0 1 2.036-2.033 2.03 2.03 0 0 1 2.037 2.033 2.02 2.02 0 0 1-.597 1.438z" fill="#000"/>
<style>
.top_img path{
	fill: black;
	transition:.3s ease;
}
.top_img:hover {
	cursor:pointer;
}
.top_img:hover path{
	fill: #ffba24;
	transition:.3s ease;
}
</style>
</svg>