<svg width="24" height="24" viewBox="0 0 24 24" fill="none" xmlns="http://www.w3.org/2000/svg">
<path d="M22.2433 2.18183H4.36362V2.33836L4.1399 1.57137C3.87036 0.646107 3.00907 0 2.04546 0H0.545472C0.243972 0 0 0.243971 0 0.545471C0 0.84697 0.243972 1.09094 0.545472 1.09094H2.04546C2.52752 1.09094 2.95793 1.41377 3.09268 1.87665L6.48793 13.5171L4.74822 15.6914C4.5 16.002 4.36362 16.3914 4.36362 16.7887C4.36362 17.7576 5.15143 18.5454 6.12036 18.5454H21.2727C21.5742 18.5454 21.8182 18.3015 21.8182 18C21.8182 17.6985 21.5742 17.4545 21.2727 17.4545H6.12036C5.75336 17.4545 5.45451 17.1557 5.45451 16.7887C5.45451 16.6379 5.50616 16.4898 5.60046 16.3727L7.35336 14.1818H18.0522C18.8933 14.1818 19.6683 13.6901 20.0268 12.9289L23.8333 4.84036C23.9425 4.60758 24 4.34924 24 4.093V3.93852C24 2.96964 23.2122 2.18183 22.2433 2.18183ZM22.9091 4.09305C22.9091 4.19052 22.8873 4.28855 22.8457 4.37645L19.0398 12.4645C18.8603 12.8448 18.473 13.0909 18.0522 13.0909H7.50002L4.63618 3.27272H22.2433C22.6103 3.27272 22.9091 3.57156 22.9091 3.93857V4.09305Z" fill="#00B8F6"/>
<path d="M2.18184 0C0.978546 0 9.36335e-09 0.978493 9.36335e-09 2.18183C9.36335e-09 3.38517 0.978495 4.36367 2.18184 4.36367C3.38518 4.36367 4.36367 3.38517 4.36367 2.18183C4.36367 0.978493 3.38513 0 2.18184 0ZM2.18184 3.27272C1.58047 3.27272 1.09094 2.78319 1.09094 2.18183C1.09094 1.58047 1.58047 1.09094 2.18184 1.09094C2.7832 1.09094 3.27273 1.58047 3.27273 2.18183C3.27273 2.78319 2.7832 3.27272 2.18184 3.27272Z" transform="translate(4.36368 19.6363)" fill="#00B8F6"/>
<path d="M2.18184 0C0.978546 0 3.99503e-07 0.978493 3.99503e-07 2.18183C3.99503e-07 3.38517 0.978495 4.36367 2.18184 4.36367C3.38518 4.36367 4.36367 3.38517 4.36367 2.18183C4.36367 0.978493 3.38513 0 2.18184 0ZM2.18184 3.27272C1.58047 3.27272 1.09094 2.78319 1.09094 2.18183C1.09094 1.58047 1.58047 1.09094 2.18184 1.09094C2.7832 1.09094 3.27273 1.58047 3.27273 2.18183C3.27273 2.78319 2.7832 3.27272 2.18184 3.27272Z" transform="translate(17.4547 19.6363)" fill="#00B8F6"/>
</svg>
