<svg width="33" height="21" viewBox="0 0 33 21" fill="none" xmlns="http://www.w3.org/2000/svg">
<path d="M32.5197 17.8305C32.4801 17.7402 32.4432 17.6653 32.4089 17.6053C31.8417 16.524 30.7578 15.1967 29.1578 13.6232L29.124 13.5872L29.107 13.5695L29.0899 13.5514H29.0727C28.3466 12.8187 27.8867 12.326 27.6941 12.0738C27.3418 11.5933 27.2629 11.1069 27.4554 10.6141C27.5915 10.2418 28.1025 9.45549 28.9874 8.25415C29.4529 7.61747 29.8215 7.1072 30.0937 6.72276C32.0571 3.95999 32.9083 2.19454 32.6471 1.42573L32.5457 1.24606C32.4776 1.1379 32.3017 1.03895 32.0183 0.948708C31.7343 0.858656 31.3713 0.843764 30.9286 0.903778L26.0264 0.939621C25.947 0.909835 25.8336 0.912612 25.6859 0.948708C25.5383 0.984805 25.4645 1.00292 25.4645 1.00292L25.3792 1.04804L25.3114 1.10224C25.2547 1.13809 25.1923 1.20113 25.1241 1.29125C25.0563 1.38105 24.9996 1.48643 24.9543 1.60652C24.4206 3.05991 23.8138 4.4112 23.1328 5.66031C22.7128 6.40515 22.3272 7.05066 21.9751 7.59722C21.6234 8.14359 21.3283 8.54614 21.0902 8.80418C20.8517 9.06247 20.6365 9.26939 20.4432 9.42571C20.2502 9.58208 20.1029 9.64815 20.0009 9.62398C19.8986 9.59981 19.8023 9.57583 19.7112 9.55185C19.5524 9.44369 19.4247 9.29659 19.3284 9.11043C19.2317 8.92427 19.1666 8.68996 19.1326 8.40768C19.0987 8.12522 19.0787 7.88227 19.0729 7.67799C19.0676 7.47397 19.0701 7.18539 19.0816 6.81306C19.0934 6.44055 19.0987 6.18851 19.0987 6.05636C19.0987 5.59986 19.1071 5.10441 19.124 4.56991C19.1411 4.0354 19.155 3.6119 19.1667 3.2999C19.1782 2.98759 19.1836 2.65717 19.1836 2.30883C19.1836 1.96048 19.1636 1.6873 19.124 1.48902C19.0849 1.29099 19.0248 1.09877 18.9457 0.912423C18.8661 0.726261 18.7496 0.582253 18.5968 0.480022C18.4436 0.377917 18.2532 0.296889 18.0265 0.236686C17.425 0.0926156 16.6591 0.01468 15.7284 0.00256368C13.6178 -0.0214165 12.2616 0.122843 11.6602 0.435153C11.4219 0.567108 11.2062 0.747401 11.0134 0.975465C10.8091 1.23981 10.7806 1.38408 10.9281 1.4078C11.6091 1.51578 12.0911 1.77407 12.3749 2.18243L12.4771 2.39882C12.5567 2.55494 12.6361 2.83134 12.7155 3.22765C12.7949 3.62395 12.8461 4.06235 12.8687 4.54258C12.9253 5.41956 12.9253 6.17027 12.8687 6.79476C12.8118 7.41951 12.7582 7.90587 12.707 8.25421C12.6557 8.60255 12.5792 8.88483 12.4771 9.10096C12.3749 9.31716 12.3069 9.44931 12.2728 9.49727C12.2387 9.54523 12.2103 9.57546 12.1878 9.58732C12.0403 9.64714 11.8869 9.67762 11.7281 9.67762C11.5691 9.67762 11.3763 9.59344 11.1494 9.4252C10.9225 9.25696 10.6871 9.02587 10.4431 8.73154C10.1991 8.43715 9.92385 8.02577 9.61734 7.49732C9.31108 6.96887 8.9933 6.34432 8.6642 5.62365L8.39192 5.101C8.2217 4.76478 7.98918 4.2752 7.69412 3.63272C7.39889 2.98999 7.13793 2.36827 6.91108 1.76769C6.82039 1.51546 6.68416 1.32343 6.50262 1.19129L6.41742 1.13708C6.36079 1.08912 6.26986 1.03819 6.14514 0.983921C6.02024 0.929713 5.88991 0.89084 5.75362 0.866923L1.08961 0.902767C0.613012 0.902767 0.289633 1.01705 0.119359 1.24531L0.0512135 1.35328C0.0171705 1.41342 0 1.50947 0 1.64167C0 1.77382 0.0340429 1.936 0.102188 2.12803C0.783047 3.82179 1.52347 5.45528 2.32345 7.02876C3.12343 8.60224 3.81859 9.86972 4.40853 10.8301C4.99859 11.7911 5.60004 12.6981 6.21287 13.5507C6.8257 14.4036 7.23135 14.9501 7.42983 15.1902C7.62854 15.4308 7.78463 15.6106 7.89808 15.7307L8.32371 16.1631C8.59605 16.4514 8.99598 16.7967 9.52368 17.199C10.0515 17.6016 10.6358 17.9979 11.277 18.3886C11.9183 18.7786 12.6643 19.0969 13.5155 19.3431C14.3665 19.5895 15.1949 19.6884 16.0007 19.6407H17.9582C18.3552 19.6044 18.656 19.4723 18.8605 19.2442L18.9282 19.1539C18.9737 19.0822 19.0164 18.9708 19.0557 18.821C19.0955 18.6708 19.1153 18.5054 19.1153 18.3255C19.1037 17.8091 19.1408 17.3437 19.2257 16.9294C19.3106 16.5151 19.4073 16.2028 19.5154 15.9925C19.6235 15.7823 19.7455 15.605 19.8813 15.4613C20.0173 15.3172 20.1143 15.2299 20.1711 15.1999C20.2277 15.1697 20.2728 15.1491 20.3068 15.1368C20.5792 15.0408 20.8997 15.1338 21.2689 15.4163C21.6377 15.6986 21.9837 16.0471 22.3073 16.4614C22.6308 16.876 23.0194 17.3411 23.4732 17.8575C23.9273 18.3741 24.3244 18.7581 24.6647 19.0107L25.005 19.2269C25.2323 19.3712 25.5273 19.5033 25.8905 19.6234C26.2531 19.7434 26.5707 19.7735 26.8435 19.7135L31.2009 19.6415C31.6319 19.6415 31.9673 19.566 32.2052 19.4161C32.4435 19.266 32.5851 19.1006 32.6308 18.9207C32.6763 18.7406 32.6788 18.5362 32.6394 18.3078C32.5991 18.0799 32.5593 17.9206 32.5197 17.8305Z" transform="translate(0 0.666504)" fill="#00B8F6"/>
</svg>
