<svg width="30" height="25" viewBox="0 0 30 25" fill="none" xmlns="http://www.w3.org/2000/svg">
<path d="M28.8469 2.80315C27.7851 3.27884 26.6459 3.60144 25.449 3.74547C26.6711 3.00547 27.6067 1.83172 28.0501 0.437414C26.9037 1.1227 25.6382 1.62031 24.2898 1.89006C23.2101 0.725416 21.6743 9.0175e-08 19.9708 9.0175e-08C16.7027 9.0175e-08 14.0529 2.67924 14.0529 5.98181C14.0529 6.45021 14.1052 6.90768 14.2062 7.34514C9.2887 7.09541 4.92825 4.71328 2.00986 1.09353C1.49971 1.9757 1.2095 3.00361 1.2095 4.10086C1.2095 6.17683 2.25501 8.00856 3.8413 9.08022C2.87149 9.04743 1.95937 8.77768 1.16085 8.3293V8.40403C1.16085 11.302 3.20139 13.7206 5.90706 14.271C5.41134 14.4059 4.88861 14.4806 4.34782 14.4806C3.9657 14.4806 3.59615 14.4424 3.23382 14.3694C3.98728 16.748 6.17206 18.4776 8.7606 18.525C6.73627 20.1289 4.18379 21.0822 1.41142 21.0822C0.933754 21.0822 0.463247 21.053 0 21.0001C2.61918 22.7007 5.72866 23.6922 9.07065 23.6922C19.9565 23.6922 25.9069 14.5754 25.9069 6.66896L25.887 5.89436C27.0497 5.0559 28.0555 4.00244 28.8469 2.80315Z" transform="translate(0.664062 0.333496)" fill="#999999"/>
</svg>
