<svg width="18" height="28" viewBox="0 0 18 28" fill="none" xmlns="http://www.w3.org/2000/svg">
<path d="M7.28297 5.62169C5.03369 5.3953 3.00563 4.86072 1.26929 3.5502C1.05385 3.38716 0.831411 3.22998 0.634804 3.04787C-0.125187 2.3435 -0.201763 1.53678 0.399605 0.705426C0.914065 -0.00598775 1.77768 -0.196304 2.67532 0.212187C2.84914 0.291364 3.01475 0.390188 3.17337 0.496343C6.40934 2.64202 10.8547 2.70126 14.1028 0.59282C14.4246 0.354705 14.7686 0.160576 15.1673 0.061459C15.9425 -0.130617 16.6654 0.144154 17.0814 0.798678C17.5567 1.54616 17.5506 2.27576 16.965 2.85609C16.0668 3.7458 14.9865 4.38947 13.7862 4.83872C12.6512 5.26334 11.4081 5.47712 10.1777 5.61905C10.3634 5.81406 10.4509 5.90995 10.5669 6.02256C12.2377 7.64245 13.9156 9.25559 15.5809 10.8805C16.1482 11.4341 16.2667 12.1206 15.9543 12.7646C15.6128 13.4684 14.8482 13.9314 14.0986 13.8818C13.6236 13.8502 13.2532 13.622 12.9241 13.3021C11.6633 12.0778 10.3789 10.8761 9.1436 9.6286C8.78412 9.26585 8.61121 9.33447 8.29397 9.64942C7.02559 10.9095 5.73656 12.1502 4.43992 13.3839C3.8577 13.9378 3.16486 14.0375 2.48966 13.7211C1.7719 13.3854 1.31518 12.6784 1.35043 11.9678C1.37474 11.4872 1.61966 11.12 1.96152 10.7907C3.6149 9.19753 5.26373 7.60022 6.91316 6.00437C7.02225 5.89822 7.12405 5.78561 7.28297 5.62169Z" transform="translate(0.578125 14.1007)" fill="#999999"/>
<path d="M7.27975 14.1723C3.26708 14.1591 -0.0232744 10.9489 0.000123984 7.07047C0.0232185 3.14919 3.3157 -0.0108222 7.36787 2.78573e-05C11.4282 0.0105847 14.6873 3.21605 14.6669 7.17809C14.6463 11.0486 11.3331 14.1858 7.27975 14.1723ZM10.9265 7.07986C10.9196 5.15411 9.33029 3.62102 7.3387 3.61927C5.33039 3.61721 3.72684 5.17816 3.74234 7.1215C3.75723 9.03991 5.36017 10.5621 7.35723 10.5551C9.34822 10.5484 10.9332 9.00531 10.9265 7.07986Z" transform="translate(1.95239)" fill="#999999"/>
</svg>
