<svg width="20" height="13" viewBox="0 0 20 13" fill="none" xmlns="http://www.w3.org/2000/svg">
<path d="M18.1818 4.54545C17.1773 4.54545 16.3636 5.35909 16.3636 6.36364V9.09091H3.63636V6.36364C3.63636 5.35909 2.82273 4.54545 1.81818 4.54545C0.813636 4.54545 0 5.35909 0 6.36364V10.9091C0 11.9091 0.818182 12.7273 1.81818 12.7273H18.1818C19.1818 12.7273 20 11.9091 20 10.9091V6.36364C20 5.35909 19.1864 4.54545 18.1818 4.54545ZM15.4545 0H4.54545C3.54545 0 2.72727 0.818182 2.72727 1.81818V3.77727C3.78182 4.15455 4.54545 5.15455 4.54545 6.33636V8.18182H15.4545V6.33636C15.4545 5.15455 16.2182 4.15455 17.2727 3.77727V1.81818C17.2727 0.818182 16.4545 0 15.4545 0Z" fill="#FF9900"/>
</svg>
