<svg width="13" height="14" viewBox="0 0 11 11" fill="none" xmlns="http://www.w3.org/2000/svg">
<path d="M9.96673 0H6.86694C6.2986 0 5.50487 0.328763 5.10303 0.73062L0.301377 5.53227C-0.100459 5.9341 -0.100459 6.59171 0.301377 6.99355L4.00647 10.6986C4.4083 11.1005 5.06587 11.1005 5.46772 10.6986L10.2694 5.89696C10.6712 5.4951 11 4.70135 11 4.13307V1.03327C11 0.46497 10.535 0 9.96673 0ZM8.59375 3.43751C8.02421 3.43751 7.5625 2.97582 7.5625 2.40626C7.5625 1.83672 8.02421 1.37501 8.59375 1.37501C9.16329 1.37501 9.625 1.83672 9.625 2.40626C9.625 2.9758 9.16329 3.43751 8.59375 3.43751Z" fill="#CCCCCC"/>
</svg>
