<svg width="25" height="25" viewBox="0 0 25 25" fill="none" xmlns="http://www.w3.org/2000/svg">
<rect width="25" height="25" fill="black" fill-opacity="0"/>
<rect width="25" height="25" fill="black" fill-opacity="0"/>
<circle cx="12.5" cy="12.5" r="12.5" fill="#C4C4C4"/>
<rect width="16" height="14" fill="black" fill-opacity="0" transform="translate(3 6)"/>
<rect width="16" height="14" fill="black" fill-opacity="0" transform="translate(3 6)"/>
<path d="M15.8805 20C15.7555 20 15.6314 19.9638 15.5249 19.8932L11.5019 17.2237L9.34411 18.7425C9.17488 18.8615 8.95676 18.8915 8.76026 18.8228C8.56401 18.7539 8.41496 18.5949 8.36176 18.3977L7.27834 14.3812L3.40712 12.9332C3.16342 12.842 3.00179 12.6139 3.00001 12.3587C2.99824 12.1034 3.15666 11.8732 3.39919 11.7788L18.119 6.0492C18.1858 6.02145 18.2564 6.00542 18.3277 6.00113C18.3532 5.99964 18.3788 5.99964 18.4042 6.00104C18.5518 6.00963 18.6968 6.06845 18.81 6.17699C18.8217 6.18823 18.8329 6.19971 18.8434 6.21169C18.9371 6.31643 18.9887 6.44414 18.9984 6.57425C19.0007 6.60696 19.0006 6.64009 18.9976 6.67321C18.9956 6.69684 18.9921 6.72038 18.9872 6.74376L16.5026 19.4964C16.4627 19.7013 16.3201 19.8728 16.1232 19.9527C16.0451 19.9844 15.9626 20 15.8805 20ZM11.8551 15.9608L15.4387 18.3386L17.372 8.41563L10.3895 14.9883L11.8382 15.9496C11.844 15.9532 11.8496 15.957 11.8551 15.9608ZM8.8719 15.432L9.35171 17.2106L10.3855 16.4829L9.03184 15.5846C8.96892 15.543 8.91505 15.4911 8.8719 15.432ZM5.37596 12.3429L8.03412 13.3371C8.22454 13.4083 8.36827 13.5649 8.42028 13.7577L8.75739 15.0074C8.77284 14.8633 8.83964 14.7277 8.94815 14.6255L15.6015 8.36276L5.37596 12.3429Z" fill="white"/>
</svg>
