<svg width="25" height="25" viewBox="0 0 25 25" fill="none" xmlns="http://www.w3.org/2000/svg">
<rect width="25" height="25" fill="black" fill-opacity="0"/>
<path d="M12.5 25C19.4036 25 25 19.4036 25 12.5C25 5.59644 19.4036 0 12.5 0C5.59644 0 0 5.59644 0 12.5C0 19.4036 5.59644 25 12.5 25Z" fill="#CCCCCC"/>
<path d="M4.26493 12.2334L7.72123 13.5175L9.05905 17.8001C9.14465 18.0744 9.4816 18.1758 9.70525 17.9938L11.6318 16.4304C11.8338 16.2666 12.1214 16.2584 12.3325 16.4109L15.8074 18.9222C16.0466 19.0953 16.3856 18.9648 16.4456 18.677L18.9912 6.48872C19.0567 6.17438 18.7464 5.91212 18.4457 6.0279L4.26089 11.4748C3.91085 11.6092 3.9139 12.1025 4.26493 12.2334ZM8.84345 12.8339L15.5983 8.69272C15.7198 8.6185 15.8446 8.7819 15.7404 8.87816L10.1656 14.0364C9.96971 14.2179 9.84329 14.4609 9.80749 14.7246L9.61759 16.1255C9.59245 16.3125 9.32849 16.3311 9.27663 16.1501L8.54629 13.5956C8.46265 13.3042 8.58455 12.993 8.84345 12.8339Z" fill="#F3F3F3"/>
</svg>
