<svg width="44" height="61" viewBox="0 0 44 61" fill="none" xmlns="http://www.w3.org/2000/svg">
<path d="M44 21.6042C44 21.35 44 21.35 44 21.35C43.7412 9.40417 33.9059 0 22 0C9.83529 0 0 9.65833 0 21.6042C0 21.6042 0 21.6042 0 21.8583V22.1125C0 22.1125 -2.5069e-07 22.3667 0.258823 22.3667C0.258823 22.3667 0.258823 22.3667 0.258823 22.6208L19.1529 43.4625H14.2353C13.4588 43.4625 12.9412 43.9708 12.9412 44.7333V59.9833C12.9412 60.4917 13.4588 61 14.2353 61H29.7647C30.5412 61 31.0588 60.4917 31.0588 59.7292V44.4792C31.0588 43.7167 30.5412 43.2083 29.7647 43.2083H24.8471L43.4824 22.6208C43.7412 22.3667 44 22.1125 44 21.6042ZM2.58824 21.35C3.10588 19.5708 6.72941 17.7917 11.6471 17.7917C16.8235 17.7917 20.7059 19.825 20.7059 21.6042V41.175L2.58824 21.35ZM25.8824 54.6458C25.8824 55.4083 25.3647 55.9167 24.5882 55.9167H22C21.2235 55.9167 20.7059 55.4083 20.7059 54.6458C20.7059 53.8833 21.2235 53.375 22 53.375H24.5882C25.3647 53.375 25.8824 53.8833 25.8824 54.6458ZM23.2941 41.175V21.6042C23.2941 19.825 27.1765 17.7917 32.3529 17.7917C37.2706 17.7917 40.8941 19.5708 41.4118 21.35L23.2941 41.175Z" fill="white"/>
</svg>
