<svg width="26" height="17" viewBox="0 0 26 17" fill="none" xmlns="http://www.w3.org/2000/svg"><path d="M17.524 3.327L10.95 1.052a2.54 2.54 0 0 0-1.917.118l-.33.16c-.447.219-.974.251-1.443.08l-.564-.203a.58.58 0 0 0-.08-.042L3.25.017a.324.324 0 0 0-.245.016.316.316 0 0 0-.16.181L.018 8.484a.32.32 0 0 0 .197.406l3.37 1.159a.31.31 0 0 0 .245-.01.316.316 0 0 0 .16-.183l2.72-7.955.341.123a2.52 2.52 0 0 0 1.938-.112l.33-.16c.443-.219.964-.251 1.427-.09l6.331 2.188c-.048.278-.18.737-.527.977-.309.214-.756.224-1.32.027l-2.764-.945a.328.328 0 0 0-.255.021.338.338 0 0 0-.16.203c-.005.016-.415 1.532-1.693 2.216-.81.438-1.81.454-2.976.053a.319.319 0 0 0-.208.603c.623.214 1.214.32 1.762.32.629 0 1.204-.138 1.725-.421 1.14-.614 1.688-1.735 1.896-2.29l2.454.843c.772.267 1.406.23 1.896-.107.788-.544.825-1.665.83-1.713a.318.318 0 0 0-.212-.31zM3.495 9.339l-2.768-.95L3.346.726l2.694.923.064.032.01.006-2.62 7.65z" fill="#000"/><path d="M25.969 8.062L22.125.23a.315.315 0 0 0-.426-.144l-3.2 1.57a.322.322 0 0 0-.15.427l3.728 7.634-1.251 1.148a14.978 14.978 0 0 1-3.552 2.43L11.146 16.3a.686.686 0 0 1-.543.032.723.723 0 0 1-.41-.363.692.692 0 0 1-.032-.544.724.724 0 0 1 .362-.411l3.423-1.682a.322.322 0 0 0 .15-.427.322.322 0 0 0-.426-.15L10.32 14.4l-1.687.827a.715.715 0 0 1-.953-.325.72.72 0 0 1 .324-.956l4.92-2.413a.322.322 0 0 0 .15-.427.322.322 0 0 0-.427-.15l-3.642 1.789-1.277.624-.602.294a.715.715 0 0 1-.953-.326.718.718 0 0 1 .325-.955l.607-.3 4.403-2.162a.322.322 0 0 0 .149-.427.322.322 0 0 0-.426-.15l-2.827 1.389-1.576.774a.686.686 0 0 1-.543.032.723.723 0 0 1-.41-.363.692.692 0 0 1-.032-.545.724.724 0 0 1 .362-.41L8.542 9.07a.322.322 0 0 0 .15-.427.322.322 0 0 0-.427-.15L5.928 9.644a1.356 1.356 0 0 0-.623 1.815c.122.256.325.46.57.593a1.356 1.356 0 0 0-.267 1.559 1.347 1.347 0 0 0 1.39.747 1.347 1.347 0 0 0 1.922 1.436l.58-.288c-.026.25.017.502.134.731a1.355 1.355 0 0 0 1.81.625l6.128-3.006a15.552 15.552 0 0 0 3.7-2.536l1.39-1.281 3.158-1.549a.322.322 0 0 0 .149-.427zm-3.354 1.303l-3.552-7.277 2.63-1.287 3.547 7.277-2.625 1.287z" fill="#000"/></svg>