<svg class="top_img" width="18" height="19" viewBox="0 0 18 19" fill="none" xmlns="http://www.w3.org/2000/svg">
<path d="M17.437 1.73L16.348.588a1.923 1.923 0 0 0-2.667-.096L11.767 2.23a.32.32 0 0 0-.063.077L9.841 5.562l-1.196.418a.317.317 0 0 0-.202.232.333.333 0 0 0 .082.302l3.26 3.418a.3.3 0 0 0 .288.085.313.313 0 0 0 .221-.211l.399-1.255 3.15-1.993a.312.312 0 0 0 .073-.066l1.62-1.968c.656-.796.611-2.05-.099-2.794zm-.367 2.373l-1.588 1.93-3.204 2.028a.32.32 0 0 0-.133.174l-.277.872-.735-.77-1.087-1.14-.735-.77.832-.291a.31.31 0 0 0 .167-.14l1.896-3.312L14.083.978a1.319 1.319 0 0 1 1.83.066l1.09 1.141c.487.511.517 1.372.067 1.918z" fill="#000"/><path d="M16.566 12.948c-.903-.946-2.23-1.275-3.434-.866L6.599 5.234c.39-1.262.076-2.654-.826-3.6C4.822.636 3.398.323 2.146.838a.319.319 0 0 0-.188.235.333.333 0 0 0 .083.293l1.956 2.05-1.305 1.367-1.955-2.05a.299.299 0 0 0-.28-.087.312.312 0 0 0-.224.198C-.257 4.157.04 5.65.991 6.646c.902.947 2.23 1.275 3.434.866l2.443 2.561-3.042 3.19-1.935 1.133a.316.316 0 0 0-.125.138l-.87 1.822a.334.334 0 0 0 .058.372l1.087 1.14a.3.3 0 0 0 .355.06l1.739-.911a.314.314 0 0 0 .13-.131l1.082-2.029 3.042-3.189 2.569 2.693c-.39 1.262-.076 2.654.826 3.6a3.304 3.304 0 0 0 2.393 1.04c.414-.001.833-.081 1.233-.246a.319.319 0 0 0 .19-.234.333.333 0 0 0-.084-.293l-1.956-2.05 1.304-1.368 1.956 2.05c.073.077.178.11.28.088a.312.312 0 0 0 .223-.198c.491-1.313.194-2.805-.757-3.802zM4.882 14.433a.319.319 0 0 0-.05.07l-1.057 1.982-1.456.763-.773-.811.728-1.526 1.89-1.108a.309.309 0 0 0 .066-.053l3.073-3.221.652.684-3.073 3.22zm12.007 1.588l-1.807-1.894a.298.298 0 0 0-.435 0l-1.739 1.823a.33.33 0 0 0 0 .455l1.807 1.895a2.686 2.686 0 0 1-2.496-.794 3.004 3.004 0 0 1-.62-3.111.334.334 0 0 0-.069-.346L4.722 6.913a.3.3 0 0 0-.33-.073 2.676 2.676 0 0 1-2.967-.65 2.994 2.994 0 0 1-.757-2.617l1.807 1.895c.12.126.315.126.435 0l1.739-1.823a.333.333 0 0 0 0-.456L2.84 1.295a2.685 2.685 0 0 1 2.497.794 3.004 3.004 0 0 1 .62 3.111.334.334 0 0 0 .068.345l6.808 7.137c.087.09.216.12.33.072a2.677 2.677 0 0 1 2.967.65c.661.693.936 1.678.758 2.617z" fill="#000"/>
<style>
.top_img path{
	fill: black;
	transition:.3s ease;
}
.top_img:hover {
	cursor:pointer;
}
.top_img:hover path{
	fill: #ffba24;
	transition:.3s ease;
}
</style>
</svg>