<svg class="top_img" width="28" height="16" viewBox="0 0 28 16" fill="none" xmlns="http://www.w3.org/2000/svg">
<path d="M19.214 13.54H9.009a.451.451 0 0 1-.448-.454c0-.25.2-.454.448-.454h10.205c.247 0 .448.204.448.454s-.2.454-.448.454z" fill="#000"/><path d="M6.58 16c-1.586 0-2.877-1.307-2.877-2.914 0-1.607 1.29-2.914 2.878-2.914 1.586 0 2.877 1.307 2.877 2.914C9.458 14.692 8.166 16 6.58 16zm0-4.92c-1.091 0-1.98.9-1.98 2.006 0 1.106.889 2.006 1.98 2.006 1.093 0 1.98-.9 1.98-2.006 0-1.106-.887-2.006-1.98-2.006zM21.642 16c-1.586 0-2.876-1.307-2.876-2.914 0-1.607 1.29-2.914 2.876-2.914 1.587 0 2.878 1.307 2.878 2.914 0 1.606-1.291 2.914-2.878 2.914zm0-4.92c-1.092 0-1.98.9-1.98 2.006 0 1.106.888 2.006 1.98 2.006s1.981-.9 1.981-2.006c0-1.106-.889-2.006-1.98-2.006z" fill="#000"/><path d="M19.218 13.54H9.01a.451.451 0 0 1-.448-.454c0-.25.2-.454.448-.454h10.208c.247 0 .448.204.448.454s-.2.454-.448.454z" fill="#000"/><path d="M25.855 13.54H24.07a.451.451 0 0 1-.449-.454c0-.25.201-.454.449-.454h1.786c.688 0 1.247-.567 1.247-1.263V9.615a2.48 2.48 0 0 0-.713-1.736l-2.012-2.024a.479.479 0 0 1-.091-.132l-1.65-3.615a2.045 2.045 0 0 0-1.851-1.2H2.317c-.783 0-1.42.646-1.42 1.439v9.023c0 .696.558 1.263 1.246 1.263h2.005c.248 0 .449.204.449.454s-.201.454-.449.454H2.143C.961 13.541 0 12.567 0 11.37V2.347C0 1.053 1.04 0 2.317 0h18.468c1.14 0 2.187.678 2.667 1.727l1.615 3.54 1.955 1.968A3.4 3.4 0 0 1 28 9.615v1.754c0 1.198-.963 2.171-2.145 2.171z" fill="#000"/><path d="M19.278 7.297H6.362a.451.451 0 0 1-.448-.454c0-.25.2-.454.448-.454h12.916c.247 0 .448.203.448.454 0 .25-.2.454-.448.454z" fill="#000"/>
<style>
.top_img path{
	fill: black;
	transition:.3s ease;
}
.top_img:hover {
	cursor:pointer;
}
.top_img:hover path{
	fill: #ffba24;
	transition:.3s ease;
}
.set__services_item .top_img path {
	fill: #00AEE9;
}
.set__services_item .top_img:hover path {
	fill: #0077CC;
}
</style>
</svg>