<svg class="top_img" width="23" height="18" viewBox="0 0 23 18" fill="none" xmlns="http://www.w3.org/2000/svg">
<path d="M11.5 4.192c-1.42 0-2.57 1.103-2.57 2.465 0 1.362 1.15 2.466 2.57 2.466s2.57-1.104 2.57-2.466-1.15-2.465-2.57-2.465zm0 4.191c-.991 0-1.798-.774-1.798-1.726 0-.951.807-1.726 1.799-1.726.991 0 1.798.775 1.798 1.726 0 .952-.807 1.726-1.798 1.726zM14.826 0c-1.137 0-2.057.883-2.057 1.972 0 1.09.92 1.973 2.057 1.973 1.135 0 2.055-.883 2.055-1.973C16.881.883 15.961 0 14.826 0zm0 3.205c-.71 0-1.286-.553-1.286-1.233S14.117.74 14.826.74c.708 0 1.284.553 1.284 1.232 0 .68-.576 1.233-1.284 1.233z" fill="#000"/><path d="M21.272 9.435c-.254 0-.488.06-.696.149a1.748 1.748 0 0 0-2.134-.458l-.73.414a1.75 1.75 0 0 0-2.097-.414l-2.626 1.542a242.08 242.08 0 0 0-3.938-1.064c-.267-.064-.5-.117-.69-.155a5.575 5.575 0 0 0-.256-.045 1.49 1.49 0 0 0-.212-.019c-.056 0-.104.005-.159.012-.199.025-.482.083-.816.158-.683.154-1.554.378-2.035.504v-.69c0-.542-.462-.986-1.028-.986H1.028C.463 8.383 0 8.827 0 9.37v7.644c0 .542.463.986 1.028.986h2.827c.565 0 1.027-.444 1.027-.986v-.594c.61.128 1.965.408 3.392.69.966.19 1.964.38 2.787.523.413.072.782.132 1.083.174.305.043.532.069.705.07.134 0 .262-.026.4-.062.256-.069.547-.186.881-.342 1.162-.544 2.83-1.562 4.404-2.57 1.572-1.005 3.041-2 3.761-2.475.451-.298.705-.802.705-1.335 0-.916-.773-1.658-1.728-1.658zm-17.16 7.579a.255.255 0 0 1-.257.246H1.028a.255.255 0 0 1-.257-.246V9.37c0-.134.118-.247.257-.247h2.827c.139 0 .257.113.257.247v7.644zm17.747-5.195c-.886.585-2.867 1.928-4.786 3.123-.958.597-1.9 1.157-2.673 1.563-.386.203-.73.367-1.006.477a3.225 3.225 0 0 1-.353.121.842.842 0 0 1-.192.034c-.084 0-.307-.02-.592-.061-1.013-.143-2.909-.506-4.54-.832-.817-.164-1.57-.318-2.118-.432-.318-.065-.564-.117-.717-.149v-4.837l.293-.077a77.001 77.001 0 0 1 1.582-.396c.278-.066.54-.124.749-.166.104-.02.194-.037.264-.047.069-.012.121-.015.122-.015.002 0 .042.002.097.01.212.031.649.129 1.18.263 1.6.4 4.125 1.126 5.144 1.423.353.102.673.256.882.443a.986.986 0 0 1 .238.3.814.814 0 0 1 .084.369c0 .29-.122.55-.32.74a1.11 1.11 0 0 1-.763.306l-.994-.093-3.395-.418a.383.383 0 0 0-.432.32.374.374 0 0 0 .334.413l3.406.42 1.054.099h.019c1.028 0 1.861-.8 1.862-1.787 0-.248-.057-.481-.159-.686a1.888 1.888 0 0 0-.676-.728 3.438 3.438 0 0 0-.915-.405l-.556-.162 1.986-1.167a.977.977 0 0 1 .421-.1.97.97 0 0 1 .645.241L16 10.515a.362.362 0 0 0-.135.507.395.395 0 0 0 .529.129l2.399-1.365a.968.968 0 0 1 1.102.173l-2.794 1.59a.361.361 0 0 0-.134.506.395.395 0 0 0 .527.13l3.355-1.91a.97.97 0 0 1 1.1.168c.173.168.28.396.28.65a.86.86 0 0 1-.37.726z" fill="#000"/>
<style>
.top_img path{
	fill: black;
	transition:.3s ease;
}
.top_img:hover {
	cursor:pointer;
}
.top_img:hover path{
	fill: #ffba24;
	transition:.3s ease;
}
.set__services_item .top_img path {
	fill: #00AEE9;
}
.set__services_item .top_img:hover path {
	fill: #0077CC;
}
</style>
</svg>