<svg width="20" height="19" viewBox="0 0 20 19" fill="none" xmlns="http://www.w3.org/2000/svg">
<path d="M19.9608 2.26262C19.2234 2.64151 18.4359 2.89963 17.6068 3.01748C18.4517 2.42236 19.1017 1.48439 19.4092 0.365254C18.6167 0.905829 17.7384 1.29933 16.8035 1.51848C16.0568 0.584406 14.9927 5.01599e-08 13.8111 5.01599e-08C11.547 5.01599e-08 9.71126 2.14574 9.71126 4.7892C9.71126 5.16907 9.74876 5.53432 9.81709 5.88399C6.4089 5.69601 3.38819 3.78305 1.36661 0.891219C1.01079 1.59445 0.811633 2.41165 0.811633 3.30189C0.811633 4.96745 1.5366 6.43138 2.63489 7.29143C1.96242 7.26611 1.32994 7.04988 0.778301 6.69144V6.75086C0.778301 9.07387 2.18908 11.0112 4.0665 11.4524C3.72235 11.5605 3.35903 11.619 2.98654 11.619C2.72489 11.619 2.47406 11.5897 2.22324 11.5352C2.74905 13.4374 4.26066 14.8244 6.05975 14.8634C4.65981 16.1481 2.88571 16.9137 0.974959 16.9137C0.649973 16.9137 0.32582 16.8913 0 16.8484C1.82409 18.2062 3.97317 19 6.29724 19C13.8419 19 17.9626 11.6988 17.9626 5.37751C17.9626 5.17394 17.9626 4.96842 17.9501 4.76388C18.7509 4.09279 19.45 3.24443 20 2.2821L19.9608 2.26262Z" fill="#00B7F4"/>
</svg>
