<svg class="add-img-icon" xmlns="http://www.w3.org/2000/svg" viewBox="0 0 23.5 18.28"><title>Ресурс 50</title><g id="Слой_2" data-name="Слой 2"><g id="_1" data-name="1"><path d="M22.75,0H.75A.76.76,0,0,0,0,.75V17.53a.76.76,0,0,0,.75.75h22a.76.76,0,0,0,.75-.75V.75A.76.76,0,0,0,22.75,0ZM22,16.78H1.5V1.5H22Z"/><path d="M7.76,13.94a.48.48,0,0,0,.5,0l7.5-4.37a.49.49,0,0,0,0-.86L8.26,4.34a.5.5,0,0,0-.5,0,.5.5,0,0,0-.25.43v8.74A.5.5,0,0,0,7.76,13.94Zm.75-8.3,6,3.5-6,3.5Z"/></g></g>
<style>
	.add-img-icon {
		fill: #f90;
	}
</style>
</svg>