<svg class="social-svg" width="25" height="25" viewBox="0 0 25 25" fill="none" xmlns="http://www.w3.org/2000/svg">
<path d="M12.4903 0C5.59233 0 0 5.59642 0 12.5C0 19.4036 5.59233 25 12.4903 25C19.3883 25 24.9806 19.4036 24.9806 12.5C24.9806 5.59642 19.3883 0 12.4903 0ZM18.826 13.8519C19.4082 14.421 20.0241 14.9565 20.5467 15.5844C20.7782 15.8621 20.9965 16.1494 21.1626 16.4724C21.3997 16.933 21.1856 17.4381 20.7736 17.4655L18.2147 17.465C17.5539 17.5197 17.0279 17.2529 16.5846 16.8008C16.2306 16.4404 15.9022 16.0555 15.5613 15.6829C15.422 15.5299 15.2753 15.3859 15.1005 15.2726C14.7517 15.0455 14.4486 15.1151 14.2488 15.4798C14.0451 15.8509 13.9986 16.2621 13.9792 16.6752C13.9513 17.279 13.7693 17.4368 13.1639 17.4652C11.8703 17.5258 10.6429 17.3294 9.50208 16.6767C8.4957 16.101 7.71676 15.2885 7.03801 14.3685C5.71627 12.5752 4.70402 10.6069 3.79449 8.5821C3.58979 8.12609 3.73955 7.8821 4.24223 7.87263C5.07738 7.85652 5.91254 7.85857 6.7477 7.87187C7.08759 7.87724 7.31247 8.07187 7.44306 8.39284C7.89437 9.50409 8.44765 10.5614 9.14098 11.5419C9.32574 11.8031 9.51434 12.0634 9.78293 12.2478C10.0794 12.4514 10.3053 12.3841 10.4451 12.0529C10.5345 11.8425 10.5731 11.6174 10.5925 11.3918C10.659 10.6192 10.6669 9.8468 10.5519 9.07724C10.4803 8.59565 10.2097 8.28465 9.73003 8.19361C9.48572 8.14731 9.5215 8.05678 9.64033 7.91714C9.84657 7.6757 10.0398 7.52634 10.4259 7.52634L13.317 7.52583C13.7727 7.61535 13.8749 7.81995 13.9367 8.27928L13.9393 11.4946C13.9339 11.6724 14.0285 12.1992 14.3474 12.3156C14.603 12.4 14.7716 12.1949 14.9245 12.033C15.6178 11.2967 16.1118 10.4276 16.5541 9.52813C16.7494 9.13146 16.9178 8.72097 17.0814 8.30972C17.203 8.00563 17.3921 7.85601 17.7351 7.86112L20.5191 7.86445C20.6011 7.86445 20.6844 7.86522 20.7657 7.87928C21.2349 7.95959 21.3634 8.16164 21.2183 8.61969C20.9898 9.33939 20.5459 9.93887 20.112 10.5399C19.6469 11.1834 19.1508 11.8043 18.6903 12.4506C18.2671 13.0414 18.3006 13.3389 18.826 13.8519Z" fill="#CCCCCC"/>
<style>
  .social-svg {
    cursor: pointer;
  }
  .social-svg path {
    fill: #ccc;
    transition: .3s;
  }
  .social-svg:hover path {
    fill: #999;
  }
</style>
</svg>
