<svg width="22" height="22" viewBox="0 0 22 22" fill="none" xmlns="http://www.w3.org/2000/svg"><path d="M11 0C4.925 0 0 4.925 0 11s4.925 11 11 11 11-4.925 11-11S17.075 0 11 0zm5.58 12.19c.513.5 1.055.972 1.515 1.524.204.245.396.497.543.782.208.405.02.85-.343.874h-2.254c-.582.047-1.045-.187-1.435-.585-.312-.317-.601-.656-.901-.984a2.11 2.11 0 0 0-.406-.361c-.307-.2-.574-.139-.75.182-.18.327-.22.689-.238 1.052-.024.532-.185.67-.718.695-1.139.054-2.22-.12-3.225-.694-.886-.506-1.572-1.221-2.17-2.03-1.164-1.579-2.055-3.31-2.856-5.093-.18-.401-.049-.616.394-.624a62.714 62.714 0 0 1 2.207 0c.299.004.497.175.612.458.397.978.885 1.908 1.495 2.77.163.23.33.46.566.622.26.18.46.12.583-.171a1.89 1.89 0 0 0 .13-.582c.058-.68.065-1.36-.036-2.037-.063-.424-.301-.698-.724-.778-.215-.04-.184-.12-.079-.243.182-.212.352-.344.692-.344h2.546c.401.079.491.259.546.663l.002 2.83c-.005.156.079.62.36.722.225.074.373-.106.508-.249.61-.648 1.045-1.413 1.435-2.204.172-.35.32-.71.464-1.072.107-.268.274-.4.576-.395l2.452.003c.072 0 .145 0 .217.013.413.07.526.248.399.651-.202.634-.593 1.161-.975 1.69-.41.566-.846 1.113-1.252 1.682-.372.52-.343.781.12 1.233z" fill="#fff" fill-opacity=".2"/></svg>