<svg width="24" height="23" viewBox="0 0 24 23" fill="none" xmlns="http://www.w3.org/2000/svg"><path d="M11.691 12a6 6 0 1 0 0-12 6 6 0 0 0 0 12zm0-10.5a4.5 4.5 0 1 1-4.5 4.5 4.51 4.51 0 0 1 4.5-4.5zM23.29 19.94a12.002 12.002 0 0 0-6.49-7.79 8 8 0 0 1-10.22 0 12.06 12.06 0 0 0-6.5 7.79A2.44 2.44 0 0 0 2.45 23h18.47a2.44 2.44 0 0 0 2.37-3.06zm-1.61 1.19a1 1 0 0 1-.76.37H2.45a1 1 0 0 1-.75-.37.91.91 0 0 1-.17-.81 10.51 10.51 0 0 1 4.91-6.4 9.5 9.5 0 0 0 10.49 0 10.47 10.47 0 0 1 4.91 6.4 1 1 0 0 1-.16.81z" fill="#999"/></svg>