<svg class="add-img-icon" xmlns="http://www.w3.org/2000/svg" viewBox="0 0 23.23 23.5"><title>Ресурс 44</title><g id="Слой_2" data-name="Слой 2"><g id="_1" data-name="1"><path d="M16.48 10H.75a.76.76 0 0 0-.75.75v12a.76.76 0 0 0 .75.75h15.73a.75.75 0 0 0 .75-.75v-12a.75.75 0 0 0-.75-.75zm-.75 12H1.5V11.5h14.23z"/><path d="M3.16 20.72a.54.54 0 0 0 .35-.14l2.33-2.34.53.52a.49.49 0 1 0 .7-.7l-.87-.88a.5.5 0 0 0-.71 0L2.8 19.87a.51.51 0 0 0 0 .71.54.54 0 0 0 .36.14zm3.36-.14a.5.5 0 0 0 .7 0l3.65-3.65 3.64 3.65a.52.52 0 0 0 .35.14.5.5 0 0 0 .35-.85l-4-4a.51.51 0 0 0-.71 0l-4 4a.5.5 0 0 0 .02.71zm-2.21-4.83a1.62 1.62 0 1 0-1.62-1.62 1.63 1.63 0 0 0 1.62 1.62zm0-2.24a.62.62 0 1 1-.62.62.62.62 0 0 1 .62-.62zM22.48 3h-2.25V.75a.75.75 0 0 0-1.5 0V3h-2.25a.75.75 0 0 0 0 1.5h2.25v2.25a.75.75 0 0 0 1.5 0V4.5h2.25a.75.75 0 0 0 0-1.5z"/></g></g><style>.add-img-icon{fill:#f90}</style></svg>