<svg class="add-img-icon" xmlns="http://www.w3.org/2000/svg" viewBox="0 0 23.63 23.5"><title>Ресурс 45</title><g id="Слой_2" data-name="Слой 2"><g id="_1" data-name="1"><path d="M16.48 10H.75a.76.76 0 0 0-.75.75v12a.76.76 0 0 0 .75.75h15.73a.75.75 0 0 0 .75-.75v-12a.75.75 0 0 0-.75-.75zm-.75 12H1.5V11.5h14.23z"/><path d="M5.69 20.31a.57.57 0 0 0 .25.06.51.51 0 0 0 .25-.06l5.37-3.13a.49.49 0 0 0 0-.86l-5.37-3.13a.5.5 0 0 0-.5 0 .52.52 0 0 0-.25.44v6.24a.52.52 0 0 0 .25.44zm.75-5.81l3.87 2.25L6.44 19zM22.88 3h-2.25V.75a.75.75 0 0 0-1.5 0V3h-2.25a.75.75 0 0 0 0 1.5h2.25v2.25a.75.75 0 0 0 1.5 0V4.5h2.25a.75.75 0 0 0 0-1.5z"/></g></g><style>.add-img-icon{fill:#f90}</style></svg>