<svg width="562" height="368" viewBox="0 0 562 368" fill="none" xmlns="http://www.w3.org/2000/svg"><path d="M474.822 154.947C473.708 70.704 405.124 0 320.573 0c-53.865 0-104.445 29.101-132.371 71.043-12.267-8.163-27.005-12.938-42.857-12.938-42.809 0-77.517 34.69-77.517 77.474 0 1.482.135 2.925.222 4.397-.096 1.762-.222 3.544-.222 5.287C29.185 163.779 0 207.794 0 253.291 0 316.383 51.646 368 114.774 368h237.464c1.338 0 2.636-.155 3.954-.203 1.327.048 2.626.203 3.963.203h94.987C513.91 368 562 319.937 562 261.203c0-52.014-37.732-96.949-87.178-106.256z" fill="#35B0F6"/></svg>