<svg width="423" height="417" viewBox="0 0 423 417" fill="none" xmlns="http://www.w3.org/2000/svg"><path d="M180.28 204.824h-5.286c-12.261 0-22.237-9.963-22.237-22.21 0-12.247 9.975-22.21 22.237-22.21h5.285a6.29 6.29 0 0 1 6.294 6.286 6.29 6.29 0 0 1-6.294 6.286h-5.285c-5.32 0-9.65 4.324-9.65 9.638s4.33 9.638 9.65 9.638h5.285a6.29 6.29 0 0 1 6.294 6.286 6.29 6.29 0 0 1-6.294 6.286z" fill="#E2A11E"/><path d="M238.767 158.06H180.28v35.415c0 12.704 10.311 23.003 23.03 23.003h12.427c12.72 0 23.03-10.299 23.03-23.003l.002-35.415z" fill="#F9CE55"/><path d="M197.368 193.475V158.06H180.28v35.415c0 12.704 10.311 23.003 23.03 23.003h12.427c.787 0 1.564-.04 2.332-.117-11.624-1.169-20.7-10.968-20.7-22.886z" fill="#E2A11E"/><path d="M291.22 226.953c0 2.892-1.175 5.515-3.071 7.41a10.468 10.468 0 0 1-7.418 3.066H153.183c-5.79 0-10.489-4.693-10.489-10.476 0-2.891 1.175-5.514 3.07-7.409a10.472 10.472 0 0 1 7.419-3.067H280.73c5.791 0 10.49 4.693 10.49 10.476z" fill="#E27423"/><path d="M291.22 226.953c0 2.892-1.175 5.515-3.071 7.41a10.468 10.468 0 0 1-7.418 3.066h-88.528c-5.79 0-10.489-4.693-10.489-10.476 0-2.891 1.175-5.514 3.07-7.409a10.472 10.472 0 0 1 7.419-3.067h88.528c5.79 0 10.489 4.693 10.489 10.476z" fill="#F7882D"/><path d="M231.64 237.434h-26.012v173.261h26.013V237.434z" fill="#E27423"/><path d="M231.643 252.208h-12.766v158.485h12.766V252.208z" fill="#F7882D"/><path d="M175.001 410.69a6.277 6.277 0 0 0 4.774 6.092c.487.125.991.193 1.519.193h74.682a6.292 6.292 0 0 0 6.294-6.286c0-3.47-2.82-6.286-6.294-6.286h-74.682c-3.473 0-6.293 2.816-6.293 6.286z" fill="#F7882D"/><path d="M175.001 410.69a6.277 6.277 0 0 0 4.774 6.093h57.74a6.292 6.292 0 0 0 6.294-6.286 6.277 6.277 0 0 0-4.774-6.093h-57.74c-3.474 0-6.294 2.816-6.294 6.286z" fill="#E27423"/><path d="M334.124 148.25c39.22 0 71.015-31.755 71.015-70.928 0-39.172-31.795-70.928-71.015-70.928s-71.015 31.756-71.015 70.928c0 39.173 31.794 70.928 71.015 70.928z" fill="#fff"/><path d="M334.125 154.538c-42.63 0-77.313-34.64-77.313-77.219 0-42.579 34.682-77.218 77.313-77.218 42.63 0 77.312 34.64 77.312 77.218 0 42.58-34.682 77.22-77.312 77.22zm0-141.865c-35.69 0-64.726 29-64.726 64.647 0 35.647 29.036 64.647 64.726 64.647 35.689 0 64.725-29 64.725-64.647 0-35.647-29.036-64.647-64.725-64.647z" fill="#118ED3"/><path d="M334.125 39.454a6.29 6.29 0 0 1-6.294-6.286v-4.19a6.29 6.29 0 0 1 6.294-6.287 6.29 6.29 0 0 1 6.294 6.286v4.19a6.29 6.29 0 0 1-6.294 6.287zM334.125 131.948a6.29 6.29 0 0 1-6.294-6.286v-4.19a6.29 6.29 0 0 1 6.294-6.286 6.29 6.29 0 0 1 6.294 6.286v4.19a6.29 6.29 0 0 1-6.294 6.286zM382.524 83.606h-4.195a6.29 6.29 0 0 1-6.294-6.286 6.29 6.29 0 0 1 6.294-6.286h4.195a6.29 6.29 0 0 1 6.294 6.286 6.29 6.29 0 0 1-6.294 6.286zM289.917 83.606h-4.195a6.29 6.29 0 0 1-6.294-6.286 6.29 6.29 0 0 1 6.294-6.286h4.195a6.29 6.29 0 0 1 6.294 6.286 6.29 6.29 0 0 1-6.294 6.286z" fill="#118ED3"/><path d="M376.037 107.775c-5.704 0-8.444-7.362-4.082-11.064 4.455-3.783 11.391.278 10.26 6.01-.576 2.907-3.218 5.054-6.178 5.054zM292.21 59.432c-5.706 0-8.466-7.351-4.092-11.063 4.469-3.793 11.468.324 10.249 6.072-.61 2.868-3.214 4.991-6.158 4.991zM358.323 125.475c-2.516 0-4.85-1.57-5.807-3.89-1.049-2.544-.303-5.545 1.843-7.279 1.994-1.612 4.84-1.84 7.07-.58 2.335 1.317 3.587 4.063 3.06 6.687-.579 2.899-3.197 5.062-6.166 5.062zM309.923 41.741c-2.619 0-5.052-1.705-5.924-4.171-.891-2.522-.072-5.392 2.03-7.05 2.14-1.69 5.249-1.788 7.486-.222a6.336 6.336 0 0 1 2.468 6.83c-.735 2.69-3.267 4.613-6.06 4.613z" fill="#fff"/><path d="M334.125 83.606h-15.058c-1.957 0-3.783-.4-5.225-1.84-2.247-2.245-2.444-5.934-.441-8.4 1.458-1.798 3.5-2.331 5.71-2.331h6.122c.715 0 1.604.144 2.306 0 .377-.078.196.089.291-.231.129-.433 0-1.104 0-1.552v-2.496-6.58-5.816c0-1.23-.093-2.512.267-3.703.915-3.035 4.065-4.944 7.183-4.365 2.985.553 5.085 3.192 5.137 6.186.043 2.584 0 5.174 0 7.758v12.916c0 3.13.48 6.614-2.164 8.913a6.33 6.33 0 0 1-4.128 1.541z" fill="#7DD1FF"/><path d="M206.168 141.128a6.29 6.29 0 0 1-6.294-6.286c0-7.029 2.526-10.917 4.37-13.756 1.461-2.25 2.343-3.608 2.343-6.914 0-3.309-.881-4.666-2.343-6.916-1.844-2.84-4.37-6.729-4.37-13.757s2.526-10.917 4.37-13.757c1.462-2.25 2.343-3.608 2.343-6.915a6.29 6.29 0 0 1 6.294-6.287 6.29 6.29 0 0 1 6.294 6.287c0 7.028-2.526 10.917-4.37 13.757-1.461 2.25-2.344 3.608-2.344 6.916 0 3.308.882 4.666 2.343 6.917 1.844 2.839 4.37 6.729 4.37 13.757 0 7.027-2.525 10.916-4.37 13.756-1.46 2.25-2.343 3.607-2.343 6.914a6.29 6.29 0 0 1-6.293 6.284z" fill="#EAEAEA"/><path d="M416.704 141.488a6.29 6.29 0 0 0-6.293 6.286V282.71h-88.966c-8.1 0-14.668 6.559-14.668 14.65 0 7.553 5.724 13.767 13.075 14.561 0 .03-.004.059-.004.09v41.872a6.275 6.275 0 0 0-.25 1.741c0 .604.09 1.188.25 1.741v53.349a6.29 6.29 0 0 0 6.293 6.286 6.29 6.29 0 0 0 6.294-6.286V361.91h77.978v48.804a6.29 6.29 0 0 0 6.294 6.286 6.29 6.29 0 0 0 6.294-6.286v-262.94a6.294 6.294 0 0 0-6.297-6.286zm-6.293 207.849h-77.977V312.01h77.977v37.327z" fill="#118ED3"/><path d="M116.222 297.359c0-8.091-6.567-14.65-14.668-14.65H12.587v-154.21a6.29 6.29 0 0 0-6.294-6.287A6.289 6.289 0 0 0 0 128.498v282.215a6.29 6.29 0 0 0 6.294 6.286 6.29 6.29 0 0 0 6.294-6.286v-48.804h77.977v48.804a6.29 6.29 0 0 0 6.294 6.286 6.29 6.29 0 0 0 6.294-6.286V357.53a6.284 6.284 0 0 0 0-3.814v-41.707c0-.03-.004-.059-.004-.09 7.349-.793 13.073-7.007 13.073-14.56zM12.587 349.337v-37.328h77.977v37.328H12.587z" fill="#F7882D"/><path d="M138.875 404.655a6.276 6.276 0 0 1-2.462-.503l-19.72-8.381a6.286 6.286 0 0 1-3.828-5.645c-.144-6.454.511-8.605 2.261-14.354 1.228-4.034 3.084-10.132 5.887-21.634 6.831-28.024 5.854-48.667-2.826-59.698-5.209-6.622-13.442-9.979-24.47-9.979a6.29 6.29 0 0 1-6.295-6.286 6.29 6.29 0 0 1 6.294-6.286c14.876 0 26.76 5.112 34.369 14.784 11.31 14.377 13.046 38.077 5.157 70.44-2.886 11.846-4.805 18.147-6.074 22.317-.983 3.229-1.444 4.743-1.63 6.44l15.802 6.717a6.282 6.282 0 0 1 3.327 8.245 6.294 6.294 0 0 1-5.792 3.823z" fill="#50515B"/><path d="M169.006 395.151a6.293 6.293 0 0 1-2.461-.503l-19.72-8.381a6.287 6.287 0 0 1-3.83-5.645c-.143-6.455.512-8.606 2.262-14.355 1.229-4.035 3.085-10.132 5.888-21.634 6.83-28.023 5.853-48.668-2.826-59.7-5.21-6.62-13.443-9.978-24.471-9.978a6.29 6.29 0 0 1-6.294-6.286 6.29 6.29 0 0 1 6.294-6.286c14.876 0 26.76 5.112 34.368 14.783 11.31 14.377 13.047 38.077 5.158 70.44-2.887 11.847-4.806 18.148-6.075 22.318-.983 3.228-1.444 4.742-1.63 6.439l15.802 6.717a6.282 6.282 0 0 1 3.327 8.245 6.288 6.288 0 0 1-5.792 3.826z" fill="#50515B"/><path d="M131.605 275.805s-34.093 17.027-68.613 10.364c-12.916-2.482-25.894-8.287-37.164-19.544 0 0 10.8-72.267 31.041-114.501 2.69-5.61 5.547-10.69 8.573-15.003l12.588.972 25.442 1.97c0 3.535.451 10.454 1.381 19.474 3.15 30.854 11.802 86.413 26.752 116.268z" fill="#00C7A9"/><path d="M62.993 286.17c-12.916-2.483-25.894-8.288-37.165-19.545 0 0 13.863-92.756 39.615-129.504l12.588.972 3.645 3.596c-9.421 19.324-31.485 94.1-18.683 144.481z" fill="#04AF92"/><path d="M153.15 193.799c-6.479 2.397-13.167 7.023-19.888 13.736a99.284 99.284 0 0 1-2.4 2.313c-12.336 11.406-23.219 14.633-31.585 14.633-4.933 0-8.987-1.123-11.94-2.346-14.366-5.942-21.885-21.247-21.885-33.29a6.287 6.287 0 0 1 6.294-6.286 6.282 6.282 0 0 1 6.294 6.286c0 7.678 4.951 17.886 14.114 21.674 9.264 3.838 20.701-.385 32.206-11.876.343-.343.688-.687 1.032-1.014 7.686-7.468 15.549-12.722 23.378-15.614a6.287 6.287 0 0 1 4.38 11.783zM140.75 25.688v63.478c0 29.09-23.623 52.683-52.757 52.683a52.622 52.622 0 0 1-21.867-4.727v-.008c-16.12-7.341-27.893-22.553-30.385-40.723a17.02 17.02 0 0 1-6.42-4.04c-6.645-6.63-6.645-17.39 0-24.02 6.638-6.646 17.421-6.646 24.067 0l4.43-25.37 3.021-17.273h79.91z" fill="#FCD2BE"/><path d="M66.126 137.113c-16.12-7.341-27.893-22.553-30.385-40.723a17.022 17.022 0 0 1-6.42-4.04c-6.645-6.63-6.645-17.39 0-24.02 6.638-6.646 17.421-6.646 24.067 0l4.43-25.37 13.888 2.816c-5.84 10.083-30.503 46.884-5.58 91.337z" fill="#FAB998"/><path d="M165.411 0c0 25.285-20.525 45.777-45.833 45.777H71.706v4.25c0 10.107-8.207 18.295-18.327 18.295-4.901-4.895-12.058-6.177-18.134-3.847V45.777C35.245 20.5 55.77 0 81.078 0h84.333z" fill="#F9CE55"/><path d="M118.486 0H81.08C55.771 0 35.246 20.5 35.246 45.777v18.698c6.075-2.33 13.233-1.047 18.133 3.847 10.12 0 18.327-8.188 18.327-18.295v-4.25h.948C72.653 20.5 93.178 0 118.486 0z" fill="#E2A11E"/><path d="M95.727 82.302a5.451 5.451 0 0 1-5.454-5.448V68.14a5.451 5.451 0 0 1 5.454-5.448 5.451 5.451 0 0 1 5.455 5.448v8.714a5.45 5.45 0 0 1-5.455 5.448zM118.411 82.302a5.451 5.451 0 0 1-5.454-5.448V68.14a5.451 5.451 0 0 1 5.454-5.448 5.451 5.451 0 0 1 5.455 5.448v8.714a5.45 5.45 0 0 1-5.455 5.448z" fill="#393A42"/><path d="M98.13 122.502c-.113 0-.227-.003-.34-.009-12.087-.644-21.327-5.969-26.722-15.397a6.281 6.281 0 0 1 2.342-8.577 6.297 6.297 0 0 1 8.586 2.34c3.212 5.614 8.753 8.67 16.464 9.081a6.288 6.288 0 0 1 5.95 6.612 6.29 6.29 0 0 1-6.28 5.95z" fill="#fff"/><path d="M130.862 209.848c-12.336 11.406-23.219 14.633-31.585 14.633-4.934 0-8.987-1.123-11.94-2.347-14.366-5.941-21.885-21.246-21.885-33.289a6.287 6.287 0 0 1 6.294-6.286 6.282 6.282 0 0 1 6.294 6.286c0 7.677 4.951 17.885 14.114 21.674 9.264 3.838 20.701-.386 32.206-11.876a58.93 58.93 0 0 1 1.032-1.014l5.47 12.219z" fill="#04AF92"/><path d="M142.704 380.618a6.288 6.288 0 0 0 3.827 5.65l19.72 8.38a6.298 6.298 0 0 0 8.257-3.328 6.273 6.273 0 0 0-3.332-8.238l-15.8-6.721c.184-1.694.646-3.21 1.636-6.437.403-1.316.864-2.849 1.401-4.701l-12.217-3.051c-.47 1.593-.872 2.933-1.233 4.099-1.747 5.748-2.401 7.895-2.26 14.347zM112.957 390.123a6.301 6.301 0 0 0 3.826 5.649l19.72 8.381a6.433 6.433 0 0 0 2.467.503 6.278 6.278 0 0 0 5.79-3.83 6.288 6.288 0 0 0-3.323-8.247l-15.8-6.714c.184-1.693.646-3.21 1.627-6.436.462-1.526 1.016-3.335 1.67-5.59l-12.394-2.481c-.503 1.734-.94 3.176-1.318 4.417-1.752 5.74-2.407 7.894-2.265 14.348z" fill="#3FACC9"/></svg>