<svg width="525" height="501" viewBox="0 0 525 501" fill="none" xmlns="http://www.w3.org/2000/svg"><path d="M216.437 264.116l-103.696 68.84-46.127 30.63c-48.645-61.78-37.806-112.991 41.837-136.405 79.63-23.41 99.935 9.647 107.986 36.935z" fill="#F9CE55"/><path d="M112.74 332.955l-46.127 30.631c-48.645-61.78-37.807-112.991 41.836-136.405-25.933 16.378-26.462 80.65 4.29 105.774z" fill="#E2A11E"/><path d="M216.435 264.115l18.575 62.96c12.15 41.18-11.453 84.413-52.719 96.543a77.494 77.494 0 0 1-18.32 3.09c-31.593 1.526-61.494-16.423-74.673-45.683a25.202 25.202 0 0 1-10.78-3.045c-12.181-6.618-16.676-21.85-10.031-34.002 1.744-3.194 4.07-5.862 6.78-7.924 7.632-5.828 18.307-6.993 27.29-2.105-1.358-4.604-1.492-14.556 1.748-25.732 7.79-26.876 35.14-60.779 112.13-44.102z" fill="#FCD2BE"/><path d="M163.972 426.71c-31.594 1.526-61.495-16.423-74.674-45.683a25.19 25.19 0 0 1-10.78-3.045c-12.181-6.617-16.676-21.85-10.031-34.001 1.744-3.195 4.07-5.863 6.78-7.925 7.632-5.828 18.307-6.993 27.29-2.105-1.358-4.604-1.492-14.556 1.748-25.732 5.833 44.725 25.778 108.431 59.667 118.491z" fill="#FAB998"/><path d="M166.097 336.436c-3.48 0-6.688-2.27-7.72-5.77l-3.64-12.336c-1.256-4.26 1.183-8.728 5.451-9.983 4.267-1.253 8.744 1.182 10 5.442l3.64 12.335c1.256 4.26-1.184 8.728-5.451 9.983a8.12 8.12 0 0 1-2.28.329zM198.226 326.99c-3.48 0-6.688-2.269-7.72-5.77l-3.64-12.335c-1.256-4.26 1.183-8.728 5.451-9.983 4.265-1.253 8.743 1.182 10 5.442l3.64 12.335c1.256 4.26-1.184 8.728-5.451 9.982a8.04 8.04 0 0 1-2.28.33z" fill="#50515B"/><path d="M174.72 392.538c-11.563 0-21.794-4.038-30.058-11.96a8.029 8.029 0 0 1-.23-11.365 8.064 8.064 0 0 1 11.387-.23c7.218 6.922 16.726 9.043 28.256 6.311 4.327-1.026 8.669 1.645 9.696 5.966 1.028 4.32-1.648 8.653-5.976 9.678-4.511 1.069-8.88 1.6-13.075 1.6z" fill="#fff"/><path d="M42.643 322.923c-39.153 3.792-63.893 38.14-17.298 117.27 0 0 23.78-54.214 25.079-100.606" fill="#E2A11E"/><path d="M517.548 226.569s-.15-.014-.44-.05c-4.688-.655-45.84-7.587-59.181-53.153l-153.08-82.477c-11.583-18.932-20.446-55.543 29.468-74.615a126.627 126.627 0 0 1 10.025-3.36C405.365-4.89 466.681-17.464 505.6 68.501c26.036 57.519 21.076 122.227 11.948 158.067z" fill="#50515B"/><path d="M517.548 226.569s-.15-.014-.44-.05c.004-.024-.002-.044-.007-.065C486.503 45.542 387.271.824 334.315 16.273a126.638 126.638 0 0 1 10.025-3.36C405.365-4.892 466.681-17.465 505.6 68.5c26.036 57.521 21.076 122.228 11.948 158.068z" fill="#393A42"/><path d="M476.888 111.648a24.318 24.318 0 0 1-7.187 8.11c4.596 30.723-10.36 60.961-36.903 76.215a74.98 74.98 0 0 1-16.547 7.05c-39.98 11.663-81.867-11.238-93.549-51.133l-17.86-61s32.428-8.214 41.393-24.552c25.366 18.463 50.232 14.814 65.773 9.157l-.003-.013c9.95-3.626 16.085-8.072 16.085-8.072l6.127 20.931.008-.015c4.759-8.675 14.067-13.299 23.339-12.535 3.29.263 6.582 1.224 9.678 2.915 11.782 6.432 16.103 21.19 9.646 32.943z" fill="#FCD2BE"/><path d="M476.887 111.649a24.316 24.316 0 0 1-7.187 8.11c4.596 30.722-10.359 60.961-36.902 76.215 31.567-31.554-20.094-119.298-20.79-120.48l-.003-.012c9.95-3.627 16.084-8.073 16.084-8.073l6.128 20.932.008-.016c4.759-8.674 14.066-13.299 23.339-12.535 3.29.263 6.582 1.224 9.678 2.915 11.781 6.433 16.102 21.19 9.645 32.944z" fill="#FAB998"/><path d="M379.541 125.02c-3.486 0-6.698-2.277-7.726-5.786l-3.5-11.95c-1.247-4.263 1.202-8.726 5.471-9.972 4.269-1.248 8.741 1.2 9.99 5.46l3.499 11.952c1.248 4.262-1.202 8.725-5.47 9.971a8.073 8.073 0 0 1-2.264.325zM348.413 134.101c-3.486 0-6.697-2.276-7.726-5.786l-3.5-11.95c-1.247-4.263 1.202-8.727 5.471-9.972 4.268-1.245 8.741 1.198 9.99 5.46l3.499 11.951c1.248 4.262-1.202 8.726-5.47 9.972a8.039 8.039 0 0 1-2.263.325z" fill="#50515B"/><path d="M392.06 179.964c-3.324 0-6.435-2.07-7.6-5.378-1.473-4.19.735-8.777 4.932-10.249 10.74-3.764 17.319-10.398 19.552-19.716 1.035-4.319 5.38-6.982 9.707-5.948 4.325 1.031 6.993 5.37 5.958 9.689-3.539 14.763-13.871 25.534-29.88 31.145a8.043 8.043 0 0 1-2.669.457z" fill="#fff"/><path d="M99.524 419.901c7.377 10.069 17.596 20.258 29.974 29.292 12.383 9.037 25.204 15.664 37.061 19.627l12.243-16.716c3.46-4.726 10.105-5.755 14.84-2.3l22.365 16.324c4.734 3.455 5.766 10.087 2.304 14.812l-2.848 3.888c-18.023 24.606-65.33 20.694-105.662-8.742-40.333-29.435-58.416-73.247-40.392-97.853l2.847-3.888c3.46-4.726 10.105-5.755 14.84-2.3l22.368 16.326c4.735 3.455 5.766 10.087 2.304 14.813L99.524 419.9zM467 155.208c1.916 12.328 1.908 26.744-.446 41.87-2.353 15.13-6.727 28.866-12.303 40.037l-20.498-3.178c-5.796-.898-11.222 3.063-12.123 8.848l-4.253 27.329c-.9 5.785 3.068 11.201 8.864 12.101l4.766.739c30.175 4.678 60.856-31.48 68.522-80.762 7.668-49.282-10.58-93.025-40.756-97.704l-4.766-.739c-5.795-.899-11.222 3.063-12.123 8.848l-4.252 27.333c-.9 5.785 3.068 11.201 8.863 12.1L467 155.209z" fill="#118ED3"/><path d="M234.005 109.385V45.788c0-13.842-11.242-25.064-25.109-25.064H69.055c-13.866 0-25.109 11.221-25.109 25.064v77.423c0 13.841 11.242 25.063 25.109 25.063h207.902l-42.952-38.89z" fill="#7CEDB6"/><path d="M334.94 395.57v-63.597c0-13.842 11.242-25.064 25.11-25.064H499.89c13.866 0 25.109 11.221 25.109 25.064v77.423c0 13.841-11.241 25.064-25.109 25.064H291.989l42.952-38.89z" fill="#4CC2C3"/><path d="M178.852 76.059h-96.56c-4.446 0-8.053-3.599-8.053-8.04 0-4.438 3.606-8.038 8.054-8.038h96.56c4.446 0 8.053 3.599 8.053 8.039 0 4.44-3.606 8.039-8.054 8.039zM196.57 109.016h-53.676c-4.447 0-8.053-3.598-8.053-8.039 0-4.44 3.605-8.039 8.053-8.039h53.675c4.448 0 8.054 3.6 8.054 8.04 0 4.44-3.604 8.038-8.054 8.038zM117.125 109.016H82.292c-4.447 0-8.053-3.598-8.053-8.039 0-4.44 3.605-8.039 8.053-8.039h34.832c4.447 0 8.053 3.6 8.053 8.04 0 4.44-3.605 8.038-8.052 8.038zM469.846 362.243h-96.56c-4.447 0-8.053-3.599-8.053-8.039 0-4.44 3.605-8.039 8.053-8.039h96.56c4.447 0 8.054 3.599 8.054 8.039 0 4.44-3.605 8.039-8.054 8.039zM487.564 395.2H463.4c-4.447 0-8.053-3.598-8.053-8.038s3.605-8.039 8.053-8.039h24.163c4.447 0 8.053 3.599 8.053 8.039 0 4.44-3.605 8.039-8.053 8.039zM437.631 395.2h-64.344c-4.447 0-8.053-3.598-8.053-8.038s3.605-8.039 8.053-8.039h64.344c4.448 0 8.054 3.599 8.054 8.039 0 4.44-3.605 8.039-8.054 8.039z" fill="#fff"/></svg>