<svg width="133" height="133" viewBox="0 0 133 133" fill="none" xmlns="http://www.w3.org/2000/svg"><path d="M123.538 33.605C105.35 2.14 65.067-8.643 33.568 9.527 2.064 27.692-8.73 67.928 9.461 99.393c18.185 31.467 58.467 42.25 89.967 24.081 31.503-18.17 42.302-58.404 24.109-89.869zm-30.694 78.471c-25.198 14.536-57.426 5.91-71.975-19.264-14.553-25.17-5.914-57.361 19.285-71.89 25.2-14.536 57.426-5.911 71.976 19.262 14.55 25.173 5.914 57.359-19.286 71.892zm-2.634-48.25L55.722 43.734c-3.143-1.833-5.678-.367-5.66 3.264l.176 39.88c.016 3.63 2.582 5.108 5.734 3.29L90.197 70.43c3.149-1.816 3.155-4.772.013-6.605z" fill="#fff"/></svg>