<svg width="16" height="10" viewBox="0 0 16 10" fill="none" xmlns="http://www.w3.org/2000/svg"><path fill="#000" fill-opacity="0" d="M0 0h16v10H0z"/><path d="M15.822 4.401c-.834-1.325-1.955-2.39-3.362-3.194C11.052.402 9.565 0 8 0S4.948.402 3.54 1.207C2.132 2.01 1.012 3.076.18 4.4a1.177 1.177 0 0 0-.179.6c0 .196.06.396.179.598.833 1.325 1.953 2.39 3.361 3.195C4.948 9.598 6.435 10 8 10c1.566 0 3.052-.4 4.46-1.202 1.407-.802 2.528-1.868 3.361-3.199.12-.202.179-.402.179-.599 0-.197-.06-.396-.178-.599zM6.085 2.027A2.65 2.65 0 0 1 8 1.25c.119 0 .22.04.304.122.083.08.125.179.125.295a.397.397 0 0 1-.125.295.42.42 0 0 1-.304.121c-.512 0-.95.177-1.312.53a1.715 1.715 0 0 0-.545 1.276.397.397 0 0 1-.125.295.42.42 0 0 1-.304.122.42.42 0 0 1-.303-.122.396.396 0 0 1-.125-.295c0-.723.266-1.344.799-1.862zm5.795 5.808A7.51 7.51 0 0 1 8 8.889a7.508 7.508 0 0 1-3.88-1.054A9.1 9.1 0 0 1 1.144 5c.905-1.366 2.039-2.387 3.402-3.064A3.714 3.714 0 0 0 4 3.889c0 1.07.391 1.986 1.174 2.747C5.957 7.398 6.9 7.778 8 7.778s2.043-.38 2.826-1.142C11.609 5.876 12 4.96 12 3.89c0-.7-.182-1.351-.545-1.953 1.363.677 2.497 1.698 3.402 3.064a9.098 9.098 0 0 1-2.977 2.835z" fill="#fff"/></svg>