<svg width="30" height="40" viewBox="0 0 30 40" fill="none" xmlns="http://www.w3.org/2000/svg"><path d="M3.89 1.256c.983 0 1.788.808 1.788 1.795v33.898c0 .987-.805 1.795-1.788 1.795h-.85a1.797 1.797 0 0 1-1.788-1.795V3.051c0-.987.805-1.795 1.788-1.795h.85zM3.89 0h-.85A3.054 3.054 0 0 0 0 3.05v33.9A3.054 3.054 0 0 0 3.04 40h.85a3.054 3.054 0 0 0 3.04-3.05V3.05A3.049 3.049 0 0 0 3.89 0zM15.425 20c.983 0 1.788.808 1.788 1.795v15.154c0 .987-.805 1.795-1.788 1.795h-.85a1.797 1.797 0 0 1-1.788-1.795V21.795c0-.987.805-1.795 1.788-1.795h.85zm0-1.256h-.85a3.054 3.054 0 0 0-3.04 3.05V36.95A3.054 3.054 0 0 0 14.575 40h.85a3.054 3.054 0 0 0 3.04-3.05V21.793a3.049 3.049 0 0 0-3.04-3.05zM26.96 8.246c.983 0 1.788.807 1.788 1.794v26.91c0 .986-.805 1.794-1.788 1.794h-.85a1.797 1.797 0 0 1-1.788-1.795V10.04c0-.987.805-1.794 1.788-1.794h.85zm0-1.256h-.85a3.054 3.054 0 0 0-3.04 3.05v26.91A3.054 3.054 0 0 0 26.11 40h.85A3.054 3.054 0 0 0 30 36.95V10.04a3.049 3.049 0 0 0-3.04-3.05z" fill="#000"/></svg>