<svg width="361" height="173" viewBox="0 0 361 173" fill="none" xmlns="http://www.w3.org/2000/svg">
<g filter="url(#filter0_d)">
<path fill-rule="evenodd" clip-rule="evenodd" d="M1.93359 0.196289C2.26562 0.0693359 2.625 0 3 0H349.996C350.914 0 351.734 0.411133 352.285 1.05859C352.727 1.58203 352.996 2.25977 352.996 3V68.6055C345.332 68.6055 339.117 74.8262 339.117 82.5C339.117 90.1738 345.332 96.3945 352.996 96.3945V162C352.996 163.657 351.652 165 349.996 165H3C1.34375 165 0 163.657 0 162V96.3945C7.66406 96.3945 13.875 90.1738 13.875 82.5C13.875 74.8262 7.66406 68.6055 0 68.6055V3C0 1.71973 0.804688 0.626953 1.93359 0.196289Z" transform="translate(4 4)" fill="#FFDCA7"/>
</g>
<path fill-rule="evenodd" clip-rule="evenodd" d="M0 0V29C0 30.6572 1.34375 32 3 32H349.996C351.652 32 352.996 30.6572 352.996 29V0H0Z" transform="translate(4 137)" fill="#FFECCF"/>
<defs>
<filter id="filter0_d" x="0" y="0" width="360.996" height="173" filterUnits="userSpaceOnUse" color-interpolation-filters="sRGB">
<feFlood flood-opacity="0" result="BackgroundImageFix"/>
<feColorMatrix in="SourceAlpha" type="matrix" values="0 0 0 0 0 0 0 0 0 0 0 0 0 0 0 0 0 0 255 0"/>
<feOffset/>
<feGaussianBlur stdDeviation="2"/>
<feColorMatrix type="matrix" values="0 0 0 0 0 0 0 0 0 0 0 0 0 0 0 0 0 0 0.25 0"/>
<feBlend mode="normal" in2="BackgroundImageFix" result="effect1_dropShadow"/>
<feBlend mode="normal" in="SourceGraphic" in2="effect1_dropShadow" result="shape"/>
</filter>
</defs>
</svg>
