<svg width="10" height="10" viewBox="0 0 10 10" fill="none" xmlns="http://www.w3.org/2000/svg">
<path d="M4.52178 4.96683L0.0953553 9.39326C-0.0276183 9.51623 -0.0276183 9.71546 0.0953553 9.83843C0.156764 9.9 0.237392 9.93062 0.317864 9.93062C0.398492 9.93062 0.478964 9.9 0.540373 9.83843L5.00008 5.37873L9.45978 9.83843C9.52135 9.9 9.60182 9.93062 9.68229 9.93062C9.76276 9.93062 9.84339 9.9 9.9048 9.83843C10.0278 9.71546 10.0278 9.51623 9.9048 9.39326L5.47853 4.96683L9.90777 0.537287C10.0307 0.414313 10.0307 0.215087 9.90777 0.092113C9.7848 -0.0307043 9.58557 -0.0307043 9.46275 0.092113L5.00023 4.55494L0.537248 0.0922692C0.414274 -0.0305481 0.215204 -0.0305481 0.0922302 0.0922692C-0.0307434 0.215243 -0.0307434 0.414469 0.0922302 0.537443L4.52178 4.96683Z" fill="#666666"/>
</svg>
