<svg width="26" height="30" viewBox="0 0 26 30" fill="none" xmlns="http://www.w3.org/2000/svg">
<path d="M0.161004 5.17413C-0.390452 3.47742 0.52061 1.64139 2.19222 1.08149C3.86383 0.521587 5.67238 1.44673 6.22384 3.14345L12.4964 22.4422C11.9119 22.2855 11.2902 22.2569 10.6696 22.3721L4.59694 3.6884C4.3414 2.90212 3.50354 2.47364 2.72904 2.73306C1.95449 2.99247 1.5324 3.84301 1.78795 4.62923C1.93614 5.08526 1.69214 5.57703 1.24286 5.72747C0.793634 5.87791 0.309251 5.63016 0.161004 5.17413ZM24.8747 20.3133L14.5976 23.7556C14.9623 24.1759 15.2514 24.6756 15.435 25.2403C15.4415 25.2604 15.4452 25.2808 15.4514 25.301L25.4116 21.9649C25.8608 21.8145 26.1048 21.3227 25.9567 20.8667C25.8084 20.4106 25.3239 20.1628 24.8747 20.3133ZM14.6216 25.5129C15.2039 27.3045 14.2452 29.2359 12.4805 29.8271C10.7156 30.4182 8.81298 29.445 8.23066 27.6535C7.64835 25.862 8.60703 23.9305 10.3718 23.3394C12.1366 22.7482 14.0393 23.7214 14.6216 25.5129ZM13.0238 26.048C12.7327 25.1523 11.7814 24.6658 10.899 24.9613C10.0166 25.2568 9.53726 26.2226 9.82839 27.1183C10.1195 28.0141 11.0709 28.5006 11.9533 28.2051C12.8357 27.9096 13.315 26.9438 13.0238 26.048ZM22.2775 7.22276L25.7666 17.9579C25.8408 18.1859 25.7187 18.4318 25.4941 18.507L14.5123 22.1852C14.2877 22.2604 14.0455 22.1366 13.9714 21.9085L10.4823 11.1734C10.4081 10.9454 10.5302 10.6995 10.7548 10.6243L21.7366 6.94604C21.9612 6.8709 22.2034 6.99472 22.2775 7.22276ZM20.8248 13.4587L17.0854 11.3703L15.3053 15.3075L16.4839 15.8581L17.2536 14.1548L18.6434 18.4309L19.9735 17.9854L18.5839 13.71L20.2005 14.6132L20.8248 13.4587ZM17.5619 7.05428L15.3311 0.19095C15.2838 0.0451656 15.1289 -0.0340501 14.9853 0.0140872L13.0725 0.654724L13.0631 0.672175L13.0471 0.663253L12.0379 1.00129L12.869 3.5581L11.7307 3.93938L10.8997 1.38257L9.89015 1.7207L9.88252 1.73757L9.86466 1.72923L7.9643 2.36575C7.82065 2.41384 7.74271 2.57105 7.79008 2.71683L10.0209 9.58021C10.0682 9.72599 10.2231 9.80521 10.3667 9.75707L17.3878 7.40541C17.5313 7.35727 17.6093 7.20006 17.5619 7.05428Z" fill="#CCCCCC"/>
</svg>
