<svg width="20" height="20" viewBox="0 0 20 20" fill="none" xmlns="http://www.w3.org/2000/svg">
<path d="M10 0C4.48615 0 0 4.48577 0 10C0 15.5142 4.48615 20 10 20C15.5138 20 20 15.5142 20 10C20 4.48577 15.5138 0 10 0ZM10 19.2308C4.91038 19.2308 0.769231 15.0896 0.769231 10C0.769231 4.91038 4.91038 0.769231 10 0.769231C15.0896 0.769231 19.2308 4.91038 19.2308 10C19.2308 15.0896 15.0896 19.2308 10 19.2308Z" fill="white"/>
<path d="M10.097 0.129414L4.18583 6.77941L0.624673 3.93057C0.459288 3.79787 0.216596 3.82518 0.0842884 3.99057C-0.0484039 4.15672 -0.0214808 4.39864 0.144288 4.53134L3.99044 7.60826C4.06121 7.6648 4.14621 7.69249 4.23083 7.69249C4.33698 7.69249 4.44275 7.64864 4.51852 7.56326L10.6724 0.640182C10.8135 0.481721 10.7993 0.23826 10.6404 0.0974904C10.4812 -0.0440481 10.2385 -0.0298172 10.097 0.129414Z" transform="translate(4.61536 5.76953)" fill="white"/>
</svg>
