<svg width="19" height="11" viewBox="0 0 19 11" fill="none" xmlns="http://www.w3.org/2000/svg">
<path d="M18.6919 4.58631C17.6256 3.18981 16.2443 2.03469 14.6976 1.2459C13.1187 0.44071 11.42 0.022932 9.64686 0.00102354C9.59802 -0.000340999 9.40194 -0.000340999 9.3531 0.00102354C7.57995 0.0229699 5.88131 0.44071 4.30239 1.2459C2.75564 2.03469 1.37447 3.18977 0.308099 4.58631C-0.1027 5.12428 -0.1027 5.87572 0.308099 6.41369C1.37443 7.81019 2.75564 8.96531 4.30239 9.7541C5.88131 10.5593 7.57991 10.9771 9.3531 10.999C9.40194 11.0003 9.59802 11.0003 9.64686 10.999C11.42 10.977 13.1187 10.5593 14.6976 9.7541C16.2443 8.96531 17.6255 7.81023 18.6919 6.41369C19.1027 5.87565 19.1027 5.12428 18.6919 4.58631ZM4.64769 9.04776C3.2034 8.31121 1.91356 7.23246 0.917581 5.92814C0.725096 5.67604 0.725096 5.32396 0.917581 5.07186C1.91352 3.76754 3.20336 2.68879 4.64769 1.95224C5.0579 1.74309 5.47678 1.56221 5.90343 1.40908C4.80581 2.41687 4.11428 3.87739 4.11428 5.49998C4.11428 7.12265 4.80585 8.58328 5.90358 9.59103C5.47693 9.4379 5.05793 9.25695 4.64769 9.04776ZM9.50002 10.2116C6.95648 10.2116 4.88719 8.09796 4.88719 5.49994C4.88719 2.90193 6.95648 0.788365 9.50002 0.788365C12.0436 0.788365 14.1128 2.90197 14.1128 5.49998C14.1128 8.098 12.0436 10.2116 9.50002 10.2116ZM18.0825 5.92811C17.0865 7.23242 15.7967 8.31117 14.3523 9.04772C13.9426 9.25664 13.524 9.43673 13.0979 9.58971C14.1947 8.58195 14.8858 7.12189 14.8858 5.49994C14.8858 3.87712 14.194 2.41642 13.0962 1.40863C13.523 1.5618 13.9421 1.7429 14.3524 1.95217C15.7967 2.68872 17.0865 3.76747 18.0825 5.07178C18.2749 5.32392 18.2749 5.67601 18.0825 5.92811Z" fill="#999999"/>
<path d="M1.97403 3.23887e-08C0.885538 3.23887e-08 -2.71796e-07 0.904502 -2.71796e-07 2.0163C-2.71796e-07 3.1281 0.885538 4.0326 1.97403 4.0326C3.06251 4.0326 3.94805 3.1281 3.94805 2.0163C3.94809 0.904502 3.06255 3.23887e-08 1.97403 3.23887e-08ZM1.97403 3.24318C1.31174 3.24318 0.772874 2.69285 0.772874 2.0163C0.772874 1.33979 1.31166 0.789464 1.97403 0.789464C2.63631 0.789464 3.17514 1.33979 3.17514 2.0163C3.17518 2.69285 2.63631 3.24318 1.97403 3.24318Z" transform="translate(7.52588 3.48364)" fill="#999999"/>
</svg>
