<svg width="98" height="89" viewBox="0 0 98 89" fill="none" xmlns="http://www.w3.org/2000/svg">
<path d="M48.5771 80.7061L48.8296 80.8591L49.0855 80.7118C54.1911 77.7733 64.4749 69.0582 73.4741 58.944C77.9786 53.8813 82.1776 48.4502 85.2533 43.1952C88.322 37.9522 90.306 32.8288 90.306 28.3956C90.306 16.7759 82.2682 7.61304 71.6564 7.61304C65.5726 7.61304 60.688 11.3328 54.4659 17.4934L54.4659 17.4933L54.4609 17.4984L49.1552 22.904L43.5716 17.49C37.232 11.3345 32.4276 7.61304 26.3436 7.61304C16.0652 7.61304 7.69398 16.7698 7.69398 28.3956C7.69398 32.809 9.68099 37.9175 12.7475 43.1499C15.8211 48.3944 20.0135 53.8202 24.4996 58.8824C33.4635 68.9972 43.6622 77.7289 48.5771 80.7061ZM48.647 12.5237L48.9954 12.8709L49.3483 12.5283C55.6291 6.43144 62.2547 0.5 71.6564 0.5C85.896 0.5 97.5 12.4162 97.5 28.3956C97.5 34.3474 94.8923 41.0841 90.822 47.8761C86.7576 54.6582 81.2659 61.4442 75.5689 67.4818C69.8729 73.5184 63.9833 78.7947 59.1325 82.5582C56.7064 84.4406 54.5476 85.9387 52.8082 86.9634C51.9381 87.476 51.1813 87.8652 50.5541 88.1248C49.915 88.3893 49.4553 88.5 49.1639 88.5C48.8723 88.5 48.4111 88.3892 47.7694 88.1245C47.1396 87.8648 46.3792 87.4755 45.5045 86.9628C43.756 85.9379 41.5844 84.4397 39.1428 82.5573C34.2613 78.7936 28.3307 73.5172 22.5937 67.4805C16.8558 61.4428 11.3233 54.6567 7.22839 47.8747C3.12739 41.0826 0.5 34.3464 0.5 28.3956C0.5 12.4162 12.104 0.5 26.3436 0.5C35.7869 0.5 42.5379 6.4343 48.647 12.5237Z" fill="#333333" stroke="black"/>
</svg>
