<svg  class="social-svg" width="26" height="25" viewBox="0 0 26 25" fill="none" xmlns="http://www.w3.org/2000/svg">
<path d="M12.4903 0C5.59253 0 0 5.59687 0 12.5C0 19.4031 5.59253 25 12.4903 25C19.3881 25 24.9806 19.4031 24.9806 12.5C24.9806 5.59533 19.3881 0 12.4903 0ZM15.719 12.4984L13.6722 12.4999L13.6706 19.9999H10.8619V12.5H8.98833V9.91561L10.8619 9.91407L10.8587 8.3922C10.8587 6.28284 11.4301 5.00003 13.911 5.00003H15.9782V7.58596H14.6854C13.719 7.58596 13.6722 7.94688 13.6722 8.62031L13.669 9.91407H15.9922L15.719 12.4984Z" transform="translate(0.960938)" fill="#CCCCCC"/>


<style>
  .social-svg {
    cursor: pointer;
  }
  .social-svg path {
    fill: #ccc;
    transition: .3s;
  }
  .social-svg:hover path {
    fill: #999;
  }
</style>
</svg>
