<svg width="17" height="17" viewBox="0 0 17 17" fill="none" xmlns="http://www.w3.org/2000/svg">
<path d="M16.9919 13.4163C17.0279 13.6924 16.9438 13.9326 16.7399 14.1366L14.3464 16.5137C14.2384 16.6337 14.0975 16.7358 13.9235 16.8198C13.7495 16.9039 13.5786 16.9579 13.4107 16.9819C13.3987 16.9819 13.3626 16.985 13.3026 16.991C13.2427 16.9969 13.1647 17 13.0687 17C12.8407 17 12.4717 16.961 11.9618 16.8829C11.4519 16.8048 10.8281 16.6127 10.0902 16.3066C9.35226 16.0005 8.51545 15.5412 7.57965 14.929C6.64385 14.3168 5.648 13.4763 4.59219 12.4078C3.75234 11.5794 3.05647 10.7871 2.50457 10.0307C1.95267 9.27435 1.50875 8.57502 1.17282 7.93272C0.836847 7.29042 0.584893 6.70815 0.416924 6.1859C0.248955 5.66366 0.134975 5.21344 0.0749863 4.83527C0.0149973 4.45709 -0.00899836 4.15995 0.00299945 3.94385C0.0149973 3.72775 0.0209962 3.60769 0.0209962 3.58368C0.0449918 3.4156 0.0989819 3.24452 0.182967 3.07044C0.266951 2.89636 0.368933 2.75529 0.488911 2.64724L2.88247 0.252118C3.05044 0.0840394 3.24241 -1.89421e-10 3.45837 -1.89421e-10C3.61434 -1.89421e-10 3.75232 0.0450211 3.87229 0.135063C3.99227 0.225106 4.09425 0.336158 4.17824 0.46822L6.10389 4.12393C6.21187 4.31602 6.24186 4.52612 6.19387 4.75423C6.14588 4.98234 6.0439 5.17443 5.88793 5.3305L5.00609 6.21291C4.98209 6.23692 4.96109 6.27594 4.9431 6.32997C4.9251 6.38399 4.9161 6.42901 4.9161 6.46503C4.96409 6.71715 5.07207 7.00528 5.24004 7.32944C5.38402 7.61757 5.60598 7.96874 5.90592 8.38293C6.20587 8.79712 6.63179 9.27432 7.18369 9.81457C7.72359 10.3669 8.2035 10.796 8.62343 11.1022C9.04326 11.4083 9.39431 11.6335 9.67626 11.7775C9.95821 11.9216 10.1742 12.0086 10.3241 12.0386L10.549 12.0836C10.573 12.0836 10.6121 12.0746 10.666 12.0566C10.72 12.0386 10.759 12.0176 10.783 11.9935L11.8088 10.949C12.0249 10.757 12.2767 10.6609 12.5647 10.6609C12.7687 10.6609 12.9306 10.6969 13.0506 10.769H13.0686L16.5419 12.822C16.7939 12.9781 16.9439 13.1762 16.9919 13.4163Z" fill="#00B8F6"/>
</svg>
