<svg width="20" height="14" viewBox="0 0 20 14" fill="none" xmlns="http://www.w3.org/2000/svg">
<path d="M9.54857 2.1224L7.07429 2.88391e-07L2.07765e-08 5.943C0.257143 6.1768 0.604286 6.3224 0.987143 6.3224H18.11C18.4914 6.3224 18.8371 6.1768 19.0929 5.943L12.0229 2.88391e-07L9.54857 2.1224Z" transform="translate(0.451538 7.67773)" fill="#00B8F6"/>
<path d="M19.0943 0.3794C18.8371 0.1442 18.4914 0 18.1071 0H0.984286C0.602857 0 0.257143 0.1456 -1.60081e-08 0.3822L9.54571 8.4L19.0943 0.3794Z" transform="translate(0.454224)" fill="#00B8F6"/>
<path d="M0 2.93732e-08V11.6312L6.90429 5.8814L0 2.93732e-08Z" transform="translate(0 1.22949)" fill="#00B8F6"/>
<path d="M-2.61579e-07 5.8856L6.90429 11.6354V0L-2.61579e-07 5.8856Z" transform="translate(13.0957 1.22461)" fill="#00B8F6"/>
</svg>
