<svg width="26" height="25" viewBox="0 0 26 25" fill="none" xmlns="http://www.w3.org/2000/svg">
<path d="M0.699688 18.039C2.90557 14.9355 7.16516 14.6769 9.26321 14.9573C8.67972 14.3322 7.20895 13.1685 8.24676 11.2505C3.51095 11.832 1.99749 8.92269 1.78128 6.63801C1.34886 2.80184 4.72173 0.0436424 8.18162 0H15.8365C15.5771 0.237306 14.3012 1.07797 13.9985 1.07797L11.9875 1.09924C17.1124 5.90536 12.1385 9.93574 11.1221 10.7759C9.06781 13.2542 15.5119 14.4827 15.166 18.6855C15.166 22.4998 11.9442 25 6.90571 25C1.30507 24.9787 -1.37592 21.5092 0.699688 18.039V18.039ZM11.9229 22.6728C13.9339 21.1426 13.4582 18.8797 11.901 17.3708C10.971 16.4657 9.84671 15.6038 7.46786 15.8836C4.67794 16.2071 2.64557 17.5431 2.75395 19.6336C3.33744 24.0737 9.76022 24.1812 11.9223 22.6509V22.6728H11.9229ZM10.5605 9.63406C12.8742 7.73725 10.7334 1.12161 7.57624 1.12161C5.56522 1.12161 4.52741 2.56508 4.44038 4.613C4.28931 8.40552 7.7711 11.9187 10.5605 9.63406V9.63406ZM20.7885 12.0475L17.3073 12.0693V10.3236H20.7458V6.89713H22.4974V10.3242L25.9787 10.3454L26 12.0698H22.4974V15.5181L20.7672 15.54L20.7885 12.0475V12.0475Z" fill="#DD4B39"/>
</svg>
