<svg width="30" height="30" viewBox="0 0 30 30" fill="none" xmlns="http://www.w3.org/2000/svg">
<path d="M27.8041 2.72729H5.45453V2.92295L5.17488 1.96421C4.83795 0.807634 3.76134 0 2.55682 0H0.68184C0.304965 0 0 0.304964 0 0.681839C0 1.05871 0.304965 1.36368 0.68184 1.36368H2.55682C3.1594 1.36368 3.69742 1.76721 3.86585 2.34581L8.10991 16.8963L5.93527 19.6143C5.625 20.0025 5.45453 20.4892 5.45453 20.9859C5.45453 22.1971 6.43929 23.1818 7.65045 23.1818H26.5909C26.9678 23.1818 27.2728 22.8768 27.2728 22.5C27.2728 22.1231 26.9678 21.8181 26.5909 21.8181H7.65045C7.1917 21.8181 6.81814 21.4446 6.81814 20.9858C6.81814 20.7974 6.8827 20.6123 7.00057 20.4658L9.1917 17.7272H22.5652C23.6166 17.7272 24.5854 17.1126 25.0335 16.1612L29.7916 6.05045C29.9281 5.75948 30 5.43655 30 5.11625V4.92315C30 3.71205 29.0152 2.72729 27.8041 2.72729ZM28.6364 5.11631C28.6364 5.23815 28.6091 5.36068 28.5571 5.47056L23.7997 15.5806C23.5753 16.056 23.0913 16.3636 22.5652 16.3636H9.37503L5.79522 4.0909H27.8041C28.2628 4.0909 28.6364 4.46445 28.6364 4.92321V5.11631Z" fill="#333333"/>
<path d="M2.72736 0C1.22321 0 1.17045e-08 1.22312 1.17045e-08 2.72729C1.17045e-08 4.23147 1.22315 5.45458 2.72736 5.45458C4.23157 5.45458 5.45471 4.23147 5.45471 2.72729C5.45471 1.22312 4.2315 0 2.72736 0ZM2.72736 4.0909C1.97563 4.0909 1.36371 3.47899 1.36371 2.72729C1.36371 1.97559 1.97563 1.36368 2.72736 1.36368C3.47908 1.36368 4.091 1.97559 4.091 2.72729C4.091 3.47899 3.47908 4.0909 2.72736 4.0909Z" transform="translate(5.45459 24.5449)" fill="#333333"/>
<path d="M2.7273 0C1.22318 0 4.99379e-07 1.22312 4.99379e-07 2.72729C4.99379e-07 4.23146 1.22312 5.45458 2.7273 5.45458C4.23147 5.45458 5.45459 4.23146 5.45459 2.72729C5.45459 1.22312 4.23141 0 2.7273 0ZM2.7273 4.0909C1.97559 4.0909 1.36368 3.47899 1.36368 2.72729C1.36368 1.97559 1.97559 1.36368 2.7273 1.36368C3.479 1.36368 4.09091 1.97559 4.09091 2.72729C4.09091 3.47899 3.479 4.0909 2.7273 4.0909Z" transform="translate(21.8184 24.5449)" fill="#333333"/>
</svg>
