<svg width="223" height="236" viewBox="0 0 223 236" fill="none" xmlns="http://www.w3.org/2000/svg">
<path d="M71.36 0C31.947 0 0 31.9001 0 71.2453C0 102.811 20.5829 129.537 49.06 138.893V182.566H57.98V195.925H84.74V182.566H93.66V138.893C122.137 129.537 142.72 102.811 142.72 71.2453C142.72 31.9001 110.773 0 71.36 0Z" transform="translate(40.14 40.0754)" fill="#EFCE4A"/>
<path d="M4.46 0C1.99362 0 0 1.99042 0 4.45283V22.2641C0 24.7266 1.99362 26.717 4.46 26.717C6.92638 26.717 8.92 24.7266 8.92 22.2641V4.45283C8.92 1.99042 6.92638 0 4.46 0Z" transform="translate(107.04)" fill="#EFCE4A"/>
<path d="M22.3 0H4.46C1.99362 0 0 1.99042 0 4.45283C0 6.91525 1.99362 8.90566 4.46 8.90566H22.3C24.7664 8.90566 26.76 6.91525 26.76 4.45283C26.76 1.99042 24.7664 0 22.3 0Z" transform="translate(196.24 106.868)" fill="#EFCE4A"/>
<path d="M22.3 0H4.46C1.99362 0 0 1.99042 0 4.45283C0 6.91525 1.99362 8.90566 4.46 8.90566H22.3C24.7664 8.90566 26.76 6.91525 26.76 4.45283C26.76 1.99042 24.7664 0 22.3 0Z" transform="translate(0 106.868)" fill="#EFCE4A"/>
<path d="M13.9208 1.30412L1.3079 13.8967C-0.435961 15.6378 -0.435961 18.452 1.3079 20.193C2.1776 21.0613 3.31936 21.4977 4.46112 21.4977C5.60288 21.4977 6.74463 21.0613 7.61433 20.193L20.2272 7.60042C21.9711 5.85937 21.9711 3.04518 20.2272 1.30412C18.4834 -0.436933 15.6602 -0.43248 13.9208 1.30412Z" transform="translate(170.116 31.2997)" fill="#EFCE4A"/>
<path d="M13.9208 1.3058L1.30789 13.8984C-0.435967 15.6395 -0.435967 18.4536 1.30789 20.1947C2.17759 21.063 3.31936 21.4994 4.46112 21.4994C5.60288 21.4994 6.74464 21.063 7.61434 20.1947L20.2272 7.60209C21.9711 5.86103 21.9711 3.04685 20.2272 1.3058C18.4834 -0.43526 15.6646 -0.43526 13.9208 1.3058Z" transform="translate(31.3485 169.843)" fill="#EFCE4A"/>
<path d="M7.61433 1.3058C5.87047 -0.43526 3.05176 -0.43526 1.3079 1.3058C-0.435961 3.04685 -0.435961 5.86103 1.3079 7.60209L13.9208 20.1947C14.7905 21.063 15.9322 21.4994 17.074 21.4994C18.2158 21.4994 19.3575 21.063 20.2272 20.1947C21.9711 18.4536 21.9711 15.6395 20.2272 13.8984L7.61433 1.3058Z" transform="translate(170.116 169.843)" fill="#EFCE4A"/>
<path d="M7.61434 1.30579C5.87048 -0.435264 3.05175 -0.435264 1.30789 1.30579C-0.435967 3.04685 -0.435967 5.86104 1.30789 7.6021L13.9208 20.1947C14.7905 21.063 15.9322 21.4994 17.074 21.4994C18.2158 21.4994 19.3575 21.063 20.2272 20.1947C21.9711 18.4536 21.9711 15.6395 20.2272 13.8984L7.61434 1.30579Z" transform="translate(31.3485 31.2981)" fill="#EFCE4A"/>
<path d="M4.46 57.8868C1.99362 57.8868 0 55.8964 0 53.434C0 23.9696 24.0082 0 53.52 0C55.9864 0 57.98 1.99042 57.98 4.45283C57.98 6.91525 55.9864 8.90566 53.52 8.90566C28.9276 8.90566 8.92 28.8811 8.92 53.434C8.92 55.8964 6.92638 57.8868 4.46 57.8868Z" transform="translate(57.98 57.8868)" fill="#F7E6A1"/>
<path d="M0 0V31.1698H8.92V44.5283H35.68V31.1698H44.6V0H0Z" transform="translate(89.2 191.472)" fill="#556080"/>
</svg>
