<svg width="22" height="22" viewBox="0 0 22 22" fill="none" xmlns="http://www.w3.org/2000/svg"><path d="M11 13.202A2.206 2.206 0 0 0 13.203 11c0-.48-.157-.922-.417-1.284a2.2 2.2 0 0 0-1.785-.918c-.735 0-1.385.363-1.786.918-.26.361-.416.804-.417 1.284A2.203 2.203 0 0 0 11 13.202zM15.808 8.306V6.185l-.276.001-1.845.006.007 2.121 2.114-.007z" fill="#fff" fill-opacity=".2"/><path d="M11 0C4.935 0 0 4.935 0 11s4.935 11 11 11 11-4.935 11-11S17.066 0 11 0zm6.256 9.716v5.122a2.42 2.42 0 0 1-2.418 2.419H7.162a2.42 2.42 0 0 1-2.418-2.419V7.162a2.42 2.42 0 0 1 2.418-2.417h7.676a2.42 2.42 0 0 1 2.418 2.417v2.554z" fill="#fff" fill-opacity=".2"/><path d="M14.422 11A3.426 3.426 0 0 1 11 14.422 3.426 3.426 0 0 1 7.579 11c0-.454.09-.888.251-1.284H5.963v5.122c0 .662.537 1.198 1.199 1.198h7.675a1.2 1.2 0 0 0 1.2-1.198V9.716h-1.87c.163.396.255.83.255 1.284z" fill="#fff" fill-opacity=".2"/></svg>