<svg width="24" height="24" viewBox="0 0 24 24" fill="none" xmlns="http://www.w3.org/2000/svg">
<rect width="23.9999" height="24.0002" fill="black" fill-opacity="0"/>
<rect width="23.9999" height="24.0002" fill="black" fill-opacity="0"/>
<rect width="23.9999" height="24.0002" fill="black" fill-opacity="0"/>
<path d="M16.8898 9.37001H8.17989V11.37H16.8898L17.0098 11.46L15.6198 16.57C15.5753 16.6981 15.4913 16.8088 15.3799 16.8861C15.2685 16.9634 15.1354 17.0033 14.9998 17H7.99989C7.84088 16.9958 7.68894 16.9334 7.57283 16.8247C7.45673 16.7159 7.38453 16.5684 7.3699 16.41L6.16992 10.21C6.06437 9.51752 5.71341 8.88605 5.18106 8.43079C4.6487 7.97553 3.97042 7.72681 3.26996 7.73001H0V9.73001H3.26996C3.49807 9.73057 3.71821 9.81407 3.88931 9.96494C4.06042 10.1158 4.17082 10.3238 4.19994 10.55L5.36993 16.78C5.47229 17.4025 5.79338 17.9681 6.27547 18.3751C6.75756 18.782 7.36902 19.0036 7.99989 19H14.9998C15.5779 18.9977 16.1395 18.8071 16.5996 18.457C17.0597 18.107 17.3933 17.6166 17.5498 17.06L18.9997 12C19.0704 11.6907 19.0704 11.3694 18.9998 11.0601C18.9291 10.7508 18.7896 10.4614 18.5916 10.2135C18.3937 9.96552 18.1423 9.76541 17.8563 9.62804C17.5703 9.49066 17.257 9.41956 16.9398 9.42001L16.8898 9.37001Z" fill="#00AEE9"/>
<path d="M8.22076 20.6602C7.89047 20.6602 7.5676 20.7581 7.29297 20.9416C7.01834 21.1251 6.8043 21.3859 6.6779 21.6911C6.5515 21.9962 6.51843 22.332 6.58287 22.656C6.64731 22.9799 6.80636 23.2775 7.03991 23.511C7.27346 23.7446 7.57102 23.9036 7.89496 23.9681C8.21891 24.0325 8.55468 23.9994 8.85983 23.873C9.16498 23.7466 9.4258 23.5326 9.6093 23.258C9.7928 22.9833 9.89074 22.6605 9.89074 22.3302C9.89074 21.8872 9.71479 21.4625 9.40161 21.1493C9.08843 20.8361 8.66367 20.6602 8.22076 20.6602Z" fill="#00AEE9"/>
<path d="M13.8692 24.0001C14.7915 24.0001 15.5392 23.2525 15.5392 22.3302C15.5392 21.4078 14.7915 20.6602 13.8692 20.6602C12.9469 20.6602 12.1992 21.4078 12.1992 22.3302C12.1992 23.2525 12.9469 24.0001 13.8692 24.0001Z" fill="#00AEE9"/>
<path d="M22.9999 2.99999H20.9999V0.999996C20.9999 0.734781 20.8946 0.480428 20.707 0.292892C20.5195 0.105356 20.2652 0 19.9999 0C19.7347 0 19.4804 0.105356 19.2928 0.292892C19.1053 0.480428 19 0.734781 19 0.999996V2.99999H17C16.7348 2.99999 16.4804 3.10535 16.2929 3.29288C16.1054 3.48042 16 3.73477 16 3.99999C16 4.2652 16.1054 4.51955 16.2929 4.70709C16.4804 4.89463 16.7348 4.99998 17 4.99998H19V6.99998C19 7.26519 19.1053 7.51954 19.2928 7.70708C19.4804 7.89461 19.7347 7.99997 19.9999 7.99997C20.2652 7.99997 20.5195 7.89461 20.707 7.70708C20.8946 7.51954 20.9999 7.26519 20.9999 6.99998V4.99998H22.9999C23.2651 4.99998 23.5195 4.89463 23.707 4.70709C23.8945 4.51955 23.9999 4.2652 23.9999 3.99999C23.9999 3.73477 23.8945 3.48042 23.707 3.29288C23.5195 3.10535 23.2651 2.99999 22.9999 2.99999Z" fill="#00AEE9"/>
</svg>
