<svg width="16" height="17" viewBox="0 0 16 17" fill="none" xmlns="http://www.w3.org/2000/svg">
<path d="M15.5198 11.5573C15.8571 11.1129 16.0189 10.6366 15.9982 10.146C15.9776 9.6056 15.7435 9.18256 15.5508 8.92305C15.7745 8.34714 15.8606 7.44061 15.1137 6.73672C14.5664 6.22125 13.6371 5.99017 12.3498 6.05416C11.4445 6.09682 10.6873 6.27102 10.6563 6.27813H10.6529C10.4808 6.31012 10.2984 6.34923 10.1125 6.39189C10.0987 6.16437 10.1366 5.59912 10.5427 4.32643C11.0246 2.812 10.9971 1.65307 10.4532 0.878085C9.88188 0.06399 8.96976 0 8.70128 0C8.44314 0 8.20564 0.110205 8.03698 0.31284C7.65493 0.771435 7.69967 1.61752 7.74786 2.00857C7.29352 3.26704 6.01999 6.35278 4.94266 7.20954C4.92201 7.22376 4.9048 7.24153 4.88759 7.25931C4.57093 7.60414 4.35753 7.97742 4.21296 8.30448C4.00989 8.19072 3.77928 8.12673 3.53145 8.12673H1.43186C0.640205 8.12673 0 8.79151 0 9.60561V15.3825C0 16.2001 0.643647 16.8614 1.43186 16.8614H3.53145C3.83779 16.8614 4.12347 16.7618 4.35753 16.5912L5.16639 16.6907C5.2903 16.7085 7.49316 16.9964 9.75453 16.9502C10.1641 16.9822 10.5496 17 10.9076 17C11.5237 17 12.0606 16.9502 12.5081 16.8507C13.5613 16.6196 14.2807 16.1575 14.6456 15.4785C14.9244 14.9594 14.9244 14.444 14.8796 14.1169C15.5646 13.477 15.685 12.7696 15.6609 12.2719C15.6472 11.9839 15.5852 11.7386 15.5198 11.5573ZM1.43186 15.9015C1.15306 15.9015 0.92933 15.6669 0.92933 15.3825V9.60205C0.92933 9.31409 1.1565 9.08302 1.43186 9.08302H3.53145C3.81025 9.08302 4.03398 9.31765 4.03398 9.60205V15.3789C4.03398 15.6669 3.80681 15.898 3.53145 15.898H1.43186V15.9015ZM14.6387 11.1414C14.4941 11.2978 14.4666 11.536 14.5767 11.7208C14.5767 11.7244 14.7178 11.9732 14.735 12.3145C14.7591 12.7802 14.5423 13.1926 14.088 13.5445C13.9262 13.6725 13.8608 13.8929 13.9296 14.092C13.9296 14.0956 14.0776 14.5648 13.8367 15.0092C13.6061 15.4358 13.0932 15.7415 12.3153 15.9122C11.6924 16.0508 10.8456 16.0757 9.80615 15.9904C9.79239 15.9904 9.77518 15.9904 9.75797 15.9904C7.54478 16.0401 5.30751 15.7415 5.28341 15.738H5.27997L4.93233 15.6953C4.95299 15.5958 4.96331 15.4891 4.96331 15.3825V9.60205C4.96331 9.44919 4.93922 9.29988 4.89791 9.16123C4.95987 8.92305 5.13197 8.39335 5.53812 7.94187C7.08356 6.67629 8.59458 2.40673 8.65998 2.22187C8.68752 2.14722 8.6944 2.06545 8.68063 1.98369C8.62212 1.58553 8.64277 1.09849 8.72538 0.952739C8.9078 0.956294 9.4 1.00962 9.69601 1.43266C10.0471 1.93392 10.0333 2.82978 9.65471 4.01715C9.07646 5.82664 9.02827 6.77938 9.48605 7.19887C9.71322 7.40862 10.0161 7.41928 10.2364 7.33752C10.4464 7.28775 10.646 7.24509 10.8353 7.21309C10.8491 7.20954 10.8663 7.20598 10.88 7.20243C11.9367 6.96424 13.8298 6.81849 14.4872 7.43706C15.0448 7.9632 14.649 8.65998 14.6043 8.73463C14.4769 8.93371 14.5148 9.19322 14.6869 9.3532C14.6903 9.35676 15.0517 9.7087 15.0689 10.1815C15.0827 10.4979 14.9381 10.8214 14.6387 11.1414Z" fill="#91B124"/>
<path d="M14.6387 11.1414C14.4941 11.2978 14.4666 11.536 14.5767 11.7208C14.5767 11.7244 14.7178 11.9732 14.735 12.3145C14.7591 12.7802 14.5423 13.1926 14.088 13.5445C13.9262 13.6725 13.8608 13.8929 13.9296 14.092C13.9296 14.0956 14.0776 14.5648 13.8367 15.0092C13.6061 15.4358 13.0932 15.7415 12.3153 15.9122C11.6924 16.0508 10.8456 16.0757 9.80615 15.9904H9.75797C7.54478 16.0401 5.30751 15.7415 5.28341 15.738H5.27997L4.93233 15.6953C4.95299 15.5958 4.96331 15.4891 4.96331 15.3825V9.60205C4.96331 9.44919 4.93922 9.29988 4.89791 9.16123C4.95987 8.92305 5.13197 8.39335 5.53812 7.94187C7.08356 6.67629 8.59458 2.40673 8.65998 2.22187C8.68752 2.14722 8.6944 2.06545 8.68063 1.98369C8.62212 1.58553 8.64277 1.09849 8.72538 0.952739C8.9078 0.956294 9.4 1.00962 9.69601 1.43266C10.0471 1.93392 10.0333 2.82978 9.65471 4.01715C9.07646 5.82664 9.02827 6.77938 9.48605 7.19887C9.71322 7.40862 10.0161 7.41928 10.2364 7.33752C10.4464 7.28775 10.646 7.24509 10.8353 7.21309C10.8491 7.20954 10.8663 7.20598 10.88 7.20243C11.9367 6.96424 13.8298 6.81849 14.4872 7.43706C15.0448 7.9632 14.649 8.65998 14.6043 8.73463C14.4769 8.93371 14.5148 9.19322 14.6869 9.3532C14.7018 9.36802 15.052 9.71656 15.0689 10.1815C15.0827 10.4979 14.9381 10.8214 14.6387 11.1414Z" fill="#91B124"/>
<path d="M1.43186 15.9015C1.15306 15.9015 0.92933 15.6669 0.92933 15.3825V9.60205C0.92933 9.31409 1.1565 9.08302 1.43186 9.08302H3.53145C3.81025 9.08302 4.03398 9.31765 4.03398 9.60205V15.3789C4.03398 15.6669 3.80681 15.898 3.53145 15.898H1.43186V15.9015Z" fill="#91B124"/>
</svg>
