<svg width="9510" height="2030" viewBox="0 0 9510 2030" fill="none" xmlns="http://www.w3.org/2000/svg">
<path d="M541.572 1086.4C434.215 1086.09 329.359 1053.96 240.246 994.086C151.133 934.21 81.7621 849.265 40.8941 749.981C0.0260371 650.697 -10.5055 541.528 10.6297 436.262C31.7648 330.995 83.6184 234.354 159.641 158.544C235.664 82.7334 332.447 31.155 437.764 10.3229C543.081 -10.5091 652.209 0.339748 751.365 41.4991C850.52 82.6585 935.255 152.282 994.868 241.576C1054.48 330.871 1086.3 435.83 1086.3 543.197C1086.23 614.645 1072.08 685.378 1044.66 751.354C1017.24 817.329 977.09 877.253 926.501 927.701C875.912 978.149 815.877 1018.13 749.828 1045.36C683.78 1072.59 613.013 1086.53 541.572 1086.4ZM541.572 210.659C475.75 210.97 411.497 230.782 356.926 267.591C302.356 304.401 259.916 356.558 234.966 417.475C210.017 478.392 203.677 545.336 216.747 609.854C229.818 674.373 261.712 733.57 308.402 779.972C355.092 826.373 414.484 857.896 479.077 870.561C543.67 883.226 610.567 876.464 671.32 851.129C732.072 825.794 783.956 783.022 820.418 728.216C856.879 673.41 876.284 609.026 876.181 543.197C876.112 499.37 867.395 455.987 850.529 415.536C833.664 375.084 808.981 338.359 777.895 307.466C746.81 276.574 709.934 252.12 669.381 235.508C628.828 218.896 585.395 210.451 541.572 210.659Z" transform="translate(3852.71 916.34)" fill="#F15A24"/>
<path d="M105.058 1593.88C77.1947 1593.88 50.4728 1582.81 30.7706 1563.1C11.0685 1543.4 4.80916e-05 1516.67 4.80916e-05 1488.81V105.068C4.80916e-05 77.2019 11.0685 50.4776 30.7706 30.7736C50.4728 11.0696 77.1947 -1.4028e-05 105.058 -1.4028e-05C132.921 -1.4028e-05 159.643 11.0696 179.345 30.7736C199.047 50.4776 210.115 77.2019 210.115 105.068V1488.81C210.115 1516.67 199.047 1543.4 179.345 1563.1C159.643 1582.81 132.921 1593.88 105.058 1593.88Z" transform="translate(3851.12 435.123)" fill="#F15A24"/>
<path d="M543.148 1086.4C435.724 1086.4 330.712 1054.54 241.391 994.854C152.071 935.166 82.4544 850.33 41.3449 751.073C0.23527 651.816 -10.5209 542.597 10.4366 437.227C31.3941 331.856 83.124 235.067 159.085 159.1C235.045 83.1319 331.825 31.3971 437.185 10.4376C542.546 -10.5218 651.755 0.235333 751.002 41.3488C850.249 82.4623 935.078 152.086 994.759 241.414C1054.44 330.743 1086.3 435.765 1086.3 543.2C1086.3 571.065 1075.23 597.79 1055.53 617.494C1035.82 637.198 1009.1 648.267 981.239 648.267H227.45C245.537 702.961 277.521 752.017 320.268 790.63C363.015 829.242 415.059 856.087 471.3 868.533C527.541 880.979 586.051 878.6 641.096 861.629C696.141 844.658 745.834 813.677 785.306 771.722C794.617 761.049 805.99 752.368 818.741 746.203C831.492 740.037 845.357 736.514 859.505 735.845C873.652 735.175 887.789 737.374 901.065 742.308C914.341 747.241 926.482 754.809 936.759 764.555C947.036 774.302 955.236 786.026 960.867 799.023C966.498 812.019 969.444 826.021 969.526 840.185C969.608 854.349 966.826 868.384 961.346 881.445C955.867 894.506 947.803 906.325 937.64 916.19C886.876 969.85 825.722 1012.61 757.901 1041.88C690.079 1071.14 617.012 1086.29 543.148 1086.4ZM227.975 438.132H858.321C835.872 372.366 793.415 315.269 736.898 274.84C680.381 234.411 612.635 212.674 543.148 212.674C473.662 212.674 405.915 234.411 349.398 274.84C292.882 315.269 250.425 372.366 227.975 438.132Z" transform="translate(2535.29 916.34)" fill="#F15A24"/>
<path d="M543.148 1086.4C435.724 1086.4 330.711 1054.54 241.391 994.854C152.071 935.166 82.4547 850.33 41.3451 751.073C0.235495 651.816 -10.5209 542.597 10.4366 437.227C31.3941 331.856 83.1239 235.067 159.084 159.1C235.045 83.1319 331.825 31.3971 437.185 10.4376C542.546 -10.5218 651.755 0.235333 751.002 41.3488C850.249 82.4623 935.078 152.086 994.759 241.414C1054.44 330.743 1086.3 435.765 1086.3 543.2C1086.3 571.065 1075.23 597.79 1055.53 617.494C1035.82 637.198 1009.1 648.267 981.239 648.267H227.45C245.537 702.961 277.521 752.017 320.268 790.63C363.015 829.242 415.059 856.087 471.3 868.533C527.541 880.979 586.051 878.6 641.096 861.629C696.141 844.658 745.834 813.677 785.306 771.722C794.791 761.684 806.16 753.613 818.764 747.969C831.368 742.326 844.96 739.22 858.764 738.83C872.568 738.439 886.314 740.772 899.217 745.695C912.119 750.617 923.926 758.033 933.963 767.519C944 777.005 952.07 788.375 957.713 800.98C963.356 813.585 966.462 827.179 966.852 840.984C967.242 854.789 964.909 868.536 959.987 881.44C955.065 894.344 947.65 906.152 938.165 916.19C887.265 969.817 826.01 1012.55 758.111 1041.81C690.212 1071.07 617.081 1086.24 543.148 1086.4ZM227.975 438.132H858.321C835.872 372.366 793.415 315.269 736.898 274.84C680.381 234.411 612.635 212.674 543.148 212.674C473.662 212.674 405.915 234.411 349.398 274.84C292.882 315.269 250.425 372.366 227.975 438.132Z" transform="translate(5136.49 916.34)" fill="#F15A24"/>
<path d="M105.058 1561.3C77.1946 1561.3 50.4727 1550.24 30.7706 1530.53C11.0685 1510.83 0 1484.1 0 1456.24V105.068C0 77.2019 11.0685 50.4776 30.7706 30.7736C50.4727 11.0696 77.1946 -2.00401e-05 105.058 -2.00401e-05C132.921 -2.00401e-05 159.643 11.0696 179.345 30.7736C199.047 50.4776 210.115 77.2019 210.115 105.068V1456.24C210.115 1484.1 199.047 1510.83 179.345 1530.53C159.643 1550.24 132.921 1561.3 105.058 1561.3Z" transform="translate(6527.99 467.7)" fill="#F15A24"/>
<path d="M936.294 1338.71C1033.47 1305.08 1087.05 1086.02 1087.05 1086.02L713.047 173.506C689.661 116.225 647.896 68.3456 594.325 37.3995C540.753 6.45354 478.415 -5.80235 417.116 2.56003C355.818 10.9224 299.039 39.4285 255.712 83.5935C212.385 127.758 184.97 185.076 177.778 246.528L1.28131 1741.11C-4.70924 1793.78 10.4651 1846.67 43.4662 1888.15C76.4672 1929.62 124.592 1956.29 177.253 1962.28C229.914 1968.27 282.798 1953.1 324.271 1920.09C365.744 1887.09 392.409 1838.96 398.399 1786.29L519.741 751.378L701.49 1193.71C711.471 1232.06 841.742 1371.8 936.294 1338.71Z" fill="#FF0000"/>
<path d="M1522.29 1740.97L1348.41 257.416C1342.19 194.947 1315.65 136.245 1272.85 90.3153C1230.06 44.3859 1173.38 13.7658 1111.51 3.15218C1097.78 1.03944 1083.91 -0.0143392 1070.01 0.000147339C1014.68 0.0509689 960.605 16.5618 914.678 47.4323C868.75 78.3029 833.042 122.138 812.096 173.362C812.096 173.362 407.624 1171.5 374.531 1239.27C341.437 1307.04 276.302 1452.03 160.738 1455.19C129.596 1455.54 98.8103 1448.53 70.8815 1434.75C42.9526 1420.97 18.668 1400.79 -1.20229e-05 1375.86L190.68 1838.68C191.23 1840.58 192.119 1842.36 193.306 1843.94C195.397 1849.61 198.036 1855.06 201.185 1860.22L206.438 1869.68L216.944 1883.86L223.773 1891.22C229.494 1898.07 235.635 1904.56 242.158 1910.65C248.525 1916.48 255.378 1921.76 262.644 1926.41H266.846C273.196 1930.77 279.869 1934.63 286.807 1937.97L291.535 1940.6C298.358 1943.68 305.377 1946.32 312.547 1948.48H318.325L340.387 1953.21H346.165C355.612 1953.75 365.083 1953.75 374.531 1953.21C383.978 1953.75 393.449 1953.75 402.896 1953.21H408.674L430.736 1948.48H436.514C443.684 1946.32 450.703 1943.68 457.526 1940.6L462.254 1937.97C469.192 1934.63 475.865 1930.77 482.215 1926.41H486.417C493.683 1921.76 500.536 1916.48 506.903 1910.65C513.426 1904.56 519.567 1898.07 525.288 1891.22L530.541 1883.86L541.047 1869.68L546.3 1860.75C549.353 1855.35 551.988 1849.73 554.179 1843.94C555.366 1842.36 556.256 1840.58 556.806 1838.68L1003.3 751.234L1124.12 1780.37C1128.76 1825.41 1148.27 1867.62 1179.56 1900.35C1210.85 1933.07 1252.15 1954.44 1296.94 1961.09C1305.51 1961.61 1314.1 1961.61 1322.68 1961.09C1350.73 1961.32 1378.52 1955.62 1404.21 1944.36C1429.91 1933.1 1452.94 1916.53 1471.78 1895.75C1490.63 1874.96 1504.87 1850.43 1513.58 1823.76C1522.28 1797.08 1525.25 1768.87 1522.29 1740.97Z" transform="translate(775.57 0.153931)" fill="url(#paint0_linear)"/>
<path d="M337.76 674.534C271.039 674.638 205.787 654.946 150.259 617.95C94.7324 580.953 51.4268 528.316 25.8217 466.698C0.216617 405.079 -6.53695 337.25 6.41596 271.792C19.3689 206.334 51.4461 146.189 98.5883 98.9693C145.73 51.7491 205.819 19.5753 271.251 6.51919C336.682 -6.53697 404.516 0.11124 466.168 25.6227C527.82 51.1341 580.52 94.3621 617.599 149.837C654.678 205.311 674.47 270.539 674.47 337.267C674.471 426.625 639.012 512.33 575.882 575.565C512.752 638.8 427.11 674.395 337.76 674.534ZM337.76 158.127C302.185 158.023 267.379 168.485 237.756 188.187C208.132 207.889 185.025 235.943 171.363 268.794C157.701 301.645 154.098 337.813 161.014 372.714C167.929 407.614 185.05 439.676 210.206 464.834C235.361 489.992 267.42 507.115 302.317 514.03C337.214 520.946 373.379 517.344 406.227 503.68C439.075 490.017 467.127 466.907 486.827 437.281C506.527 407.655 516.988 372.846 516.884 337.267C516.884 289.756 498.012 244.191 464.42 210.595C430.828 177 385.267 158.127 337.76 158.127Z" transform="translate(7516.6 994.602)" fill="#F15A24"/>
<path d="M78.7932 415.225C57.896 415.225 37.8549 406.923 23.0783 392.145C8.30175 377.367 0 357.324 0 336.425C0.0450803 288.548 10.2982 241.231 30.0749 197.63C49.8515 154.029 78.6972 115.147 114.688 83.5778C150.679 52.0084 192.986 28.4772 238.79 14.554C284.593 0.630737 332.839 -3.36443 380.309 2.83495C401.206 5.69118 420.113 16.7326 432.87 33.5303C445.627 50.328 451.19 71.5058 448.334 92.4051C445.478 113.304 434.437 132.213 417.641 144.971C400.845 157.73 379.669 163.293 358.772 160.436C350.726 159.914 342.654 159.914 334.608 160.436C287.053 160.436 241.439 179.293 207.764 212.873C174.088 246.454 155.099 292.017 154.96 339.577C154.174 359.478 145.881 378.344 131.75 392.379C117.619 406.414 98.6982 414.577 78.7932 415.225Z" transform="translate(8327.1 995.449)" fill="#F15A24"/>
<path d="M77.7442 712.884C56.9383 712.607 37.0864 704.11 22.5215 689.249C7.95651 674.387 -0.138762 654.367 0.00180026 633.558V78.8007C0.00180026 57.9015 8.30355 37.8582 23.0801 23.0802C37.8567 8.30216 57.8978 2.80561e-05 78.795 2.80561e-05C99.6923 2.80561e-05 119.733 8.30216 134.51 23.0802C149.287 37.8582 157.588 57.9015 157.588 78.8007V633.558C157.659 644.039 155.638 654.429 151.644 664.12C147.65 673.811 141.763 682.607 134.328 689.994C126.893 697.381 118.058 703.211 108.342 707.141C98.6266 711.071 88.2239 713.024 77.7442 712.884Z" transform="translate(9351.41 995.141)" fill="#F15A24"/>
<path d="M336.71 674.534C270.034 674.43 204.884 654.561 149.495 617.439C94.1065 580.316 50.9641 527.606 25.5201 465.97C0.0761419 404.333 -6.52755 336.537 6.544 271.148C19.6155 205.759 51.776 145.713 98.96 98.5978C146.144 51.4827 206.234 19.4133 271.637 6.44234C337.04 -6.52866 404.82 0.180968 466.411 25.7233C528.002 51.2656 580.64 94.4941 617.672 149.946C654.705 205.398 674.47 270.584 674.47 337.267C674.331 426.764 638.684 512.548 575.357 575.782C512.029 639.017 426.199 674.534 336.71 674.534ZM336.71 158.127C301.179 158.231 266.477 168.869 236.992 188.698C207.507 208.526 184.563 236.653 171.062 269.522C157.561 302.391 154.109 338.526 161.142 373.358C168.176 408.189 185.38 440.152 210.577 465.205C235.775 490.258 267.835 507.276 302.703 514.106C337.572 520.937 373.683 517.273 406.47 503.579C439.256 489.885 467.246 466.775 486.899 437.171C506.553 407.568 516.987 372.801 516.884 337.267C516.815 313.673 512.1 290.323 503.008 268.552C493.916 246.78 480.626 227.012 463.895 210.378C447.164 193.743 427.321 180.567 405.499 171.601C383.676 162.636 360.302 158.057 336.71 158.127Z" transform="translate(8834.54 994.602)" fill="#F15A24"/>
<path d="M281.955 416.068C231.736 416.415 182.077 405.507 136.626 384.143C91.176 362.78 51.0896 331.504 19.3109 292.613C12.3986 284.656 7.1524 275.392 3.88396 265.371C0.615515 255.349 -0.609433 244.774 0.281898 234.271C1.17323 223.767 4.16263 213.55 9.07304 204.223C13.9834 194.895 20.7156 186.648 28.8699 179.97C37.0243 173.291 46.4355 168.316 56.5466 165.34C66.6578 162.364 77.2629 161.447 87.7348 162.643C98.2067 163.839 108.333 167.125 117.512 172.304C126.692 177.484 134.739 184.453 141.177 192.799C164.41 222.408 196.353 243.972 232.498 254.449C268.644 264.925 307.168 263.785 342.631 251.189C378.094 238.593 408.706 215.177 430.147 184.246C451.588 153.316 462.774 116.432 462.129 78.8007C462.129 57.9015 470.43 37.8582 485.207 23.0802C499.983 8.30223 520.024 0 540.922 0C561.819 0 581.86 8.30223 596.637 23.0802C611.413 37.8582 619.715 57.9015 619.715 78.8007C619.715 123.135 610.974 167.035 593.994 207.989C577.013 248.942 552.126 286.145 520.755 317.47C489.384 348.795 452.146 373.627 411.17 390.546C370.194 407.464 326.286 416.137 281.955 416.068Z" transform="translate(8889.27 1549.9)" fill="#F15A24"/>
<path d="M78.7932 682.939C57.896 682.939 37.8549 674.637 23.0783 659.859C8.30175 645.081 0 625.038 0 604.139V78.8007C0 57.9015 8.30175 37.8582 23.0783 23.0802C37.8549 8.30216 57.896 3.20641e-05 78.7932 3.20641e-05C99.6905 3.20641e-05 119.732 8.30216 134.508 23.0802C149.285 37.8582 157.586 57.9015 157.586 78.8007V604.139C157.586 625.038 149.285 645.081 134.508 659.859C119.732 674.637 99.6905 682.939 78.7932 682.939Z" transform="translate(8327.1 990.934)" fill="#F15A24"/>
<path d="M159.688 319.405C247.881 319.405 319.375 247.904 319.375 159.703C319.375 71.5014 247.881 8.01602e-06 159.688 8.01602e-06C71.4949 8.01602e-06 -0.000160305 71.5014 -0.000160305 159.703C-0.000160305 247.904 71.4949 319.405 159.688 319.405Z" transform="translate(7103.19 1699.09)" fill="#F15A24"/>
<defs>
<linearGradient id="paint0_linear" x2="1" gradientUnits="userSpaceOnUse" gradientTransform="translate(-800.014 1668.21) scale(1695.94 1696.1) rotate(-42.9541)">
<stop stop-color="#F7931E"/>
<stop offset="1" stop-color="#F15A24"/>
</linearGradient>
</defs>
</svg>
