<svg width="40" height="25" viewBox="0 0 40 25" fill="none" xmlns="http://www.w3.org/2000/svg">
<path d="M21.8541 24.463C21.8136 24.4909 21.8406 24.484 21.7662 24.5049L21.5295 24.5118C18.1343 24.47 14.543 24.5118 11.1478 24.5118C10.5391 24.5118 0.779674 24.5676 0.461798 24.4909C0.400929 24.1632 0.441509 12.7893 0.441509 12.4964C0.441509 12.2663 0.407692 1.01095 0.441509 0.683189C0.461798 0.473982 0.414455 0.794766 0.455035 0.613454C0.455035 0.60648 0.468562 0.599506 0.468562 0.585559C0.468562 0.571612 0.475325 0.564639 0.482088 0.557665L21.8474 0.550691V7.00821C22.429 7.00821 22.3208 7.25228 22.3208 5.78784C22.3208 4.92311 22.3479 0.383326 22.3276 0.181093C22.3073 -0.014167 22.2667 0.0207008 22.0503 0.0207008C20.1024 0.0416215 18.0802 0.0276743 16.1391 0.0276743H1.03668C0.191266 0.0207008 0.0154203 -0.0978498 0.00189373 0.215961C-0.00486958 0.355432 0.00865703 0.529771 0.00865703 0.676216V25H22.3343V18.8284H21.8541V24.463Z" fill="white"/>
<path d="M21.4344 23.9054H0.0556094V0C0.0488461 0.00697356 0.0420828 0.0139471 0.0420828 0.0278942C0.0420828 0.0418413 0.0353195 0.0488149 0.0285562 0.0557885C-0.0120237 0.223154 0.0353195 -0.0906563 0.0150296 0.125524C-0.018787 0.453282 0.0150296 11.7086 0.0150296 11.9387C0.0150296 12.2386 -0.0255502 23.6125 0.0353195 23.9333C0.353195 24.01 10.1126 23.9542 10.7213 23.9542C14.1233 23.9542 17.7146 23.9123 21.103 23.9542L21.3397 23.9472C21.4209 23.9263 21.4006 23.9333 21.4344 23.9054Z" transform="translate(0.419922 0.557617)" fill="white"/>
<path d="M3.07054 6.56212L1.00773 1.70155L0.547827 6.34594H-1.032e-07L0.79807 -2.12816e-07L3.06378 5.42543L5.41064 -2.12816e-07L6.1749 6.34594H5.6203L5.18745 1.70155L3.07054 6.56212Z" transform="translate(5.61523 9.21875)" fill="white"/>
<path d="M2.80677 1.58997C2.78648 1.29708 2.68503 1.04603 2.52271 0.836828C2.35363 0.627621 2.07633 0.516044 1.69083 0.516044C1.04831 0.516044 0.689857 0.871695 0.595171 1.583L2.80677 1.58997ZM3.38842 2.01536H0.547828C0.547828 2.41983 0.649277 2.77548 0.845413 3.08231C1.03479 3.39613 1.33913 3.54954 1.76522 3.54954C2.26571 3.54954 2.66474 3.24968 2.96233 2.65693L3.41547 2.91495C3.25315 3.22876 3.05025 3.48678 2.8203 3.68204C2.59035 3.88427 2.23865 3.98888 1.77875 3.98888C1.21063 3.98888 0.77778 3.79362 0.466668 3.39613C0.148792 3.00561 0 2.54535 0 2.01536C0 1.40169 0.148792 0.913536 0.453141 0.543937C0.75749 0.174339 1.17681 4.25632e-07 1.73817 4.25632e-07C2.05604 4.25632e-07 2.33334 0.0697361 2.57682 0.209207C2.8203 0.355652 3.01643 0.578805 3.17199 0.878669C3.32078 1.18551 3.38842 1.56208 3.38842 2.01536Z" transform="translate(12.1699 11.7227)" fill="white"/>
<path d="M2.89469 4.65137C2.89469 4.22598 2.79324 3.86335 2.59711 3.55652C2.40097 3.24968 2.07633 3.10324 1.62319 3.10324C1.23768 3.10324 0.960389 3.23573 0.764254 3.5077C0.568118 3.77967 0.466668 4.1423 0.466668 4.58163C0.466668 5.00004 0.574881 5.36267 0.791306 5.67648C1.00097 5.99726 1.31208 6.15068 1.70435 6.15068C2.13044 6.15068 2.44155 6.00424 2.62416 5.6974C2.80001 5.39754 2.89469 5.04188 2.89469 4.65137ZM0.486958 6.44357H0V2.12816e-07H0.486958V3.43099C0.77778 2.89403 1.19034 2.62903 1.73817 2.62903C2.21836 2.62903 2.63093 2.7964 2.95556 3.14508C3.27344 3.48678 3.43576 3.98888 3.43576 4.65137C3.43576 5.17438 3.29373 5.62069 3.00967 6.01121C2.71208 6.40173 2.29276 6.59002 1.75846 6.59002C1.17005 6.59002 0.750727 6.31805 0.493721 5.77411L0.486958 6.44357Z" transform="translate(16.1934 9.12109)" fill="white"/>
<path d="M2.80001 1.58997C2.77972 1.29708 2.67827 1.04603 2.51595 0.836828C2.34687 0.627621 2.06957 0.516044 1.68406 0.516044C1.04155 0.516044 0.683094 0.871695 0.588408 1.583L2.80001 1.58997ZM3.38842 2.01536H0.547828C0.547828 2.41983 0.649277 2.77548 0.845413 3.08231C1.03479 3.39613 1.33913 3.54954 1.76522 3.54954C2.26571 3.54954 2.66474 3.24968 2.96233 2.65693L3.41547 2.91495C3.25315 3.22876 3.05025 3.48678 2.8203 3.68204C2.59035 3.88427 2.23865 3.98888 1.77875 3.98888C1.21063 3.98888 0.777779 3.79362 0.466667 3.39613C0.148792 3.00561 -4.12799e-07 2.54535 -4.12799e-07 2.01536C-4.12799e-07 1.40169 0.148793 0.913536 0.453142 0.543937C0.75749 0.174339 1.17682 4.25632e-07 1.73817 4.25632e-07C2.05604 4.25632e-07 2.33334 0.0697361 2.57682 0.209207C2.8203 0.355652 3.01643 0.578805 3.17199 0.878669C3.31402 1.18551 3.38842 1.56208 3.38842 2.01536Z" transform="translate(20.1094 11.7227)" fill="white"/>
<path d="M0.507248 6.44357H4.12799e-07V2.12816e-07H0.507248V6.44357Z" transform="translate(24.0801 9.12109)" fill="white"/>
<path d="M0.777781 0.72525H8.25599e-07V2.12816e-07H0.777781V0.72525Z" transform="translate(25.4727 14.8394)" fill="white"/>
<path d="M3.14494 5.90661C3.62513 5.90661 4.05798 5.78806 4.45702 5.55095C4.84929 5.31385 5.1604 4.99307 5.38359 4.5886C5.61354 4.18414 5.72852 3.73086 5.72852 3.22876C5.72852 2.78942 5.63383 2.35706 5.44446 1.94562C5.24832 1.52721 4.9575 1.17853 4.56523 0.906563C4.17296 0.634594 3.70629 0.502097 3.15846 0.502097C2.76619 0.502097 2.36716 0.599727 1.96812 0.794986C1.56232 0.99722 1.22416 1.30406 0.960389 1.70852C0.69662 2.11996 0.568118 2.62206 0.568118 3.19389C0.568118 3.67507 0.67633 4.12835 0.892756 4.53979C1.10918 4.94426 1.41353 5.27899 1.81257 5.53003C2.21836 5.78108 2.65798 5.90661 3.14494 5.90661ZM3.14494 6.38778C2.59034 6.38778 2.07633 6.26226 1.59614 6.01121C1.10918 5.76016 0.716911 5.39754 0.432852 4.91636C0.14203 4.43518 -8.25599e-07 3.85638 -8.25599e-07 3.166C-8.25599e-07 2.5314 0.148793 1.97352 0.453141 1.49234C0.75749 1.01814 1.14976 0.648541 1.63672 0.390519C2.13044 0.132498 2.64445 -4.25632e-07 3.17875 -4.25632e-07C3.64542 -4.25632e-07 4.07151 0.0836827 4.44349 0.251048C4.82224 0.41144 5.14011 0.648541 5.42417 0.934457C5.70147 1.22735 5.91789 1.56905 6.07345 1.95957C6.229 2.36404 6.3034 2.77548 6.3034 3.21481C6.3034 3.84243 6.16137 4.40032 5.87731 4.88149C5.59325 5.36267 5.21451 5.73227 4.73431 5.99029C4.25412 6.25528 3.72658 6.38778 3.14494 6.38778Z" transform="translate(26.8652 9.3374)" fill="white"/>
<path d="M1.59614 0C1.72464 0 1.8802 0.0209207 2.04928 0.0697356L1.90049 0.564859C1.86667 0.550912 1.81257 0.536964 1.75846 0.523017C1.69083 0.516044 1.62996 0.516043 1.57585 0.516043C1.25797 0.516043 0.994206 0.662489 0.791307 0.962352C0.588408 1.25524 0.486959 1.60392 0.486959 2.00839V3.80757H0V0.125524H0.486959V0.871695C0.683094 0.571832 0.865701 0.355652 1.02126 0.216181C1.18358 0.069736 1.37971 0 1.59614 0Z" transform="translate(34.0488 11.7505)" fill="white"/>
<path d="M2.93527 0.829853V0.139471H3.43576V3.73783C3.43576 5.02794 2.86764 5.66951 1.7314 5.66951C0.872465 5.66951 0.344928 5.28596 0.142029 4.51189H0.764253C0.892756 4.96518 1.23092 5.1953 1.77199 5.1953C2.15073 5.1953 2.43479 5.07675 2.65122 4.84663C2.85412 4.62347 2.95557 4.26782 2.95557 3.79362V3.15902C2.66474 3.70296 2.24542 3.96796 1.69083 3.96796C1.20387 3.96796 0.798072 3.79362 0.48696 3.44494C0.155558 3.10323 8.25599e-07 2.60114 8.25599e-07 1.94562C8.25599e-07 1.40866 0.14203 0.955378 0.439616 0.571832C0.730438 0.188286 1.13623 0 1.68406 0C2.25894 0.00697356 2.67827 0.278942 2.93527 0.829853ZM0.527538 1.95957C0.527538 2.37798 0.628987 2.74061 0.831886 3.04745C1.02802 3.36126 1.35266 3.51467 1.79904 3.51467C2.18455 3.51467 2.46861 3.38218 2.67151 3.09626C2.86088 2.81732 2.95557 2.46167 2.95557 2.02931C2.95557 1.61089 2.84735 1.23432 2.63092 0.927484C2.4145 0.613674 2.11015 0.460255 1.71788 0.460255C1.29179 0.460255 0.987441 0.6067 0.804832 0.906563C0.622222 1.2134 0.527538 1.56905 0.527538 1.95957Z" transform="translate(36.5645 11.7505)" fill="white"/>
</svg>
