<svg width="54" height="50" viewBox="0 0 54 50" fill="none" xmlns="http://www.w3.org/2000/svg">
<rect width="53.9997" height="50.0003" fill="black" fill-opacity="0"/>
<rect width="53.9997" height="50.0003" fill="black" fill-opacity="0"/>
<rect width="53.9997" height="50.0003" fill="black" fill-opacity="0"/>
<rect width="53.9997" height="50.0003" fill="black" fill-opacity="0"/>
<rect width="53.9719" height="49.9979" fill="black" fill-opacity="0" transform="translate(0.00390625)"/>
<path d="M27.0736 47.6164L52.238 13.8513L44.4073 1.8536H9.73979L1.9074 13.8513L27.0736 47.6164ZM53.9529 14.4705L27.7328 49.6513C27.6958 49.7034 27.6536 49.7498 27.6041 49.7922C27.2428 50.1122 26.7106 50.0525 26.418 49.6572L0.192551 14.4705C-0.0401251 14.156 -0.064831 13.6989 0.15911 13.3537L8.58187 0.449423C8.7317 0.181353 8.99958 0 9.30796 0H44.841V0.00386277C45.1053 0.00579411 45.3645 0.138863 45.5284 0.391579L53.9758 13.3363L53.9529 14.4705Z" fill="black"/>
<path d="M32.9933 12.9619C33.4603 12.9619 33.8392 13.3767 33.8392 13.8878C33.8392 14.3989 33.4603 14.8137 32.9933 14.8137H0.846C0.378971 14.8137 0 14.399 0 13.8878C0 13.3767 0.378882 12.9619 0.846 12.9619H32.9933Z" fill="black"/>
<path d="M53.1537 12.9619C53.6208 12.9619 53.9997 13.3767 53.9997 13.8878C53.9997 14.3989 53.6208 14.8137 53.1537 14.8137H49.9144C49.4473 14.8137 49.0684 14.399 49.0684 13.8878C49.0684 13.3767 49.4473 12.9619 49.9144 12.9619H53.1537Z" fill="black"/>
<path d="M8.52316 1.26866C8.35039 0.796062 8.56189 0.257895 8.99372 0.068913C9.42554 -0.120165 9.91727 0.111306 10.09 0.581973L27.8555 48.7307C28.0283 49.2034 27.8168 49.7414 27.3867 49.9304C26.9549 50.1195 26.4632 49.8899 26.2887 49.4174L8.52316 1.26866Z" fill="black"/>
<path d="M36.1973 21.8798C36.37 21.4072 36.8635 21.1757 37.2936 21.3648C37.7254 21.5539 37.9369 22.0939 37.7623 22.5665L27.8556 49.4204C27.6829 49.8931 27.1894 50.1245 26.7593 49.9335C26.3275 49.7444 26.116 49.2043 26.2888 48.7336L36.1973 21.8798Z" fill="black"/>
<path d="M44.0543 0.582222C44.2271 0.109623 44.7206 -0.119916 45.1522 0.0691618C45.5841 0.25824 45.7956 0.798339 45.621 1.27084L44.2551 4.97428C44.0825 5.44688 43.589 5.67835 43.1589 5.48734C42.7271 5.29836 42.5156 4.75826 42.6902 4.28759L44.0543 0.582222Z" fill="black"/>
<path d="M14.958 14.5625C14.616 14.9097 14.082 14.8884 13.7647 14.5162C13.4475 14.144 13.467 13.5576 13.8089 13.2123L26.5004 0.250216C26.8405 -0.0970393 27.3763 -0.0757946 27.6917 0.296471C28.009 0.668737 27.9896 1.25509 27.6495 1.60032L14.958 14.5625Z" fill="black"/>
<path d="M36.1042 8.88775C36.4442 9.23491 36.4636 9.81943 36.1464 10.1917C35.829 10.564 35.2951 10.5852 34.955 10.2379L26.4987 1.60042C26.1585 1.25326 26.1391 0.668833 26.4564 0.296471C26.7736 -0.0757946 27.3076 -0.0970393 27.6479 0.250216L36.1042 8.88775Z" fill="black"/>
<path d="M42.2089 7.91816L43.7844 11.34L46.9111 13.0644C47.327 13.292 47.4927 13.8494 47.2847 14.3046C47.2001 14.4879 47.066 14.6268 46.9111 14.7136L43.7844 16.438L42.2089 19.8598C42.001 20.315 41.4915 20.4983 41.0756 20.2688C40.9082 20.1762 40.7813 20.0296 40.702 19.8598L39.1281 16.438L36.0013 14.7136C35.5854 14.484 35.4198 13.9285 35.6278 13.4733C35.7125 13.2901 35.8465 13.1512 36.0013 13.0644L39.1281 11.34L40.702 7.91816C40.9117 7.46294 41.4193 7.28168 41.8353 7.50929C42.0027 7.59997 42.1296 7.74656 42.2089 7.91816ZM42.4027 12.4433L41.4561 10.3871L40.5097 12.4433C40.4304 12.6131 40.3034 12.7596 40.136 12.8522L38.2556 13.888L40.136 14.9258C40.2912 15.0126 40.4251 15.1515 40.5097 15.3347L41.4561 17.3928L42.4027 15.3347C42.4819 15.1649 42.6089 15.0183 42.7762 14.9258L44.6568 13.888L42.7762 12.8522C42.6213 12.7654 42.4873 12.6266 42.4027 12.4433Z" fill="black"/>
</svg>
