<svg width="14" height="14" viewBox="0 0 14 14" fill="none" xmlns="http://www.w3.org/2000/svg">
<rect width="14" height="14" fill="black" fill-opacity="0" transform="translate(14) scale(-1 1)"/>
<path d="M5.64271 7.11066L6.34766 7.47373V14.0003L-8.7738e-05 10.7385V4.21191L5.64271 7.11066Z" fill="#FF9900"/>
<path d="M0.414088 3.35192L3.22733 1.92578L9.74805 5.27764L9.37599 5.44901L6.9348 6.70378L4.50667 5.45772L0.414088 3.35192Z" fill="#FF9900"/>
<path d="M4.66604 1.42614L7.47928 8.86401e-08L14 3.35186L13.6279 3.52323L11.1868 4.778L8.75862 3.53194L4.66604 1.42614Z" fill="#FF9900"/>
<path d="M10.2405 7.67638L11.4088 7.14194V5.48053L13.8174 4.24609V10.7262L7.51533 13.9647V7.48468L10.2405 6.08758V7.67638Z" fill="#FF9900"/>
</svg>
