<svg width="54" height="50" viewBox="0 0 54 50" fill="none" xmlns="http://www.w3.org/2000/svg">
<path d="M53.9752 11.7877C53.9752 11.5977 53.9257 11.4078 53.8267 11.2284C53.6286 10.8696 53.2448 10.6268 52.8239 10.553L27.6066 0.126636C27.1981 -0.0422119 26.7153 -0.0422119 26.3067 0.126636L0.841816 10.648C0.34663 10.8485 0.0247593 11.2706 0 11.7455V11.756C0 11.7666 0 11.7771 0 11.7982V38.2018C0 38.6872 0.321871 39.1304 0.841816 39.3415L26.3067 49.8628C26.3191 49.8628 26.3191 49.8628 26.3315 49.8734C26.3686 49.8839 26.4058 49.8945 26.4429 49.9156C26.4553 49.9156 26.4677 49.9261 26.4924 49.9261C26.5296 49.9367 26.5667 49.9472 26.6038 49.9578C26.6162 49.9578 26.6286 49.9683 26.641 49.9683C26.6781 49.9789 26.7276 49.9789 26.7648 49.9894C26.7772 49.9894 26.7895 49.9894 26.8019 49.9894C26.8514 49.9894 26.9133 50 26.9629 50C27.0124 50 27.0743 50 27.1238 49.9894C27.1362 49.9894 27.1486 49.9894 27.1609 49.9894C27.1981 49.9894 27.2476 49.9789 27.2847 49.9683C27.2971 49.9683 27.3095 49.9578 27.3219 49.9578C27.359 49.9472 27.3961 49.9367 27.4333 49.9261C27.4457 49.9261 27.458 49.9156 27.4828 49.9156C27.5199 49.905 27.5571 49.8945 27.5942 49.8734C27.6066 49.8734 27.6066 49.8734 27.619 49.8628L53.1582 39.3098C53.6657 39.0988 54 38.6556 54 38.1701V11.8193C53.9752 11.8088 53.9752 11.7982 53.9752 11.7877ZM26.9505 2.6699L49.0358 11.7982L40.9023 15.1646L18.8171 6.0363L26.9505 2.6699ZM26.9505 20.9266L4.8652 11.7982L15.4127 7.43985L37.4979 16.5682L26.9505 20.9266ZM2.97111 13.835L25.4649 23.1321V46.6969L2.97111 37.3997V13.835ZM28.436 46.6969V23.1321L38.9959 18.7632V24.9261C38.9959 25.6226 39.6644 26.1925 40.4814 26.1925C41.2985 26.1925 41.967 25.6226 41.967 24.9261V17.5285L51.0041 13.7927V37.3575L28.436 46.6969Z" fill="black"/>
</svg>
