<svg width="9" height="12" viewBox="0 0 9 12" fill="none" xmlns="http://www.w3.org/2000/svg">
<path d="M4.5 0C2.01869 0 -4.7399e-08 1.94958 -4.7399e-08 4.34593C-4.7399e-08 7.31987 4.02706 11.6858 4.19851 11.8702C4.35956 12.0434 4.64073 12.0431 4.80149 11.8702C4.97294 11.6858 9 7.31987 9 4.34593C8.99995 1.94958 6.98129 0 4.5 0ZM4.5 6.53248C3.25159 6.53248 2.23596 5.5516 2.23596 4.34593C2.23596 3.14025 3.25161 2.15939 4.5 2.15939C5.74839 2.15939 6.76401 3.14028 6.76401 4.34595C6.76401 5.55162 5.74839 6.53248 4.5 6.53248Z" fill="#2E4454"/>
</svg>
