<svg width="13" height="21" viewBox="0 0 13 21" fill="none" xmlns="http://www.w3.org/2000/svg">
<path d="M1.93826 0L0.148489 0.206595L0 0.22374V6.70322L1.94479 6.07163V0.0409743L1.93826 0Z" transform="translate(2.45703 14.2968)" fill="white"/>
<path d="M13 5.0717L10.9931 3.83406L10.5172 1.40179L8.2162 1.66741L6.49998 0L4.78377 1.66737L2.48276 1.40175L2.00693 3.83406L0 5.0717L0.946235 7.33987L0 9.60803L2.00693 10.8457L2.48276 13.2779L4.78377 13.0123L6.49998 14.6798L8.2162 13.0124L10.5172 13.278L10.993 10.8457L13 9.60807L12.0537 7.33991L13 5.0717ZM7.96428 10.5175H5.69452V9.28504H6.24284V5.56032L5.60297 5.95116L5.03564 4.87983L6.25338 4.1361H7.39244L7.39046 9.28508H7.96425V10.5175H7.96428Z" fill="white"/>
<path d="M1.7963 0.206595L0.00653038 0L0 0.0409743V6.07163L1.94479 6.70322V0.22374L1.7963 0.206595Z" transform="translate(8.59814 14.2968)" fill="white"/>
<path d="M0.950665 0.92363L0 0V4.57763L0.950665 4.26891L1.90133 4.57763V4.00543e-05L0.950665 0.92363Z" transform="translate(5.54932 15.4181)" fill="white"/>
</svg>
