<svg class="eye-pass" width="23" height="13" viewBox="0 0 23 13" fill="none" xmlns="http://www.w3.org/2000/svg">
<path d="M22.627 5.42018C21.3362 3.76977 19.6642 2.40463 17.7918 1.47243C15.8805 0.520839 13.8243 0.0271015 11.6778 0.00120964C11.6187 -0.000402999 11.3813 -0.000402999 11.3222 0.00120964C9.17573 0.0271463 7.11948 0.520839 5.20815 1.47243C3.33577 2.40463 1.66383 3.76973 0.372962 5.42018C-0.124321 6.05596 -0.124321 6.94404 0.372962 7.57982C1.66379 9.23022 3.33577 10.5954 5.20815 11.5276C7.11948 12.4792 9.17568 12.9729 11.3222 12.9988C11.3813 13.0004 11.6187 13.0004 11.6778 12.9988C13.8242 12.9729 15.8805 12.4792 17.7918 11.5276C19.6642 10.5954 21.3362 9.23027 22.627 7.57982C23.1243 6.94395 23.1243 6.05596 22.627 5.42018ZM5.62615 10.6928C3.8778 9.82233 2.31641 8.54745 1.11076 7.00599C0.877748 6.70805 0.877748 6.29195 1.11076 5.99401C2.31636 4.45255 3.87775 3.17767 5.62615 2.3072C6.12272 2.06002 6.62979 1.84625 7.14626 1.66528C5.81756 2.8563 4.98045 4.58237 4.98045 6.49998C4.98045 8.41768 5.81761 10.1439 7.14644 11.3349C6.62997 11.1539 6.12276 10.94 5.62615 10.6928ZM11.5 12.0682C8.421 12.0682 5.91608 9.57031 5.91608 6.49993C5.91608 3.42955 8.421 0.931704 11.5 0.931704C14.579 0.931704 17.084 3.4296 17.084 6.49998C17.084 9.57036 14.579 12.0682 11.5 12.0682ZM21.8893 7.00594C20.6837 8.54741 19.1223 9.82229 17.3739 10.6928C16.8779 10.9397 16.3712 11.1525 15.8553 11.3333C17.1831 10.1423 18.0196 8.41678 18.0196 6.49993C18.0196 4.58205 17.1823 2.85576 15.8533 1.66474C16.3699 1.84576 16.8772 2.05979 17.3739 2.30711C19.1223 3.17758 20.6837 4.45246 21.8893 5.99392C22.1223 6.2919 22.1223 6.70801 21.8893 7.00594Z" fill="#999999"/>
<path d="M2.38961 3.82775e-08C1.07197 3.82775e-08 -3.29016e-07 1.06896 -3.29016e-07 2.3829C-3.29016e-07 3.69685 1.07197 4.7658 2.38961 4.7658C3.70725 4.7658 4.77922 3.69685 4.77922 2.3829C4.77926 1.06896 3.7073 3.82775e-08 2.38961 3.82775e-08ZM2.38961 3.83285C1.58789 3.83285 0.935584 3.18246 0.935584 2.3829C0.935584 1.58339 1.5878 0.933003 2.38961 0.933003C3.19133 0.933003 3.84359 1.58339 3.84359 2.3829C3.84364 3.18246 3.19133 3.83285 2.38961 3.83285Z" transform="translate(9.11084 4.11719)" fill="#999999"/>
</svg>
