<svg width="25" height="25" viewBox="0 0 25 25" fill="none" xmlns="http://www.w3.org/2000/svg">
<rect width="25" height="25" fill="white"/>
<path d="M23.6208 0H1.37917C0.617708 0 0 0.617708 0 1.37917V23.6208C0 24.3833 0.617708 25 1.37917 25H13.3521V15.3187H10.0927V11.5469H13.3521V8.76042C13.3521 5.53229 15.325 3.77604 18.2052 3.77604C19.5854 3.77604 20.7719 3.87708 21.1177 3.92292V7.29792H19.1167C17.5542 7.29792 17.25 8.04896 17.25 9.14271V11.55H20.9833L20.499 15.3312H17.25V25H23.6198C24.3833 25 25 24.3833 25 23.6208V1.37917C25 0.617708 24.3833 0 23.6208 0Z" fill="#3B5998"/>
</svg>
