<svg width="102" height="97" viewBox="0 0 102 97" fill="none" xmlns="http://www.w3.org/2000/svg">
<path d="M53.3181 9.23819H2.31811C0.927363 9.23819 0 8.31429 0 6.92854V2.30945C0 0.923702 0.927363 -1.35676e-06 2.31811 -1.35676e-06H53.3181C54.7091 -1.35676e-06 55.6362 0.9239 55.6362 2.30945V6.92854C55.6364 8.31429 54.7091 9.23819 53.3181 9.23819Z" transform="translate(0 87.7618)" fill="#F6B545"/>
<path d="M44.0455 2.30945H0C0 0.923697 0.927363 4.84557e-08 2.31811 4.84557e-08H44.0455V2.30945Z" transform="translate(0 87.762)" fill="#FFCB5B"/>
<path d="M44.0455 0.000195809V2.30965C44.0455 3.6954 43.1181 4.61909 41.7274 4.61909H0C0 6.00484 0.927363 6.92854 2.31811 6.92854H41.7272H53.3181C54.7091 6.92854 55.6362 6.00464 55.6362 4.61909V1.98668e-06H44.0455V0.000195809Z" transform="translate(0 90.0713)" fill="#F19920"/>
<path d="M2.31811 4.61909V1.15472C2.31811 0.461851 1.85453 1.98668e-06 1.15905 1.98668e-06C0.463582 1.98668e-06 1.42872e-07 0.461851 1.42872e-07 1.15472V4.61909" transform="translate(4.63642 90.0713)" fill="#F19920"/>
<path d="M2.31811 4.61909V1.15472C2.31811 0.461851 1.85453 1.98668e-06 1.15905 1.98668e-06C0.463582 1.98668e-06 -1.58072e-07 0.461851 -1.58072e-07 1.15472V4.61909" transform="translate(11.5909 90.0713)" fill="#F19920"/>
<path d="M2.31811 4.61909V1.15472C2.31811 0.461851 1.85453 1.98668e-06 1.15905 1.98668e-06C0.463581 1.98668e-06 6.80924e-07 0.461851 6.80924e-07 1.15472V4.61909" transform="translate(18.5455 90.0713)" fill="#F19920"/>
<path d="M2.31811 4.61909V1.15472C2.31811 0.461851 1.85453 1.98668e-06 1.15905 1.98668e-06C0.463581 1.98668e-06 0 0.461851 0 1.15472V4.61909" transform="translate(25.5 90.0713)" fill="#F19920"/>
<path d="M2.31811 4.61909V1.15472C2.31811 0.461851 1.85453 1.98668e-06 1.15906 1.98668e-06C0.463583 1.98668e-06 -6.80923e-07 0.461851 -6.80923e-07 1.15472V4.61909" transform="translate(32.4545 90.0713)" fill="#F19920"/>
<path d="M2.31811 4.61909V1.15472C2.31811 0.461851 1.85453 1.98668e-06 1.15905 1.98668e-06C0.463581 1.98668e-06 4.86374e-08 0.461851 4.86374e-08 1.15472V4.61909" transform="translate(39.4093 90.0713)" fill="#F19920"/>
<path d="M53.3181 9.23799H2.31811C0.927164 9.23799 1.42872e-07 8.3141 1.42872e-07 6.92854V2.30945C1.42872e-07 0.923699 0.927363 2.03514e-06 2.31811 2.03514e-06H53.3181C54.7091 2.03514e-06 55.6362 0.923898 55.6362 2.30945V6.92854C55.6362 8.31429 54.7091 9.23799 53.3181 9.23799Z" transform="translate(4.63642 78.5238)" fill="#F6B545"/>
<path d="M44.0455 2.30945H1.42872e-07C1.42872e-07 0.923699 0.927364 2.03514e-06 2.31811 2.03514e-06H44.0455V2.30945Z" transform="translate(4.63642 78.5238)" fill="#FFCB5B"/>
<path d="M44.0455 0.000197796V2.30965C44.0455 3.6954 43.1181 4.61909 41.7274 4.61909H1.42872e-07C1.42872e-07 6.00484 0.927363 6.92854 2.31811 6.92854H41.7272H53.3181C54.7091 6.92854 55.6362 6.00464 55.6362 4.61909V-2.08359e-06H44.0455V0.000197796Z" transform="translate(4.63642 80.8331)" fill="#F19920"/>
<path d="M2.31811 4.6191V1.15472C2.31811 0.461848 1.85453 -6.78379e-07 1.15905 -6.78379e-07C0.463582 -6.78379e-07 2.85745e-07 0.461848 2.85745e-07 1.15472V4.6191" transform="translate(9.27284 80.8333)" fill="#F19920"/>
<path d="M2.31811 4.6191V1.15472C2.31811 0.461848 1.85453 -6.78379e-07 1.15906 -6.78379e-07C0.463583 -6.78379e-07 3.6478e-07 0.461848 3.6478e-07 1.15472V4.6191" transform="translate(16.2274 80.8333)" fill="#F19920"/>
<path d="M2.31811 4.6191V1.15472C2.31811 0.461848 1.85453 -6.78379e-07 1.15905 -6.78379e-07C0.463582 -6.78379e-07 -3.16143e-07 0.461848 -3.16143e-07 1.15472V4.6191" transform="translate(23.1819 80.8333)" fill="#F19920"/>
<path d="M2.31811 4.6191V1.15472C2.31811 0.461848 1.85453 -6.78379e-07 1.15906 -6.78379e-07C0.463583 -6.78379e-07 -9.97067e-07 0.461848 -9.97067e-07 1.15472V4.6191" transform="translate(30.1364 80.8333)" fill="#F19920"/>
<path d="M2.31811 4.6191V1.15472C2.31811 0.461848 1.85453 -6.78379e-07 1.15905 -6.78379e-07C0.463582 -6.78379e-07 1.36185e-06 0.461848 1.36185e-06 1.15472V4.6191" transform="translate(37.0909 80.8333)" fill="#F19920"/>
<path d="M2.31811 4.6191V1.15472C2.31811 0.461848 1.85453 -6.78379e-07 1.15905 -6.78379e-07C0.463581 -6.78379e-07 6.80924e-07 0.461848 6.80924e-07 1.15472V4.6191" transform="translate(44.0455 80.8333)" fill="#F19920"/>
<path d="M53.3181 9.23799H2.31811C0.927164 9.23799 2.85745e-07 8.31409 2.85745e-07 6.92854V2.30945C2.85745e-07 0.923699 0.927363 1.35676e-06 2.31811 1.35676e-06H53.3181C54.7091 1.35676e-06 55.6362 0.923897 55.6362 2.30945V6.92854C55.6362 8.31429 54.7091 9.23799 53.3181 9.23799Z" transform="translate(9.27283 60.0476)" fill="#F6B545"/>
<path d="M44.0455 2.30945H-3.6478e-07C-3.6478e-07 0.923699 0.927363 1.35676e-06 2.31811 1.35676e-06H44.0455V2.30945Z" transform="translate(9.27264 60.0476)" fill="#FFCB5B"/>
<path d="M44.0455 0.000197118V2.30965C44.0455 3.6954 43.1181 4.61909 41.7274 4.61909H-3.6478e-07C-3.6478e-07 6.00484 0.927363 6.92855 2.31811 6.92855H41.7274H53.3183C54.7093 6.92855 55.6364 6.00464 55.6364 4.61909V-2.76197e-06H44.0455V0.000197118Z" transform="translate(9.27264 62.3569)" fill="#F19920"/>
<path d="M2.31811 4.6191V1.15472C2.31811 0.461847 1.85453 -1.35676e-06 1.15905 -1.35676e-06C0.463582 -1.35676e-06 4.86374e-08 0.461847 4.86374e-08 1.15472V4.6191" transform="translate(13.9093 62.3571)" fill="#F19920"/>
<path d="M2.31811 4.6191V1.15472C2.31811 0.461847 1.85453 -1.35676e-06 1.15905 -1.35676e-06C0.463582 -1.35676e-06 -6.32286e-07 0.461847 -6.32286e-07 1.15472V4.6191" transform="translate(20.8638 62.3571)" fill="#F19920"/>
<path d="M2.31811 4.6191V1.15472C2.31811 0.461847 1.85453 -1.35676e-06 1.15905 -1.35676e-06C0.463582 -1.35676e-06 -1.31321e-06 0.461847 -1.31321e-06 1.15472V4.6191" transform="translate(27.8183 62.3571)" fill="#F19920"/>
<path d="M2.31811 4.6191V1.15472C2.31811 0.461847 1.85453 -1.35676e-06 1.15905 -1.35676e-06C0.463582 -1.35676e-06 1.0457e-06 0.461847 1.0457e-06 1.15472V4.6191" transform="translate(34.7728 62.3571)" fill="#F19920"/>
<path d="M2.31811 4.6191V1.15472C2.31811 0.461847 1.85453 -1.35676e-06 1.15905 -1.35676e-06C0.463581 -1.35676e-06 3.6478e-07 0.461847 3.6478e-07 1.15472V4.6191" transform="translate(41.7274 62.3571)" fill="#F19920"/>
<path d="M2.31811 4.6191V1.15472C2.31811 0.461847 1.85453 -1.35676e-06 1.15906 -1.35676e-06C0.463583 -1.35676e-06 -3.16143e-07 0.461847 -3.16143e-07 1.15472V4.6191" transform="translate(48.6819 62.3571)" fill="#F19920"/>
<path d="M53.3181 9.23799H2.31811C0.927164 9.23799 1.42872e-07 8.31409 1.42872e-07 6.92854V2.30945C1.42872e-07 0.923702 0.927363 -1.3083e-06 2.31811 -1.3083e-06H53.3181C54.7091 -1.3083e-06 55.6362 0.9239 55.6362 2.30945V6.92854C55.6362 8.31409 54.7091 9.23799 53.3181 9.23799Z" transform="translate(4.63642 50.8096)" fill="#F6B545"/>
<path d="M44.0455 2.30945H1.42872e-07C1.42872e-07 0.923702 0.927364 -1.3083e-06 2.31811 -1.3083e-06H44.0455V2.30945Z" transform="translate(4.63642 50.8096)" fill="#FFCB5B"/>
<path d="M44.0455 0.00020051V2.30965C44.0455 3.69539 43.1181 4.6191 41.7274 4.6191H1.42872e-07C1.42872e-07 6.00485 0.927363 6.92854 2.31811 6.92854H41.7272H53.3181C54.7091 6.92854 55.6362 6.00465 55.6362 4.6191V6.29924e-07H44.0455V0.00020051Z" transform="translate(4.63642 53.1189)" fill="#F19920"/>
<path d="M2.31811 4.6191V1.15472C2.31811 0.461849 1.85453 6.29924e-07 1.15905 6.29924e-07C0.463582 6.29924e-07 2.85745e-07 0.461849 2.85745e-07 1.15472V4.6191" transform="translate(9.27284 53.1189)" fill="#F19920"/>
<path d="M2.31811 4.6191V1.15472C2.31811 0.461849 1.85453 6.29924e-07 1.15906 6.29924e-07C0.463583 6.29924e-07 3.6478e-07 0.461849 3.6478e-07 1.15472V4.6191" transform="translate(16.2274 53.1189)" fill="#F19920"/>
<path d="M2.31811 4.6191V1.15472C2.31811 0.461849 1.85453 6.29924e-07 1.15905 6.29924e-07C0.463582 6.29924e-07 -3.16143e-07 0.461849 -3.16143e-07 1.15472V4.6191" transform="translate(23.1819 53.1189)" fill="#F19920"/>
<path d="M2.31811 4.6191V1.15472C2.31811 0.461849 1.85453 6.29924e-07 1.15906 6.29924e-07C0.463583 6.29924e-07 -9.97067e-07 0.461849 -9.97067e-07 1.15472V4.6191" transform="translate(30.1364 53.1189)" fill="#F19920"/>
<path d="M2.31811 4.6191V1.15472C2.31811 0.461849 1.85453 6.29924e-07 1.15905 6.29924e-07C0.463582 6.29924e-07 1.36185e-06 0.461849 1.36185e-06 1.15472V4.6191" transform="translate(37.0909 53.1189)" fill="#F19920"/>
<path d="M2.31811 4.6191V1.15472C2.31811 0.461849 1.85453 6.29924e-07 1.15905 6.29924e-07C0.463581 6.29924e-07 6.80924e-07 0.461849 6.80924e-07 1.15472V4.6191" transform="translate(44.0455 53.1189)" fill="#F19920"/>
<path d="M53.3181 9.23819H2.31811C0.927363 9.23819 0 8.31429 0 6.92854V2.30945C0 0.923701 0.927363 -2.03514e-06 2.31811 -2.03514e-06H53.3181C54.7091 -2.03514e-06 55.6362 0.9239 55.6362 2.30945V6.92854C55.6364 8.31429 54.7091 9.23819 53.3181 9.23819Z" transform="translate(0 69.2856)" fill="#F6B545"/>
<path d="M44.0455 2.30945H0C0 0.923703 0.927363 -6.29924e-07 2.31811 -6.29924e-07H44.0455V2.30945Z" transform="translate(0 69.2858)" fill="#FFCB5B"/>
<path d="M44.0455 0.000201188V2.30965C44.0455 3.69539 43.1181 4.61909 41.7274 4.61909H0C0 6.00484 0.927363 6.92854 2.31811 6.92854H41.7272H53.3181C54.7091 6.92854 55.6362 6.00464 55.6362 4.61909V1.3083e-06H44.0455V0.000201188Z" transform="translate(0 71.5951)" fill="#F19920"/>
<path d="M2.31811 4.61909V1.15472C2.31811 0.46185 1.85453 1.3083e-06 1.15905 1.3083e-06C0.463582 1.3083e-06 1.42872e-07 0.46185 1.42872e-07 1.15472V4.61909" transform="translate(4.63642 71.5951)" fill="#F19920"/>
<path d="M2.31811 4.61909V1.15472C2.31811 0.46185 1.85453 1.3083e-06 1.15905 1.3083e-06C0.463582 1.3083e-06 -1.58072e-07 0.46185 -1.58072e-07 1.15472V4.61909" transform="translate(11.5909 71.5951)" fill="#F19920"/>
<path d="M2.31811 4.61909V1.15472C2.31811 0.46185 1.85453 1.3083e-06 1.15905 1.3083e-06C0.463581 1.3083e-06 6.80924e-07 0.46185 6.80924e-07 1.15472V4.61909" transform="translate(18.5455 71.5951)" fill="#F19920"/>
<path d="M2.31811 4.61909V1.15472C2.31811 0.46185 1.85453 1.3083e-06 1.15905 1.3083e-06C0.463581 1.3083e-06 0 0.46185 0 1.15472V4.61909" transform="translate(25.5 71.5951)" fill="#F19920"/>
<path d="M2.31811 4.61909V1.15472C2.31811 0.46185 1.85453 1.3083e-06 1.15906 1.3083e-06C0.463583 1.3083e-06 -6.80923e-07 0.46185 -6.80923e-07 1.15472V4.61909" transform="translate(32.4545 71.5951)" fill="#F19920"/>
<path d="M2.31811 4.61909V1.15472C2.31811 0.46185 1.85453 1.3083e-06 1.15905 1.3083e-06C0.463581 1.3083e-06 4.86374e-08 0.46185 4.86374e-08 1.15472V4.61909" transform="translate(39.4093 71.5951)" fill="#F19920"/>
<path d="M83.4547 81.988C80.4412 79.9094 78.8183 76.4452 78.8183 72.75C78.8183 58.6619 73.2547 45.2667 63.2864 35.3358L53.3183 25.4049V18.4764L61.4319 8.31449C62.1276 7.39059 62.5912 6.23587 62.5912 5.08095C62.5912 2.30945 60.273 -6.35981e-08 57.4911 -6.35981e-08H48.6821L46.364 4.61909L41.7276 -6.35981e-08H30.6002C27.8183 -6.35981e-08 25.5002 2.30945 25.5002 5.08095C25.5002 6.23567 25.9638 7.39039 26.6593 8.31429L34.7728 18.4762V25.4047L24.8047 35.3356C14.8366 45.2665 9.27284 58.6617 9.27284 72.7498C9.27284 76.445 7.6502 79.9094 4.63642 81.9878C1.62264 84.0662 2.67506e-07 87.5306 2.67506e-07 91.2258C2.67506e-07 94.4591 2.55 96.9996 5.79547 96.9996H82.2955C85.541 96.9996 88.091 94.4591 88.091 91.2258C88.0912 87.531 86.4685 84.0666 83.4547 81.988Z" transform="translate(13.9089)" fill="#C97629"/>
<path d="M83.2226 81.988C80.2091 79.6785 78.5862 76.2142 78.5862 72.519C78.8181 57.969 72.0953 44.3428 61.8953 33.95L53.0862 25.4047V18.4762L61.1998 8.31429C62.5907 6.69772 62.8224 4.38807 61.6634 2.30945C60.736 0.692874 58.8815 -6.35981e-08 57.027 -6.35981e-08C55.4043 -6.35981e-08 54.477 1.8476 54.9405 3.23335C55.1724 3.6952 55.4041 4.38807 55.4041 5.08095C55.4041 6.23567 54.9405 7.39039 54.2451 8.31429L46.1315 18.4762V25.4047H34.5405L32.2224 27.7142H48.4498L57.0272 36.2595C66.5317 45.7285 70.2407 58.6619 69.3136 71.8261C69.0817 75.7523 70.7045 79.4475 73.7181 81.757C73.95 81.988 74.1817 82.2188 74.4136 82.2188C77.8909 85.914 74.8772 92.1497 69.5455 92.1497H4.49896e-07C0.463582 94.6902 2.78189 96.7688 5.56358 96.7688H72.7909H78.5864H82.0638C85.3091 96.769 87.8591 94.2285 87.8591 90.9952V90.5333C87.8591 87.0689 86.0045 84.0666 83.2226 81.988Z" transform="translate(14.1409)" fill="#B06328"/>
<path d="M24.3411 6.92874H3.47736C1.62284 6.92874 -7.29561e-07 5.31217 -7.29561e-07 3.46437C-7.29561e-07 1.61677 1.62264 -4.11873e-07 3.47736 -4.11873e-07H24.3409C26.1955 -4.11873e-07 27.8183 1.61657 27.8183 3.46437C27.8183 5.31217 26.1957 6.92874 24.3411 6.92874Z" transform="translate(44.0453 18.476)" fill="#FFCB5B"/>
<path d="M1.15905 -5.20898e-07H12.75C13.4455 -5.20898e-07 13.9091 0.46185 13.9091 1.15472C13.9091 1.8476 13.4455 2.30945 12.75 2.30945H1.15905C0.463582 2.30945 9.97067e-07 1.8476 9.97067e-07 1.15472C9.97067e-07 0.462048 0.463781 -5.20898e-07 1.15905 -5.20898e-07Z" transform="translate(46.3636 18.4762)" fill="#FFE278"/>
<path d="M24.1091 -5.20898e-07H22.95V2.30945C22.95 3.6952 22.0226 4.6189 20.6319 4.6189H9.72748e-07C0.463583 6.00464 1.85453 6.92834 3.24547 6.92834H24.1091C25.9636 6.92834 27.5864 5.31177 27.5864 3.46397C27.5864 1.61618 25.9636 -5.20898e-07 24.1091 -5.20898e-07Z" transform="translate(44.2774 18.4762)" fill="#F6B545"/>
<path d="M1.15906 0H8.11358C8.80906 0 9.27264 0.461849 9.27264 1.15472C9.27264 1.8476 8.80906 2.30945 8.11358 2.30945H1.15906C0.463585 2.30945 -1.92998e-06 1.8476 -1.92998e-06 1.15472C-0.000201149 0.461849 0.463585 0 1.15906 0Z" transform="translate(60.2728 23.0953)" fill="#F19920"/>
<path d="M4.63642 0H2.04277e-06V18.4762H4.63642V0Z" transform="translate(55.6364 25.4047)" fill="#F6B545"/>
<path d="M2.04277e-06 3.14962e-07V2.30965H2.31811V18.4762H4.63622V2.30965V3.14962e-07H2.04277e-06Z" transform="translate(55.6364 25.4047)" fill="#F19920"/>
<path d="M18.5455 36.9524C28.7879 36.9524 37.0909 28.6803 37.0909 18.4762C37.0909 8.27207 28.7879 0 18.5455 0C8.30309 0 0 8.27207 0 18.4762C0 28.6803 8.30309 36.9524 18.5455 36.9524Z" transform="translate(39.4091 41.5715)" fill="#F6B545"/>
<path d="M25.9636 -2.90734e-07C28.7455 3.23335 30.3681 7.15957 30.3681 11.7787C30.3681 21.9406 22.0226 30.2548 11.8226 30.2548C7.18622 30.2548 3.24527 28.6383 -9.2411e-07 25.8668C3.47736 30.0238 8.57736 32.5643 14.1409 32.5643C24.3409 32.5643 32.6864 24.25 32.6864 14.0881C32.6862 8.31429 30.1362 3.23335 25.9636 -2.90734e-07Z" transform="translate(46.1319 48.269)" fill="#B06328"/>
<path d="M16.2274 32.3335C25.1895 32.3335 32.4547 25.0954 32.4547 16.1667C32.4547 7.23809 25.1895 0 16.2274 0C7.26524 0 0 7.23809 0 16.1667C0 25.0954 7.26524 32.3335 16.2274 32.3335Z" transform="translate(41.7272 43.8809)" fill="#FFCB5B"/>
<path d="M16.2274 1.35676e-06C16.2274 9.00717 9.04095 16.1667 -6.80924e-07 16.1667V18.4762C10.2 18.4762 18.5455 10.1619 18.5455 1.35676e-06H16.2274Z" transform="translate(57.9545 60.0476)" fill="#F19920"/>
<path d="M18.5455 2.30945V6.78379e-07C8.34547 6.78379e-07 -1.36185e-06 8.31429 -1.36185e-06 18.4762H2.31811C2.31831 9.46902 9.50453 2.30945 18.5455 2.30945Z" transform="translate(39.4091 41.5715)" fill="#FFE27A"/>
<path d="M11.5907 11.5472H6.95433C5.56338 11.5472 4.63622 10.6233 4.63622 9.23779C4.63622 7.85204 5.56358 6.92835 6.95433 6.92835H13.9089C15.2998 6.92835 16.227 6.00445 16.227 4.6189C16.227 3.23315 15.2996 2.30945 13.9089 2.30945H11.5907C11.5907 0.923701 10.6634 1.09025e-06 9.27264 1.09025e-06C7.88169 1.09025e-06 6.95453 0.9239 6.95453 2.30945C3.01358 2.30945 -3.16143e-07 5.31177 -3.16143e-07 9.23799C-3.16143e-07 13.1642 3.01358 16.1665 6.95453 16.1665H11.5909C12.9819 16.1665 13.9091 17.0904 13.9091 18.476C13.9091 19.8615 12.9817 20.7854 11.5909 20.7854H4.63642C3.24547 20.7854 2.31831 21.7093 2.31831 23.0949C2.31831 24.4806 3.24567 25.4043 4.63642 25.4043H6.95453C6.95453 26.7901 7.88189 27.7138 9.27264 27.7138C10.6636 27.7138 11.5907 26.7899 11.5907 25.4043C15.5317 25.4043 18.5453 22.402 18.5453 18.4758C18.5453 14.5496 15.5317 11.5472 11.5907 11.5472Z" transform="translate(48.6819 46.1908)" fill="#E78825"/>
</svg>
