<svg width="27" height="25" viewBox="0 0 27 25" fill="none" xmlns="http://www.w3.org/2000/svg">
<path d="M26.9471 2.97714C25.9515 3.47567 24.8885 3.8153 23.7691 3.97037C24.9098 3.18732 25.7873 1.95315 26.2024 0.480597C25.1326 1.19188 23.9469 1.70964 22.6847 1.998C21.6767 0.768955 20.2402 6.59999e-08 18.645 6.59999e-08C15.5885 6.59999e-08 13.1102 2.82335 13.1102 6.30158C13.1102 6.8014 13.1608 7.282 13.2531 7.74209C8.65201 7.49475 4.57406 4.9777 1.84492 1.17266C1.36457 2.09796 1.0957 3.17322 1.0957 4.34459C1.0957 6.53612 2.07441 8.46235 3.5571 9.59399C2.64926 9.56067 1.79543 9.27616 1.05071 8.80453V8.88271C1.05071 11.9393 2.95525 14.4884 5.48977 15.0689C5.02517 15.2112 4.53469 15.2881 4.03183 15.2881C3.6786 15.2881 3.33999 15.2497 3.00137 15.1779C3.71122 17.6808 5.75189 19.5058 8.18066 19.5571C6.29074 21.2475 3.89571 22.2548 1.3162 22.2548C0.877463 22.2548 0.439857 22.2254 0 22.169C2.46252 23.9555 5.36378 25 8.50127 25C18.6866 25 24.2495 15.3932 24.2495 7.07567C24.2495 6.80781 24.2495 6.5374 24.2326 6.26826C25.3137 5.38525 26.2575 4.26898 27 3.00277L26.9471 2.97714Z" fill="#00B7F4"/>
</svg>
