<svg class="method-ico" xmlns="http://www.w3.org/2000/svg" viewBox="0 0 212.94 160.15"><title>Ресурс 91</title><g id="Слой_2" data-name="Слой 2"><g id="_1" data-name="1"><path d="M193.46,51.14H82.87A19.56,19.56,0,0,0,63.38,70.62v70a19.56,19.56,0,0,0,19.49,19.49H193.46a19.56,19.56,0,0,0,19.48-19.49v-70A19.5,19.5,0,0,0,193.46,51.14Zm9,89.79a7.08,7.08,0,0,1-7.06,7.06H82.65a7.09,7.09,0,0,1-7.07-7.06V91.64H202.45Zm0-67.85H75.58V70.4a7.09,7.09,0,0,1,7.07-7.06H195.39a7.08,7.08,0,0,1,7.06,7.06Z"/><path d="M81.46,39.11h68.59l-14-28.26A19.53,19.53,0,0,0,109.94,2L10.85,51A19.53,19.53,0,0,0,2,77.16L33.1,140a19.52,19.52,0,0,0,22.6,10.18,29.34,29.34,0,0,1-4.12-15V69A30,30,0,0,1,81.46,39.11Z"/><path d="M95.55,140.4a12.5,12.5,0,0,0,9.57-4.43,12.64,12.64,0,1,0,0-16.42,12.63,12.63,0,1,0-9.57,20.85Z"/></g></g>
<style>
	.method-ico {
		fill: #f90;
	}
</style>
</svg>