<svg class="method-ico" xmlns="http://www.w3.org/2000/svg" viewBox="0 0 137.39 211.44"><title>Ресурс 90</title><g id="Слой_2" data-name="Слой 2"><g id="_1" data-name="1"><path d="M131.83,93.74c-2.06-1.63-20.28-21.68-30.59-31,0,0,0,0,0-.09V19.44A19.48,19.48,0,0,0,81.76,0H18.08A18.14,18.14,0,0,0,0,18.08V119.37a19.48,19.48,0,0,0,19.44,19.44H42.66a1.38,1.38,0,0,0,1.36-1.5l-1-8.6a1.34,1.34,0,0,0-1.36-1.18H38.88a1.37,1.37,0,0,1-1.36-1.36V11.1a1.37,1.37,0,0,1,1.36-1.36h43a7.93,7.93,0,0,1,7.9,7.9V120.9A6.64,6.64,0,0,1,85,127.22h-.09c-4.69-2.54-10.22-13.43-11.06-15.14a.93.93,0,0,1-.13-.44c-.31-2.76-3.42-29.53-17.68-29.53a11.83,11.83,0,0,0-1.19,0s-11.41,1-2,33.49c0,.08,0,.13,0,.21l4.17,36a.37.37,0,0,0,0,.18c.35,1.36,5.09,19.75,17.34,32.78a1.4,1.4,0,0,1,.35.92v3.12c0,.09,0,.13-.13.13h-1.1a4.88,4.88,0,0,0-4.87,4.87v12.68a4.89,4.89,0,0,0,4.87,4.88H125.2a4.89,4.89,0,0,0,4.87-4.88V194a4.88,4.88,0,0,0-4.87-4.87.12.12,0,0,1-.13-.13c1.71-15.89,7.86-70.22,11.15-74.48a1.74,1.74,0,0,0,.22-.43C137,112.08,139.86,100,131.83,93.74ZM20.32,126.26a1.22,1.22,0,0,1-1.23,1.22,7.83,7.83,0,0,1-7.81-7.81V17.55a7.83,7.83,0,0,1,7.81-7.81A1.23,1.23,0,0,1,20.32,11Z"/></g></g>
<style>
	.method-ico {
		fill: #f90;
	}
</style>
</svg>