<svg width="116" height="80" viewBox="0 0 116 80" fill="none" xmlns="http://www.w3.org/2000/svg">
<path d="M78.1867 15.6558L48.8491 4.9527C46.0698 3.94771 42.9578 4.14871 40.2972 5.50544L38.8244 6.25918C36.829 7.28929 34.4772 7.44004 32.3868 6.63605L29.8687 5.68131C29.7499 5.60594 29.6312 5.53057 29.5124 5.48032L14.4991 0.0785144C14.1428 -0.0471089 13.7389 -0.0219835 13.4064 0.153889C13.0738 0.329762 12.8125 0.631256 12.6937 1.00813L0.0797191 39.9262C-0.181588 40.7051 0.22225 41.5593 0.958661 41.8357L15.9957 47.2878C16.162 47.3631 16.3045 47.3882 16.4708 47.3882C16.6846 47.3882 16.8984 47.338 17.0884 47.2375C17.421 47.0616 17.6823 46.7601 17.8011 46.3833L29.94 8.94752L31.4603 9.52539C34.2634 10.5806 37.4229 10.3796 40.1072 8.99777L41.58 8.24403C43.5517 7.21392 45.8797 7.06317 47.9464 7.81691L76.1913 18.118C75.9775 19.4245 75.3836 21.5852 73.8396 22.7158C72.4618 23.7208 70.4663 23.7711 67.9483 22.8415L55.6193 18.3944C55.2393 18.2688 54.8354 18.2939 54.4791 18.4949C54.1228 18.6959 53.8852 19.0476 53.7664 19.4496C53.7427 19.525 51.9135 26.6604 46.2123 29.8764C42.6015 31.9366 38.1355 32.012 32.9331 30.1276C32.1967 29.8512 31.389 30.2784 31.1277 31.0572C30.8664 31.8361 31.2703 32.6903 32.0067 32.9667C34.786 33.9717 37.4229 34.4742 39.8696 34.4742C42.6728 34.4742 45.2383 33.8209 47.5663 32.4893C52.6499 29.6 55.0967 24.3238 56.0232 21.7108L66.9743 25.6805C70.4188 26.9368 73.2457 26.7609 75.4312 25.178C78.9469 22.6153 79.1132 17.3392 79.137 17.113C79.1607 16.4598 78.7569 15.8568 78.1867 15.6558ZM15.5919 43.9462L3.23916 39.474L14.9267 3.42009L26.9468 7.76666C27.0418 7.81691 27.1369 7.86716 27.2319 7.91741L27.2794 7.94253L15.5919 43.9462Z" fill="#333333"/>
<path d="M92.8106 37.6901L75.6593 0.832254C75.493 0.480509 75.208 0.204138 74.8517 0.0785144C74.4953 -0.0471089 74.0915 -0.0219835 73.7589 0.153889L59.4821 7.54054C58.7694 7.91741 58.4843 8.79677 58.8169 9.55051L75.4455 45.4788L69.8631 50.8806C65.1358 55.4784 59.7909 59.3225 54.0184 62.3123L26.6762 76.4575C25.916 76.8595 25.0608 76.9097 24.2531 76.6082C23.4454 76.3067 22.8041 75.7037 22.424 74.8997C22.0439 74.0958 21.9964 73.1913 22.2814 72.337C22.5665 71.4828 23.1366 70.8044 23.8968 70.4024L39.1714 62.4882C39.884 62.1113 40.1691 61.2319 39.8365 60.4782C39.4802 59.7245 38.625 59.423 37.9361 59.7747L22.9941 67.5131L15.4637 71.4074C13.8959 72.2114 11.9717 71.533 11.2115 69.8748C10.4514 68.2166 11.0928 66.2066 12.6606 65.3775L34.6104 54.0212C35.323 53.6443 35.6081 52.7649 35.2755 52.0112C34.9192 51.2574 34.064 50.956 33.3751 51.3077L17.1266 59.7245L11.4253 62.664L8.74099 64.0459C7.17315 64.8499 5.24898 64.1715 4.48881 62.5133C3.72865 60.8551 4.37004 58.82 5.93788 58.016L8.64597 56.609L28.2915 46.4335C29.0042 46.0566 29.2892 45.1773 28.9566 44.4235C28.6003 43.6698 27.7451 43.3683 27.0562 43.72L14.4422 50.2525L7.4107 53.8955C6.65053 54.2975 5.79535 54.3478 4.98767 54.0463C4.18 53.7448 3.53861 53.1418 3.15852 52.3378C2.77844 51.5338 2.73093 50.6293 3.01599 49.7751C3.30106 48.9209 3.87118 48.2425 4.63135 47.8405L15.0599 42.4387C15.7725 42.0618 16.0576 41.1825 15.725 40.4287C15.3687 39.675 14.5135 39.3735 13.8246 39.7252L3.39608 45.127C1.94701 45.8808 0.854272 47.1873 0.331658 48.7952C-0.190956 50.4032 -0.095934 52.1368 0.616721 53.6694C1.16309 54.8754 2.06579 55.8301 3.15852 56.4583C1.35313 58.3426 0.806762 61.2822 1.97077 63.7946C3.01599 66.0559 5.15396 67.3624 7.38695 67.3624C7.64825 67.3624 7.90956 67.3372 8.17087 67.3121C7.98083 68.5683 8.12336 69.8999 8.69348 71.1562C9.73871 73.4174 11.8767 74.7239 14.1097 74.7239C14.9886 74.7239 15.8913 74.5229 16.7465 74.0706L19.3358 72.7139C19.217 73.8948 19.4071 75.0756 19.9297 76.156C20.6423 77.6886 21.8776 78.8443 23.3979 79.3971C24.0393 79.6232 24.7045 79.7488 25.3696 79.7488C26.2723 79.7488 27.175 79.5227 28.0064 79.0956L55.3487 64.9504C61.3825 61.8349 66.9174 57.815 71.8585 53.0162L78.0586 46.9863L92.1454 39.7001C92.8581 39.3232 93.1431 38.4439 92.8106 37.6901ZM77.8448 43.8205L62.0001 9.57564L73.7352 3.52059L89.5561 37.7655L77.8448 43.8205Z" transform="translate(23.0508 0.251221)" fill="#333333"/>
</svg>
