<svg width="75" height="81" viewBox="0 0 75 81" fill="none" xmlns="http://www.w3.org/2000/svg">
<rect width="74.9997" height="80.9998" fill="white"/>
<path d="M27.2972 51.7154L26.7262 57.1591C26.6801 57.5984 26.8209 58.0366 27.1137 58.365C27.4063 58.6934 27.8234 58.8807 28.2611 58.8807H44.5789C45.0164 58.8807 45.4335 58.6932 45.7263 58.365C46.0189 58.0366 46.1597 57.5984 46.1138 57.1591L45.5428 51.7154H65.8683C69.0318 51.7154 71.6054 49.1177 71.6054 45.9245V5.79095C71.6052 2.59773 69.0314 0 65.8681 0H5.73711C2.57358 0 -8.32053e-08 2.59773 -8.32053e-08 5.79095V45.9245C-8.32053e-08 49.1177 2.57358 51.7154 5.73711 51.7154H27.2972ZM42.8634 55.7654H29.9762L30.4009 51.7154H42.4385L42.8634 55.7654ZM5.73711 3.11554H65.8681C67.3297 3.11554 68.5186 4.31564 68.5186 5.79095V41.123H3.08657V5.79095C3.08657 4.31564 4.27552 3.11554 5.73711 3.11554ZM3.08657 45.9245V44.2385H68.5184V45.9245C68.5184 47.3998 67.3295 48.5999 65.8679 48.5999H5.73711C4.27552 48.5999 3.08657 47.3998 3.08657 45.9245Z" fill="#333333"/>
<path d="M60.2699 8.28567C60.5497 7.82041 60.5689 7.24154 60.3201 6.75863L57.272 0.839324C57.0063 0.323599 56.4785 1.82551e-06 55.9026 1.82551e-06H4.5914C4.01566 1.82551e-06 3.48764 0.323599 3.22199 0.839324L0.173901 6.75863C-0.0746706 7.24154 -0.0557389 7.82041 0.22411 8.28567C0.503959 8.75092 1.00419 9.03485 1.54331 9.03485H58.9507C59.4898 9.03506 59.99 8.75092 60.2699 8.28567ZM4.08479 5.91952L5.52849 3.11574H54.9653L56.4092 5.91952H4.08479Z" transform="translate(5.55493 61.061)" fill="#333333"/>
<path d="M8.95085 -1.11559e-06H6.4816C2.90776 -1.11559e-06 1.80854e-06 2.93483 1.80854e-06 6.54242C1.80854e-06 7.40272 0.690982 8.10019 1.54329 8.10019H13.889C14.7413 8.10019 15.4322 7.40272 15.4322 6.54242C15.4324 2.93504 12.5249 -1.11559e-06 8.95085 -1.11559e-06ZM3.4582 4.98465C4.02098 3.87614 5.16507 3.11554 6.4816 3.11554H8.95085C10.2674 3.11554 11.4115 3.87614 11.9745 4.98465H3.4582Z" transform="translate(59.5674 72.8994)" fill="#333333"/>
</svg>
