<svg width="73" height="73" viewBox="0 0 73 73" fill="none" xmlns="http://www.w3.org/2000/svg">
<rect width="73" height="73" fill="white"/>
<path d="M34.3682 5.93872C30.7331 2.12494 25.6877 -0.0229319 20.4191 0.000184685H19.2706C14.0019 -0.0229319 8.95657 2.12494 5.32147 5.93872C1.70265 9.67935 -0.215276 14.7457 0.0192364 19.945L0.454803 30.317C0.894324 40.6148 9.39898 48.7212 19.7061 48.6667H19.9835C30.2907 48.7212 38.7953 40.6148 39.2348 30.317L39.6704 19.945C39.9049 14.7457 37.987 9.67935 34.3682 5.93872ZM36.8076 30.2112C36.421 39.2073 28.9878 46.2862 19.9835 46.2334H19.7061C10.7046 46.2843 3.27412 39.2081 2.8857 30.2148L2.64237 24.4503C15.814 24.1497 22.6444 18.3487 25.433 15.1014C27.2703 20.1122 31.7546 23.6755 37.0509 24.3335L36.8076 30.2112ZM37.2346 19.8428L37.1495 21.877C32.0703 21.1721 28.0243 17.2744 27.1302 12.2252C27.0463 11.5585 26.4376 11.0861 25.771 11.1702C25.3875 11.2186 25.0499 11.4463 24.8611 11.7836C24.8052 11.8846 19.1185 21.6385 2.53652 22.0108L2.44649 19.8428C2.24376 15.3057 3.91926 10.8855 7.07834 7.62258C10.2558 4.28968 14.6658 2.41283 19.2706 2.43351H20.4191C25.0239 2.41283 29.4338 4.28968 32.6113 7.62258C35.7672 10.8869 37.4395 15.3069 37.2346 19.8428Z" transform="translate(16.6558)" fill="#333333"/>
<path d="M53.026 1.07676e-06H45.4401L36.5 8.09203L27.5599 1.07676e-06H19.974C8.96075 1.07676e-06 0 9.24664 0 20.62V24.3333H2.43333V20.62C2.26924 10.7599 10.1143 2.62571 19.974 2.43333H26.6219L36.5 11.3746L46.3781 2.43333H53.026C62.8857 2.62571 70.7308 10.7599 70.5667 20.62V24.3333H73V20.62C73 9.24664 64.0393 1.07676e-06 53.026 1.07676e-06Z" transform="translate(0 48.667)" fill="#333333"/>
</svg>
