<svg width="14" height="14" viewBox="0 0 14 14" fill="none" xmlns="http://www.w3.org/2000/svg">
  <path
    d="M11.2 11.2C11.5713 11.2 11.9274 11.3475 12.1899 11.6101C12.4525 11.8726 12.6 12.2287 12.6 12.6C12.6 12.9713 12.4525 13.3274 12.1899 13.5899C11.9274 13.8525 11.5713 14 11.2 14C10.423 14 9.8 13.37 9.8 12.6C9.8 11.823 10.423 11.2 11.2 11.2ZM0 0H2.289L2.947 1.4H13.3C13.4857 1.4 13.6637 1.47375 13.795 1.60503C13.9263 1.7363 14 1.91435 14 2.1C14 2.219 13.965 2.338 13.916 2.45L11.41 6.979C11.172 7.406 10.71 7.7 10.185 7.7H4.97L4.34 8.841L4.319 8.925C4.319 8.97141 4.33744 9.01592 4.37026 9.04874C4.40308 9.08156 4.44759 9.1 4.494 9.1H12.6V10.5H4.2C3.423 10.5 2.8 9.87 2.8 9.1C2.8 8.855 2.863 8.624 2.968 8.428L3.92 6.713L1.4 1.4H0V0ZM4.2 11.2C4.5713 11.2 4.9274 11.3475 5.18995 11.6101C5.4525 11.8726 5.6 12.2287 5.6 12.6C5.6 12.9713 5.4525 13.3274 5.18995 13.5899C4.9274 13.8525 4.5713 14 4.2 14C3.423 14 2.8 13.37 2.8 12.6C2.8 11.823 3.423 11.2 4.2 11.2ZM10.5 6.3L12.446 2.8H3.598L5.25 6.3H10.5Z"
    fill="#9AA0A4"/>
</svg>
