<svg width="11" height="11" viewBox="0 0 11 11" fill="none" xmlns="http://www.w3.org/2000/svg">
<path d="M6.77111 7.69389L8.35389 6.11111H2.44444V4.88889H8.35389L6.77111 3.30611L7.63889 2.44444L10.6944 5.5L7.63889 8.55556L6.77111 7.69389ZM9.77778 0C10.1019 0 10.4128 0.128769 10.642 0.357981C10.8712 0.587192 11 0.898069 11 1.22222V4.07611L9.77778 2.85389V1.22222H1.22222V9.77778H9.77778V8.14611L11 6.92389V9.77778C11 10.1019 10.8712 10.4128 10.642 10.642C10.4128 10.8712 10.1019 11 9.77778 11H1.22222C0.543889 11 0 10.45 0 9.77778V1.22222C0 0.543889 0.543889 0 1.22222 0H9.77778Z" fill="#9AA0A4"/>
</svg>
