<svg width="11" height="11" viewBox="0 0 11 11" fill="none" xmlns="http://www.w3.org/2000/svg">
<path d="M10.9948 8.68113C11.0181 8.85982 10.9636 9.01519 10.8317 9.14723L9.28295 10.6853C9.21308 10.763 9.12188 10.8291 9.00932 10.8834C8.89675 10.9378 8.78614 10.9728 8.67749 10.9883C8.66973 10.9883 8.64638 10.9903 8.60755 10.9942C8.56879 10.998 8.51832 11 8.45622 11C8.30868 11 8.06994 10.9748 7.74 10.9242C7.41006 10.8737 7.00639 10.7494 6.52898 10.5514C6.05146 10.3533 5.50999 10.0561 4.90448 9.65994C4.29896 9.26381 3.65459 8.71999 2.97142 8.02859C2.42799 7.49257 1.97772 6.97986 1.62061 6.49047C1.26349 6.00105 0.976253 5.54854 0.75888 5.13294C0.541489 4.71733 0.37846 4.34056 0.269774 4.00264C0.161088 3.66472 0.087337 3.3734 0.0485206 3.1287C0.00970411 2.884 -0.00582247 2.69173 0.00194082 2.5519C0.00970411 2.41207 0.0135858 2.33439 0.0135858 2.31885C0.0291123 2.21009 0.0640471 2.0994 0.11839 1.98675C0.172733 1.87411 0.238721 1.78284 0.316354 1.71292L1.86513 0.163135C1.97382 0.0543784 2.09803 -1.22567e-10 2.23777 -1.22567e-10C2.33869 -1.22567e-10 2.42797 0.0291313 2.5056 0.0873939C2.58323 0.145657 2.64922 0.217514 2.70357 0.302966L3.94957 2.66843C4.01944 2.79272 4.03885 2.92867 4.0078 3.07627C3.97674 3.22386 3.91076 3.34816 3.80983 3.44915L3.23923 4.02012C3.22371 4.03566 3.21012 4.0609 3.19847 4.09586C3.18683 4.13082 3.18101 4.15995 3.18101 4.18326C3.21206 4.34639 3.28193 4.53283 3.39062 4.74258C3.48378 4.92902 3.6274 5.15624 3.82148 5.42425C4.01556 5.69226 4.29116 6.00103 4.64827 6.35061C4.99762 6.70799 5.30815 6.98567 5.57986 7.1838C5.85152 7.38182 6.07867 7.52753 6.26111 7.62075C6.44355 7.71397 6.58329 7.77029 6.68031 7.78965L6.82583 7.8188C6.84136 7.8188 6.86665 7.81296 6.90154 7.80133C6.93648 7.78965 6.96171 7.77608 6.97726 7.76052L7.641 7.08468C7.78081 6.9604 7.94377 6.89825 8.1301 6.89825C8.26212 6.89825 8.36687 6.92154 8.4445 6.96817H8.45612L10.7036 8.29656C10.8667 8.39762 10.9637 8.52576 10.9948 8.68113Z" fill="#2E4454"/>
</svg>
