<svg width="18" height="17" viewBox="0 0 18 17" fill="none" xmlns="http://www.w3.org/2000/svg"><path fill="#fff" d="M0 0h18v17H0z"/><path d="M14.467 17c-.749 0-1.654-.177-2.648-.532-2.181-.776-4.554-2.311-6.681-4.32C3.01 10.138 1.385 7.896.562 5.837c-.748-1.873-.75-3.41-.004-4.113.107-.101.216-.21.329-.322.68-.675 1.448-1.435 2.466-1.4.702.027 1.382.438 2.078 1.256 2.057 2.417 1.13 3.278.056 4.276l-.19.178c-.175.165-.507.933 2.58 3.848 1.007.952 1.866 1.648 2.553 2.07.432.265 1.205.666 1.523.367l.19-.182c1.056-1.011 1.968-1.885 4.525.057.866.657 1.301 1.299 1.33 1.963.042.96-.768 1.688-1.484 2.33-.118.106-.233.209-.34.31-.37.35-.962.525-1.707.525zM3.28.572c-.723 0-1.376.65-1.955 1.224-.116.115-.228.228-.34.332-.554.524-.498 1.9.144 3.508.793 1.985 2.369 4.154 4.437 6.108 2.069 1.953 4.364 3.441 6.467 4.19 1.702.607 3.16.658 3.713.135.111-.104.23-.21.352-.32.622-.558 1.327-1.19 1.296-1.892-.021-.482-.393-1-1.105-1.541-2.13-1.618-2.726-1.047-3.714-.1l-.194.184c-.472.447-1.24.348-2.28-.292-.723-.443-1.615-1.165-2.652-2.145C4.888 7.545 4.07 6.064 4.87 5.306l.193-.18c1.005-.934 1.61-1.497-.103-3.51C4.387.944 3.838.593 3.328.572H3.28z" fill="#333"/></svg>