<svg width="22" height="29" viewBox="0 0 22 29" fill="none" xmlns="http://www.w3.org/2000/svg">
<path d="M20.9355 11.3535C20.6532 11.3535 20.3824 11.4674 20.1828 11.67C19.9831 11.8726 19.871 12.1474 19.871 12.4339V26.8392H2.12903V2.16296H14.1935L18.6361 7.56494H14.9032V4.87115C14.9032 4.58462 14.7911 4.30981 14.5914 4.1072C14.3918 3.90459 14.121 3.79076 13.8387 3.79076C13.5564 3.79076 13.2856 3.90459 13.086 4.1072C12.8863 4.30981 12.7742 4.58462 12.7742 4.87115V8.64534C12.7779 8.93072 12.8912 9.20336 13.09 9.40517C13.2889 9.60698 13.5575 9.722 13.8387 9.72573H20.9355C21.1377 9.7262 21.3359 9.66818 21.5068 9.55849C21.6778 9.44879 21.8144 9.29194 21.9006 9.10631C21.9842 8.91967 22.0152 8.71317 21.9902 8.50974C21.9651 8.3063 21.885 8.1139 21.7587 7.95389L15.6129 0.391112C15.5072 0.259977 15.3723 0.156293 15.2192 0.0886535C15.0662 0.0210139 14.8995 -0.00863316 14.7329 0.00216971H1.06452C0.783332 0.00590063 0.514699 0.120926 0.315855 0.322736C0.11701 0.524547 0.00367608 0.797187 0 1.08257L0 27.9196C0.00367608 28.205 0.11701 28.4776 0.315855 28.6794C0.514699 28.8812 0.783332 28.9963 1.06452 29H20.9355C21.2167 28.9963 21.4853 28.8812 21.6841 28.6794C21.883 28.4776 21.9963 28.205 22 27.9196V12.4339C22 12.1474 21.8878 11.8726 21.6882 11.67C21.4886 11.4674 21.2178 11.3535 20.9355 11.3535Z" fill="#999999"/>
<path d="M0.865806 4.76815C0.816975 4.83421 0.752027 4.88623 0.677361 4.91907C0.602695 4.9519 0.520888 4.96443 0.44 4.95542H0.19871H-1.62432e-07V5.90617C0.20285 5.92843 0.407473 5.92843 0.610322 5.90617C0.830012 5.92073 1.05022 5.8871 1.25595 5.80755C1.46168 5.72801 1.64812 5.60442 1.80258 5.4452C2.09712 5.02755 2.2332 4.51602 2.18581 4.00467V3.29711e-07H0.993548V4.14872C1.01373 4.36356 0.969186 4.57956 0.865806 4.76815Z" transform="translate(3.71875 18.0234)" fill="#999999"/>
<path d="M2.16576e-07 3.29711e-07V4.49445H1.19226V3.05392H1.51871C1.97035 3.08474 2.4167 2.9406 2.76774 2.65057C2.91727 2.49803 3.03367 2.31539 3.10945 2.11443C3.18523 1.91347 3.21871 1.69863 3.20774 1.48374C3.22015 1.28715 3.18825 1.09027 3.11447 0.908054C3.04069 0.725841 2.92697 0.563089 2.78194 0.432159C2.41876 0.157568 1.97042 0.0246385 1.51871 0.0576214L2.16576e-07 3.29711e-07ZM1.9871 1.44053C1.99454 1.51983 1.98439 1.59981 1.95737 1.67459C1.93035 1.74938 1.88716 1.81707 1.83097 1.87269C1.77406 1.92668 1.70704 1.96853 1.6339 1.99575C1.56076 2.02297 1.48297 2.035 1.40516 2.03114H1.19226V0.993964H1.49032C1.83097 0.979559 1.9871 1.12361 1.9871 1.42612V1.44053Z" transform="translate(6.87109 18.0234)" fill="#999999"/>
<path d="M2.62581 0.979559V3.29711e-07H2.16576e-07V4.49445H2.62581V3.50048H1.20645V2.65057H2.52645V1.68542H1.20645V0.979559H2.62581Z" transform="translate(10.7734 18.0234)" fill="#999999"/>
<path d="M2.33284 1.01296C2.69587 1.00559 3.05556 1.08453 3.38317 1.24344L3.76639 0.292695C3.55637 0.202302 3.33752 0.134703 3.11349 0.0910222C2.85747 0.0315088 2.59549 0.00250172 2.33284 0.00458994C2.02136 -0.0150247 1.70915 0.028359 1.41432 0.132221C1.1195 0.236083 0.847945 0.398354 0.615425 0.609612C0.406666 0.836988 0.245063 1.10463 0.140219 1.39663C0.035374 1.68864 -0.0105745 1.99905 0.00510214 2.30944C-0.0355982 2.93445 0.168436 3.5505 0.572845 4.02366C0.778014 4.23234 1.02465 4.39424 1.29632 4.49856C1.56798 4.60289 1.85844 4.64725 2.14833 4.62868C2.72692 4.63151 3.30213 4.53907 3.85155 4.35498V1.9349H1.94962V2.87124H2.74446V3.5771C2.57923 3.59286 2.41291 3.59286 2.24768 3.5771C2.10768 3.58446 1.96794 3.55831 1.83973 3.50075C1.71152 3.4432 1.59844 3.35586 1.50962 3.24578C1.32948 2.95441 1.23393 2.6174 1.23393 2.27342C1.23393 1.92944 1.32948 1.59243 1.50962 1.30106C1.61746 1.19447 1.74717 1.11337 1.88948 1.06357C2.03179 1.01376 2.18319 0.996481 2.33284 1.01296Z" transform="translate(14.0039 17.9453)" fill="#999999"/>
</svg>
