<svg class="plus_img" width="22" height="22" viewBox="0 0 22 22" fill="none" xmlns="http://www.w3.org/2000/svg">
<path d="M19.4119 8.38095H13.619V2.58814C13.619 1.16495 12.4237 0 11 0C9.57629 0 8.38095 1.16495 8.38095 2.58814V8.38095H2.58814C1.16495 8.38095 0 9.57629 0 11C0 12.4237 1.16495 13.619 2.58814 13.619H8.38095V19.4119C8.38095 20.835 9.57629 22 11 22C12.4237 22 13.619 20.835 13.619 19.4119V13.619H19.4119C20.835 13.619 22 12.4237 22 11C22 9.57629 20.835 8.38095 19.4119 8.38095Z" fill="none"/>
<style>
.plus_img path{
	fill: #999999;
	transition:.3s ease;
}
.plus_img:hover {
	cursor:pointer;
}
.plus_img:hover path{
	fill: #ffba24;
	transition:.3s ease;
}
.card__add:hover path {
	fill: #ffba24;
}
</style>
</svg>
