<svg class="card-present" xmlns="http://www.w3.org/2000/svg" viewBox="0 0 16.99 19.83"><title>Ресурс 46</title><g id="Слой_2" data-name="Слой 2"><g id="_1" data-name="1"><path d="M16.24,6h-3.1a2.42,2.42,0,0,0,1.1-2.07,2.78,2.78,0,0,0-2.77-2.78A3,3,0,0,0,8.78,3.46a.49.49,0,0,0-.06.17l-.15.53L8.24,2.94a.75.75,0,0,0-.07-.18C7.72,1.54,6.9,0,5,0A3.26,3.26,0,0,0,1.76,3.25,3,3,0,0,0,3.57,6H.75A.75.75,0,0,0,0,6.74v3.75a.75.75,0,0,0,.75.75h.53v7.84a.75.75,0,0,0,.75.75H15.27a.75.75,0,0,0,.75-.75V11.24h.22a.74.74,0,0,0,.75-.75V6.74A.74.74,0,0,0,16.24,6Zm-.75,3.75H9.4V7.49h6.09ZM10.13,4.13l0-.06c.42-1.18.82-1.43,1.31-1.43a1.28,1.28,0,0,1,1.27,1.28c0,.52-.21.84-1.44,1.32h0l-1.54.42ZM5,1.5c.58,0,1.2.23,1.79,1.88l0,.08.6,2.21-2.22-.6,0,0C3.54,4.43,3.26,4,3.26,3.25A1.76,1.76,0,0,1,5,1.5Zm-3.51,6H7.9V9.74H1.5Zm1.28,3.75H7.9v7.09H2.78Zm11.74,7.09H9.4V11.24h5.12Z"/></g></g>
	<style>
		.card-present {
			fill: #f90;
			cursor: pointer;
		}
	</style>
</svg>