<svg width="24" height="25" viewBox="0 0 24 25" fill="none" xmlns="http://www.w3.org/2000/svg">
<rect width="24" height="25" fill="white"/>
<path d="M23.1857 11.3362C22.6422 10.7229 21.9907 10.4164 21.2312 10.4164H20.3083V6.24977C20.3083 5.81588 20.2118 5.33822 20.0194 4.81762C19.8271 4.2968 19.5965 3.88452 19.3273 3.58066L17.1347 1.10664C16.8655 0.80307 16.5002 0.542544 16.0389 0.325401C15.5772 0.108486 15.1544 -5.21923e-09 14.7695 -5.21923e-09H5.07706C4.69242 -5.21923e-09 4.36541 0.151812 4.09615 0.455664C3.82704 0.759345 3.69231 1.1283 3.69231 1.56241V10.4164H2.7693C2.00966 10.4164 1.35823 10.7231 0.814856 11.3362C0.271585 11.9491 0 12.6843 0 13.5416V20.3126C0 20.4539 0.0457188 20.5753 0.137005 20.6789C0.228392 20.7818 0.336602 20.8332 0.461482 20.8332H3.69231V23.4374C3.69231 23.8716 3.82689 24.2405 4.09615 24.5443C4.36541 24.8478 4.69242 25 5.07706 25H18.9232C19.3077 25 19.6351 24.8478 19.9042 24.5443C20.1733 24.2403 20.308 23.8716 20.308 23.4374V20.8332H23.5388C23.6636 20.8332 23.7718 20.7818 23.8631 20.6789C23.9544 20.5754 24 20.4539 24 20.3126V13.5416C24.0002 12.6843 23.7287 11.9491 23.1857 11.3362ZM18.4618 22.9166H5.53859V18.7501H18.4618V22.9166V22.9166ZM18.4618 12.4999H5.53859V2.08335H14.7695V4.68741C14.7695 5.12147 14.9044 5.49026 15.1732 5.79416C15.4424 6.09802 15.7693 6.24983 16.1541 6.24983H18.4618V12.4999V12.4999ZM21.8802 14.2739C21.6976 14.4799 21.4812 14.5834 21.2312 14.5834C20.9811 14.5834 20.7647 14.48 20.5821 14.2739C20.3996 14.0681 20.3083 13.8237 20.3083 13.5415C20.3083 13.2594 20.3996 13.0152 20.5821 12.8092C20.7647 12.603 20.9811 12.4998 21.2312 12.4998C21.4811 12.4998 21.6975 12.603 21.8802 12.8092C22.0627 13.0152 22.1543 13.2594 22.1543 13.5415C22.1543 13.8237 22.0629 14.0681 21.8802 14.2739Z" fill="#C0CC3E"/>
</svg>
