<svg width="24" height="24" viewBox="0 0 24 24" fill="none" xmlns="http://www.w3.org/2000/svg">
<path d="M14.472 23.2L15.6724 16H13.6V13.3332C13.6 12.8188 14.0188 12.4 14.5332 12.4C15.048 12.4 15.4668 12.8188 15.4668 13.3332H16.2668C16.2668 12.3772 15.4892 11.6 14.5332 11.6C13.5772 11.6 12.8 12.3772 12.8 13.3332V16H9.9276L11.128 23.2H8.3264C8.3712 23.0744 8.4 22.9408 8.4 22.8C8.4 22.1384 7.8616 21.6 7.2 21.6H5.2V18.1656L9.0828 14.2828L8.5172 13.7172L5.2 17.0344V10.1656L7.0828 8.2828L6.5172 7.7172L5.2 9.0344V3.1432C5.8884 2.9644 6.4 2.3436 6.4 1.6C6.4 0.7176 5.6824 0 4.8 0C3.9176 0 3.2 0.7176 3.2 1.6C3.2 2.3436 3.7116 2.9644 4.4 3.1432V5.8344L2.6828 4.1172L2.1172 4.6828L4.4 6.9656V13.8344L2.6828 12.1172L2.1172 12.6828L4.4 14.9656V21.6H2.4C1.7384 21.6 1.2 22.1384 1.2 22.8C1.2 22.9408 1.2288 23.0744 1.2736 23.2H0V24H2.4H7.2H11.2612H14.3384H24V23.2H14.472ZM4 1.6C4 1.1588 4.3588 0.8 4.8 0.8C5.2412 0.8 5.6 1.1588 5.6 1.6C5.6 2.0412 5.2412 2.4 4.8 2.4C4.3588 2.4 4 2.0412 4 1.6ZM2.4 23.2C2.1792 23.2 2 23.0208 2 22.8C2 22.5792 2.1792 22.4 2.4 22.4H7.2C7.4208 22.4 7.6 22.5792 7.6 22.8C7.6 23.0208 7.4208 23.2 7.2 23.2H2.4ZM11.9388 23.2L10.8724 16.8H14.728L13.6616 23.2H11.9388Z" fill="#3B5998"/>
</svg>
