<svg width="24" height="24" viewBox="0 0 24 24" fill="none" xmlns="http://www.w3.org/2000/svg">
<path d="M23.6129 17.7905H17.071C18.1161 17.3264 19.0839 16.6689 19.9355 15.8568L20.0516 15.7407C20.129 15.6634 20.1677 15.586 20.1677 15.47C20.1677 14.6192 19.471 13.923 18.6194 13.923C18.5032 13.923 18.4258 13.9617 18.3484 14.039L18.3097 14.0777C17.4194 14.9672 16.3355 15.586 15.1742 15.9341V13.1495H18.271C19.2 13.1495 20.0129 12.492 20.1677 11.5638C20.3613 11.5252 20.5548 11.4091 20.7097 11.2544L21.2516 10.713C21.3677 10.597 21.4065 10.4423 21.329 10.2876L20.129 7.2709C20.129 6.92283 20.0903 6.53608 20.0129 6.188H21.2903C22.1419 6.188 22.8387 5.49185 22.8387 4.641C22.8387 3.79015 22.1419 3.094 21.2903 3.094C21.1355 3.094 21.0194 3.094 20.8645 3.13268C20.671 2.08845 19.7032 1.3923 18.6194 1.547C18.3097 1.58568 18 1.74038 17.729 1.93375C16.4129 0.69615 14.6323 -1.47533e-08 12.7742 -1.47533e-08C12.5419 -1.47533e-08 12.3871 0.1547 12.3871 0.38675V6.9615H4.25806C4.10323 6.9615 3.94839 7.07753 3.90968 7.19355L2.74839 10.2876C2.70968 10.4423 2.74839 10.597 2.82581 10.713L3.36774 11.2544C3.52258 11.4091 3.71613 11.4865 3.90968 11.5638C4.06452 12.492 4.87742 13.1495 5.80645 13.1495H8.90323V15.9341C7.70323 15.586 6.61935 14.9672 5.72903 14.0777L5.69032 14.039C5.6129 13.9617 5.53548 13.923 5.41935 13.923C4.56774 13.923 3.87097 14.6192 3.87097 15.47C3.87097 15.586 3.90968 15.6634 3.9871 15.7407L4.10323 15.8568C4.91613 16.6689 5.88387 17.3264 6.96774 17.7905H0.387097C0.154839 17.7905 1.38442e-10 17.9452 1.38442e-10 18.1773V19.7243C1.38442e-10 19.9563 0.154839 20.111 0.387097 20.111H23.6129C23.8452 20.111 24 19.9563 24 19.7243V18.1773C24 17.9452 23.8452 17.7905 23.6129 17.7905ZM19.9355 2.78455C20.0516 3.0166 20.129 3.24865 20.129 3.4807C20.129 3.55805 20.129 3.6354 20.0903 3.71275C20.0516 3.90613 20.1677 4.13818 20.4 4.17685C20.5161 4.21553 20.671 4.17685 20.7484 4.06083C21.0581 3.75143 21.5613 3.75143 21.8323 4.06083C22.1419 4.37023 22.1419 4.873 21.8323 5.14373C21.6774 5.3371 21.4839 5.41445 21.2903 5.41445H19.8581C19.5484 4.33155 19.0452 3.36468 18.3097 2.51383C18.8516 2.16575 19.5484 2.28183 19.9355 2.78455ZM14.7097 1.0829C17.3419 1.89508 19.1613 4.21558 19.3548 6.9615H14.7097V1.0829ZM13.1613 0.7735C13.4323 0.7735 13.6645 0.812175 13.9355 0.889525V6.9615H13.1613V0.7735ZM4.37419 10.829H4.25806C4.14194 10.829 4.06452 10.7903 3.9871 10.713L3.6 10.3262L4.52903 7.735H5.41935V8.5085H6.19355V7.735H6.96774V8.5085H7.74194V7.735H8.51613V8.5085H9.29032V7.735H10.0645V8.5085H10.8387V7.735H11.6129V8.5085H12.3871V7.735H13.1613V8.5085H13.9355V7.735H14.7097V8.5085H15.4839V7.735H16.2581V8.5085H17.0323V7.735H17.8065V8.5085H18.5806V7.735H19.471L20.4387 10.3262L20.0516 10.713C19.9742 10.7903 19.8968 10.829 19.7806 10.829H19.6645C19.5484 10.829 19.471 10.7903 19.3935 10.713L19.0839 10.4036C18.8516 10.1715 18.5806 10.0555 18.271 10.0555H18.1548C17.8452 10.0555 17.5355 10.1715 17.3419 10.4036L17.0323 10.713C16.9548 10.7903 16.8774 10.829 16.7613 10.829H16.6452C16.529 10.829 16.4516 10.7903 16.3742 10.713L16.0645 10.4036C15.7548 10.1715 15.4839 10.0555 15.1742 10.0555H15.0581C14.7484 10.0555 14.4387 10.1715 14.2452 10.4036L13.9355 10.713C13.8581 10.7903 13.7806 10.829 13.6645 10.829H13.5484C13.4323 10.829 13.3548 10.7903 13.2774 10.713L12.9677 10.4036C12.6581 10.1715 12.3871 10.0555 12.0774 10.0555H11.9613C11.6516 10.0555 11.3419 10.1715 11.1484 10.4036L10.8387 10.713C10.7613 10.7903 10.6839 10.829 10.5677 10.829H10.4516C10.3355 10.829 10.2581 10.7903 10.1806 10.713L9.87097 10.4036C9.56129 10.1715 9.29032 10.0555 8.98065 10.0555H8.86452C8.55484 10.0555 8.24516 10.1715 8.05161 10.4036L7.74194 10.713C7.66452 10.7903 7.5871 10.829 7.47097 10.829H7.35484C7.23871 10.829 7.16129 10.7903 7.08387 10.713L6.77419 10.4036C6.46452 10.1715 6.19355 10.0555 5.88387 10.0555H5.76774C5.45806 10.0555 5.14839 10.1715 4.95484 10.4036L4.64516 10.713C4.56774 10.7903 4.49032 10.829 4.37419 10.829ZM5.80645 12.376C5.30323 12.376 4.83871 12.0279 4.68387 11.5252C4.83871 11.4865 4.99355 11.3705 5.14839 11.2544L5.45806 10.945C5.53548 10.8677 5.6129 10.829 5.72903 10.829H5.84516C5.96129 10.829 6.03871 10.8677 6.11613 10.945L6.42581 11.2544C6.65806 11.4865 6.92903 11.6025 7.23871 11.6025H7.35484C7.66452 11.6025 7.97419 11.4865 8.16774 11.2544L8.47742 10.945C8.55484 10.8677 8.63226 10.829 8.74839 10.829H8.86452C8.98065 10.829 9.05806 10.8677 9.13548 10.945L9.44516 11.2544C9.67742 11.4865 9.94839 11.6025 10.2581 11.6025H10.3742C10.6839 11.6025 10.9935 11.4865 11.1871 11.2544L11.4968 10.945C11.5742 10.8677 11.6516 10.829 11.7677 10.829H11.8839C12 10.829 12.0774 10.8677 12.1548 10.945L12.4645 11.2544C12.6968 11.4865 12.9677 11.6025 13.2774 11.6025H13.3935C13.7032 11.6025 14.0129 11.4865 14.2065 11.2544L14.5161 10.945C14.5935 10.8677 14.671 10.829 14.7871 10.829H14.9032C15.0194 10.829 15.0968 10.8677 15.1742 10.945L15.4839 11.2544C15.7161 11.4865 15.9871 11.6025 16.2968 11.6025H16.4129C16.7226 11.6025 17.0323 11.4865 17.2258 11.2544L17.5355 10.945C17.6129 10.8677 17.6903 10.829 17.8065 10.829H17.9226C18.0387 10.829 18.1161 10.8677 18.1935 10.945L18.5032 11.2544C18.6194 11.3705 18.7742 11.4865 18.9677 11.5252C19.1613 12.0279 18.6968 12.376 18.1935 12.376H5.80645ZM14.3226 13.1495V16.1275C13.8968 16.2048 13.471 16.2435 13.0452 16.2435H10.9548C10.529 16.2435 10.1032 16.2048 9.67742 16.1275V13.1495H14.3226ZM4.64516 15.3153C4.72258 15.0059 4.95484 14.7739 5.26452 14.6965C6.77419 16.1662 8.82581 17.017 10.9548 17.017H13.0452C15.1742 17.017 17.1871 16.2048 18.7355 14.6965C19.0452 14.7739 19.2774 15.0059 19.3548 15.3153C17.7677 16.901 15.6 17.7905 13.3548 17.7905H10.6839C8.4 17.7905 6.23226 16.9009 4.64516 15.3153ZM23.2258 19.3375H0.774194V18.564H23.2258V19.3375Z" transform="translate(24 3.88916) scale(-1 1)" fill="#3B5998"/>
<path d="M10.4513 4.98441C10.4126 4.98441 10.4126 4.98441 10.3739 4.98441C10.3352 4.98441 10.2578 4.98441 10.219 4.98441C10.1803 4.98441 10.1029 4.98441 10.0642 4.98441C9.2126 4.98441 8.51582 4.28826 8.51582 3.43741C8.51582 3.39874 8.51582 3.32139 8.51582 3.28271C8.51582 3.24404 8.51582 3.16669 8.51582 3.12801C8.55453 3.01199 8.51582 2.89596 8.4384 2.81861C8.36098 2.70259 8.20615 2.66391 8.05131 2.66391C7.93518 2.70259 7.85776 2.70259 7.74163 2.74126V2.23849C8.36098 2.04511 8.67066 1.34896 8.4384 0.768836C8.20615 0.18871 7.58679 -0.159365 6.96744 0.0726853C6.61905 0.18871 6.38679 0.459435 6.27066 0.768836H1.16098C0.928726 0.768836 0.773888 0.923536 0.773888 1.15559V5.10044C0.154533 5.29381 -0.155145 5.98996 0.0771133 6.57009C0.231952 7.03419 0.657758 7.34359 1.16098 7.34359C1.81905 7.34359 2.32227 6.84081 2.32227 6.18334C2.32227 5.68056 2.0126 5.25514 1.54808 5.10044V1.54234H3.87066V5.10044C3.25131 5.33249 2.94163 5.98996 3.17389 6.57009C3.40615 7.18889 4.06421 7.49829 4.64486 7.26624C5.2255 7.03419 5.57389 6.37671 5.34163 5.79659C5.2255 5.44851 4.95453 5.21646 4.64486 5.10044V1.54234H6.27066C6.38679 1.85174 6.65776 2.12246 6.96744 2.23849V3.24404C6.46421 3.70814 6.19324 4.32694 6.19324 4.98441C6.19324 6.26069 7.2384 7.30491 8.51582 7.30491C9.6384 7.30491 10.6061 6.53141 10.8384 5.44851C10.8384 5.40984 10.8384 5.37116 10.8384 5.37116C10.8384 5.13906 10.6836 4.98441 10.4513 4.98441ZM1.16098 6.57009C0.928726 6.57009 0.773888 6.41539 0.773888 6.18334C0.773888 5.95129 0.928726 5.79659 1.16098 5.79659C1.39324 5.79659 1.54808 5.95129 1.54808 6.18334C1.54808 6.41534 1.39324 6.57009 1.16098 6.57009ZM4.25776 6.57009C4.0255 6.57009 3.87066 6.41539 3.87066 6.18334C3.87066 5.95129 4.0255 5.79659 4.25776 5.79659C4.49002 5.79659 4.64486 5.95129 4.64486 6.18334C4.64486 6.41534 4.49002 6.57009 4.25776 6.57009ZM7.35453 0.768836C7.58679 0.768836 7.74163 0.923536 7.74163 1.15559C7.74163 1.38764 7.58679 1.54234 7.35453 1.54234C7.12227 1.54234 6.96744 1.38764 6.96744 1.15559C6.96744 0.923536 7.12227 0.768836 7.35453 0.768836ZM8.51582 6.57009C7.66421 6.57009 6.96744 5.87394 6.96744 5.02309C6.96744 4.44296 7.27711 3.94019 7.74163 3.63079C7.85776 4.79104 8.74808 5.68056 9.90937 5.79659C9.59969 6.29931 9.09647 6.57009 8.51582 6.57009Z" transform="translate(24 0.0263672) scale(-1 1)" fill="#3B5998"/>
<path d="M6.21165 1.56849C6.05681 1.56849 5.94068 1.56849 5.78584 1.60716C5.59229 0.56294 4.58584 -0.133211 3.54068 0.0214893C2.72778 0.176189 2.10842 0.79499 1.95358 1.60716C1.14068 1.37511 0.28907 1.87789 0.0568115 2.69007C-0.175447 3.50224 0.327779 4.35309 1.14068 4.58514C1.29552 4.66249 1.41165 4.66249 1.56649 4.66249H6.21165C7.06326 4.66249 7.76004 3.96634 7.76004 3.11549C7.76004 2.26464 7.06326 1.56849 6.21165 1.56849ZM6.79229 3.61827C6.59875 3.81164 6.4052 3.88899 6.21165 3.88899H1.56649C1.14068 3.88899 0.792295 3.54092 0.792295 3.11549C0.792295 2.69007 1.14068 2.34199 1.56649 2.34199C1.76004 2.34199 1.95359 2.41934 2.10842 2.57404C2.26326 2.72874 2.49552 2.72874 2.65036 2.57404C2.72778 2.45802 2.76649 2.34199 2.76649 2.18729C2.61165 1.56849 2.99875 0.94969 3.65681 0.79499C4.27617 0.64029 4.89552 1.02704 5.05036 1.68452C5.08907 1.83922 5.08907 2.03259 5.05036 2.18729C5.01165 2.38067 5.12778 2.61272 5.36004 2.65139C5.47617 2.69007 5.631 2.65139 5.70842 2.53537C6.0181 2.22597 6.52133 2.22597 6.79229 2.53537C7.06326 2.84477 7.10197 3.34749 6.79229 3.61827Z" transform="translate(7.75977) scale(-1 1)" fill="#3B5998"/>
</svg>
