<svg width="20" height="20" viewBox="0 0 20 20" fill="none" xmlns="http://www.w3.org/2000/svg">
<path d="M19.9957 14.9729C19.9937 14.9354 19.988 14.8996 19.9783 14.8646C19.9743 14.8496 19.9707 14.8354 19.9653 14.8217C19.9517 14.7862 19.934 14.7537 19.9123 14.7233C19.9077 14.7167 19.9047 14.7087 19.8993 14.7025C19.8983 14.7013 19.8977 14.6992 19.8963 14.6979L13 6.48792V0H7V6.48792L0.103667 14.6979C0.102667 14.6992 0.102 14.7013 0.100667 14.7025C0.0956667 14.7087 0.0923333 14.7167 0.0876667 14.7233C0.066 14.7533 0.0483333 14.7858 0.0346667 14.8212C0.0293333 14.835 0.0256667 14.8496 0.0216667 14.8642C0.012 14.8996 0.006 14.9354 0.00433333 14.9725C0.004 14.9825 0 14.9904 0 15V19.5833C0 19.8137 0.149 20 0.333333 20H19.6667C19.851 20 20 19.8137 20 19.5833V15C20 14.9904 19.9963 14.9825 19.9957 14.9729ZM7.66667 0.833333H12.3333V6.25H7.66667V0.833333ZM7.46667 7.08333H12.5333L18.8333 14.5833H15.827L13.2603 10.5729C13.145 10.3933 12.9357 10.3637 12.7917 10.5079C12.648 10.6521 12.6247 10.9142 12.7397 11.0938L14.973 14.5833H5.027L7.26033 11.0938C7.37533 10.9137 7.35167 10.6517 7.20833 10.5079C7.064 10.3637 6.855 10.3946 6.73967 10.5729L4.173 14.5833H1.16667L7.46667 7.08333ZM19.3333 19.1667H13.6667V18.3333C13.6667 18.1029 13.5177 17.9167 13.3333 17.9167C13.149 17.9167 13 18.1029 13 18.3333V19.1667H12.3333V18.3333C12.3333 18.1029 12.1843 17.9167 12 17.9167C11.8157 17.9167 11.6667 18.1029 11.6667 18.3333V19.1667H11V18.3333C11 18.1029 10.851 17.9167 10.6667 17.9167C10.4823 17.9167 10.3333 18.1029 10.3333 18.3333V19.1667H9.66667V18.3333C9.66667 18.1029 9.51767 17.9167 9.33333 17.9167C9.149 17.9167 9 18.1029 9 18.3333V19.1667H8.33333V18.3333C8.33333 18.1029 8.18433 17.9167 8 17.9167C7.81567 17.9167 7.66667 18.1029 7.66667 18.3333V19.1667H7V18.3333C7 18.1029 6.851 17.9167 6.66667 17.9167C6.48233 17.9167 6.33333 18.1029 6.33333 18.3333V19.1667H0.666667V15.4167H19.3333V19.1667Z" fill="#3B5998"/>
<path d="M0 0.416667V1.66667C0 1.89708 0.149 2.08333 0.333333 2.08333H1.33333C1.51767 2.08333 1.66667 1.89708 1.66667 1.66667V0.416667C1.66667 0.18625 1.51767 0 1.33333 0H0.333333C0.149 0 0 0.18625 0 0.416667ZM0.666667 0.833333H1V1.25H0.666667V0.833333Z" transform="translate(15 16.25)" fill="#3B5998"/>
<path d="M0.333333 2.08333H1.33333C1.51767 2.08333 1.66667 1.89708 1.66667 1.66667V0.416667C1.66667 0.18625 1.51767 0 1.33333 0H0.333333C0.149 0 0 0.18625 0 0.416667V1.66667C0 1.89708 0.149 2.08333 0.333333 2.08333ZM0.666667 0.833333H1V1.25H0.666667V0.833333Z" transform="translate(17 16.25)" fill="#3B5998"/>
<path d="M2 0H0.333333C0.149 0 0 0.18625 0 0.416667C0 0.647083 0.149 0.833333 0.333333 0.833333H2C2.18433 0.833333 2.33333 0.647083 2.33333 0.416667C2.33333 0.18625 2.18433 0 2 0Z" transform="translate(1.33398 17.5)" fill="#3B5998"/>
</svg>
