<svg width="24" height="24" viewBox="0 0 24 24" fill="none" xmlns="http://www.w3.org/2000/svg">
<path d="M23.6 23.2H19.6V22.3108C20.252 22.1472 20.8252 21.7572 21.2308 21.2H22.8C23.0212 21.2 23.2 21.0212 23.2 20.8V2C23.2 1.7788 23.0212 1.6 22.8 1.6V1.2H23.6C23.8212 1.2 24 1.0212 24 0.8C24 0.5788 23.8212 0.4 23.6 0.4H22.8C22.8 0.1788 22.6212 0 22.4 0C22.1788 0 22 0.1788 22 0.4H21.6C21.6 0.1788 21.4212 0 21.2 0C20.9788 0 20.8 0.1788 20.8 0.4H20.4C20.4 0.1788 20.2212 0 20 0C19.7788 0 19.6 0.1788 19.6 0.4H19.2C19.2 0.1788 19.0212 0 18.8 0C18.5788 0 18.4 0.1788 18.4 0.4H18C18 0.1788 17.8212 0 17.6 0C17.3788 0 17.2 0.1788 17.2 0.4H16.8C16.8 0.1788 16.6212 0 16.4 0C16.1788 0 16 0.1788 16 0.4H15.2C14.9788 0.4 14.8 0.5788 14.8 0.8C14.8 1.0212 14.9788 1.2 15.2 1.2H16V1.6C15.7788 1.6 15.6 1.7788 15.6 2V12.8H3.2V10.9656L4.9656 9.2H5.2C5.4212 9.2 5.6 9.0212 5.6 8.8C5.6 8.5788 5.4212 8.4 5.2 8.4H4.8C4.6936 8.4 4.592 8.442 4.5172 8.5172L2.6344 10.4H1.6V9.2H2.4C2.6212 9.2 2.8 9.0212 2.8 8.8C2.8 8.5788 2.6212 8.4 2.4 8.4H1.2C0.9788 8.4 0.8 8.5788 0.8 8.8V10.8V12.8736C0.3356 13.0392 0 13.4792 0 14C0 14.5512 0.3756 15.012 0.8828 15.152L2.3032 20.2668C2.5868 21.2872 3.4052 22.0484 4.4 22.3016V23.2H0.4C0.1788 23.2 0 23.3788 0 23.6C0 23.8212 0.1788 24 0.4 24H4.8H6H18H19.2H23.6C23.8212 24 24 23.8212 24 23.6C24 23.3788 23.8212 23.2 23.6 23.2ZM22 1.2V1.6H21.6V1.2H22ZM20.8 1.2V1.6H20.4V1.2H20.8ZM19.6 1.2V1.6H19.2V1.2H19.6ZM18.4 1.2V1.6H18V1.2H18.4ZM16.8 1.2H17.2V1.6H16.8V1.2ZM16.4 10.4V8V5.6V3.2V2.4H22.4V20.4H21.7404H21.6H19.2H16.8H16.4V20V17.6V15.2V14.4V12.8V10.4ZM2.4 12.8H1.6V11.2H2.4V12.8ZM1.2 13.6H2.8H15.6V14.4H1.2C0.9792 14.4 0.8 14.2208 0.8 14C0.8 13.7792 0.9792 13.6 1.2 13.6ZM3.0744 20.0528L1.726 15.2H15.6V20.8V21.2H16H20.1228C19.77 21.4572 19.3424 21.6 18.8904 21.6H17.2H6.8H5.1096C4.1644 21.6 3.3272 20.9636 3.0744 20.0528ZM16.9528 22.4L17.3528 23.2H6.6472L7.0472 22.4H16.9528ZM5.2 23.2V22.4H6.1528L5.7528 23.2H5.2ZM18.2472 23.2L17.8472 22.4H18.8V23.2H18.2472Z" fill="#3B5998"/>
<path d="M0.4 0.8C0.620914 0.8 0.8 0.620914 0.8 0.4C0.8 0.179086 0.620914 0 0.4 0C0.179086 0 0 0.179086 0 0.4C0 0.620914 0.179086 0.8 0.4 0.8Z" transform="translate(12 2.7998)" fill="#3B5998"/>
<path d="M0.4 0.8C0.620914 0.8 0.8 0.620914 0.8 0.4C0.8 0.179086 0.620914 0 0.4 0C0.179086 0 0 0.179086 0 0.4C0 0.620914 0.179086 0.8 0.4 0.8Z" transform="translate(12 5.2002)" fill="#3B5998"/>
<path d="M0.4 0.8C0.620914 0.8 0.8 0.620914 0.8 0.4C0.8 0.179086 0.620914 0 0.4 0C0.179086 0 0 0.179086 0 0.4C0 0.620914 0.179086 0.8 0.4 0.8Z" transform="translate(12 4)" fill="#3B5998"/>
<path d="M0.4 0.8C0.620914 0.8 0.8 0.620914 0.8 0.4C0.8 0.179086 0.620914 0 0.4 0C0.179086 0 0 0.179086 0 0.4C0 0.620914 0.179086 0.8 0.4 0.8Z" transform="translate(12 6.3999)" fill="#3B5998"/>
<path d="M0.4 0.8C0.620914 0.8 0.8 0.620914 0.8 0.4C0.8 0.179086 0.620914 0 0.4 0C0.179086 0 0 0.179086 0 0.4C0 0.620914 0.179086 0.8 0.4 0.8Z" transform="translate(12 2.7998)" fill="#3B5998"/>
<path d="M0.4 0.8C0.620914 0.8 0.8 0.620914 0.8 0.4C0.8 0.179086 0.620914 0 0.4 0C0.179086 0 0 0.179086 0 0.4C0 0.620914 0.179086 0.8 0.4 0.8Z" transform="translate(21.1992 2.7998)" fill="#3B5998"/>
<path d="M0.4 0.8C0.620914 0.8 0.8 0.620914 0.8 0.4C0.8 0.179086 0.620914 0 0.4 0C0.179086 0 0 0.179086 0 0.4C0 0.620914 0.179086 0.8 0.4 0.8Z" transform="translate(12 5.2002)" fill="#3B5998"/>
<path d="M0.4 0.8C0.620914 0.8 0.8 0.620914 0.8 0.4C0.8 0.179086 0.620914 0 0.4 0C0.179086 0 0 0.179086 0 0.4C0 0.620914 0.179086 0.8 0.4 0.8Z" transform="translate(21.1992 5.2002)" fill="#3B5998"/>
<path d="M0.4 0.8C0.620914 0.8 0.8 0.620914 0.8 0.4C0.8 0.179086 0.620914 0 0.4 0C0.179086 0 0 0.179086 0 0.4C0 0.620914 0.179086 0.8 0.4 0.8Z" transform="translate(20 4)" fill="#3B5998"/>
<path d="M0.4 0.8C0.620914 0.8 0.8 0.620914 0.8 0.4C0.8 0.179086 0.620914 0 0.4 0C0.179086 0 0 0.179086 0 0.4C0 0.620914 0.179086 0.8 0.4 0.8Z" transform="translate(20 6.3999)" fill="#3B5998"/>
<path d="M0.4 0.8C0.620914 0.8 0.8 0.620914 0.8 0.4C0.8 0.179086 0.620914 0 0.4 0C0.179086 0 0 0.179086 0 0.4C0 0.620914 0.179086 0.8 0.4 0.8Z" transform="translate(12 7.6001)" fill="#3B5998"/>
<path d="M0.4 0.8C0.620914 0.8 0.8 0.620914 0.8 0.4C0.8 0.179086 0.620914 0 0.4 0C0.179086 0 0 0.179086 0 0.4C0 0.620914 0.179086 0.8 0.4 0.8Z" transform="translate(12 10)" fill="#3B5998"/>
<path d="M0.4 0.8C0.620914 0.8 0.8 0.620914 0.8 0.4C0.8 0.179086 0.620914 0 0.4 0C0.179086 0 0 0.179086 0 0.4C0 0.620914 0.179086 0.8 0.4 0.8Z" transform="translate(12 8.7998)" fill="#3B5998"/>
<path d="M0.4 0.8C0.620914 0.8 0.8 0.620914 0.8 0.4C0.8 0.179086 0.620914 0 0.4 0C0.179086 0 0 0.179086 0 0.4C0 0.620914 0.179086 0.8 0.4 0.8Z" transform="translate(12 11.2002)" fill="#3B5998"/>
<path d="M0.4 0.8C0.620914 0.8 0.8 0.620914 0.8 0.4C0.8 0.179086 0.620914 0 0.4 0C0.179086 0 0 0.179086 0 0.4C0 0.620914 0.179086 0.8 0.4 0.8Z" transform="translate(12 7.6001)" fill="#3B5998"/>
<path d="M0.4 0.8C0.620914 0.8 0.8 0.620914 0.8 0.4C0.8 0.179086 0.620914 0 0.4 0C0.179086 0 0 0.179086 0 0.4C0 0.620914 0.179086 0.8 0.4 0.8Z" transform="translate(21.1992 7.6001)" fill="#3B5998"/>
<path d="M0.4 0.8C0.620914 0.8 0.8 0.620914 0.8 0.4C0.8 0.179086 0.620914 0 0.4 0C0.179086 0 0 0.179086 0 0.4C0 0.620914 0.179086 0.8 0.4 0.8Z" transform="translate(12 10)" fill="#3B5998"/>
<path d="M0.4 0.8C0.620914 0.8 0.8 0.620914 0.8 0.4C0.8 0.179086 0.620914 0 0.4 0C0.179086 0 0 0.179086 0 0.4C0 0.620914 0.179086 0.8 0.4 0.8Z" transform="translate(21.1992 10)" fill="#3B5998"/>
<path d="M0.4 0.8C0.620914 0.8 0.8 0.620914 0.8 0.4C0.8 0.179086 0.620914 0 0.4 0C0.179086 0 0 0.179086 0 0.4C0 0.620914 0.179086 0.8 0.4 0.8Z" transform="translate(20 8.7998)" fill="#3B5998"/>
<path d="M0.4 0.8C0.620914 0.8 0.8 0.620914 0.8 0.4C0.8 0.179086 0.620914 0 0.4 0C0.179086 0 0 0.179086 0 0.4C0 0.620914 0.179086 0.8 0.4 0.8Z" transform="translate(20 11.2002)" fill="#3B5998"/>
<path d="M0.4 0.8C0.620914 0.8 0.8 0.620914 0.8 0.4C0.8 0.179086 0.620914 0 0.4 0C0.179086 0 0 0.179086 0 0.4C0 0.620914 0.179086 0.8 0.4 0.8Z" transform="translate(12 12.3999)" fill="#3B5998"/>
<path d="M0.4 0.8C0.620914 0.8 0.8 0.620914 0.8 0.4C0.8 0.179086 0.620914 0 0.4 0C0.179086 0 0 0.179086 0 0.4C0 0.620914 0.179086 0.8 0.4 0.8Z" transform="translate(12 14.7998)" fill="#3B5998"/>
<path d="M0.4 0.8C0.620914 0.8 0.8 0.620914 0.8 0.4C0.8 0.179086 0.620914 0 0.4 0C0.179086 0 0 0.179086 0 0.4C0 0.620914 0.179086 0.8 0.4 0.8Z" transform="translate(12 13.6001)" fill="#3B5998"/>
<path d="M0.4 0.8C0.620914 0.8 0.8 0.620914 0.8 0.4C0.8 0.179086 0.620914 0 0.4 0C0.179086 0 0 0.179086 0 0.4C0 0.620914 0.179086 0.8 0.4 0.8Z" transform="translate(12 16)" fill="#3B5998"/>
<path d="M0.4 0.8C0.620914 0.8 0.8 0.620914 0.8 0.4C0.8 0.179086 0.620914 0 0.4 0C0.179086 0 0 0.179086 0 0.4C0 0.620914 0.179086 0.8 0.4 0.8Z" transform="translate(12 12.3999)" fill="#3B5998"/>
<path d="M0.4 0.8C0.620914 0.8 0.8 0.620914 0.8 0.4C0.8 0.179086 0.620914 0 0.4 0C0.179086 0 0 0.179086 0 0.4C0 0.620914 0.179086 0.8 0.4 0.8Z" transform="translate(21.1992 12.3999)" fill="#3B5998"/>
<path d="M0.4 0.8C0.620914 0.8 0.8 0.620914 0.8 0.4C0.8 0.179086 0.620914 0 0.4 0C0.179086 0 0 0.179086 0 0.4C0 0.620914 0.179086 0.8 0.4 0.8Z" transform="translate(12 14.7998)" fill="#3B5998"/>
<path d="M0.4 0.8C0.620914 0.8 0.8 0.620914 0.8 0.4C0.8 0.179086 0.620914 0 0.4 0C0.179086 0 0 0.179086 0 0.4C0 0.620914 0.179086 0.8 0.4 0.8Z" transform="translate(21.1992 14.7998)" fill="#3B5998"/>
<path d="M0.4 0.8C0.620914 0.8 0.8 0.620914 0.8 0.4C0.8 0.179086 0.620914 0 0.4 0C0.179086 0 0 0.179086 0 0.4C0 0.620914 0.179086 0.8 0.4 0.8Z" transform="translate(20 13.6001)" fill="#3B5998"/>
<path d="M0.4 0.8C0.620914 0.8 0.8 0.620914 0.8 0.4C0.8 0.179086 0.620914 0 0.4 0C0.179086 0 0 0.179086 0 0.4C0 0.620914 0.179086 0.8 0.4 0.8Z" transform="translate(20 16)" fill="#3B5998"/>
<path d="M0.4 0.8C0.620914 0.8 0.8 0.620914 0.8 0.4C0.8 0.179086 0.620914 0 0.4 0C0.179086 0 0 0.179086 0 0.4C0 0.620914 0.179086 0.8 0.4 0.8Z" transform="translate(12 17.2002)" fill="#3B5998"/>
<path d="M0.4 0.8C0.620914 0.8 0.8 0.620914 0.8 0.4C0.8 0.179086 0.620914 0 0.4 0C0.179086 0 0 0.179086 0 0.4C0 0.620914 0.179086 0.8 0.4 0.8Z" transform="translate(12 19.6001)" fill="#3B5998"/>
<path d="M0.4 0.8C0.620914 0.8 0.8 0.620914 0.8 0.4C0.8 0.179086 0.620914 0 0.4 0C0.179086 0 0 0.179086 0 0.4C0 0.620914 0.179086 0.8 0.4 0.8Z" transform="translate(12 18.3999)" fill="#3B5998"/>
<path d="M0.4 0.8C0.620914 0.8 0.8 0.620914 0.8 0.4C0.8 0.179086 0.620914 0 0.4 0C0.179086 0 0 0.179086 0 0.4C0 0.620914 0.179086 0.8 0.4 0.8Z" transform="translate(12 17.2002)" fill="#3B5998"/>
<path d="M0.4 0.8C0.620914 0.8 0.8 0.620914 0.8 0.4C0.8 0.179086 0.620914 0 0.4 0C0.179086 0 0 0.179086 0 0.4C0 0.620914 0.179086 0.8 0.4 0.8Z" transform="translate(21.1992 17.2002)" fill="#3B5998"/>
<path d="M0.4 0.8C0.620914 0.8 0.8 0.620914 0.8 0.4C0.8 0.179086 0.620914 0 0.4 0C0.179086 0 0 0.179086 0 0.4C0 0.620914 0.179086 0.8 0.4 0.8Z" transform="translate(12 19.6001)" fill="#3B5998"/>
<path d="M0.4 0.8C0.620914 0.8 0.8 0.620914 0.8 0.4C0.8 0.179086 0.620914 0 0.4 0C0.179086 0 0 0.179086 0 0.4C0 0.620914 0.179086 0.8 0.4 0.8Z" transform="translate(21.1992 19.6001)" fill="#3B5998"/>
<path d="M0.4 0.8C0.620914 0.8 0.8 0.620914 0.8 0.4C0.8 0.179086 0.620914 0 0.4 0C0.179086 0 0 0.179086 0 0.4C0 0.620914 0.179086 0.8 0.4 0.8Z" transform="translate(20 18.3999)" fill="#3B5998"/>
</svg>
