<svg width="25" height="25" viewBox="0 0 25 25" fill="none" xmlns="http://www.w3.org/2000/svg">
<path d="M23.6702 0H1.32979C0.595213 0 0 0.595479 0 1.32979V23.6702C0 24.4045 0.595213 25 1.32979 25H23.6702C24.4048 25 25 24.4045 25 23.6702V1.32979C25 0.595479 24.4048 0 23.6702 0ZM19.912 14.0806C20.5934 14.7455 21.3138 15.3715 21.9258 16.1064C22.1965 16.4309 22.4519 16.766 22.6463 17.1434C22.9231 17.6816 22.6731 18.2729 22.1907 18.3045L19.1971 18.3037C18.4242 18.3673 17.8088 18.0561 17.2896 17.5277C16.8761 17.1061 16.4915 16.6561 16.0928 16.2207C15.9303 16.0418 15.758 15.8734 15.5543 15.7404C15.1463 15.4755 14.7918 15.5564 14.5574 15.9822C14.3191 16.4157 14.2641 16.8965 14.2423 17.3798C14.209 18.0859 13.9963 18.2702 13.288 18.3029C11.7747 18.3742 10.3383 18.1444 9.00399 17.3819C7.82606 16.709 6.91516 15.7585 6.12154 14.6835C4.57473 12.587 3.39016 10.2856 2.32633 7.91835C2.0867 7.38511 2.26197 7.09973 2.84947 7.08883C3.82713 7.06941 4.80452 7.07207 5.78085 7.08777C6.17872 7.09388 6.44176 7.32154 6.59415 7.69654C7.12207 8.99574 7.76995 10.2319 8.58112 11.3782C8.79734 11.6832 9.01809 11.9878 9.33192 12.2035C9.67872 12.4418 9.94308 12.3633 10.1066 11.9763C10.2112 11.7295 10.2564 11.4673 10.2787 11.2035C10.3564 10.3003 10.3657 9.39707 10.2316 8.49734C10.1479 7.93457 9.83085 7.57101 9.26968 7.46463C8.98404 7.41037 9.0258 7.30452 9.16463 7.14149C9.40558 6.85904 9.63271 6.68457 10.0838 6.68457L13.467 6.68404C14.0005 6.7883 14.1191 7.02766 14.1918 7.56463L14.1949 11.3234C14.1894 11.5314 14.2989 12.1473 14.6723 12.2835C14.971 12.3822 15.1691 12.1426 15.3479 11.9527C16.1585 11.0923 16.7362 10.0761 17.254 9.02473C17.4819 8.56117 17.6795 8.08085 17.871 7.60027C18.0128 7.24468 18.2346 7.06968 18.6356 7.07606L21.8926 7.07952C21.9883 7.07952 22.0864 7.08058 22.1814 7.09628C22.7298 7.19069 22.8801 7.42686 22.7106 7.9625C22.4436 8.80372 21.9237 9.50479 21.4152 10.2074C20.8718 10.9588 20.2918 11.6854 19.7524 12.4404C19.2582 13.133 19.2981 13.4809 19.912 14.0806Z" fill="#4E729A"/>
</svg>
