<svg xmlns="http://www.w3.org/2000/svg" viewBox="0 0 20.08 16.34"><g id="Слой_2" data-name="Слой 2"><g id="_1" data-name="1"><path d="M10,5.47A3.45,3.45,0,1,1,6.6,8.92,3.46,3.46,0,0,1,10,5.47M10,4a4.95,4.95,0,1,0,5,4.95A4.95,4.95,0,0,0,10,4Z" fill="#BDE7FF"/><path d="M18.17,16.34H1.92A1.87,1.87,0,0,1,0,14.54V3.92A1.86,1.86,0,0,1,1.92,2.13H4.79a.48.48,0,0,0,.4-.2L5.67,1A1.92,1.92,0,0,1,7.39,0h5.3a1.91,1.91,0,0,1,1.72,1l.49.93a.46.46,0,0,0,.39.2h2.88a1.86,1.86,0,0,1,1.91,1.79V14.54A1.86,1.86,0,0,1,18.17,16.34ZM1.92,3.63c-.25,0-.42.15-.42.29V14.54c0,.14.17.3.42.3H18.17a.38.38,0,0,0,.41-.3V3.92c0-.14-.17-.29-.41-.29H15.29a1.91,1.91,0,0,1-1.72-1h0l-.49-.92a.42.42,0,0,0-.39-.2H7.39A.44.44,0,0,0,7,1.7l-.49.92a1.91,1.91,0,0,1-1.72,1Z" fill="#BDE7FF"/></g></g></svg>
