<svg width="24" height="24" viewBox="0 0 24 24" fill="none" xmlns="http://www.w3.org/2000/svg">
<rect width="24" height="24" fill="black" fill-opacity="0"/>
<path d="M8 4C8 5.10461 7.10449 6 6 6C4.89551 6 4 5.10461 4 4C4 2.89539 4.89551 2 6 2C7.10449 2 8 2.89539 8 4Z" fill="black"/>
<path d="M20 4C20 5.10461 19.1045 6 18 6C16.8955 6 16 5.10461 16 4C16 2.89539 16.8955 2 18 2C19.1045 2 20 2.89539 20 4Z" fill="black"/>
<path d="M3.3457 8.24353C3.37695 8.21643 3.41016 8.19128 3.44434 8.16821C3.60352 8.06201 3.79492 8 4 8H8C8.28027 8 8.5332 8.11499 8.71484 8.30042L12 11.5858L15.2803 8.30627L15.2979 8.28796C15.4785 8.10986 15.7266 8 16 8H20C20.5527 8 21 8.44775 21 9V22H19V16H17V22H15V11.4142L13.4141 12.9999L12 14.4139L10.5859 12.9998L9 11.4138V22H7V16H5V22H3V9C3 8.76721 3.0791 8.55298 3.21289 8.38306C3.25293 8.3324 3.29785 8.28564 3.3457 8.24353Z" fill="black"/>
</svg>
