<svg width="24" height="24" viewBox="0 0 24 24" fill="none" xmlns="http://www.w3.org/2000/svg">
<rect width="24" height="24" fill="black" fill-opacity="0"/>
<path fill-rule="evenodd" clip-rule="evenodd" d="M20.5596 9.21997L23 12L20.5596 14.78L20.9004 18.46L17.29 19.28L15.4004 22.46L12 21L8.59961 22.47L6.70996 19.29L3.09961 18.47L3.44043 14.78L1 12L3.44043 9.20996L3.09961 5.53003L6.70996 4.71997L8.59961 1.54004L12 3L15.4004 1.54004L17.29 4.71997L20.9004 5.54004L20.5596 9.21997ZM10.4619 9.83325C10.4619 10.4666 10.8916 10.8733 12.2295 11.2666C13.5674 11.6599 15 12.3066 15 14.2C15 15.5667 14.0869 16.3201 12.9375 16.5667V18H11.1689V16.5532C10.0371 16.28 9.07031 15.46 9 14H10.2969C10.3613 14.7866 10.8389 15.3999 12.0527 15.3999C13.3555 15.3999 13.6445 14.6667 13.6445 14.2068C13.6445 13.5867 13.3496 13 11.876 12.6001C10.2314 12.1533 9.10645 11.3867 9.10645 9.84668C9.10645 8.56006 10.0254 7.71997 11.1689 7.43994V6H12.9375V7.45996C14.1689 7.80005 14.7881 8.85327 14.8291 10H13.5264C13.4912 9.16675 13.1025 8.6001 12.0527 8.6001C11.0566 8.6001 10.4619 9.10669 10.4619 9.83325Z" fill="black"/>
</svg>
