<svg class="set_img" width="21" height="12" viewBox="0 0 21 12" fill="none" xmlns="http://www.w3.org/2000/svg">
<path d="M7.98975 0.68119H0.336269C0.150648 0.68119 -4.61795e-08 0.528604 -4.61795e-08 0.340595C-4.61795e-08 0.152587 0.150648 -7.2759e-08 0.336269 -7.2759e-08H7.98975C8.17537 -7.2759e-08 8.32602 0.152587 8.32602 0.340595C8.32602 0.528604 8.17537 0.68119 7.98975 0.68119Z" transform="translate(6.41992 9.47363)" fill="#00AEE9"/>
<path d="M2.15817 4.3712C0.967782 4.3712 7.69659e-08 3.39097 7.69659e-08 2.18594C7.69659e-08 0.980233 0.967782 1.767e-07 2.15817 1.767e-07C3.34789 1.767e-07 4.31568 0.980233 4.31568 2.18594C4.31568 3.39028 3.34722 4.3712 2.15817 4.3712ZM2.15817 0.681191C1.33902 0.681191 0.672538 1.35625 0.672538 2.18594C0.672538 3.01563 1.33902 3.69001 2.15817 3.69001C2.97733 3.69001 3.64314 3.01563 3.64314 2.18594C3.64314 1.35625 2.97733 0.681191 2.15817 0.681191Z" transform="translate(2.77734 7.62891)" fill="#00AEE9"/>
<path d="M2.1575 4.3712C0.967782 4.3712 3.07863e-08 3.39097 3.07863e-08 2.18594C3.07863e-08 0.980233 0.967782 1.767e-07 2.1575 1.767e-07C3.34789 1.767e-07 4.31568 0.980233 4.31568 2.18594C4.31568 3.39028 3.34722 4.3712 2.1575 4.3712ZM2.1575 0.681191C1.33835 0.681191 0.672538 1.35625 0.672538 2.18594C0.672538 3.01563 1.33835 3.69001 2.1575 3.69001C2.97665 3.69001 3.64314 3.01563 3.64314 2.18594C3.64314 1.35625 2.97665 0.681191 2.1575 0.681191Z" transform="translate(14.0732 7.62891)" fill="#00AEE9"/>
<path d="M7.99177 0.68119H0.336269C0.150649 0.68119 2.25767e-07 0.528604 2.25767e-07 0.340595C2.25767e-07 0.152587 0.150649 -7.2759e-08 0.336269 -7.2759e-08H7.99177C8.17739 -7.2759e-08 8.32804 0.152587 8.32804 0.340595C8.32804 0.528604 8.17739 0.68119 7.99177 0.68119Z" transform="translate(6.42188 9.47363)" fill="#00AEE9"/>
<path d="M19.3913 10.1552H18.0516C17.866 10.1552 17.7153 10.0026 17.7153 9.81459C17.7153 9.62658 17.866 9.474 18.0516 9.474H19.3913C19.9071 9.474 20.3268 9.04893 20.3268 8.52646V7.21108C20.3268 6.72607 20.1318 6.25197 19.7914 5.90933L18.2829 4.39095C18.2547 4.36234 18.2318 4.32897 18.2143 4.29218L16.9775 1.58104C16.728 1.03405 16.1826 0.68119 15.5888 0.68119H1.73784C1.15071 0.68119 0.672538 1.16552 0.672538 1.7602V8.52714C0.672538 9.04962 1.09153 9.47468 1.60737 9.47468H3.11116C3.29678 9.47468 3.44743 9.62726 3.44743 9.81527C3.44743 10.0033 3.29678 10.1559 3.11116 10.1559H1.60737C0.720961 10.1552 0 9.42495 0 8.52646V1.7602C0 0.7895 0.779472 -6.75619e-08 1.73784 -6.75619e-08H15.5888C16.4442 -6.75619e-08 17.2291 0.508168 17.5889 1.29494L18.8001 3.95091L20.2663 5.42636C20.7323 5.89502 21 6.54624 21 7.21108V8.52646C20.9993 9.42495 20.2777 10.1552 19.3913 10.1552Z" fill="#00AEE9"/>
<path d="M10.0228 0.681191H0.336269C0.150648 0.681191 -1.41104e-07 0.528604 -1.41104e-07 0.340595C-1.41104e-07 0.152587 0.150648 2.02686e-07 0.336269 2.02686e-07H10.0228C10.2085 2.02686e-07 10.3591 0.152587 10.3591 0.340595C10.3591 0.528604 10.2085 0.681191 10.0228 0.681191Z" transform="translate(4.43555 4.79102)" fill="#00AEE9"/>
<style>
	.set_img path {
		fill: #00AEE9;
	}
	.set_img:hover path {
		fill: #0077cc;
		transition: 0.3s ease;
		cursor: pointer;
	}
</style>
</svg>
