<svg class="set_img" width="19" height="19" viewBox="0 0 19 19" fill="none" xmlns="http://www.w3.org/2000/svg">
<path d="M18.05 15.77C16.16 14.7678 14.7103 14.2058 13.4198 13.9903L13.5533 13.8067C13.6167 13.7433 13.6483 13.6483 13.6167 13.5533L13.3199 12.3663C14.1048 11.2567 14.5667 9.86954 14.5667 8.55001V7.28333H14.8833H15.5167C15.7067 7.28333 15.8333 7.15668 15.8333 6.96668C15.8333 6.77669 15.7067 6.65003 15.5167 6.65003H15.2V6.33338C15.2 3.83172 13.5533 1.71006 11.0833 1.01337V0.949989C11.0833 0.443303 10.6717 0 10.1333 0H8.86666C8.35998 0 7.91667 0.411649 7.91667 0.949989V1.01333C5.44666 1.71002 3.79999 3.83168 3.79999 6.33335V6.65H3.48334C3.29334 6.65 3.16669 6.77665 3.16669 6.96665C3.16669 7.15664 3.29334 7.2833 3.48334 7.2833H4.11668H4.43333V8.54997C4.43333 9.86951 4.8952 11.2567 5.68009 12.3663L5.38332 13.5533C5.38332 13.6167 5.38332 13.7433 5.44666 13.8067L5.58022 13.9903C4.2897 14.2058 2.83997 14.7678 0.949989 15.77C0.348342 16.055 0 16.6567 0 17.3217V18.6834C0 18.8733 0.126653 19 0.31665 19H7.91667H8.04333H10.9567H11.0833H18.6834C18.8733 19 19 18.8733 19 18.6834V17.3217C19 16.6883 18.62 16.0867 18.05 15.77ZM9.31012 15.4769L9.50181 15.0456L9.97511 16.0869L10.2847 16.7833H8.74005L9.31012 15.4769ZM8.49934 17.4167H10.4983L10.6792 18.3667H8.30935L8.49934 17.4167ZM12.825 12.9833L12.9517 13.5533L12.6282 13.9975C12.6075 14.0144 12.5884 14.0348 12.5717 14.06L11.2545 15.8838L10.8365 16.4576L9.98284 14.5368C11.0033 14.4123 11.9142 13.9001 12.65 13.1639C12.6581 13.1558 12.6663 13.1478 12.6744 13.1396C12.6764 13.1376 12.6784 13.1356 12.6803 13.1336C12.7291 13.0847 12.7773 13.0347 12.825 12.9833ZM12.4124 2.31608C12.4476 2.33947 12.4825 2.36324 12.517 2.38746C12.9206 2.68826 13.2932 3.04064 13.585 3.42L12.1284 3.70499L12.4124 2.31608ZM6.87169 3.70499L5.41501 3.42C5.70684 3.04061 6.07947 2.68823 6.48313 2.38742C6.51757 2.36324 6.55243 2.33947 6.58759 2.31608L6.87169 3.70499ZM4.43333 6.33335C4.43333 5.49069 4.64547 4.69573 5.02943 4.00101L7.22003 4.43337C7.25168 4.43337 7.25168 4.43337 7.28337 4.43337C7.37837 4.43337 7.44172 4.40171 7.53672 4.37002C7.63171 4.30668 7.66337 4.18003 7.63171 4.08503L7.19698 1.96925C7.42595 1.85908 7.66624 1.76446 7.91671 1.68666V2.53335C7.91671 2.72335 8.04336 2.85 8.23336 2.85C8.42336 2.85 8.55001 2.72335 8.55001 2.53335V1.26668V0.949989C8.55001 0.791645 8.67666 0.633338 8.86666 0.633338H10.1333C10.2917 0.633338 10.45 0.759991 10.45 0.949989V1.26664V2.53332C10.45 2.72331 10.5766 2.84997 10.7666 2.84997C10.9566 2.84997 11.0833 2.72331 11.0833 2.53332V1.68666C11.3421 1.76702 11.5902 1.86527 11.826 1.98015L11.4 4.05337C11.4 4.14837 11.4316 4.27502 11.495 4.33837C11.5583 4.40171 11.6216 4.43337 11.7166 4.43337C11.7483 4.43337 11.7483 4.43337 11.78 4.43337L13.9564 3.97516C14.3494 4.676 14.5666 5.48028 14.5666 6.33335V6.65H14.25H4.75002H4.43337V6.33335H4.43333ZM5.06667 7.28333H13.9333V8.55001C13.9333 9.93081 13.4597 11.1578 12.7485 12.0905L12.73 12.0967C12.6983 12.1283 12.6667 12.16 12.635 12.1917C12.4757 12.4041 12.3075 12.5978 12.1318 12.7724C11.3862 13.4671 10.4968 13.8878 9.6399 13.9295C9.59677 13.911 9.5484 13.9017 9.5 13.9017C9.45133 13.9017 9.40745 13.9112 9.3681 13.9299C8.84353 13.9059 8.30667 13.7396 7.79776 13.4552C7.2822 13.159 6.79721 12.732 6.36496 12.1917C6.33331 12.16 6.30162 12.1283 6.26996 12.0967L6.25148 12.0905C5.54031 11.1578 5.06663 9.93078 5.06663 8.55001V7.28333H5.06667ZM9.01716 14.5369L8.16345 16.4577L7.7455 15.8838L6.42834 14.0601C6.41827 14.05 6.4071 14.04 6.39556 14.0301L6.04835 13.5534L6.175 12.9834C6.21794 13.0296 6.26147 13.0746 6.30543 13.119C7.04882 13.8792 7.97598 14.4099 9.01716 14.5369ZM0.633338 17.3217C0.633338 16.91 0.85499 16.53 1.23502 16.34C3.2535 15.2677 4.70656 14.7295 6.00093 14.5687L7.89064 17.167L7.65073 18.3666H0.633338V17.3217ZM18.3667 18.3667H11.3493L11.1094 17.1671L13.0196 14.5406C14.3094 14.7353 15.7885 15.273 17.765 16.3084C18.145 16.53 18.3667 16.9101 18.3667 17.3217V18.3667Z" fill="#00AEE9"/>
<style>
	.set_img path {
		fill: #00AEE9;
	}
	.set_img:hover path {
		fill: #0077cc;
		transition: 0.3s ease;
		cursor: pointer;
	}
</style>
</svg>
