<svg width="25" height="29" viewBox="0 0 25 29" fill="none" xmlns="http://www.w3.org/2000/svg">
<path d="M20.7571 9.6705C19.8436 9.67693 18.9583 9.98836 18.242 10.5553L8.29027 4.67203C8.29027 4.48575 8.29027 4.29947 8.29027 4.09767C8.28096 3.27735 8.02839 2.47824 7.56454 1.80155C7.10068 1.12485 6.44642 0.601014 5.6846 0.296371C4.92279 -0.00827194 4.08768 -0.0800158 3.28506 0.0902255C2.48243 0.260467 1.74839 0.665035 1.17588 1.25269C0.603381 1.84035 0.218174 2.58467 0.0690465 3.39138C-0.0800811 4.19809 0.0135792 5.0309 0.338166 5.78435C0.662753 6.5378 1.20366 7.17799 1.8924 7.62385C2.58113 8.06971 3.38671 8.30117 4.20711 8.28893C5.11904 8.28812 6.00445 7.98209 6.72221 7.41963L16.674 13.2253C16.674 13.4271 16.674 13.6134 16.674 13.8152C16.6767 14.0963 16.7027 14.3766 16.7516 14.6534L6.53591 21.4371C5.77189 20.9132 4.85438 20.6604 3.92983 20.7189C3.00527 20.7774 2.12696 21.1438 1.43506 21.7598C0.743168 22.3757 0.277572 23.2057 0.112583 24.1171C-0.0524063 25.0286 0.0927217 25.9691 0.524805 26.7884C0.956888 27.6078 1.65102 28.2588 2.49642 28.6376C3.34182 29.0164 4.28976 29.1011 5.18895 28.8782C6.08814 28.6554 6.88675 28.1378 7.45732 27.408C8.02789 26.6783 8.33754 25.7785 8.33685 24.8522C8.36054 24.5733 8.36054 24.2929 8.33685 24.0139L18.506 17.2303C19.0419 17.5988 19.6571 17.836 20.3018 17.9228C20.9464 18.0096 21.6025 17.9434 22.2168 17.7297C22.8312 17.516 23.3866 17.1607 23.8382 16.6926C24.2898 16.2245 24.6249 15.6568 24.8163 15.0352C25.0078 14.4136 25.0503 13.7557 24.9404 13.1147C24.8304 12.4737 24.5712 11.8675 24.1836 11.3452C23.7959 10.8229 23.2908 10.3992 22.709 10.1083C22.1273 9.81733 21.4852 9.66737 20.8348 9.6705H20.7571Z" transform="translate(25) scale(-1 1)" fill="white"/>
</svg>
