<svg width="26" height="26" viewBox="0 0 26 26" fill="none" xmlns="http://www.w3.org/2000/svg">
<path d="M25.0006 4.27804C25.0006 2.03022 23.0239 0 20.8338 0H4.16677C1.97671 0 0 2.03022 0 4.27804V21.3885C0 23.6363 1.97671 25.6665 4.16705 25.6665H12.5003V15.9703H9.44467V11.6925H12.5003V10.0259C12.5003 7.15154 14.6026 4.56293 17.1879 4.56293H20.5561V8.84068H17.1879C16.8193 8.84068 16.3893 9.30011 16.3893 9.98826V11.6925H20.5561V15.9703H16.3893V25.6665H20.8338C23.0239 25.6665 25.0006 23.6363 25.0006 21.3885V4.27804Z" transform="translate(0.398438 0.166504)" fill="#999999"/>
</svg>
