<svg width="48" height="56" viewBox="0 0 48 56" fill="none" xmlns="http://www.w3.org/2000/svg">
<path d="M3.86656 0L0 7.1785L2.78304 20.9316H16.1972V19.2892C16.1973 10.6553 11.1126 3.22263 3.86656 0ZM7.15156 12.0625H3.75042V8.77767H7.15156V12.0625Z" transform="translate(31.8027 35.0681)" fill="white"/>
<path d="M12.3308 0C5.08482 3.22273 0 10.6553 0 19.2894V20.9318H13.4142L16.1972 7.17839L12.3308 0Z" transform="translate(7.23486 35.0681)" fill="white"/>
<path d="M4.9192 0H2.50382L0 12.3736H7.42302L4.9192 0Z" transform="translate(23.9053 43.6265)" fill="white"/>
<path d="M13.4352 0C13.227 0 13.02 0.00557806 12.8139 0.0153124V11.9353H4.41746V17.7568L0 15.314C0.368927 19.0929 2.21218 22.4301 4.92621 24.7053C6.14882 25.7301 7.54777 26.5397 9.0687 27.0765L11.8698 32.277H15.0004L17.8015 27.0765C19.3224 26.5396 20.7215 25.7301 21.944 24.7053C24.9894 22.1524 26.9385 18.2623 26.9385 13.9115C26.9387 6.24072 20.8811 0 13.4352 0Z" transform="translate(14.1831 8.06445)" fill="white"/>
<path d="M0 0V16.7148H8.87346L15.4112 20.33V16.7148H23.8076V0H0ZM17.5723 9.81827H6.23534V6.5333H17.5723V9.81827Z" fill="white"/>
</svg>
