<svg width="25" height="25" viewBox="0 0 25 25" fill="none" xmlns="http://www.w3.org/2000/svg">
<rect width="25" height="25" fill="black" fill-opacity="0"/>
<rect width="25" height="25" fill="black" fill-opacity="0"/>
<rect width="25" height="25" fill="black" fill-opacity="0"/>
<path d="M17.3481 8.22287L8.17806 13.9102C8.01662 14.0103 7.94317 14.2069 7.99951 14.3884L9.22956 18.352C9.2554 18.4353 9.37674 18.4238 9.38651 18.3371L9.68548 15.6794C9.697 15.5767 9.74626 15.482 9.82366 15.4135L17.589 8.54669C17.7749 8.38234 17.559 8.09204 17.3481 8.22287Z" fill="#CCCCCC"/>
<path d="M12.5 0C5.59644 0 0 5.59644 0 12.5V12.5C0 19.4036 5.59644 25 12.5 25V25C19.4036 25 25 19.4036 25 12.5V12.5C25 5.59644 19.4036 0 12.5 0V0ZM20.8392 6.49605L17.9849 20.1423C17.8509 20.7826 17.0999 21.0702 16.5725 20.6831L14.7935 19.3772C13.3415 18.3115 11.3268 18.4756 10.0666 19.7624V19.7624C9.68109 20.156 9.01519 19.9967 8.84957 19.4712L8.59556 18.6652C7.76325 16.0242 5.67167 13.9702 3.01598 13.186V13.186C2.45863 13.0214 2.42577 12.2444 2.96727 12.0334L19.6851 5.51861C20.3214 5.27065 20.979 5.82756 20.8392 6.49605Z" fill="#CCCCCC"/>
</svg>
