<svg width="25" height="25" viewBox="0 0 25 25" fill="none" xmlns="http://www.w3.org/2000/svg">
<rect width="25" height="25" fill="black" fill-opacity="0"/>
<rect width="25" height="25" fill="black" fill-opacity="0"/>
<rect width="25" height="25" fill="black" fill-opacity="0"/>
<path d="M0 12.5C0 19.4036 5.59644 25 12.5 25C19.4036 25 25 19.4036 25 12.5C25 5.59644 19.4036 0 12.5 0C5.59644 0 0 5.59644 0 12.5Z" fill="#CCCCCC"/>
<path d="M19.685 5.51861L2.96715 12.0334C2.42566 12.2444 2.45846 13.0214 3.01587 13.186V13.186C5.67156 13.9702 7.76314 16.0242 8.59545 18.6652L8.84946 19.4712C9.01507 19.9967 9.68098 20.156 10.0665 19.7624V19.7624C11.3267 18.4756 13.3414 18.3114 14.7934 19.3772L16.5724 20.683C17.0998 21.0702 17.8509 20.7826 17.9848 20.1422L20.8391 6.496C20.9789 5.82757 20.3212 5.27066 19.685 5.51861ZM17.589 8.54704L9.82367 15.4139C9.74626 15.4824 9.697 15.5771 9.68548 15.6798L9.38651 18.3375C9.37674 18.4242 9.25546 18.4357 9.22956 18.3524L7.99951 14.3888C7.94317 14.2073 8.01662 14.0107 8.17807 13.9106L17.3481 8.22328C17.559 8.09239 17.7749 8.38269 17.589 8.54704Z" fill="white"/>
</svg>
