<svg class="top_img" width="19" height="19" viewBox="0 0 19 19" xmlns="http://www.w3.org/2000/svg">
<path d="M18.05 15.77c-1.89-1.002-3.34-1.564-4.63-1.78l.133-.183a.246.246 0 0 0 .064-.254l-.297-1.187c.785-1.11 1.247-2.496 1.247-3.816V7.283h.95c.19 0 .316-.126.316-.316s-.126-.317-.316-.317H15.2v-.317c0-2.501-1.647-4.623-4.117-5.32V.95a.953.953 0 0 0-.95-.95H8.867a.953.953 0 0 0-.95.95v.063C5.447 1.71 3.8 3.832 3.8 6.333v.317h-.317c-.19 0-.316.127-.316.317s.126.316.316.316h.95V8.55c0 1.32.462 2.707 1.247 3.816l-.297 1.187c0 .064 0 .19.064.254l.133.183c-1.29.216-2.74.778-4.63 1.78-.602.285-.95.887-.95 1.552v1.361c0 .19.127.317.317.317h18.366c.19 0 .317-.127.317-.317v-1.361c0-.634-.38-1.235-.95-1.552zm-8.74-.293l.192-.431.473 1.04.31.697H8.74l.57-1.306zm-.81 1.94h1.998l.181.95H8.31l.19-.95zm4.325-4.434l.127.57-.324.444a.279.279 0 0 0-.056.063l-1.317 1.824-.419.574-.853-1.921c1.02-.125 1.931-.637 2.667-1.373l.024-.024.006-.006c.05-.05.097-.1.145-.15zm-.413-10.667c.036.023.07.047.105.071.404.301.776.654 1.068 1.033l-1.457.285.284-1.389zm-5.54 1.389L5.415 3.42c.292-.38.664-.732 1.068-1.033a5.04 5.04 0 0 1 .105-.07l.284 1.388zM4.433 6.333c0-.842.212-1.637.596-2.332l2.191.432h.063c.095 0 .159-.031.254-.063a.255.255 0 0 0 .095-.285l-.435-2.116c.229-.11.47-.205.72-.282v.846c0 .19.126.317.316.317s.317-.127.317-.317V.95c0-.158.127-.317.317-.317h1.266c.159 0 .317.127.317.317v1.583c0 .19.127.317.317.317s.316-.127.316-.317v-.846c.26.08.507.178.743.293L11.4 4.053c0 .095.032.222.095.285a.287.287 0 0 0 .222.095h.063l2.176-.458c.393.701.61 1.505.61 2.358v.317H4.434v-.317zm.634.95h8.866V8.55c0 1.38-.473 2.608-1.184 3.54l-.019.007-.095.095c-.16.212-.328.406-.503.58-.746.695-1.635 1.116-2.492 1.158a.357.357 0 0 0-.14-.028.303.303 0 0 0-.132.028 3.58 3.58 0 0 1-1.57-.475c-.516-.296-1-.723-1.433-1.263a77.353 77.353 0 0 0-.095-.095l-.019-.006A5.834 5.834 0 0 1 5.067 8.55V7.283zm3.95 7.254l-.854 1.92-.418-.573-1.317-1.824a.577.577 0 0 0-.032-.03l-.348-.477.127-.57c.043.047.086.092.13.136.744.76 1.671 1.29 2.712 1.418zM.633 17.322c0-.412.222-.792.602-.982 2.018-1.072 3.472-1.61 4.766-1.771l1.89 2.598-.24 1.2H.633v-1.045zm17.734 1.045h-7.018l-.24-1.2 1.91-2.626c1.29.194 2.77.732 4.746 1.767.38.222.602.602.602 1.014v1.045z" fill="#000"/>
<style>
.top_img path{
	fill: black;
	transition:.3s ease;
}
.top_img:hover {
	cursor:pointer;
}
.top_img:hover path{
	fill: #ffba24;
	transition:.3s ease;
}
.set__services_item .top_img {
	fill: #00AEE9;
}
.set__services_item .top_img path {
	fill: #00AEE9;
}
.set__services_item .top_img:hover path {
	fill: #0077CC;
}
</style>
</svg>