<svg width="20" height="13" viewBox="0 0 20 13" fill="none" xmlns="http://www.w3.org/2000/svg">
<rect width="20" height="13" fill="white"/>
<path d="M9.75019 12.938H10.9477C10.9477 12.938 11.3085 12.8933 11.4927 12.668C11.6677 12.4578 11.6677 12.0689 11.6677 12.0689C11.6677 12.0689 11.6419 10.2365 12.3919 9.9674C13.131 9.70019 14.0686 11.7361 15.0677 12.5187C15.8311 13.1168 16.4052 12.9884 16.4052 12.9884L19.0811 12.9466C19.0811 12.9466 20.4828 12.8467 19.8203 11.5906C19.7694 11.4907 19.4444 10.6635 17.8444 8.96609C16.1677 7.19646 16.3927 7.48173 18.4077 4.41411C19.6319 2.54558 20.1328 1.40354 19.9703 0.918582C19.8319 0.462148 18.9202 0.575306 18.9202 0.575306L15.9186 0.604784C15.9186 0.604784 15.6936 0.575305 15.5311 0.690365C15.3686 0.803523 15.2694 1.06217 15.2694 1.06217C15.2694 1.06217 14.7927 2.5161 14.1561 3.74372C12.8035 6.33874 12.266 6.48138 12.0535 6.31021C11.5502 5.93841 11.6794 4.80778 11.6794 3.99761C11.6794 1.48627 12.016 0.431719 11.0285 0.160711C10.7035 0.0741787 10.461 0.0180754 9.62436 0.0028609C8.54935 -0.0104518 7.64268 0.0123698 7.12851 0.298592C6.79101 0.491626 6.52851 0.918582 6.67934 0.940453C6.87934 0.96898 7.32851 1.07929 7.56602 1.45109C7.87852 1.93225 7.86518 3.00677 7.86518 3.00677C7.86518 3.00677 8.04102 5.96979 7.45351 6.33779C7.04101 6.58693 6.49101 6.07154 5.291 3.7171C4.6785 2.51896 4.21516 1.17818 4.21516 1.17818C4.21516 1.17818 4.12766 0.934748 3.966 0.792112C3.77683 0.635213 3.50183 0.578158 3.50183 0.578158L0.63931 0.606685C0.63931 0.606685 0.214307 0.6219 0.0651398 0.834903C-0.0731943 1.02033 0.0518064 1.41971 0.0518064 1.41971C0.0518064 1.41971 2.29015 7.39805 4.8285 10.4086C7.15351 13.1681 9.79186 12.9903 9.79186 12.9903L9.75019 12.938V12.938Z" fill="#6383A8"/>
</svg>
