<svg class="method-ico" xmlns="http://www.w3.org/2000/svg" viewBox="0 0 328.57 114.61"><title>Ресурс 89</title><g id="Слой_2" data-name="Слой 2"><g id="_1" data-name="1"><path d="M328.45,62.35c-.43-2.51-2.55-4-5.61-4.05-.94,0-1.88.08-2.8,0-1.81-.18-2.28.42-2.27,1.85.09,7,.06,14.05,0,21.06,0,3.68-3.61,7.46-7.92,8.41-13.39,2.94-26.77,5.93-40.17,8.84a21.29,21.29,0,0,1-4.63.48,2.58,2.58,0,0,1-1.88-1c-.19-.33.4-1.13.86-1.54a7.28,7.28,0,0,1,2.19-1.16c2.45-.88,4.95-1.67,7.43-2.5,9.95-3.31,19.91-6.57,29.84-9.9,4.47-1.51,6.89-4.5,7-8.27.22-12.21.11-24.42.06-36.64a4.49,4.49,0,0,0-3.31-4.39c-2.65-1-5-.19-7.29.9q-21.1,10.08-42.22,20.12c-4.14,2-6.45,4.84-6.43,8.91,0,11.54,0,23.07,0,34.61a5.52,5.52,0,0,0,.24,1.71c1.39,3.92,5,6.17,9.95,6.17,9.9,0,19.84,0,29.75,0s19.71,0,29.59,0a8.67,8.67,0,0,0,5.72-1.76c2.08-1.68,2-3.81,2-5.93,0-11.25,0-22.48,0-33.75A11.12,11.12,0,0,0,328.45,62.35Zm-41.17-3.6c1-2.59,3.17-4.21,6.49-4.63a3.85,3.85,0,0,1,4.43,3.06c.47,3-3.34,6.6-7.11,6.59C287.94,63.77,286.19,61.56,287.28,58.75Z"/><path d="M51,14.11V24.68H43.05V14.07H38.91V40.24h4.26V28.52H51V40.25H55.2V14.11Z"/><path d="M156.21,86.12c-1.25-6.22-6-10-13.52-10.62-3-.22-6,0-9.2,0V58.91H127v46c4.78,0,9.39.27,13.94-.07,6.82-.51,12-3.22,14.46-8.79A16.27,16.27,0,0,0,156.21,86.12Zm-10,7c-1.2,5.09-6.41,7.48-12.69,6,0-5.65,0-11.21.05-16.78,0-.37.65-1,1.11-1.06,6.28-1.33,10.48.76,11.57,6A14,14,0,0,1,146.23,93.1Z"/><path d="M28.82,0H22a11.62,11.62,0,0,0-8.06,2.93c-7.52,6.65-5.55,19.29,4.45,22L8.18,40.28c1.43,0,2.52-.08,3.6,0a2.6,2.6,0,0,0,2.8-1.39c2.5-4.06,5.16-8.07,7.76-12.1,1.2-1.85,1.35-1.9,4.17-1.36v14.7H31.3V2C31.3,0,31.3,0,28.82,0ZM26.38,21.24c-3.26,0-6.66.77-9.15-1.67A9,9,0,0,1,14.63,10c.09-.28.23-.55.34-.82C17.08,4.32,19.88,3,26.38,3.78Z"/><path d="M147.3,36.48c-7.1,2.37-12,.23-13.28-6a16.9,16.9,0,0,1,.73-9.56c1.58-4.27,4.72-5.54,9.94-4.13a1.07,1.07,0,0,0,.4,0c.53-.65,1.06-1.33,1.65-2.06-4.32-2.83-10.23-2.15-13.44,1.42a15.45,15.45,0,0,0-3.77,9.31c-.36,3.85.12,7.58,2.66,11a11.57,11.57,0,0,0,12,4.09C147.59,39.71,148,39.36,147.3,36.48Z"/><path d="M34.85,99.5V58.92H10.6c-.33,6.89-.49,13.66-1,20.43A50.4,50.4,0,0,1,5.09,96.89c-.87,1.87-1.92,3.1-4.6,2.65A1.17,1.17,0,0,0,0,99.7v14.89H7.24v-9.83H33.45v9.85h7V99.5Zm-7.86,0H11.13c1.35-3.39,3-6.72,4-10.18,2-7,2-14.09,2.05-21.21,0-1.1,0-2.21,0-3.42H27C27,76.16,27,87.71,27,99.45Z"/><path d="M103,36.83c-1.22.36-2.4.79-3.63,1-3.44.69-5.89-.07-7.19-2.23-1.54-2.53-1.46-5.25-1.37-8.1h13c.29-4.26-.24-8.25-2.93-11.87a6.55,6.55,0,0,0-9.74-1.08,12.66,12.66,0,0,0-3,3.5,17.89,17.89,0,0,0-2.31,11.23,25.06,25.06,0,0,0,2,7.11c1.49,3.32,4.93,5,8.9,4.6a25.47,25.47,0,0,0,5.65-1.37C104.31,39,104.36,38.32,103,36.83Zm-10-19.18a3.08,3.08,0,0,1,5.16.14c1.45,2.11,1.62,4.44,1.56,6.88h-9A11.67,11.67,0,0,1,92.93,17.65Z"/><path d="M114.88,59.78c-.28-.34-.63-.86-1-.87-2.13-.09-4.28-.06-6.64-.06V77.77H93.39V58.89H86v46.2h7.49v-1.8c0-5.4,0-10.76,0-16.15,0-3,0-3,3.54-3H107.3v20.94h7.51c0-.51.09-1,.09-1.36V60.34C114.9,60.15,115,59.9,114.88,59.78Z"/><path d="M119,24.34c2.59-3,5.06-6,7.57-9,.31-.36.57-.75,1-1.31a15.69,15.69,0,0,1-1.73,0,3.8,3.8,0,0,0-3.95,1.66c-2.2,2.89-4.65,5.65-7,8.45-.26.32-.6.59-1.24,1.22V14.08h-4.09V39.62h4.15c0-3-.07-6,0-9a15,15,0,0,1,.78-3.06A4.35,4.35,0,0,1,116,29c2.13,3.21,4.24,6.42,6.4,9.6.28.42.76,1,1.21,1.05a32.11,32.11,0,0,0,4,.06c-3-4.57-5.8-8.88-8.66-13.17A1.52,1.52,0,0,1,119,24.34Z"/><path d="M217.35,58.76A1.92,1.92,0,0,0,215.18,60c-2.9,6.39-5.88,12.74-8.83,19.11-1.29,2.78-2.63,5.57-3.93,8.35l-.36,0V58.87h-7.48v46.28h7.35q7-15.12,14-30.42v30.39h8.44V58.79C222,58.79,219.67,58.86,217.35,58.76Z"/><path d="M75.75,98.5c-2.3.71-4.36,1.52-6.55,2-7.09,1.45-11.72-.51-13.74-5.65-1.56-3.95-1.5-8-1.57-12.33H77c-.32-3.59-.36-7.08-1-10.46a22.07,22.07,0,0,0-5.84-11.72c-3-3-6.6-3.89-11.09-2.67a14.87,14.87,0,0,0-9.43,7.67A34.88,34.88,0,0,0,47.88,96.6,14.22,14.22,0,0,0,55,104.36c6.11,3,16,2,22.18-2.37ZM57.39,65.73a5.47,5.47,0,0,1,5-2.67,5.57,5.57,0,0,1,4.75,3c2.12,3.64,2.47,7.53,2.45,11.58H53.67C54.07,73.35,54.82,69.34,57.39,65.73Z"/><path d="M79.23,36.76V14.07H65.55c0,1.7.06,3.23,0,4.76-.23,5.33-.42,10.67-2.64,15.77-.55,1.26-1,2.6-3.08,2.32v8.24h3.94V39.81H78.58v5.32h3.73V36.88Zm-4.32,0H65.7c4-6.19,3.45-12.83,3.74-19.47h5.47Z"/><path d="M163.13,58.86c0,15.49,0,30.87,0,46.25H170V63.51h20.84V58.86Z"/></g></g>
<style>
	.method-ico {
		fill: #f90;
	}
</style>
</svg>